<svg width="328" height="248" viewBox="0 0 328 248" fill="none" xmlns="http://www.w3.org/2000/svg">
<g clip-path="url(#clip0_3_5682)">
<path d="M226.751 187.619C224.903 187 223.252 185.903 221.965 184.441C220.677 182.978 219.799 181.201 219.419 179.29L213.97 152.319L167.353 153.974L161.613 182.077C160.81 186.012 164.027 189.96 167.73 191.409L187.234 199.042C190.858 200.461 194.759 201.027 198.637 200.695L239.855 197.169C240.442 197.116 240.992 196.863 241.414 196.45C241.835 196.038 242.101 195.493 242.166 194.907C242.307 193.692 243.151 192.327 242.001 191.947L226.751 187.619Z" fill="#97A6B7"/>
<path d="M227.211 185.984C225.373 185.381 223.728 184.304 222.441 182.86C221.155 181.416 220.274 179.658 219.886 177.763L214.442 151.132L168.964 152.762L163.233 180.506C162.845 182.388 163.137 184.346 164.056 186.033C164.976 187.72 166.463 189.027 168.255 189.72L187.739 197.255C191.363 198.657 195.258 199.215 199.13 198.887L240.306 195.406C240.89 195.356 241.439 195.106 241.859 194.698C242.28 194.291 242.547 193.75 242.615 193.168C242.683 192.586 242.547 191.999 242.232 191.505C241.916 191.012 241.44 190.642 240.883 190.46L227.211 185.984Z" fill="url(#paint0_linear_3_5682)"/>
<path d="M301.654 133.569V12.6302C301.654 10.1501 299.61 8.03909 297.106 7.93833L89.3298 -0.414001C86.1679 -0.541501 83.5717 1.64246 83.5717 4.44131V138.097L301.654 133.569Z" fill="url(#paint1_linear_3_5682)"/>
<path d="M292.624 13.9792L95.2398 6.61501C92.3607 6.51218 90.004 8.50798 90.004 11.0611V127.447C90.004 130.053 92.4121 132.117 95.3508 132.033L292.543 126.425C294.897 126.358 296.818 124.402 296.818 122.077V18.2793C296.811 15.9976 294.93 14.0635 292.624 13.9792Z" fill="url(#paint2_linear_3_5682)"/>
<path d="M83.5735 138.097V164.79C83.5735 167.588 86.1677 169.768 89.3316 169.634L297.107 160.85C299.612 160.747 301.655 158.628 301.655 156.149V132.793L83.5735 138.097Z" fill="url(#paint3_linear_3_5682)"/>
<g style="mix-blend-mode:soft-light" opacity="0.48">
<path d="M279.15 117.955C262.081 112.191 247.966 123.948 235.7 114.691C221.871 104.255 233.048 84.2064 220.257 72.3951C202.487 55.9866 166.959 81.4323 151.53 65.9635C140.921 55.3285 153.435 38.3041 144.452 20.3923C139.885 11.2873 131.331 5.07676 120.938 0.856893L89.3298 -0.414001C86.1679 -0.541501 83.5717 1.64246 83.5717 4.44131V164.79C83.5717 167.588 86.1659 169.768 89.3298 169.634L297.106 160.85C299.61 160.747 301.654 158.628 301.654 156.149V138.891C294.337 125.955 286.26 120.357 279.15 117.955Z" fill="white"/>
</g>
<mask id="mask0_3_5682" style="mask-type:luminance" maskUnits="userSpaceOnUse" x="26" y="9" width="126" height="131">
<path d="M149.77 127.287L127.48 139.771C127.48 139.771 116.88 130.687 117.824 119.558C119.748 96.8517 99.7271 96.7509 91.3471 95.4543C78.7111 93.5007 68.4278 86.265 78.9342 74.7241C89.4407 63.1833 65.2464 50.4332 44.3856 50.2173C23.967 50.0044 12.5629 13.5906 56.7933 9.99178C83.2076 7.84277 92.3989 31.9774 99.9379 43.0618C107.477 54.1461 125.346 45.4041 127.386 62.9601C129.134 77.9548 124.47 92.2113 136.496 96.4558C148.522 100.7 154.532 109.647 149.77 127.287Z" fill="white"/>
</mask>
<g mask="url(#mask0_3_5682)">
<path d="M149.77 127.287L127.48 139.771C127.48 139.771 116.88 130.687 117.824 119.558C119.748 96.8517 99.727 96.7509 91.3469 95.4543C78.711 93.5007 69.8641 86.7832 77.2016 75.1036C85.5035 61.8877 65.2463 50.4332 44.3835 50.2203C23.9669 50.0044 12.5628 13.5906 56.7932 9.99178C83.2075 7.84277 92.3988 31.9774 99.9378 43.0618C107.477 54.1461 125.345 45.4041 127.385 62.9601C129.133 77.9548 124.469 92.2113 136.496 96.4558C148.522 100.7 154.532 109.647 149.77 127.287Z" fill="url(#paint4_linear_3_5682)"/>
<g style="mix-blend-mode:soft-light" opacity="0.5">
<path d="M141.282 134.759L140.768 134.933C140.665 134.618 129.733 103.008 109.451 74.9389C90.7668 49.0799 60.0885 21.0205 20.045 34.2014L19.8763 33.6873C37.7018 27.8202 55.1848 29.4952 71.8391 38.666C85.1434 45.9921 97.9469 58.0924 109.895 74.6294C130.223 102.766 141.173 134.443 141.282 134.759Z" fill="#BEB8F2"/>
<path d="M78.6358 42.8006L78.136 43.0062C71.3672 26.3787 53.0821 7.61753 52.8981 7.43039L53.2826 7.052C53.4677 7.2412 71.8268 26.0774 78.6358 42.8006Z" fill="#BEB8F2"/>
<path d="M67.3748 36.993C46.0071 35.9956 33.8544 49.0233 33.7392 49.1518L33.3413 48.7878C33.4626 48.6542 45.7706 35.4445 67.4005 36.449L67.3748 36.993Z" fill="#BEB8F2"/>
<path d="M121.714 94.0117C104.028 74.7724 70.8058 86.2311 70.4912 86.3699L70.2413 85.8918C70.5375 85.7262 104.268 74.2367 122.111 93.6467L121.714 94.0117Z" fill="#BEB8F2"/>
<path d="M116.594 84.5292L116.08 84.6917C111.066 68.788 121.028 50.3323 121.13 50.1431L121.602 50.4022C121.501 50.5893 111.649 68.8476 116.594 84.5292Z" fill="#BEB8F2"/>
<path d="M138.94 129.998C133.424 121.742 117.267 121.809 117.104 121.811L117.098 121.272C117.773 121.265 133.71 121.199 139.388 129.697L138.94 129.998Z" fill="#BEB8F2"/>
<path d="M136.456 122.477L135.947 122.658C133.318 115.261 139.311 102.026 141.281 97.6721C141.559 97.0552 141.795 96.5267 141.823 96.4238L142.35 96.54C142.317 96.685 142.159 97.0387 141.771 97.8942C139.825 102.199 133.901 115.286 136.456 122.477Z" fill="#BEB8F2"/>
</g>
</g>
<path d="M147.433 175.732L147.844 175.781C156.012 176.725 165.106 176.313 175.11 173.724L180.853 171.8C181.104 166.727 180.436 161.856 174.018 161.827C164.05 161.78 159.091 145.733 159.931 139.294C160.959 131.325 162.991 112.719 147.584 112.405C134.757 112.142 126.426 114.596 121.158 99.7276C115.891 84.8593 104.875 77.8571 91.4364 82.7844C77.2941 87.9697 59.8255 72.2522 49.8958 82.1458C32.5999 99.3852 61.0398 127.2 88.9111 129.486C116.782 131.771 105.074 145.012 108.036 157.578C112.077 174.73 133.839 164.414 141.817 169.273C144.522 170.922 146.284 173.245 147.433 175.732Z" fill="url(#paint5_linear_3_5682)"/>
<mask id="mask1_3_5682" style="mask-type:luminance" maskUnits="userSpaceOnUse" x="44" y="78" width="138" height="108">
<path d="M149.503 185.23L180.85 175.746C181.334 170.756 181.189 161.865 174.02 161.83C164.052 161.783 159.093 145.736 159.933 139.297C160.961 131.328 162.993 112.722 147.586 112.408C134.759 112.145 126.428 114.599 121.161 99.7306C115.893 84.8624 104.877 77.8601 91.4385 82.7874C77.2962 87.9728 59.8276 72.2552 49.8979 82.1489C32.602 99.3882 61.0419 127.203 88.9131 129.489C116.784 131.774 105.076 145.015 108.038 157.581C112.079 174.733 133.841 164.417 141.819 169.276C148.075 173.086 149.306 180.518 149.503 185.23Z" fill="white"/>
</mask>
<g mask="url(#mask1_3_5682)">
<g style="mix-blend-mode:soft-light" opacity="0.5">
<path d="M162.771 175.833L163.398 175.501C139.062 129.676 92.6044 95.8861 42.1563 87.3188L42.037 88.0181C92.2733 96.5503 138.536 130.199 162.771 175.833Z" fill="#FCFDFE"/>
<path d="M147.363 151.986L148.043 151.781C142.224 132.237 154.418 112.022 154.542 111.82L153.938 111.449C153.811 111.656 141.452 132.135 147.363 151.986Z" fill="#FCFDFE"/>
<path d="M158.065 167.526L158.567 167.024C143.966 152.388 107.232 160.64 106.862 160.725L107.021 161.417C107.387 161.333 143.742 153.168 158.065 167.526Z" fill="#FCFDFE"/>
<path d="M110.599 116.846L111.143 116.39C100.594 103.832 103.399 78.841 103.432 78.5901L102.727 78.5068C102.693 78.7608 99.8554 104.057 110.599 116.846Z" fill="#FCFDFE"/>
<path d="M82.0692 100.357L82.2522 99.6709C64.2016 94.8382 42.1121 107.055 41.891 107.177L42.2385 107.794C42.4565 107.675 64.2993 95.6022 82.0692 100.357Z" fill="#FCFDFE"/>
</g>
</g>
<path d="M296.811 221.779L54.6812 219.67V225.909C54.6812 227.603 55.7371 229.043 57.1674 229.302L125.634 241.59C126.445 241.735 127.27 241.774 128.091 241.705L294.18 227.696C295.663 227.571 296.811 226.126 296.811 224.386V221.779Z" fill="url(#paint6_linear_3_5682)"/>
<path d="M218.866 211.664L57.3465 223.077C54.4562 223.283 52.1025 221.111 52.1025 218.229V102.759C52.1061 101.371 52.6605 100.042 53.6439 99.0633C54.6273 98.0846 55.9591 97.5364 57.3465 97.5394H218.866C221.248 97.5394 223.173 99.6514 223.173 102.257V206.642C223.173 209.248 221.248 211.495 218.866 211.664Z" fill="url(#paint7_linear_3_5682)"/>
<path d="M221.442 211.664L59.9222 223.077C57.0318 223.283 54.6782 221.111 54.6782 218.229V102.759C54.6818 101.371 55.2362 100.042 56.2196 99.0633C57.2029 98.0846 58.5348 97.5364 59.9222 97.5394H221.442C223.823 97.5394 225.748 99.6514 225.748 102.257V206.642C225.748 209.248 223.823 211.495 221.442 211.664Z" fill="url(#paint8_linear_3_5682)"/>
<path d="M216.41 204.305L65.9714 214.22C63.6188 214.374 61.7073 212.594 61.7073 210.241V109.148C61.7092 108.017 62.1586 106.932 62.9575 106.13C63.7564 105.329 64.8398 104.876 65.9714 104.871L216.41 104.248C218.375 104.239 219.964 105.971 219.964 108.114V200.191C219.965 202.333 218.375 204.175 216.41 204.305Z" fill="url(#paint9_linear_3_5682)"/>
<path d="M146.386 100.702C146.386 101.775 145.554 102.648 144.528 102.656C143.502 102.664 142.666 101.789 142.666 100.715C142.666 99.6402 143.5 98.7672 144.528 98.761C145.556 98.7548 146.386 99.6288 146.386 100.702Z" fill="white"/>
<path d="M217.411 211.146L54.6812 223.161L125.634 235.894C126.445 236.04 127.27 236.079 128.091 236.01L296.811 221.779L220.002 211.228C219.144 211.11 218.275 211.082 217.411 211.146Z" fill="url(#paint10_linear_3_5682)"/>
<path style="mix-blend-mode:multiply" opacity="0.3" d="M78.4263 223.463L213.904 213.311L255.833 219.024L121.523 229.876L78.4263 223.463Z" fill="url(#paint11_linear_3_5682)"/>
<g style="mix-blend-mode:soft-light" opacity="0.48">
<path d="M182.526 179.996C170.075 173.296 160.284 181.785 150.834 173.409C145.106 168.33 147.918 164.544 140.87 156.957C133.063 148.551 127.98 151.377 120.134 143.812C110.213 134.249 115.175 126.806 106.63 119.939C96.2629 111.61 85.0829 119.322 75.2139 111.329C70.9581 107.883 68.623 102.873 67.3994 97.5447H57.7474C56.9346 97.5444 56.155 97.8669 55.58 98.4414C55.005 99.0158 54.6817 99.795 54.6812 100.608V220.299C54.6758 220.693 54.7531 221.084 54.9083 221.447C55.0634 221.809 55.2929 222.135 55.5819 222.403C55.8709 222.672 56.2129 222.876 56.5859 223.004C56.9589 223.132 57.3546 223.18 57.7474 223.145L222.367 211.46C223.175 211.403 223.891 210.931 224.351 210.247C212.301 209.808 204.898 205.768 200.165 201.593C190.903 193.423 192.511 185.367 182.526 179.996Z" fill="white"/>
</g>
<path d="M292.419 138.048V210.341C292.419 211.422 291.494 211.667 290.452 211.716L255.475 214.01L254.96 214.034C254.707 214.044 254.455 214.002 254.219 213.911C253.982 213.82 253.767 213.682 253.586 213.505C253.405 213.327 253.263 213.115 253.167 212.88C253.071 212.646 253.024 212.394 253.029 212.141V139.227C253.029 138.136 253.898 137.219 254.96 137.187L255.663 137.167L290.78 137.753C291.822 137.723 292.419 136.966 292.419 138.048Z" fill="url(#paint12_linear_3_5682)"/>
<path d="M293.538 137.979V210.325C293.538 211.407 292.682 212.331 291.635 212.382L256.023 214.027C255.769 214.037 255.516 213.995 255.28 213.904C255.043 213.813 254.828 213.674 254.647 213.497C254.466 213.319 254.323 213.107 254.227 212.872C254.131 212.637 254.084 212.385 254.089 212.132V139.161C254.089 138.07 254.959 137.151 256.023 137.12L291.632 136.068C292.682 136.038 293.538 136.897 293.538 137.979Z" fill="url(#paint13_linear_3_5682)"/>
<path d="M292.352 142.026V208.995C292.352 210.004 291.553 210.866 290.577 210.91L257.089 212.442C256.853 212.452 256.617 212.413 256.397 212.328C256.176 212.243 255.975 212.114 255.806 211.948C255.637 211.783 255.504 211.585 255.415 211.366C255.326 211.147 255.282 210.912 255.286 210.676V143.168C255.286 142.15 256.098 141.294 257.089 141.263L290.577 140.244C291.557 140.214 292.352 141.016 292.352 142.026Z" fill="url(#paint14_linear_3_5682)"/>
<path d="M274.564 138.765C274.565 138.945 274.497 139.119 274.374 139.25C274.25 139.381 274.081 139.459 273.901 139.468C273.814 139.47 273.727 139.454 273.646 139.421C273.565 139.388 273.491 139.34 273.429 139.278C273.367 139.216 273.318 139.142 273.286 139.061C273.253 138.98 273.237 138.893 273.239 138.806C273.238 138.626 273.306 138.453 273.429 138.322C273.553 138.191 273.722 138.113 273.901 138.104C273.989 138.102 274.076 138.118 274.157 138.151C274.238 138.183 274.312 138.232 274.374 138.294C274.435 138.355 274.484 138.429 274.517 138.51C274.549 138.591 274.565 138.678 274.564 138.765Z" fill="#DE8BDF"/>
<g style="mix-blend-mode:soft-light" opacity="0.48">
<path d="M281.967 179.895C278.721 171.732 269.968 173.66 267.241 165.41C265.016 158.676 269.966 154.73 268.029 146.934C266.941 142.559 264.266 139.308 261.531 136.96L256.109 137.119C255.578 137.139 255.076 137.362 254.706 137.742C254.335 138.122 254.125 138.63 254.119 139.16V212.062C254.119 213.152 255.016 213.95 256.109 213.835L283.39 210.97C281.201 207.519 280.321 204.366 280.01 201.747C278.882 192.219 284.949 187.373 281.967 179.895Z" fill="white"/>
</g>
<path d="M193.657 181.995C190.667 182.091 187.712 181.327 185.143 179.794C177.373 175.135 165.891 167.443 155.561 157.373C142.453 144.596 134.922 131.607 133.275 118.853L133.249 118.653L132.93 64.2309C132.93 53.4756 139.944 44.7449 153.115 39.0084C163.997 34.2682 178.42 31.9198 193.657 32.3609C208.717 32.7968 222.653 35.9042 232.965 41.0813C245.226 47.2363 251.66 55.8878 251.66 66.1403L251.368 118.141L251.344 118.332C249.838 130.546 242.912 143.17 230.662 155.936C220.838 166.176 209.739 174.291 202.115 179.318C199.6 180.98 196.671 181.907 193.657 181.995Z" fill="url(#paint15_linear_3_5682)"/>
<path d="M196.645 181.995C193.691 182.09 190.773 181.325 188.245 179.794C180.576 175.135 169.246 167.443 159.053 157.373C146.119 144.595 138.687 131.607 137.061 118.853L137.036 118.653L136.72 64.2309C136.72 53.4756 143.643 44.7449 156.64 39.0084C167.378 34.2682 181.609 31.9198 196.645 32.3609C211.506 32.7968 225.257 35.9042 235.434 41.0813C247.533 47.2363 253.882 55.8878 253.882 66.1403L253.594 118.141L253.57 118.332C252.084 130.546 245.247 143.17 233.162 155.936C223.469 166.176 212.515 174.291 204.988 179.318C202.514 180.977 199.623 181.905 196.645 181.995Z" fill="url(#paint16_linear_3_5682)"/>
<path d="M140.314 64.27L140.631 118.418C144.195 146.044 176.664 168.412 190.809 176.911C194.86 179.346 200.04 179.201 204.062 176.554C217.907 167.443 248.598 144.506 251.875 117.945L252.166 66.0879C252.164 27.6125 140.314 24.0959 140.314 64.27Z" fill="url(#paint17_linear_3_5682)"/>
<path d="M197.446 168.565C197.078 168.574 196.714 168.478 196.398 168.287C190.576 164.761 179.289 157.376 169.47 147.732C158.864 137.313 152.747 127.183 151.343 117.67L151.035 64.4201C151.047 59.3109 155.092 54.9378 163.02 51.4387C171.871 47.5314 184.44 45.4832 197.448 45.7917C210.327 46.1001 222.529 48.6902 230.982 52.8865C238.459 56.5963 242.24 60.9704 242.252 65.9029L241.963 117.314C240.653 126.52 234.912 136.445 224.831 146.877C215.354 156.687 204.282 164.46 198.495 168.243C198.182 168.446 197.819 168.557 197.446 168.565Z" fill="url(#paint18_linear_3_5682)"/>
<path d="M217.158 95.6106L177.563 95.9622C174.519 95.99 172.04 98.3621 172.04 101.261V126.63C172.04 129.509 174.507 131.745 177.543 131.621L216.999 130.005C219.805 129.891 222.082 127.567 222.096 124.814L222.22 100.579C222.235 97.81 219.975 95.5849 217.158 95.6106Z" fill="url(#paint19_linear_3_5682)"/>
<path d="M202.779 110.158C202.788 107.356 200.383 105.141 197.446 105.325C194.847 105.49 192.69 107.587 192.544 110.11C192.49 111.027 192.702 111.94 193.155 112.74C193.608 113.539 194.282 114.191 195.097 114.616C195.426 114.796 195.689 115.076 195.849 115.415C196.008 115.754 196.056 116.135 195.984 116.503L194.841 122.912C194.695 123.728 195.342 124.445 196.194 124.415L199.091 124.313C199.938 124.284 200.581 123.525 200.442 122.723L199.334 116.373C199.203 115.615 199.592 114.863 200.279 114.451C201.772 113.557 202.774 111.959 202.779 110.158Z" fill="url(#paint20_linear_3_5682)"/>
<path d="M216.603 93.0935C216.323 93.098 216.045 93.0467 215.785 92.9427C215.525 92.8388 215.288 92.6841 215.089 92.4877C214.889 92.2914 214.73 92.0573 214.622 91.7991C214.514 91.5408 214.458 91.2636 214.457 90.9835L214.481 85.4568C214.506 79.9043 209.917 75.3411 204.199 75.2845L191.277 75.156C185.358 75.0974 180.492 79.7121 180.487 85.4383V91.1388C180.487 92.349 179.458 93.3372 178.181 93.3454C176.904 93.3536 175.87 92.3758 175.871 91.1604V85.4352C175.871 77.2515 182.843 70.6801 191.287 70.7983L204.217 70.9772C212.34 71.0903 218.828 77.5919 218.791 85.4599L218.765 90.964C218.757 91.5319 218.526 92.0738 218.121 92.4723C217.717 92.8709 217.171 93.0941 216.603 93.0935Z" fill="url(#paint21_linear_3_5682)"/>
<path d="M134.398 120.716C134.818 120.119 135.207 119.501 135.564 118.865C135.966 118.099 134.986 115.977 134.554 114.205C134.123 112.433 133.899 115.196 133.845 115.822C133.79 116.449 133.784 117.604 133.136 119.589L134.398 120.716Z" fill="url(#paint22_linear_3_5682)"/>
<path d="M129.488 227.205L129.191 231.954C129.191 231.954 129.866 232.668 131.163 232.171L132.58 227.507L129.488 227.205Z" fill="url(#paint23_linear_3_5682)"/>
<path d="M130.082 230.697C130.082 230.697 127.757 231.646 128.208 232.674C128.451 233.226 129.29 234.474 130.015 235.511C130.342 235.979 130.808 236.333 131.348 236.521C131.887 236.709 132.473 236.723 133.02 236.56C133.396 236.447 133.781 236.337 134.122 236.251C134.276 236.212 134.412 236.124 134.511 236.001C134.611 235.878 134.668 235.726 134.675 235.568C134.682 235.41 134.637 235.254 134.549 235.124C134.46 234.993 134.331 234.894 134.182 234.841C133.874 234.728 133.556 234.642 133.232 234.584C132.381 234.453 131.208 232.442 131.073 231.635C130.937 230.829 130.082 230.697 130.082 230.697Z" fill="url(#paint24_linear_3_5682)"/>
<path d="M124.492 181.622C127.918 182.805 140.587 187.593 143.412 198.578C143.562 199.164 143.948 200.795 143.966 203.459C144.039 214.545 137.591 223.929 132.902 229.388L128.467 229.314C127.73 226.484 127.052 222.252 128.112 217.489C129.735 210.211 133.942 208.323 133.13 204.75C131.657 198.263 116.593 199.244 115.173 193.44C114.659 191.337 115.785 187.776 124.492 181.622Z" fill="url(#paint25_linear_3_5682)"/>
<path d="M82.1175 248L88.5502 247.85C88.6375 247.848 88.7221 247.819 88.7926 247.767C88.8632 247.716 88.9163 247.644 88.9449 247.562C88.9736 247.479 88.9763 247.39 88.9528 247.306C88.9293 247.221 88.8807 247.147 88.8134 247.091C88.6453 246.942 88.4484 246.829 88.2348 246.76C88.0213 246.691 87.7957 246.667 87.5723 246.689C86.3487 246.816 83.6044 245.104 82.3592 245.472C81.9479 245.592 81.6209 246.549 81.4523 246.809C81.3755 246.927 81.3324 247.063 81.3276 247.204C81.3228 247.344 81.3565 247.483 81.425 247.606C81.4935 247.728 81.5942 247.83 81.7163 247.899C81.8384 247.969 81.9771 248.003 82.1175 248Z" fill="url(#paint26_linear_3_5682)"/>
<path d="M85.0081 243.057L82.3594 245.472C82.6923 245.688 83.0652 245.834 83.4558 245.901C83.8465 245.969 84.2468 245.958 84.6328 245.867L87.3401 244.003L85.0081 243.057Z" fill="url(#paint27_linear_3_5682)"/>
<g style="mix-blend-mode:color-burn" opacity="0.3">
<path d="M135.855 210.228C137.632 205.431 139.762 199.516 137.33 196.158C134.867 192.759 129.472 195.628 124.059 192.89C122.051 191.874 119.988 190.056 118.272 186.765C115.234 189.903 114.821 192.009 115.169 193.436C116.589 199.244 131.653 198.268 133.126 204.746C133.937 208.319 129.733 210.207 128.108 217.485C127.196 221.579 127.571 225.279 128.162 228.036C128.72 225.291 129.592 222.619 130.76 220.074C132.705 215.872 133.986 215.281 135.855 210.228Z" fill="url(#paint28_linear_3_5682)"/>
</g>
<path d="M126.455 180.237C123.398 194.315 117.731 207.696 109.746 219.687C103.548 228.968 96.0318 237.296 87.4334 244.41C86.1469 244.798 84.762 244.692 83.5498 244.112C84.1729 240.28 85.3972 236.57 87.1774 233.119C91.2718 225.24 94.9169 225.493 99.0288 218.538C102.041 213.446 103.019 208.036 104.977 197.216C106.489 188.862 106.49 186.865 108.561 184.466C112.75 179.626 120.608 179.572 126.455 180.237Z" fill="url(#paint29_linear_3_5682)"/>
<g style="mix-blend-mode:multiply" opacity="0.3">
<path d="M88.7507 234.902C90.2118 232.596 92.804 230.195 97.9174 225.458C103.203 220.561 102.999 221.448 104.04 220C108.696 213.522 106.174 206.602 107.33 198.25C107.972 193.59 110.03 187.501 116.02 180.679C113.213 181.193 110.525 182.311 108.568 184.469C106.165 187.121 106.342 189.713 104.984 197.219C103.031 208.04 102.048 213.449 99.0361 218.541C94.9232 225.496 91.2792 225.243 87.1847 233.122C85.4045 236.573 84.1802 240.283 83.5571 244.115C84.0836 244.366 84.6471 244.531 85.2259 244.602C85.7211 244.663 86.2222 244.654 86.7148 244.576C86.3724 239.097 88.0094 236.071 88.7507 234.902Z" fill="url(#paint30_linear_3_5682)"/>
</g>
<path d="M132.086 118.025C132.086 118.025 133.799 130.775 120.364 139.773L134.664 143.185C134.664 143.185 139.242 134.626 135.928 120.449L132.086 118.025Z" fill="#F4F7FA"/>
<path d="M118.599 130.159C119.302 128.775 119.592 128.783 119.764 128.053C120.157 126.39 119.147 124.277 118.282 124.249C117.726 124.23 117.681 125.093 116.506 126.437C115.066 128.082 114.194 127.868 113.347 129.297C113.15 129.632 112.258 131.137 112.806 132.261C113.505 133.694 116.264 133.921 117.417 132.815C117.964 132.289 117.735 131.863 118.599 130.159Z" fill="url(#paint31_linear_3_5682)"/>
<path d="M116.532 131.651C116.532 131.651 117.024 134.28 116.674 136.418C116.357 138.35 112.778 140.357 112.092 140.933C111.406 141.509 113.912 142.133 116.205 141.832C118.498 141.53 124.796 139.517 125.751 138.395C126.706 137.273 124.638 137.826 122.897 137.614C121.157 137.402 119.495 134.484 119.445 132.995C119.394 131.506 116.532 131.651 116.532 131.651Z" fill="url(#paint32_linear_3_5682)"/>
<path d="M117.281 133.614C117.281 133.614 119.04 134.386 120.599 133.14C121.995 132.024 119.92 128.597 118.501 128.553C118.027 128.539 117.336 128.878 116.927 129.376C116.687 129.67 116.672 129.864 116.269 130.336C115.897 130.771 115.734 130.81 115.677 131.021C115.607 131.285 115.728 131.726 116.684 132.485C116.208 132.397 115.797 132.522 115.638 132.8C115.587 132.9 115.566 133.013 115.575 133.126C115.633 133.641 116.308 133.88 117.281 133.614Z" fill="url(#paint33_linear_3_5682)"/>
<path d="M155.946 124.469C155.946 124.469 157.011 124.321 156.679 122.286C156.419 120.69 156.616 120.154 156.987 120.435C157.359 120.716 157.417 121.639 157.417 121.639C157.417 121.639 158.79 120.468 159.355 118.933C159.921 117.398 160.281 118.69 160.406 119.458C160.532 120.226 159.598 122.609 159.07 123.057C158.541 123.505 157.777 125.46 157.777 125.46L155.946 124.469Z" fill="url(#paint34_linear_3_5682)"/>
<path d="M158.785 125.01L155.149 122.464C153.673 131.53 150.316 135.087 147.474 136.644C140.605 140.398 134.475 133.708 121.327 136.439C117.705 137.191 111.389 138.598 107.888 143.754C106.963 145.111 106.64 146.138 105.112 155.871C103.158 168.313 103.089 170.482 103.364 173.161C103.868 178.063 104.173 181.034 106.433 183.664C112.436 190.646 125.192 187.046 126.792 186.572C129.747 185.697 134.339 184.337 136.164 180.433C137.022 178.595 136.931 176.916 135.611 170.197C132.998 156.89 132.664 156.028 133.393 154.568C135.861 149.65 143.656 152.464 150.246 147.891C154.1 145.223 158.443 139.396 158.785 125.01Z" fill="white"/>
<path style="mix-blend-mode:multiply" opacity="0.3" d="M120.814 184.798C122.101 182.16 120.372 179.728 122.268 176.557C124.685 172.516 129.034 173.884 130.67 170.902C133.469 165.796 122.453 158.673 124.692 150.543C125.76 146.661 129.491 143.851 132.609 142.787C139.53 140.422 144.056 146.447 150.545 144.564C152.087 144.117 153.847 143.193 155.632 141.273C154.054 144.602 152.095 146.613 150.246 147.896C143.656 152.469 135.851 149.655 133.394 154.574C132.665 156.031 132.998 156.892 135.611 170.203C136.931 176.921 137.022 178.6 136.164 180.438C134.34 184.345 129.747 185.702 126.792 186.577C125.917 186.836 121.697 188.029 117.073 187.914C119.136 187.074 120.247 185.961 120.814 184.798Z" fill="url(#paint35_linear_3_5682)"/>
</g>
<defs>
<linearGradient id="paint0_linear_3_5682" x1="202.162" y1="161.916" x2="202.87" y2="188.489" gradientUnits="userSpaceOnUse">
<stop stop-color="#444B8C"/>
<stop offset="1" stop-color="#26264F"/>
</linearGradient>
<linearGradient id="paint1_linear_3_5682" x1="207.947" y1="128.881" x2="129.862" y2="-145.261" gradientUnits="userSpaceOnUse">
<stop stop-color="#444B8C"/>
<stop offset="1" stop-color="#26264F"/>
</linearGradient>
<linearGradient id="paint2_linear_3_5682" x1="252.981" y1="-2.34707" x2="119.494" y2="152.134" gradientUnits="userSpaceOnUse">
<stop stop-color="#E38DDD"/>
<stop offset="1" stop-color="#9571F6"/>
</linearGradient>
<linearGradient id="paint3_linear_3_5682" x1="83.5735" y1="151.216" x2="301.653" y2="151.216" gradientUnits="userSpaceOnUse">
<stop stop-color="#444B8C"/>
<stop offset="1" stop-color="#26264F"/>
</linearGradient>
<linearGradient id="paint4_linear_3_5682" x1="96.7637" y1="54.614" x2="63.2268" y2="144.426" gradientUnits="userSpaceOnUse">
<stop stop-color="#FFC444"/>
<stop offset="1" stop-color="#F36F56"/>
</linearGradient>
<linearGradient id="paint5_linear_3_5682" x1="70.3527" y1="83.2587" x2="176.655" y2="178.617" gradientUnits="userSpaceOnUse">
<stop stop-color="#FF9085"/>
<stop offset="1" stop-color="#FB6FBB"/>
</linearGradient>
<linearGradient id="paint6_linear_3_5682" x1="156.956" y1="231.086" x2="139.947" y2="238.23" gradientUnits="userSpaceOnUse">
<stop stop-color="#40447E"/>
<stop offset="1" stop-color="#3C3B6B"/>
</linearGradient>
<linearGradient id="paint7_linear_3_5682" x1="134.244" y1="156.121" x2="115.784" y2="163.874" gradientUnits="userSpaceOnUse">
<stop stop-color="#40447E"/>
<stop offset="1" stop-color="#3C3B6B"/>
</linearGradient>
<linearGradient id="paint8_linear_3_5682" x1="54.6813" y1="160.318" x2="225.748" y2="160.318" gradientUnits="userSpaceOnUse">
<stop stop-color="#40447E"/>
<stop offset="1" stop-color="#3C3B6B"/>
</linearGradient>
<linearGradient id="paint9_linear_3_5682" x1="197.754" y1="75.1385" x2="58.7285" y2="269.419" gradientUnits="userSpaceOnUse">
<stop stop-color="#E38DDD"/>
<stop offset="1" stop-color="#9571F6"/>
</linearGradient>
<linearGradient id="paint10_linear_3_5682" x1="54.6812" y1="223.578" x2="296.811" y2="223.578" gradientUnits="userSpaceOnUse">
<stop stop-color="#40447E"/>
<stop offset="1" stop-color="#3C3B6B"/>
</linearGradient>
<linearGradient id="paint11_linear_3_5682" x1="78.4263" y1="221.594" x2="255.833" y2="221.594" gradientUnits="userSpaceOnUse">
<stop stop-color="#40447E"/>
<stop offset="1" stop-color="#3C3B6B"/>
</linearGradient>
<linearGradient id="paint12_linear_3_5682" x1="300.968" y1="199.428" x2="267.403" y2="170.796" gradientUnits="userSpaceOnUse">
<stop stop-color="#444B8C"/>
<stop offset="1" stop-color="#26264F"/>
</linearGradient>
<linearGradient id="paint13_linear_3_5682" x1="272.493" y1="210.251" x2="277.258" y2="82.1551" gradientUnits="userSpaceOnUse">
<stop stop-color="#444B8C"/>
<stop offset="1" stop-color="#26264F"/>
</linearGradient>
<linearGradient id="paint14_linear_3_5682" x1="285.026" y1="161.022" x2="242.267" y2="218.513" gradientUnits="userSpaceOnUse">
<stop stop-color="#E38DDD"/>
<stop offset="1" stop-color="#9571F6"/>
</linearGradient>
<linearGradient id="paint15_linear_3_5682" x1="261.937" y1="28.1975" x2="227.717" y2="61.0886" gradientUnits="userSpaceOnUse">
<stop stop-color="#FFC444"/>
<stop offset="1" stop-color="#F36F56"/>
</linearGradient>
<linearGradient id="paint16_linear_3_5682" x1="160.228" y1="35.6923" x2="276.552" y2="225.947" gradientUnits="userSpaceOnUse">
<stop stop-color="#FFC444"/>
<stop offset="1" stop-color="#F36F56"/>
</linearGradient>
<linearGradient id="paint17_linear_3_5682" x1="221.911" y1="144.016" x2="127.439" y2="-45.9473" gradientUnits="userSpaceOnUse">
<stop stop-color="#FFC444"/>
<stop offset="1" stop-color="#F36F56"/>
</linearGradient>
<linearGradient id="paint18_linear_3_5682" x1="151.035" y1="107.164" x2="242.252" y2="107.164" gradientUnits="userSpaceOnUse">
<stop stop-color="#311944"/>
<stop offset="1" stop-color="#893976"/>
</linearGradient>
<linearGradient id="paint19_linear_3_5682" x1="225.698" y1="60.1006" x2="188.182" y2="129.449" gradientUnits="userSpaceOnUse">
<stop stop-color="#E38DDD"/>
<stop offset="1" stop-color="#9571F6"/>
</linearGradient>
<linearGradient id="paint20_linear_3_5682" x1="192.536" y1="114.867" x2="202.779" y2="114.867" gradientUnits="userSpaceOnUse">
<stop stop-color="#311944"/>
<stop offset="1" stop-color="#893976"/>
</linearGradient>
<linearGradient id="paint21_linear_3_5682" x1="214.857" y1="54.2366" x2="177.341" y2="123.585" gradientUnits="userSpaceOnUse">
<stop stop-color="#E38DDD"/>
<stop offset="1" stop-color="#9571F6"/>
</linearGradient>
<linearGradient id="paint22_linear_3_5682" x1="171.138" y1="47.9029" x2="160.607" y2="67.8635" gradientUnits="userSpaceOnUse">
<stop stop-color="#F36F56"/>
<stop offset="1" stop-color="#FFC444"/>
</linearGradient>
<linearGradient id="paint23_linear_3_5682" x1="128.856" y1="229.973" x2="132.885" y2="229.287" gradientUnits="userSpaceOnUse">
<stop stop-color="#F36F56"/>
<stop offset="1" stop-color="#FFC444"/>
</linearGradient>
<linearGradient id="paint24_linear_3_5682" x1="133.817" y1="212.047" x2="129.561" y2="250.913" gradientUnits="userSpaceOnUse">
<stop stop-color="#E38DDD"/>
<stop offset="1" stop-color="#9571F6"/>
</linearGradient>
<linearGradient id="paint25_linear_3_5682" x1="141.727" y1="194.692" x2="107.072" y2="223.16" gradientUnits="userSpaceOnUse">
<stop stop-color="#AB316D"/>
<stop offset="1" stop-color="#792D3D"/>
</linearGradient>
<linearGradient id="paint26_linear_3_5682" x1="100.594" y1="207.613" x2="88.0332" y2="239.851" gradientUnits="userSpaceOnUse">
<stop stop-color="#E38DDD"/>
<stop offset="1" stop-color="#9571F6"/>
</linearGradient>
<linearGradient id="paint27_linear_3_5682" x1="82.4493" y1="244.322" x2="87.2504" y2="244.775" gradientUnits="userSpaceOnUse">
<stop stop-color="#F36F56"/>
<stop offset="1" stop-color="#FFC444"/>
</linearGradient>
<linearGradient id="paint28_linear_3_5682" x1="157.64" y1="219.03" x2="114.826" y2="204.574" gradientUnits="userSpaceOnUse">
<stop stop-color="#AB316D"/>
<stop offset="1" stop-color="#792D3D"/>
</linearGradient>
<linearGradient id="paint29_linear_3_5682" x1="113.236" y1="194.595" x2="88.5206" y2="244.146" gradientUnits="userSpaceOnUse">
<stop stop-color="#AB316D"/>
<stop offset="1" stop-color="#792D3D"/>
</linearGradient>
<linearGradient id="paint30_linear_3_5682" x1="110.144" y1="194.388" x2="85.9414" y2="242.911" gradientUnits="userSpaceOnUse">
<stop stop-color="#AB316D"/>
<stop offset="1" stop-color="#792D3D"/>
</linearGradient>
<linearGradient id="paint31_linear_3_5682" x1="115.614" y1="132.652" x2="115.952" y2="122.467" gradientUnits="userSpaceOnUse">
<stop stop-color="#444B8C"/>
<stop offset="1" stop-color="#26264F"/>
</linearGradient>
<linearGradient id="paint32_linear_3_5682" x1="117.835" y1="122.259" x2="120.621" y2="164.03" gradientUnits="userSpaceOnUse">
<stop stop-color="#F36F56"/>
<stop offset="1" stop-color="#FFC444"/>
</linearGradient>
<linearGradient id="paint33_linear_3_5682" x1="112.724" y1="127.341" x2="122.641" y2="133.419" gradientUnits="userSpaceOnUse">
<stop stop-color="#F36F56"/>
<stop offset="1" stop-color="#FFC444"/>
</linearGradient>
<linearGradient id="paint34_linear_3_5682" x1="144.822" y1="29.8777" x2="148.291" y2="53.7872" gradientUnits="userSpaceOnUse">
<stop stop-color="#F36F56"/>
<stop offset="1" stop-color="#FFC444"/>
</linearGradient>
<linearGradient id="paint35_linear_3_5682" x1="140.752" y1="141.684" x2="130.411" y2="195.543" gradientUnits="userSpaceOnUse">
<stop stop-color="#F36F56"/>
<stop offset="1" stop-color="#FFC444"/>
</linearGradient>
<clipPath id="clip0_3_5682">
<rect width="328" height="248" fill="white"/>
</clipPath>
</defs>
</svg>
