<svg width="41" height="40" viewBox="0 0 41 40" fill="none" xmlns="http://www.w3.org/2000/svg">
<g clip-path="url(#clip0_1_2513)">
<path d="M40.5 12.1875V0H22.0625V4.375H18.9375V0H0.5V12.1875H8.15625V15.3125H5.03125V18.4375H8.15625V21.5625H0.5V33.75H8.15625V36.875H5.03125V40H14.4062V36.875H11.2812V33.75H18.9375V29.375H22.0625V33.75H29.7188V36.875H26.5938V40H35.9688V36.875H32.8438V33.75H40.5V21.5625H32.8438V18.4375H35.9688V15.3125H32.8438V12.1875H40.5ZM25.1875 3.125H37.375V9.0625H25.1875V3.125ZM3.625 3.125H15.8125V9.0625H3.625V3.125ZM15.8125 30.625H3.625V24.6875H15.8125V30.625ZM37.375 24.6875V30.625H25.1875V24.6875H37.375ZM29.7188 15.3125H26.5938V18.4375H29.7188V21.5625H22.0625V26.25H18.9375V21.5625H11.2812V18.4375H14.4062V15.3125H11.2812V12.1875H18.9375V7.5H22.0625V12.1875H29.7188V15.3125Z" fill="#353E49"/>
</g>
<defs>
<clipPath id="clip0_1_2513">
<rect width="40" height="40" fill="white" transform="translate(0.5)"/>
</clipPath>
</defs>
</svg>
