<svg width="40" height="40" viewBox="0 0 40 40" fill="none" xmlns="http://www.w3.org/2000/svg">
<g clip-path="url(#clip0_1_2519)">
<path d="M3.125 23.125H6.25V20H7.8125C10.3972 20 12.5 17.8972 12.5 15.3125C12.5 14.1129 12.0465 13.0175 11.3026 12.1875C12.0465 11.3575 12.5 10.2621 12.5 9.0625C12.5 6.47781 10.3972 4.375 7.8125 4.375H6.25V1.25H3.125V4.375H0V7.5H3.125V16.875H0V20H3.125V23.125ZM7.8125 7.5C8.67406 7.5 9.375 8.20094 9.375 9.0625C9.375 9.92406 8.67406 10.625 7.8125 10.625H6.25V7.5H7.8125ZM6.25 13.75H7.8125C8.67406 13.75 9.375 14.4509 9.375 15.3125C9.375 16.1741 8.67406 16.875 7.8125 16.875H6.25V13.75Z" fill="#353E49"/>
<path d="M36.875 35.625V4.375H27.5V35.625H24.6875V16.875H15.3125V35.625H12.5V26.25H3.125V35.625H0V38.75H40V35.625H36.875ZM30.625 7.5H33.75V35.625H30.625V7.5ZM18.4375 20H21.5625V35.625H18.4375V20ZM6.25 29.375H9.375V35.625H6.25V29.375Z" fill="#353E49"/>
</g>
<defs>
<clipPath id="clip0_1_2519">
<rect width="40" height="40" fill="white"/>
</clipPath>
</defs>
</svg>
