<svg width="328" height="248" viewBox="0 0 328 248" fill="none" xmlns="http://www.w3.org/2000/svg">
<path d="M63.8908 173.607C63.6896 173.607 63.4967 173.528 63.3544 173.385C63.2121 173.243 63.1322 173.05 63.1322 172.849C63.1322 172.133 63.1322 171.423 63.1322 170.707C63.1362 170.505 63.22 170.314 63.3651 170.175C63.437 170.106 63.5217 170.051 63.6145 170.015C63.7073 169.979 63.8063 169.961 63.906 169.963C64.0056 169.965 64.1038 169.987 64.1951 170.027C64.2864 170.067 64.3689 170.124 64.4379 170.196C64.507 170.268 64.5612 170.353 64.5974 170.445C64.6337 170.538 64.6514 170.637 64.6494 170.737C64.6494 171.441 64.6494 172.145 64.6494 172.849C64.6494 173.05 64.5695 173.243 64.4272 173.385C64.2849 173.528 64.092 173.607 63.8908 173.607ZM64.8436 166.489C64.9286 165.075 65.0439 163.655 65.1895 162.241C65.1999 162.141 65.1906 162.041 65.1622 161.946C65.1338 161.85 65.0868 161.761 65.024 161.683C64.9612 161.606 64.8837 161.541 64.796 161.494C64.7083 161.446 64.6121 161.417 64.5128 161.406C64.4136 161.396 64.3133 161.405 64.2177 161.434C64.1221 161.462 64.033 161.509 63.9555 161.572C63.878 161.635 63.8136 161.712 63.7661 161.8C63.7186 161.887 63.6888 161.984 63.6784 162.083C63.5327 163.509 63.4174 164.959 63.3264 166.386C63.3147 166.587 63.3827 166.784 63.5156 166.935C63.6486 167.086 63.8357 167.179 64.0364 167.193H64.085C64.2771 167.193 64.4622 167.121 64.603 166.99C64.7438 166.86 64.8298 166.68 64.8436 166.489ZM271.114 167.096C271.214 167.089 271.311 167.064 271.401 167.02C271.491 166.976 271.571 166.915 271.637 166.84C271.703 166.765 271.753 166.677 271.786 166.583C271.818 166.488 271.831 166.388 271.824 166.289C271.739 164.862 271.618 163.418 271.472 161.986C271.451 161.785 271.352 161.602 271.195 161.475C271.039 161.348 270.838 161.288 270.638 161.309C270.438 161.33 270.254 161.43 270.127 161.586C270 161.743 269.94 161.943 269.961 162.144C270.107 163.552 270.222 164.978 270.313 166.392C270.326 166.583 270.41 166.763 270.55 166.895C270.689 167.027 270.874 167.101 271.066 167.102L271.114 167.096ZM65.7054 158.023C65.9117 156.627 66.1423 155.213 66.4033 153.829C66.4216 153.731 66.4204 153.631 66.3998 153.533C66.3793 153.436 66.3397 153.343 66.2833 153.261C66.227 153.178 66.155 153.108 66.0714 153.054C65.9879 152.999 65.8944 152.962 65.7964 152.943C65.6984 152.925 65.5977 152.926 65.5001 152.947C65.4025 152.967 65.3099 153.007 65.2277 153.063C65.1454 153.12 65.075 153.192 65.0206 153.275C64.9661 153.359 64.9287 153.452 64.9103 153.55C64.6494 154.958 64.4127 156.39 64.2064 157.798C64.1918 157.897 64.1969 157.998 64.2213 158.095C64.2458 158.192 64.2892 158.283 64.3489 158.363C64.4087 158.443 64.4837 158.51 64.5696 158.561C64.6556 158.612 64.7507 158.646 64.8497 158.66H64.9589C65.1386 158.66 65.3123 158.595 65.4491 158.478C65.5858 158.362 65.6766 158.2 65.7054 158.023ZM270.295 158.563C270.394 158.55 270.489 158.517 270.575 158.466C270.66 158.416 270.736 158.349 270.795 158.27C270.855 158.19 270.899 158.099 270.923 158.003C270.948 157.906 270.953 157.806 270.938 157.707C270.732 156.281 270.495 154.849 270.228 153.459C270.21 153.361 270.172 153.268 270.118 153.184C270.064 153.101 269.993 153.029 269.911 152.972C269.829 152.916 269.736 152.876 269.638 152.856C269.541 152.835 269.44 152.834 269.342 152.852C269.244 152.871 269.151 152.908 269.067 152.963C268.984 153.017 268.912 153.087 268.855 153.17C268.799 153.252 268.759 153.344 268.739 153.442C268.718 153.54 268.717 153.64 268.735 153.738C268.996 155.122 269.233 156.53 269.439 157.938C269.465 158.118 269.555 158.282 269.692 158.401C269.829 158.52 270.004 158.586 270.186 158.587L270.295 158.563ZM67.2711 149.66C67.5867 148.289 67.9387 146.905 68.3088 145.539C68.3599 145.439 68.3881 145.329 68.3914 145.217C68.3947 145.105 68.3731 144.993 68.3279 144.89C68.2828 144.787 68.2154 144.696 68.1306 144.622C68.0458 144.548 67.9457 144.494 67.8375 144.464C67.7293 144.434 67.6157 144.428 67.505 144.447C67.3942 144.466 67.2891 144.509 67.1972 144.574C67.1052 144.638 67.0288 144.723 66.9733 144.82C66.9179 144.918 66.8849 145.027 66.8766 145.139C66.5004 146.523 66.1423 147.931 65.8207 149.32C65.7982 149.418 65.7951 149.518 65.8117 149.617C65.8282 149.715 65.864 149.809 65.917 149.894C65.97 149.978 66.0391 150.052 66.1205 150.109C66.2019 150.167 66.2938 150.208 66.3911 150.231C66.4476 150.237 66.5046 150.237 66.561 150.231C66.7252 150.225 66.8832 150.167 67.0112 150.064C67.1393 149.961 67.2304 149.819 67.2711 149.66ZM268.754 150.134C268.949 150.087 269.118 149.966 269.224 149.795C269.33 149.624 269.363 149.419 269.318 149.223C268.996 147.821 268.638 146.413 268.262 145.036C268.207 144.843 268.078 144.679 267.903 144.58C267.728 144.481 267.521 144.455 267.327 144.508C267.231 144.534 267.141 144.579 267.062 144.64C266.983 144.701 266.917 144.777 266.867 144.864C266.818 144.951 266.787 145.047 266.775 145.147C266.764 145.246 266.772 145.346 266.799 145.442C267.17 146.796 267.522 148.185 267.843 149.563C267.878 149.733 267.97 149.886 268.103 149.996C268.237 150.107 268.404 150.168 268.578 150.17C268.645 150.166 268.713 150.153 268.778 150.134H268.754ZM69.5226 141.461C69.9535 140.114 70.4208 138.755 70.9063 137.426C70.9755 137.236 70.9667 137.028 70.8819 136.845C70.7971 136.662 70.6433 136.521 70.4541 136.452C70.265 136.382 70.0562 136.391 69.8735 136.476C69.6908 136.561 69.5493 136.715 69.4801 136.904C68.9885 138.251 68.5152 139.629 68.0782 141C68.0172 141.192 68.0347 141.4 68.1269 141.578C68.219 141.757 68.3783 141.892 68.5698 141.953C68.6442 141.977 68.7221 141.989 68.8004 141.989C68.9612 141.989 69.1178 141.938 69.2476 141.843C69.3774 141.748 69.4737 141.614 69.5226 141.461ZM266.557 141.856C266.748 141.794 266.907 141.66 267 141.481C267.092 141.302 267.109 141.094 267.048 140.903C266.617 139.544 266.144 138.172 265.646 136.819C265.612 136.725 265.56 136.639 265.492 136.566C265.425 136.492 265.343 136.433 265.253 136.391C265.163 136.349 265.065 136.325 264.965 136.321C264.865 136.317 264.766 136.332 264.672 136.367C264.579 136.401 264.493 136.453 264.419 136.521C264.346 136.588 264.286 136.669 264.245 136.76C264.203 136.85 264.179 136.948 264.175 137.048C264.17 137.147 264.186 137.247 264.22 137.341C264.712 138.676 265.179 140.029 265.604 141.364C265.653 141.517 265.749 141.651 265.879 141.746C266.009 141.841 266.165 141.892 266.326 141.892C266.398 141.891 266.47 141.878 266.538 141.856H266.557ZM72.4538 133.487C73 132.176 73.5765 130.865 74.1713 129.579C74.2241 129.402 74.2105 129.211 74.1329 129.043C74.0554 128.876 73.9193 128.742 73.7502 128.668C73.581 128.593 73.3905 128.583 73.2144 128.639C73.0383 128.695 72.8887 128.813 72.7936 128.972C72.1868 130.277 71.5799 131.606 71.0519 132.935C70.9757 133.121 70.9763 133.329 71.0536 133.515C71.131 133.7 71.2788 133.847 71.4646 133.924C71.5564 133.964 71.6556 133.985 71.7559 133.985C71.909 133.983 72.0579 133.934 72.1826 133.845C72.3073 133.756 72.4019 133.631 72.4538 133.487ZM263.668 133.833C263.854 133.755 264.002 133.607 264.079 133.42C264.157 133.234 264.157 133.024 264.081 132.838C263.528 131.521 262.946 130.192 262.345 128.899C262.303 128.809 262.244 128.727 262.171 128.66C262.097 128.592 262.011 128.54 261.918 128.505C261.824 128.471 261.725 128.455 261.625 128.459C261.526 128.463 261.428 128.487 261.338 128.529C261.247 128.571 261.166 128.63 261.098 128.703C261.031 128.776 260.978 128.862 260.944 128.956C260.909 129.049 260.894 129.149 260.898 129.248C260.902 129.348 260.926 129.446 260.967 129.536C261.574 130.811 262.139 132.121 262.679 133.42C262.735 133.559 262.832 133.677 262.956 133.76C263.081 133.843 263.227 133.888 263.377 133.887C263.478 133.877 263.577 133.849 263.668 133.803V133.833ZM76.0465 125.725C76.6898 124.475 77.3756 123.213 78.0735 121.981C78.1257 121.894 78.1601 121.798 78.1746 121.698C78.1892 121.598 78.1835 121.496 78.1581 121.398C78.1326 121.3 78.0879 121.208 78.0264 121.128C77.965 121.047 77.8881 120.98 77.8003 120.93C77.7125 120.88 77.6155 120.848 77.5151 120.836C77.4147 120.823 77.3129 120.832 77.2157 120.859C77.1184 120.887 77.0277 120.934 76.9489 120.997C76.87 121.061 76.8046 121.139 76.7565 121.228C76.0465 122.478 75.3486 123.759 74.6932 125.027C74.6031 125.207 74.587 125.415 74.6482 125.607C74.7095 125.798 74.8432 125.958 75.0209 126.053C75.1284 126.106 75.2466 126.135 75.3668 126.138C75.5069 126.137 75.6442 126.098 75.764 126.026C75.8837 125.953 75.9814 125.849 76.0465 125.725ZM260.118 126.022C260.21 125.979 260.292 125.918 260.36 125.842C260.428 125.766 260.479 125.677 260.512 125.581C260.545 125.485 260.558 125.383 260.551 125.282C260.544 125.18 260.516 125.081 260.47 124.991C259.814 123.716 259.122 122.442 258.412 121.204C258.313 121.029 258.149 120.902 257.955 120.848C257.762 120.795 257.555 120.82 257.381 120.919C257.206 121.019 257.078 121.184 257.025 121.379C256.971 121.573 256.997 121.781 257.095 121.956C257.793 123.17 258.473 124.432 259.122 125.689C259.167 125.777 259.23 125.857 259.305 125.921C259.381 125.986 259.469 126.035 259.564 126.065C259.659 126.096 259.759 126.107 259.858 126.099C259.957 126.09 260.054 126.062 260.142 126.016L260.118 126.022ZM80.2582 118.315C81.0107 117.101 81.7936 115.924 82.5947 114.753C82.7082 114.586 82.7508 114.381 82.7132 114.183C82.6757 113.985 82.561 113.81 82.3944 113.697C82.2278 113.583 82.023 113.541 81.825 113.578C81.6269 113.616 81.4519 113.73 81.3384 113.897C80.5313 115.111 79.7302 116.325 78.9716 117.538C78.9046 117.653 78.869 117.784 78.8682 117.917C78.8675 118.049 78.9018 118.18 78.9675 118.296C79.0333 118.411 79.1283 118.508 79.243 118.575C79.3577 118.642 79.488 118.678 79.621 118.679C79.7495 118.678 79.8755 118.644 79.987 118.58C80.0985 118.516 80.1919 118.425 80.2582 118.315ZM255.936 118.552C256.022 118.499 256.096 118.43 256.154 118.349C256.212 118.267 256.254 118.175 256.277 118.077C256.299 117.98 256.302 117.879 256.285 117.78C256.269 117.681 256.233 117.587 256.179 117.502C255.427 116.288 254.632 115.074 253.818 113.897C253.705 113.73 253.53 113.616 253.332 113.578C253.134 113.541 252.929 113.583 252.762 113.697C252.596 113.81 252.481 113.985 252.444 114.183C252.406 114.381 252.449 114.586 252.562 114.753C253.363 115.924 254.152 117.12 254.893 118.309C254.961 118.418 255.056 118.508 255.168 118.571C255.281 118.633 255.407 118.666 255.536 118.667C255.677 118.667 255.815 118.629 255.936 118.558V118.552ZM251.154 111.451C251.314 111.33 251.419 111.15 251.448 110.951C251.476 110.753 251.425 110.551 251.306 110.389C250.444 109.236 249.552 108.089 248.654 106.985C248.591 106.907 248.513 106.843 248.426 106.796C248.338 106.749 248.242 106.719 248.142 106.709C247.942 106.688 247.742 106.748 247.586 106.875C247.43 107.003 247.33 107.187 247.31 107.387C247.289 107.587 247.349 107.787 247.477 107.944C248.363 109.036 249.243 110.165 250.092 111.3C250.213 111.461 250.393 111.567 250.592 111.595C250.791 111.624 250.993 111.572 251.154 111.451ZM85.0829 111.3C85.9264 110.165 86.8125 109.036 87.6985 107.944C87.7615 107.866 87.8086 107.777 87.8372 107.682C87.8657 107.586 87.8752 107.486 87.8651 107.387C87.8549 107.288 87.8254 107.191 87.778 107.104C87.7307 107.016 87.6666 106.938 87.5893 106.875C87.512 106.813 87.423 106.765 87.3275 106.737C87.232 106.708 87.1318 106.699 87.0326 106.709C86.9334 106.719 86.8372 106.749 86.7494 106.796C86.6617 106.843 86.5841 106.907 86.5212 106.985C85.6169 108.095 84.7005 109.242 83.8691 110.389C83.8093 110.469 83.7659 110.56 83.7411 110.656C83.7164 110.753 83.7109 110.853 83.725 110.952C83.7391 111.05 83.7725 111.145 83.8232 111.231C83.874 111.317 83.9411 111.392 84.0208 111.451C84.1517 111.551 84.3117 111.604 84.476 111.603C84.5938 111.603 84.7099 111.576 84.8152 111.523C84.9206 111.47 85.0122 111.394 85.0829 111.3ZM245.808 104.776C245.883 104.71 245.944 104.63 245.988 104.54C246.032 104.45 246.058 104.352 246.064 104.252C246.071 104.153 246.057 104.053 246.024 103.958C245.992 103.863 245.941 103.776 245.874 103.702C244.928 102.627 243.945 101.559 242.949 100.528C242.882 100.45 242.799 100.386 242.707 100.341C242.614 100.296 242.513 100.271 242.41 100.266C242.308 100.261 242.205 100.278 242.108 100.314C242.012 100.35 241.924 100.406 241.85 100.477C241.776 100.548 241.717 100.634 241.677 100.729C241.637 100.824 241.616 100.926 241.617 101.029C241.618 101.132 241.639 101.233 241.68 101.328C241.722 101.422 241.782 101.507 241.857 101.577C242.834 102.597 243.805 103.647 244.74 104.709C244.811 104.789 244.899 104.854 244.997 104.898C245.096 104.942 245.202 104.964 245.31 104.964C245.489 104.962 245.662 104.895 245.795 104.776H245.808ZM90.4476 104.697C91.3883 103.635 92.3593 102.579 93.3303 101.565C93.4054 101.495 93.4654 101.41 93.5067 101.316C93.5479 101.221 93.5695 101.12 93.5702 101.017C93.5708 100.914 93.5505 100.812 93.5105 100.717C93.4704 100.622 93.4115 100.536 93.3373 100.465C93.263 100.393 93.1751 100.338 93.0787 100.302C92.9823 100.265 92.8796 100.249 92.7767 100.254C92.6739 100.259 92.5731 100.284 92.4804 100.329C92.3878 100.374 92.3053 100.438 92.2379 100.515C91.2487 101.547 90.2656 102.615 89.3128 103.689C89.2131 103.798 89.1473 103.933 89.1236 104.078C89.0999 104.223 89.1192 104.372 89.1793 104.506C89.2393 104.641 89.3375 104.754 89.4615 104.834C89.5855 104.913 89.7301 104.954 89.8772 104.952C89.9839 104.951 90.0893 104.928 90.1866 104.884C90.2838 104.841 90.3707 104.777 90.4416 104.697H90.4476ZM239.915 98.5491C239.985 98.4787 240.042 98.395 240.08 98.3028C240.118 98.2106 240.138 98.1118 240.138 98.0121C240.138 97.9123 240.118 97.8135 240.08 97.7213C240.042 97.6292 239.985 97.5454 239.915 97.475C238.883 96.4858 237.815 95.5026 236.741 94.5498C236.668 94.4757 236.58 94.4173 236.484 94.3785C236.387 94.3396 236.284 94.321 236.18 94.3238C236.076 94.3267 235.973 94.3509 235.879 94.395C235.785 94.4392 235.7 94.5022 235.632 94.5802C235.563 94.6583 235.511 94.7497 235.479 94.8487C235.447 94.9478 235.435 95.0523 235.445 95.1559C235.456 95.2595 235.487 95.36 235.537 95.4509C235.588 95.5419 235.657 95.6215 235.74 95.6847C236.796 96.6254 237.851 97.5964 238.865 98.5674C239.008 98.7086 239.201 98.7877 239.402 98.7877C239.603 98.7877 239.796 98.7086 239.939 98.5674L239.915 98.5491ZM96.3404 98.5491C97.3539 97.5721 98.4098 96.6011 99.4719 95.6665C99.6232 95.5329 99.7152 95.3447 99.7277 95.1432C99.7402 94.9418 99.6722 94.7436 99.5386 94.5923C99.405 94.441 99.2168 94.349 99.0154 94.3365C98.8139 94.324 98.6158 94.392 98.4645 94.5256C97.3903 95.4784 96.3222 96.4615 95.2905 97.4507C95.2199 97.5212 95.1638 97.6049 95.1256 97.697C95.0873 97.7892 95.0676 97.888 95.0676 97.9878C95.0676 98.0876 95.0873 98.1864 95.1256 98.2785C95.1638 98.3707 95.2199 98.4544 95.2905 98.5249C95.4344 98.6646 95.627 98.7428 95.8276 98.7428C96.0282 98.7428 96.2208 98.6646 96.3647 98.5249L96.3404 98.5491ZM233.524 92.8263C233.588 92.7494 233.636 92.6605 233.665 92.5649C233.694 92.4693 233.704 92.3688 233.694 92.2694C233.684 92.1699 233.654 92.0735 233.606 91.9858C233.558 91.898 233.493 91.8206 233.415 91.7582C232.305 90.854 231.158 89.9376 230.011 89.1062C229.931 89.0464 229.84 89.0029 229.744 88.9782C229.647 88.9535 229.547 88.948 229.448 88.9621C229.35 88.9762 229.255 89.0095 229.169 89.0603C229.083 89.1111 229.008 89.1782 228.949 89.2579C228.889 89.3376 228.845 89.4283 228.821 89.5248C228.796 89.6213 228.79 89.7217 228.805 89.8203C228.819 89.919 228.852 90.0138 228.903 90.0995C228.954 90.1853 229.021 90.2601 229.1 90.3199C230.235 91.1635 231.364 92.0434 232.456 92.9356C232.592 93.0448 232.761 93.1047 232.936 93.1055C233.049 93.106 233.16 93.0812 233.262 93.0329C233.364 92.9846 233.454 92.914 233.524 92.8263ZM102.682 92.9295C103.781 92.0374 104.909 91.1574 106.038 90.3139C106.199 90.1931 106.306 90.0134 106.334 89.8143C106.363 89.6151 106.311 89.4128 106.19 89.2518C106.069 89.0909 105.89 88.9845 105.69 88.956C105.491 88.9276 105.289 88.9794 105.128 89.1001C103.987 89.9558 102.84 90.8479 101.723 91.7521C101.602 91.851 101.514 91.9852 101.471 92.1361C101.429 92.2871 101.435 92.4474 101.487 92.5951C101.54 92.7428 101.637 92.8706 101.765 92.9609C101.893 93.0512 102.046 93.0996 102.203 93.0994C102.378 93.1006 102.547 93.0405 102.682 92.9295ZM109.497 87.8439C110.657 87.0489 111.852 86.266 113.048 85.5135C113.133 85.4614 113.206 85.3929 113.265 85.312C113.323 85.2311 113.365 85.1395 113.387 85.0423C113.41 84.9452 113.413 84.8446 113.396 84.7463C113.38 84.6479 113.344 84.5539 113.29 84.4696C113.183 84.3005 113.013 84.1802 112.818 84.1348C112.623 84.0894 112.418 84.1225 112.247 84.2269C111.033 84.9855 109.819 85.7805 108.605 86.5937C108.472 86.6855 108.371 86.8176 108.318 86.9706C108.265 87.1237 108.263 87.2897 108.311 87.4443C108.359 87.599 108.455 87.7342 108.586 87.8301C108.716 87.926 108.874 87.9776 109.036 87.9774C109.208 87.989 109.38 87.9419 109.522 87.8439H109.497ZM226.667 87.6436C226.723 87.562 226.763 87.4701 226.784 87.373C226.805 87.276 226.806 87.1758 226.788 87.0782C226.77 86.9807 226.733 86.8876 226.679 86.8045C226.625 86.7213 226.555 86.6497 226.473 86.5937C225.289 85.7805 224.045 84.9855 222.831 84.2269C222.661 84.1199 222.455 84.085 222.258 84.1299C222.062 84.1749 221.891 84.296 221.784 84.4666C221.677 84.6372 221.643 84.8434 221.688 85.0397C221.732 85.236 221.854 85.4064 222.024 85.5135C223.238 86.2599 224.421 87.0428 225.593 87.8439C225.717 87.9313 225.865 87.9779 226.017 87.9774C226.149 87.9863 226.281 87.9601 226.399 87.9015C226.518 87.8428 226.618 87.7539 226.691 87.6436H226.667ZM116.695 83.3409C117.909 82.6369 119.177 81.9572 120.433 81.3139C120.612 81.2214 120.747 81.0616 120.807 80.8699C120.868 80.6781 120.851 80.47 120.758 80.2913C120.665 80.1127 120.506 79.9781 120.314 79.9172C120.122 79.8563 119.914 79.8741 119.735 79.9666C118.467 80.6221 117.193 81.3139 115.949 82.0179C115.802 82.1002 115.687 82.229 115.621 82.3839C115.556 82.5388 115.543 82.7111 115.587 82.8737C115.63 83.0363 115.726 83.1799 115.859 83.2821C115.993 83.3842 116.157 83.4391 116.325 83.438C116.463 83.4433 116.6 83.4097 116.719 83.3409H116.695ZM219.427 83.0435C219.477 82.9575 219.509 82.8625 219.522 82.764C219.535 82.6655 219.528 82.5654 219.502 82.4695C219.476 82.3736 219.431 82.2837 219.371 82.2052C219.31 82.1266 219.234 82.0609 219.148 82.0118C217.904 81.3018 216.623 80.6099 215.342 79.9484C215.164 79.8571 214.956 79.8402 214.765 79.9017C214.574 79.9631 214.415 80.0977 214.323 80.2761C214.277 80.3645 214.249 80.4611 214.24 80.5603C214.232 80.6596 214.243 80.7596 214.274 80.8544C214.304 80.9492 214.353 81.0371 214.418 81.1128C214.483 81.1886 214.562 81.2507 214.651 81.2957C215.907 81.9451 217.169 82.6308 218.395 83.3287C218.51 83.3932 218.64 83.4267 218.771 83.4258C218.909 83.4309 219.045 83.398 219.165 83.3305C219.285 83.263 219.384 83.1637 219.451 83.0435H219.427ZM124.269 79.4751C125.543 78.8682 126.854 78.3099 128.153 77.7698C128.339 77.6919 128.487 77.5436 128.564 77.3571C128.641 77.1707 128.642 76.9613 128.565 76.7745C128.527 76.6823 128.471 76.5986 128.4 76.5282C128.329 76.4579 128.245 76.4022 128.152 76.3644C128.06 76.3266 127.961 76.3075 127.861 76.3081C127.761 76.3087 127.662 76.329 127.57 76.3679C126.253 76.9141 124.924 77.4967 123.632 78.0975C123.528 78.1282 123.433 78.1806 123.352 78.251C123.27 78.3215 123.205 78.4085 123.16 78.5061C123.115 78.6038 123.091 78.71 123.09 78.8176C123.089 78.9252 123.111 79.0317 123.154 79.1302C123.198 79.2287 123.261 79.3168 123.342 79.3887C123.422 79.4606 123.516 79.5147 123.619 79.5473C123.721 79.5799 123.829 79.5903 123.936 79.5779C124.043 79.5654 124.146 79.5304 124.238 79.4751H124.269ZM211.853 79.0867C211.895 78.9962 211.918 78.8984 211.923 78.7988C211.927 78.6992 211.911 78.5998 211.877 78.5063C211.842 78.4127 211.79 78.3268 211.722 78.2536C211.655 78.1803 211.573 78.1211 211.483 78.0793C210.178 77.4724 208.849 76.8655 207.52 76.3375C207.336 76.2709 207.133 76.2779 206.955 76.3571C206.776 76.4362 206.634 76.5814 206.56 76.7623C206.486 76.9431 206.484 77.1458 206.555 77.3278C206.627 77.5099 206.766 77.6574 206.943 77.7394C208.248 78.2856 209.559 78.8621 210.846 79.4569C210.945 79.502 211.052 79.5248 211.161 79.5236C211.31 79.5219 211.454 79.4768 211.577 79.3937C211.7 79.3107 211.796 79.1933 211.853 79.0563V79.0867ZM132.104 76.2222C133.433 75.7367 134.786 75.2694 136.127 74.8385C136.225 74.811 136.317 74.764 136.396 74.7004C136.476 74.6367 136.542 74.5576 136.59 74.4679C136.639 74.3782 136.668 74.2797 136.678 74.1782C136.687 74.0768 136.676 73.9744 136.645 73.8773C136.614 73.7803 136.564 73.6904 136.497 73.6132C136.431 73.536 136.349 73.4729 136.258 73.4278C136.167 73.3827 136.067 73.3565 135.965 73.3507C135.864 73.345 135.762 73.3597 135.666 73.3942C134.3 73.8311 132.929 74.3045 131.582 74.7961C131.488 74.8303 131.402 74.8827 131.329 74.9502C131.255 75.0177 131.196 75.099 131.154 75.1894C131.112 75.2799 131.088 75.3777 131.084 75.4773C131.08 75.577 131.095 75.6765 131.129 75.7701C131.164 75.8637 131.216 75.9497 131.284 76.0231C131.351 76.0965 131.432 76.1559 131.523 76.1979C131.613 76.2399 131.711 76.2636 131.811 76.2678C131.91 76.272 132.01 76.2565 132.104 76.2222ZM203.945 75.7428C204.012 75.5528 204.002 75.3441 203.917 75.1615C203.832 74.9788 203.679 74.8368 203.49 74.7657C202.149 74.2742 200.771 73.8008 199.4 73.3638C199.305 73.3332 199.205 73.3215 199.106 73.3294C199.006 73.3373 198.91 73.3648 198.821 73.4101C198.732 73.4555 198.653 73.5179 198.588 73.5938C198.524 73.6697 198.475 73.7575 198.444 73.8524C198.413 73.9472 198.402 74.0472 198.41 74.1465C198.418 74.2459 198.445 74.3427 198.49 74.4315C198.536 74.5202 198.598 74.5992 198.674 74.6638C198.75 74.7285 198.838 74.7775 198.933 74.8082C200.292 75.2452 201.645 75.7064 202.968 76.1919C203.052 76.2226 203.14 76.239 203.229 76.2404C203.389 76.2372 203.543 76.1847 203.671 76.0902C203.799 75.9956 203.895 75.8637 203.945 75.7124V75.7428ZM140.224 73.6248C141.589 73.2546 142.973 72.9026 144.35 72.587C144.447 72.5643 144.539 72.5227 144.62 72.4645C144.702 72.4063 144.77 72.3327 144.823 72.2479C144.876 72.1631 144.911 72.0687 144.928 71.9702C144.944 71.8717 144.94 71.7709 144.918 71.6737C144.895 71.5765 144.853 71.4847 144.795 71.4035C144.737 71.3224 144.663 71.2535 144.579 71.2008C144.494 71.1481 144.399 71.1127 144.301 71.0964C144.202 71.0802 144.102 71.0836 144.004 71.1063C142.615 71.4279 141.207 71.786 139.823 72.1622C139.724 72.1859 139.631 72.2293 139.549 72.2897C139.468 72.3501 139.399 72.4263 139.347 72.5138C139.295 72.6013 139.262 72.6983 139.248 72.799C139.235 72.8998 139.242 73.0022 139.268 73.1002C139.295 73.1983 139.341 73.2899 139.404 73.3697C139.467 73.4495 139.546 73.5159 139.635 73.5648C139.724 73.6137 139.822 73.6443 139.923 73.6546C140.024 73.6649 140.126 73.6547 140.224 73.6248ZM195.807 73.0665C195.859 72.8725 195.832 72.6659 195.732 72.4919C195.632 72.3178 195.467 72.1905 195.273 72.138C193.896 71.7556 192.488 71.4036 191.092 71.082C190.895 71.0369 190.689 71.0717 190.518 71.1787C190.348 71.2857 190.227 71.4561 190.181 71.6525C190.136 71.8488 190.171 72.055 190.278 72.2258C190.385 72.3965 190.556 72.5177 190.752 72.5628C192.13 72.8783 193.513 73.2243 194.873 73.6005C194.939 73.6091 195.006 73.6091 195.073 73.6005C195.237 73.5968 195.396 73.5397 195.525 73.4379C195.654 73.3361 195.747 73.1951 195.789 73.0361L195.807 73.0665ZM148.513 71.7131C149.903 71.4522 151.311 71.2155 152.707 71.0152C152.81 71.0061 152.91 70.976 153 70.927C153.091 70.8779 153.171 70.8109 153.235 70.7299C153.299 70.6489 153.346 70.5557 153.372 70.4561C153.399 70.3564 153.405 70.2523 153.39 70.1502C153.375 70.0481 153.34 69.9501 153.286 69.8622C153.232 69.7743 153.16 69.6984 153.076 69.639C152.991 69.5797 152.896 69.5382 152.795 69.5171C152.694 69.496 152.59 69.4957 152.488 69.5163C151.074 69.7165 149.642 69.9593 148.24 70.2202C148.054 70.254 147.887 70.3561 147.772 70.5066C147.658 70.6571 147.603 70.8452 147.62 71.0337C147.637 71.2223 147.723 71.3978 147.863 71.5257C148.002 71.6537 148.185 71.7249 148.374 71.7253L148.513 71.7131ZM187.469 71.1063C187.487 71.0082 187.486 70.9075 187.466 70.8099C187.445 70.7123 187.405 70.6197 187.349 70.5374C187.293 70.4551 187.221 70.3847 187.137 70.3303C187.053 70.2759 186.96 70.2385 186.862 70.2202C185.454 69.9593 184.022 69.7226 182.614 69.5163C182.515 69.5023 182.414 69.508 182.318 69.5329C182.221 69.5578 182.13 69.6015 182.05 69.6616C181.971 69.7216 181.904 69.7967 181.853 69.8827C181.802 69.9686 181.769 70.0638 181.755 70.1626C181.741 70.2614 181.747 70.362 181.772 70.4586C181.797 70.5553 181.84 70.6461 181.9 70.7258C181.96 70.8055 182.035 70.8727 182.121 70.9234C182.207 70.9741 182.302 71.0074 182.401 71.0213C183.797 71.2216 185.211 71.4522 186.595 71.7131H186.734C186.912 71.7048 187.08 71.6347 187.211 71.515C187.342 71.3952 187.427 71.2334 187.451 71.0577L187.469 71.1063ZM156.931 70.4994C158.333 70.3537 159.759 70.2384 161.179 70.1535C161.279 70.1473 161.376 70.1215 161.466 70.0775C161.555 70.0336 161.636 69.9724 161.702 69.8974C161.768 69.8224 161.818 69.7351 161.85 69.6405C161.882 69.546 161.896 69.446 161.889 69.3463C161.884 69.2466 161.86 69.1489 161.817 69.0588C161.774 68.9688 161.713 68.8883 161.638 68.8221C161.564 68.7559 161.477 68.7053 161.382 68.6734C161.287 68.6415 161.187 68.6289 161.088 68.6363C159.656 68.7212 158.211 68.8426 156.785 68.9883C156.584 68.9987 156.395 69.0887 156.26 69.2384C156.125 69.388 156.056 69.5851 156.066 69.7863C156.076 69.9875 156.166 70.1763 156.316 70.3112C156.466 70.446 156.663 70.5159 156.864 70.5055L156.931 70.4994ZM178.979 69.7651C178.989 69.6658 178.979 69.5656 178.95 69.4701C178.922 69.3745 178.874 69.2856 178.811 69.2084C178.748 69.1312 178.67 69.0672 178.582 69.02C178.494 68.9729 178.398 68.9435 178.299 68.9337C176.879 68.788 175.434 68.6666 173.996 68.5817C173.795 68.5696 173.597 68.6379 173.446 68.7717C173.296 68.9054 173.204 69.0936 173.192 69.2947C173.18 69.4959 173.248 69.6937 173.382 69.8445C173.516 69.9953 173.704 70.0868 173.905 70.0989C175.319 70.1838 176.745 70.2991 178.153 70.4387H178.232C178.417 70.4369 178.595 70.3674 178.733 70.2433C178.87 70.1192 178.958 69.9491 178.979 69.7651ZM165.403 69.9289C166.113 69.9289 166.823 69.9289 167.539 69.9289C168.255 69.9289 168.953 69.9289 169.657 69.9289C169.858 69.9289 170.051 69.849 170.193 69.7067C170.336 69.5645 170.416 69.3715 170.416 69.1703C170.416 68.9691 170.336 68.7762 170.193 68.6339C170.051 68.4917 169.858 68.4117 169.657 68.4117C168.953 68.4117 168.255 68.4117 167.551 68.4117C166.847 68.4117 166.076 68.4117 165.342 68.4117C165.141 68.4117 164.948 68.4917 164.806 68.6339C164.663 68.7762 164.583 68.9691 164.583 69.1703C164.583 69.3715 164.663 69.5645 164.806 69.7067C164.948 69.849 165.141 69.9289 165.342 69.9289H165.403ZM272 172.849C272 172.133 272 171.423 272 170.707C271.997 170.508 271.916 170.319 271.774 170.18C271.631 170.041 271.44 169.965 271.242 169.966C271.142 169.968 271.044 169.989 270.953 170.029C270.862 170.068 270.78 170.126 270.711 170.197C270.642 170.269 270.588 170.354 270.552 170.446C270.516 170.539 270.499 170.638 270.501 170.737C270.501 171.441 270.501 172.145 270.501 172.849C270.501 173.05 270.581 173.243 270.724 173.385C270.866 173.528 271.059 173.607 271.26 173.607C271.461 173.607 271.654 173.528 271.796 173.385C271.939 173.243 272.019 173.05 272.019 172.849H272Z" fill="#231F20"/>
<path d="M269.063 131.442H223.25C221.353 131.442 219.815 132.98 219.815 134.877V221.15C219.815 223.047 221.353 224.585 223.25 224.585H269.063C270.96 224.585 272.498 223.047 272.498 221.15V134.877C272.498 132.98 270.96 131.442 269.063 131.442Z" fill="#E6E7E8"/>
<path d="M262.976 134.543H229.337V136.121H262.976V134.543Z" fill="white"/>
<path d="M270.853 138.457H221.466V216.95H270.853V138.457Z" fill="#232B33"/>
<path d="M249.546 210.608C249.546 211.28 249.347 211.936 248.974 212.494C248.601 213.052 248.071 213.487 247.45 213.743C246.83 214 246.148 214.067 245.489 213.935C244.831 213.804 244.227 213.48 243.753 213.005C243.278 212.53 242.956 211.925 242.826 211.267C242.695 210.608 242.763 209.926 243.021 209.306C243.279 208.686 243.715 208.157 244.273 207.785C244.832 207.413 245.488 207.215 246.16 207.216C246.605 207.216 247.046 207.304 247.457 207.474C247.868 207.645 248.242 207.895 248.556 208.21C248.871 208.525 249.12 208.899 249.29 209.311C249.46 209.722 249.547 210.163 249.546 210.608Z" fill="#E6E7E8"/>
<mask id="mask0_3_5458" style="mask-type:luminance" maskUnits="userSpaceOnUse" x="221" y="138" width="50" height="79">
<path d="M270.853 138.457H221.466V216.95H270.853V138.457Z" fill="white"/>
</mask>
<g mask="url(#mask0_3_5458)">
<path d="M287.827 151.821H204.734C203.648 151.821 202.768 152.701 202.768 153.787V199.952C202.768 201.038 203.648 201.918 204.734 201.918H287.827C288.913 201.918 289.794 201.038 289.794 199.952V153.787C289.794 152.701 288.913 151.821 287.827 151.821Z" fill="#3A4755"/>
<path d="M289.794 156.657H202.768V189.902H289.794V156.657Z" fill="#232B33"/>
<path d="M255.809 167.715C255.809 169.607 255.247 171.458 254.196 173.032C253.144 174.605 251.649 175.832 249.901 176.556C248.152 177.281 246.228 177.47 244.371 177.101C242.515 176.732 240.809 175.82 239.471 174.482C238.133 173.143 237.221 171.438 236.852 169.582C236.482 167.725 236.672 165.801 237.396 164.052C238.121 162.303 239.347 160.809 240.921 159.757C242.495 158.705 244.345 158.144 246.238 158.144C247.495 158.143 248.74 158.39 249.902 158.871C251.063 159.352 252.119 160.057 253.007 160.945C253.896 161.834 254.601 162.89 255.082 164.051C255.562 165.213 255.809 166.458 255.809 167.715Z" fill="#FDD7C2"/>
<path d="M232.195 195.94L233.731 193.853L234.271 195.94H258.503L259.043 193.853L260.579 195.94H267.582C266.902 194.12 262.855 183.232 261.374 181.333C259.759 179.251 253.824 178.068 253.824 178.068L246.208 180.216L238.707 178.098C238.707 178.098 232.772 179.312 231.157 181.363C229.677 183.263 225.635 194.108 224.949 195.971L232.195 195.94Z" fill="#27AAE1"/>
<path d="M247.07 179.646H245.322L244.393 191L246.196 192.694L247.998 191L247.07 179.646Z" fill="#232B33"/>
<path d="M247.804 179.476H244.582L244.393 180.313L246.196 182.019L247.998 180.289L247.804 179.476Z" fill="#232B33"/>
<path d="M276.564 189.902H215.306V200.692H276.564V189.902Z" fill="#3A4755"/>
<path d="M238.312 196.165C238.314 196.732 238.147 197.287 237.832 197.759C237.518 198.231 237.071 198.599 236.547 198.816C236.023 199.034 235.447 199.091 234.891 198.981C234.335 198.87 233.824 198.597 233.423 198.196C233.022 197.795 232.749 197.284 232.638 196.728C232.528 196.172 232.585 195.596 232.803 195.072C233.02 194.548 233.388 194.101 233.86 193.787C234.332 193.472 234.887 193.305 235.454 193.306C236.212 193.306 236.939 193.608 237.475 194.144C238.011 194.68 238.312 195.407 238.312 196.165Z" fill="white"/>
<path d="M237.627 197.336L236.213 196.863V195.376L237.627 194.981V197.336Z" fill="white"/>
<path d="M236.395 194.739H233.36V197.439H236.395V194.739Z" fill="#3A4755"/>
<path d="M252.732 196.165C252.733 196.732 252.566 197.286 252.252 197.758C251.938 198.23 251.491 198.598 250.968 198.816C250.445 199.033 249.868 199.091 249.312 198.981C248.756 198.871 248.245 198.599 247.844 198.199C247.443 197.798 247.17 197.288 247.059 196.732C246.948 196.176 247.004 195.6 247.221 195.076C247.437 194.552 247.804 194.105 248.275 193.79C248.747 193.475 249.301 193.306 249.868 193.306C250.243 193.306 250.616 193.379 250.963 193.522C251.311 193.666 251.627 193.876 251.893 194.142C252.159 194.407 252.37 194.722 252.514 195.07C252.658 195.417 252.732 195.789 252.732 196.165Z" fill="white"/>
<path d="M251.761 194.927H247.98V197.002H251.761V194.927Z" fill="white"/>
<path d="M251.008 197.19H248.733V197.421H251.008V197.19Z" fill="white"/>
<path d="M250.717 197.251H249.024L249.461 196.972H250.286L250.717 197.251Z" fill="white"/>
<path d="M251.524 195.17H248.217V196.76H251.524V195.17Z" fill="#3A4755"/>
<path d="M245.522 196.165C245.523 196.732 245.356 197.287 245.042 197.759C244.728 198.231 244.28 198.599 243.757 198.816C243.233 199.034 242.657 199.091 242.1 198.981C241.544 198.87 241.033 198.597 240.632 198.196C240.231 197.795 239.958 197.284 239.848 196.728C239.738 196.172 239.795 195.596 240.012 195.072C240.23 194.548 240.598 194.101 241.07 193.787C241.542 193.472 242.097 193.305 242.664 193.306C243.422 193.306 244.149 193.608 244.685 194.144C245.221 194.68 245.522 195.407 245.522 196.165Z" fill="white"/>
<path d="M243.034 195.837H242.287V198.077H243.034V195.837Z" fill="white"/>
<path d="M243.416 196.729C243.415 196.928 243.335 197.118 243.194 197.257C243.053 197.397 242.862 197.476 242.664 197.476C242.465 197.476 242.275 197.397 242.134 197.257C241.993 197.118 241.913 196.928 241.911 196.729V195.188C241.911 194.988 241.991 194.797 242.132 194.656C242.273 194.515 242.464 194.435 242.664 194.435C242.863 194.435 243.055 194.515 243.196 194.656C243.337 194.797 243.416 194.988 243.416 195.188V196.729Z" fill="#3A4755"/>
<path d="M243.695 195.564H241.632V195.849H243.695V195.564Z" fill="white"/>
<path d="M259.941 196.165C259.943 196.732 259.775 197.287 259.461 197.759C259.147 198.231 258.7 198.599 258.176 198.816C257.652 199.034 257.076 199.091 256.52 198.981C255.963 198.87 255.452 198.597 255.052 198.196C254.651 197.795 254.378 197.284 254.267 196.728C254.157 196.172 254.214 195.596 254.432 195.072C254.649 194.548 255.017 194.101 255.489 193.787C255.961 193.472 256.516 193.305 257.083 193.306C257.841 193.306 258.568 193.608 259.104 194.144C259.64 194.68 259.941 195.407 259.941 196.165Z" fill="white"/>
<path d="M258.073 197.488L257.739 197.057C258.066 196.796 257.842 196.195 257.49 195.746C257.138 195.297 256.616 194.921 256.276 195.182L255.942 194.745C256.489 194.326 257.278 194.593 257.915 195.412C258.552 196.232 258.649 197.063 258.073 197.488Z" fill="#3A4755"/>
<path d="M258.103 197.943C257.854 198.137 257.678 197.9 257.447 197.609C257.217 197.318 257.041 197.087 257.29 196.893C257.43 196.818 257.592 196.795 257.748 196.829C257.903 196.862 258.042 196.949 258.139 197.075C258.236 197.201 258.286 197.357 258.28 197.516C258.273 197.674 258.21 197.826 258.103 197.943Z" fill="#3A4755"/>
<path d="M256.337 195.661C256.088 195.855 255.906 195.619 255.681 195.327C255.457 195.036 255.275 194.799 255.523 194.605C255.665 194.526 255.829 194.501 255.988 194.533C256.146 194.566 256.287 194.654 256.386 194.782C256.484 194.91 256.534 195.069 256.525 195.231C256.516 195.392 256.449 195.545 256.337 195.661Z" fill="#3A4755"/>
</g>
<path d="M257.338 188.561C257.301 188.56 257.264 188.552 257.23 188.537C257.195 188.522 257.164 188.5 257.138 188.473C257.112 188.446 257.092 188.414 257.079 188.379C257.065 188.344 257.058 188.307 257.059 188.27V181.43C257.058 181.393 257.065 181.355 257.079 181.32C257.092 181.286 257.112 181.254 257.138 181.227C257.164 181.2 257.195 181.178 257.23 181.163C257.264 181.148 257.301 181.14 257.338 181.139H269.318C269.356 181.139 269.394 181.146 269.429 181.161C269.464 181.176 269.495 181.197 269.522 181.224C269.548 181.252 269.569 181.284 269.583 181.319C269.597 181.354 269.604 181.392 269.603 181.43V188.257C269.604 188.295 269.597 188.333 269.583 188.368C269.569 188.404 269.548 188.436 269.522 188.463C269.495 188.49 269.464 188.512 269.429 188.526C269.394 188.541 269.356 188.549 269.318 188.549L257.338 188.561Z" fill="white"/>
<path d="M257.52 181.351H269.142C269.216 181.351 269.287 181.38 269.339 181.433C269.392 181.485 269.421 181.556 269.421 181.63V188.106C269.421 188.18 269.392 188.251 269.339 188.303C269.287 188.355 269.216 188.385 269.142 188.385H257.52C257.448 188.385 257.379 188.356 257.327 188.305C257.276 188.253 257.247 188.184 257.247 188.112V181.624C257.247 181.552 257.276 181.482 257.327 181.431C257.379 181.38 257.448 181.351 257.52 181.351Z" fill="#232B33"/>
<mask id="mask1_3_5458" style="mask-type:luminance" maskUnits="userSpaceOnUse" x="257" y="181" width="13" height="8">
<path d="M257.52 181.351H269.142C269.216 181.351 269.287 181.38 269.339 181.433C269.392 181.485 269.421 181.556 269.421 181.63V188.106C269.421 188.18 269.392 188.251 269.339 188.303C269.287 188.355 269.216 188.385 269.142 188.385H257.52C257.448 188.385 257.379 188.356 257.327 188.305C257.276 188.253 257.247 188.184 257.247 188.112V181.624C257.247 181.552 257.276 181.482 257.327 181.431C257.379 181.38 257.448 181.351 257.52 181.351Z" fill="white"/>
</mask>
<g mask="url(#mask1_3_5458)">
<path d="M265.325 183.9C265.326 184.291 265.211 184.675 264.994 185.001C264.778 185.327 264.469 185.581 264.108 185.732C263.746 185.883 263.348 185.923 262.964 185.847C262.58 185.771 262.227 185.583 261.95 185.307C261.672 185.031 261.483 184.678 261.407 184.294C261.33 183.91 261.368 183.512 261.518 183.15C261.668 182.788 261.921 182.479 262.247 182.261C262.572 182.044 262.955 181.928 263.346 181.928C263.87 181.928 264.372 182.135 264.743 182.505C265.114 182.875 265.323 183.376 265.325 183.9Z" fill="#FDD7C2"/>
<path d="M260.427 189.72L260.743 189.289L260.852 189.72H265.853L265.962 189.289L266.278 189.72H267.752C267.392 188.681 266.962 187.667 266.466 186.685C266.132 186.261 264.912 186.012 264.912 186.012L263.34 186.449L261.793 186.012C261.793 186.012 260.579 186.261 260.239 186.685C259.745 187.667 259.317 188.681 258.959 189.72H260.427Z" fill="#F7941E"/>
<path d="M263.492 186.358H263.134L262.94 188.7L263.316 189.052L263.686 188.7L263.492 186.358Z" fill="#232B33"/>
<path d="M263.644 186.321H262.982L262.94 186.497L263.316 186.849L263.686 186.491L263.644 186.321Z" fill="#232B33"/>
</g>
<path opacity="0.2" d="M257.521 181.351C257.448 181.351 257.377 181.38 257.325 181.431C257.273 181.482 257.243 181.551 257.241 181.624V188.106C257.243 188.179 257.273 188.249 257.325 188.301C257.377 188.353 257.447 188.383 257.521 188.385H261.077L268.086 181.375L257.521 181.351Z" fill="white"/>
<path opacity="0.2" d="M270.853 149.496V138.457H221.466V198.884L270.853 149.496Z" fill="white"/>
<path d="M140.503 199.849H88.3964V205.766H140.503V199.849Z" fill="#A7A9AC"/>
<path d="M146.232 209.486H82.6736L88.3964 203.569H140.509L146.232 209.486Z" fill="#F1F2F2"/>
<path d="M168.656 130.464H60.2495C57.3503 130.464 55 132.815 55 135.714V195.94C55 198.839 57.3503 201.19 60.2495 201.19H168.656C171.555 201.19 173.905 198.839 173.905 195.94V135.714C173.905 132.815 171.555 130.464 168.656 130.464Z" fill="#232B33"/>
<path d="M55 185.721V195.94C55 197.333 55.5531 198.668 56.5375 199.652C57.522 200.637 58.8572 201.19 60.2495 201.19H168.656C170.048 201.19 171.383 200.637 172.367 199.652C173.352 198.668 173.905 197.333 173.905 195.94V185.721H55Z" fill="white"/>
<path d="M117.508 192.961C117.508 193.561 117.33 194.147 116.997 194.646C116.663 195.145 116.189 195.534 115.635 195.764C115.08 195.994 114.47 196.054 113.882 195.937C113.293 195.82 112.752 195.531 112.328 195.106C111.904 194.682 111.615 194.141 111.498 193.553C111.381 192.964 111.441 192.354 111.67 191.799C111.9 191.245 112.289 190.771 112.788 190.438C113.287 190.104 113.874 189.926 114.474 189.926C115.278 189.926 116.05 190.246 116.619 190.815C117.188 191.384 117.508 192.156 117.508 192.961Z" fill="#232B33"/>
<path d="M62.7741 179.282H61.3419V184.003H62.7741V179.282Z" fill="white"/>
<path d="M66.0696 179.282H64.6373V184.003H66.0696V179.282Z" fill="white"/>
<path d="M168.813 180.811H70.5907V182.48H168.813V180.811Z" fill="white"/>
<path d="M103.247 180.811H70.5907V182.48H103.247V180.811Z" fill="#27AAE1"/>
<mask id="mask2_3_5458" style="mask-type:luminance" maskUnits="userSpaceOnUse" x="55" y="130" width="119" height="48">
<path d="M168.656 130.452H60.2495C58.8572 130.452 57.522 131.005 56.5375 131.99C55.5531 132.974 55 134.31 55 135.702V177.576H173.905V135.702C173.905 134.31 173.352 132.974 172.367 131.99C171.383 131.005 170.048 130.452 168.656 130.452Z" fill="white"/>
</mask>
<g mask="url(#mask2_3_5458)">
<path d="M55.9892 175.525C54.4356 175.525 53.1733 174.724 53.1733 173.747V132.049C53.1733 131.065 54.4356 130.27 55.9892 130.27H174.779C176.333 130.27 177.595 131.065 177.595 132.049V173.747C177.595 174.724 176.333 175.525 174.779 175.525H55.9892Z" fill="#3A4755"/>
<path d="M178.026 134.634H52.7424V164.662H178.026V134.634Z" fill="#232B33"/>
<path d="M123.996 144.629C123.996 146.34 123.488 148.012 122.538 149.434C121.588 150.856 120.237 151.964 118.657 152.619C117.077 153.273 115.338 153.445 113.661 153.111C111.983 152.777 110.442 151.954 109.233 150.744C108.023 149.535 107.2 147.994 106.866 146.316C106.532 144.639 106.703 142.9 107.358 141.32C108.013 139.74 109.121 138.389 110.543 137.439C111.965 136.488 113.637 135.981 115.348 135.981C117.641 135.981 119.841 136.892 121.463 138.514C123.085 140.136 123.996 142.336 123.996 144.629Z" fill="#FDD7C2"/>
<path d="M102.682 170.118L104.066 168.237L104.551 170.118H126.447L126.939 168.237L128.323 170.118H134.646C134.039 168.455 130.398 158.642 129.039 156.924C127.582 155.043 122.224 153.975 122.224 153.975L115.342 155.887L108.563 153.975C108.563 153.975 103.204 155.043 101.742 156.924C100.406 158.642 96.7531 168.455 96.1401 170.118H102.682Z" fill="#27AAE1"/>
<path d="M116.1 155.401H114.516L113.679 165.663L115.311 167.193L116.938 165.663L116.1 155.401Z" fill="#232B33"/>
<path d="M116.762 155.249H113.855L113.679 156.002L115.311 157.543L116.938 155.978L116.762 155.249Z" fill="#232B33"/>
<path d="M142.742 164.662H87.4071V174.408H142.742V164.662Z" fill="#3A4755"/>
<path d="M108.186 170.324C108.186 170.836 108.035 171.336 107.75 171.761C107.466 172.186 107.062 172.518 106.589 172.713C106.116 172.909 105.596 172.96 105.095 172.859C104.593 172.759 104.132 172.512 103.771 172.15C103.41 171.788 103.164 171.327 103.065 170.825C102.966 170.323 103.018 169.803 103.214 169.331C103.411 168.858 103.743 168.455 104.169 168.172C104.595 167.888 105.096 167.738 105.607 167.739C105.946 167.739 106.282 167.806 106.596 167.936C106.909 168.066 107.194 168.256 107.433 168.497C107.673 168.737 107.863 169.022 107.992 169.335C108.121 169.649 108.187 169.985 108.186 170.324Z" fill="white"/>
<path d="M107.568 171.38L106.293 170.955V169.614L107.568 169.256V171.38Z" fill="white"/>
<path d="M106.457 169.038H103.714V171.471H106.457V169.038Z" fill="#3A4755"/>
<path d="M121.216 170.324C121.216 170.836 121.064 171.335 120.78 171.761C120.496 172.186 120.093 172.517 119.62 172.713C119.148 172.908 118.628 172.96 118.126 172.86C117.625 172.76 117.164 172.514 116.803 172.152C116.441 171.791 116.195 171.33 116.095 170.829C115.995 170.327 116.047 169.807 116.242 169.335C116.438 168.862 116.769 168.459 117.195 168.175C117.62 167.891 118.119 167.739 118.631 167.739C119.316 167.739 119.974 168.011 120.459 168.496C120.944 168.981 121.216 169.639 121.216 170.324Z" fill="white"/>
<path d="M120.336 169.208H116.92V171.077H120.336V169.208Z" fill="white"/>
<path d="M119.663 171.253H117.605V171.459H119.663V171.253Z" fill="white"/>
<path d="M119.395 171.307H117.866L118.261 171.052H119.001L119.395 171.307Z" fill="white"/>
<path d="M120.124 169.426H117.138V170.864H120.124V169.426Z" fill="#3A4755"/>
<path d="M114.704 170.324C114.704 170.836 114.553 171.335 114.269 171.761C113.985 172.186 113.581 172.517 113.108 172.713C112.636 172.908 112.116 172.96 111.615 172.86C111.113 172.76 110.653 172.514 110.291 172.152C109.929 171.791 109.683 171.33 109.583 170.829C109.484 170.327 109.535 169.807 109.731 169.335C109.926 168.862 110.258 168.459 110.683 168.175C111.108 167.891 111.608 167.739 112.119 167.739C112.805 167.739 113.462 168.011 113.947 168.496C114.432 168.981 114.704 169.639 114.704 170.324Z" fill="white"/>
<path d="M112.459 170.027H111.785V172.048H112.459V170.027Z" fill="white"/>
<path d="M112.799 170.834C112.799 171.014 112.727 171.187 112.6 171.315C112.472 171.442 112.299 171.514 112.119 171.514C111.94 171.512 111.769 171.44 111.642 171.312C111.516 171.185 111.445 171.013 111.445 170.834V169.438C111.445 169.35 111.463 169.262 111.497 169.18C111.531 169.099 111.58 169.024 111.643 168.962C111.705 168.899 111.78 168.85 111.861 168.816C111.943 168.782 112.031 168.764 112.119 168.764C112.298 168.764 112.47 168.835 112.598 168.961C112.725 169.088 112.797 169.259 112.799 169.438V170.834Z" fill="#3A4755"/>
<path d="M113.054 169.778H111.191V170.033H113.054V169.778Z" fill="white"/>
<path d="M127.728 170.324C127.728 170.836 127.576 171.335 127.292 171.761C127.008 172.186 126.604 172.517 126.132 172.713C125.659 172.908 125.14 172.96 124.638 172.86C124.137 172.76 123.676 172.514 123.314 172.152C122.953 171.791 122.707 171.33 122.607 170.829C122.507 170.327 122.558 169.807 122.754 169.335C122.95 168.862 123.281 168.459 123.706 168.175C124.131 167.891 124.631 167.739 125.143 167.739C125.828 167.739 126.486 168.011 126.971 168.496C127.455 168.981 127.728 169.639 127.728 170.324Z" fill="white"/>
<path d="M126.041 171.52L125.743 171.113C126.041 170.883 125.834 170.336 125.519 169.93C125.203 169.523 124.73 169.189 124.433 169.414L124.129 169.026C124.621 168.643 125.343 168.886 125.913 169.632C126.484 170.379 126.532 171.113 126.041 171.52Z" fill="#3A4755"/>
<path d="M126.071 171.932C125.847 172.108 125.683 171.896 125.464 171.629C125.246 171.362 125.094 171.156 125.319 170.986C125.445 170.913 125.594 170.888 125.738 170.916C125.881 170.943 126.01 171.022 126.1 171.137C126.19 171.253 126.236 171.397 126.228 171.543C126.221 171.689 126.161 171.827 126.059 171.932H126.071Z" fill="#3A4755"/>
<path d="M124.469 169.899C124.244 170.075 124.081 169.857 123.862 169.596C123.644 169.335 123.492 169.123 123.716 168.947C123.842 168.868 123.993 168.841 124.138 168.871C124.283 168.902 124.41 168.988 124.493 169.111C124.593 169.219 124.647 169.362 124.642 169.51C124.637 169.657 124.575 169.797 124.469 169.899Z" fill="#3A4755"/>
</g>
<path d="M145.406 150.364C145.257 150.361 145.116 150.299 145.013 150.192C144.909 150.085 144.852 149.942 144.854 149.793V136.442C144.852 136.294 144.909 136.15 145.013 136.043C145.116 135.937 145.257 135.875 145.406 135.872H168.789C168.938 135.875 169.079 135.937 169.182 136.043C169.286 136.15 169.343 136.294 169.341 136.442V149.793C169.343 149.942 169.286 150.085 169.182 150.192C169.079 150.299 168.938 150.361 168.789 150.364H145.406Z" fill="white"/>
<path d="M145.77 136.285H168.461C168.605 136.285 168.742 136.341 168.843 136.443C168.945 136.544 169.002 136.681 169.002 136.825V149.429C169.002 149.573 168.945 149.71 168.843 149.811C168.742 149.913 168.605 149.97 168.461 149.97H145.77C145.629 149.97 145.493 149.913 145.393 149.813C145.293 149.713 145.236 149.577 145.236 149.436V136.825C145.236 136.682 145.292 136.546 145.392 136.445C145.492 136.344 145.628 136.286 145.77 136.285Z" fill="#232B33"/>
<mask id="mask3_3_5458" style="mask-type:luminance" maskUnits="userSpaceOnUse" x="145" y="136" width="25" height="14">
<path d="M145.77 136.285H168.461C168.605 136.285 168.742 136.341 168.843 136.443C168.945 136.544 169.002 136.681 169.002 136.825V149.429C169.002 149.573 168.945 149.71 168.843 149.811C168.742 149.913 168.605 149.97 168.461 149.97H145.77C145.629 149.97 145.493 149.913 145.393 149.813C145.293 149.713 145.236 149.577 145.236 149.436V136.825C145.236 136.682 145.292 136.546 145.392 136.445C145.492 136.344 145.628 136.286 145.77 136.285Z" fill="white"/>
</mask>
<g mask="url(#mask3_3_5458)">
<path d="M160.942 141.261C160.942 142.023 160.716 142.768 160.293 143.402C159.87 144.036 159.268 144.53 158.563 144.821C157.859 145.113 157.084 145.189 156.337 145.041C155.589 144.892 154.903 144.525 154.364 143.986C153.825 143.447 153.458 142.76 153.309 142.013C153.16 141.265 153.237 140.49 153.528 139.786C153.82 139.082 154.314 138.48 154.948 138.057C155.582 137.633 156.327 137.407 157.089 137.407C158.111 137.407 159.091 137.813 159.814 138.536C160.536 139.259 160.942 140.239 160.942 141.261Z" fill="#FDD7C2"/>
<path d="M151.427 152.628L152.033 151.784L152.252 152.628H162.01L162.229 151.784L162.836 152.628H165.652C165.379 151.881 163.746 147.512 163.151 146.747C162.557 145.982 160.117 145.43 160.117 145.43L157.046 146.28L154.012 145.43C154.012 145.43 151.627 145.904 150.977 146.747C150.328 147.591 148.756 151.881 148.483 152.628H151.427Z" fill="#F7941E"/>
<path d="M157.416 146.061H156.712L156.342 150.637L157.064 151.317L157.793 150.637L157.416 146.061Z" fill="#232B33"/>
<path d="M157.714 145.995H156.415L156.342 146.334L157.064 147.02L157.793 146.322L157.714 145.995Z" fill="#232B33"/>
</g>
<path opacity="0.2" d="M145.77 136.285C145.627 136.285 145.49 136.341 145.388 136.443C145.287 136.544 145.23 136.681 145.23 136.825V149.429C145.23 149.573 145.287 149.71 145.388 149.811C145.49 149.913 145.627 149.97 145.77 149.97H152.658L166.337 136.285H145.77Z" fill="white"/>
<path opacity="0.2" d="M135.538 130.452H60.2495C58.8572 130.452 57.522 131.005 56.5375 131.99C55.5531 132.974 55 134.31 55 135.702V195.928C55 197.32 55.5531 198.656 56.5375 199.64C57.522 200.625 58.8572 201.178 60.2495 201.178H64.8132L135.538 130.452Z" fill="white"/>
<path d="M222.406 160.972H114C111.101 160.972 108.751 163.322 108.751 166.222V226.448C108.751 229.347 111.101 231.697 114 231.697H222.406C225.306 231.697 227.656 229.347 227.656 226.448V166.222C227.656 163.322 225.306 160.972 222.406 160.972Z" fill="#E6E7E8"/>
<path d="M237.324 245.267V241.231H99.1321V245.267C99.1321 245.924 99.393 246.554 99.8573 247.018C100.322 247.482 100.951 247.743 101.608 247.743H234.848C235.173 247.743 235.495 247.679 235.795 247.555C236.095 247.43 236.368 247.248 236.598 247.018C236.828 246.788 237.011 246.515 237.135 246.215C237.26 245.914 237.324 245.592 237.324 245.267Z" fill="#F1F2F2"/>
<path d="M236.577 239.945L229.835 233.658C227.814 231.989 224.579 231.703 223.475 231.655H112.999C111.901 231.703 108.66 231.989 106.639 233.658L99.9027 239.945C99.9027 239.945 97.3174 242.233 101.778 242.372H234.702C239.162 242.233 236.577 239.945 236.577 239.945Z" fill="#E6E7E8"/>
<path d="M182.444 238.859L180.811 237.341C180.359 237.032 179.824 236.863 179.276 236.856H157.173C156.623 236.863 156.087 237.032 155.632 237.341L154.006 238.859C154.006 238.859 153.399 239.411 154.455 239.465H181.989C183.069 239.411 182.444 238.859 182.444 238.859Z" fill="#BCBEC0"/>
<path d="M168.856 235.703H167.77V240.849H168.856V235.703Z" fill="white"/>
<path d="M222.413 163.655H114C112.583 163.655 111.433 164.804 111.433 166.222V226.448C111.433 227.866 112.583 229.015 114 229.015H222.413C223.83 229.015 224.98 227.866 224.98 226.448V166.222C224.98 164.804 223.83 163.655 222.413 163.655Z" fill="#3A4755"/>
<path d="M224.98 169.96H111.433V213.333H224.98V169.96Z" fill="#232B33"/>
<path d="M180.635 184.391C180.635 186.862 179.903 189.277 178.53 191.331C177.157 193.385 175.206 194.986 172.924 195.931C170.641 196.876 168.13 197.123 165.707 196.641C163.284 196.158 161.059 194.968 159.312 193.221C157.566 191.473 156.377 189.247 155.896 186.824C155.414 184.401 155.663 181.89 156.609 179.608C157.555 177.326 159.157 175.376 161.211 174.004C163.266 172.632 165.681 171.901 168.152 171.902C169.792 171.902 171.416 172.225 172.931 172.853C174.445 173.481 175.822 174.401 176.981 175.56C178.14 176.72 179.06 178.097 179.687 179.612C180.314 181.128 180.636 182.752 180.635 184.391Z" fill="#FDD7C2"/>
<path d="M149.83 221.211L151.827 218.492L152.531 221.211H184.155L184.859 218.492L186.862 221.211H195.995C195.109 218.783 189.829 204.637 187.9 202.155C185.794 199.436 178.05 197.907 178.05 197.907L168.115 200.668L158.321 197.907C158.321 197.907 150.583 199.448 148.477 202.155C146.547 204.637 141.267 218.807 140.375 221.211H149.83Z" fill="#27AAE1"/>
<path d="M169.238 199.952H166.95L165.743 214.772L168.091 216.981L170.446 214.772L169.238 199.952Z" fill="#232B33"/>
<path d="M170.191 199.733H165.991L165.743 200.826L168.091 203.047L170.446 200.789L170.191 199.733Z" fill="#232B33"/>
<path d="M207.714 213.333H127.789V227.413H207.714V213.333Z" fill="#3A4755"/>
<path d="M157.811 221.484C157.811 222.222 157.592 222.944 157.182 223.557C156.772 224.171 156.189 224.649 155.507 224.932C154.825 225.214 154.074 225.288 153.35 225.144C152.626 225 151.961 224.645 151.439 224.123C150.918 223.601 150.562 222.936 150.418 222.212C150.274 221.488 150.348 220.737 150.63 220.055C150.913 219.373 151.391 218.791 152.005 218.38C152.619 217.97 153.34 217.751 154.079 217.751C155.068 217.751 156.018 218.145 156.718 218.845C157.418 219.545 157.811 220.494 157.811 221.484Z" fill="white"/>
<path d="M156.913 223.037L155.074 222.418V220.482L156.913 219.967V223.037Z" fill="white"/>
<path d="M155.304 219.645H151.348V223.165H155.304V219.645Z" fill="#3A4755"/>
<path d="M176.624 221.484C176.624 222.222 176.405 222.944 175.995 223.557C175.585 224.171 175.002 224.649 174.32 224.932C173.638 225.214 172.887 225.288 172.163 225.144C171.439 225 170.774 224.645 170.252 224.123C169.73 223.601 169.375 222.936 169.231 222.212C169.087 221.488 169.161 220.737 169.443 220.055C169.726 219.373 170.204 218.791 170.818 218.38C171.432 217.97 172.153 217.751 172.891 217.751C173.881 217.751 174.831 218.145 175.531 218.845C176.231 219.545 176.624 220.494 176.624 221.484Z" fill="white"/>
<path d="M175.355 219.894H170.422V222.594H175.355V219.894Z" fill="white"/>
<path d="M174.373 222.849H171.405V223.146H174.373V222.849Z" fill="white"/>
<path d="M173.996 222.928H171.787L172.352 222.558H173.426L173.996 222.928Z" fill="white"/>
<path d="M175.046 220.209H170.731V222.285H175.046V220.209Z" fill="#3A4755"/>
<path d="M167.217 221.484C167.217 222.222 166.998 222.944 166.588 223.557C166.178 224.171 165.595 224.649 164.913 224.932C164.231 225.214 163.481 225.288 162.757 225.144C162.033 225 161.368 224.645 160.846 224.123C160.324 223.601 159.968 222.936 159.824 222.212C159.68 221.488 159.754 220.737 160.037 220.055C160.319 219.373 160.798 218.791 161.411 218.38C162.025 217.97 162.747 217.751 163.485 217.751C164.475 217.751 165.424 218.145 166.124 218.845C166.824 219.545 167.217 220.494 167.217 221.484Z" fill="white"/>
<path d="M163.971 221.077H163V223.996H163.971V221.077Z" fill="white"/>
<path d="M164.468 222.242C164.467 222.502 164.363 222.751 164.178 222.934C163.994 223.117 163.745 223.219 163.485 223.219C163.357 223.219 163.23 223.194 163.111 223.145C162.993 223.096 162.885 223.024 162.794 222.933C162.704 222.842 162.632 222.735 162.583 222.616C162.533 222.498 162.508 222.371 162.508 222.242V220.234C162.507 220.105 162.532 219.977 162.581 219.858C162.63 219.739 162.701 219.63 162.792 219.539C162.883 219.447 162.991 219.375 163.11 219.325C163.229 219.276 163.356 219.25 163.485 219.25C163.746 219.25 163.996 219.354 164.18 219.538C164.365 219.723 164.468 219.973 164.468 220.234V222.242Z" fill="#3A4755"/>
<path d="M164.832 220.719H162.144V221.089H164.832V220.719Z" fill="white"/>
<path d="M186.031 221.484C186.031 222.222 185.812 222.944 185.402 223.557C184.991 224.171 184.409 224.649 183.727 224.932C183.045 225.214 182.294 225.288 181.57 225.144C180.846 225 180.181 224.645 179.659 224.123C179.137 223.601 178.782 222.936 178.638 222.212C178.494 221.488 178.568 220.737 178.85 220.055C179.133 219.373 179.611 218.791 180.225 218.38C180.839 217.97 181.56 217.751 182.298 217.751C183.288 217.751 184.237 218.145 184.937 218.845C185.637 219.545 186.031 220.494 186.031 221.484Z" fill="white"/>
<path d="M183.591 223.231L183.154 222.667C183.585 222.333 183.287 221.55 182.832 220.962C182.377 220.373 181.691 219.888 181.26 220.221L180.823 219.657C181.54 219.105 182.571 219.451 183.403 220.525C184.234 221.599 184.307 222.697 183.591 223.231Z" fill="#3A4755"/>
<path d="M183.633 223.832C183.306 224.081 183.069 223.772 182.778 223.395C182.486 223.019 182.244 222.71 182.571 222.455C182.755 222.353 182.97 222.321 183.175 222.364C183.381 222.406 183.565 222.522 183.693 222.688C183.821 222.854 183.886 223.061 183.875 223.271C183.864 223.481 183.778 223.68 183.633 223.832Z" fill="#3A4755"/>
<path d="M181.327 220.877C181.005 221.126 180.763 220.816 180.471 220.44C180.18 220.064 179.943 219.748 180.265 219.499C180.449 219.398 180.663 219.365 180.869 219.408C181.075 219.451 181.259 219.566 181.387 219.732C181.515 219.899 181.58 220.106 181.569 220.316C181.558 220.526 181.472 220.725 181.327 220.877Z" fill="#3A4755"/>
<path opacity="0.2" d="M194.867 163.655H114C113.32 163.655 112.667 163.925 112.185 164.406C111.704 164.888 111.433 165.541 111.433 166.222V226.448C111.433 227.129 111.704 227.782 112.185 228.263C112.667 228.745 113.32 229.015 114 229.015H129.506L194.867 163.655Z" fill="white"/>
<path d="M199.782 185.812C199.708 185.811 199.635 185.795 199.567 185.766C199.498 185.737 199.437 185.695 199.385 185.642C199.333 185.589 199.292 185.526 199.264 185.458C199.237 185.389 199.223 185.315 199.224 185.241V171.89C199.224 171.741 199.282 171.599 199.387 171.493C199.491 171.387 199.633 171.327 199.782 171.326H223.165C223.238 171.326 223.311 171.342 223.378 171.37C223.446 171.399 223.507 171.441 223.558 171.493C223.609 171.546 223.65 171.608 223.677 171.676C223.704 171.744 223.718 171.817 223.717 171.89V185.241C223.719 185.39 223.662 185.533 223.558 185.64C223.455 185.747 223.314 185.808 223.165 185.812H199.782Z" fill="white"/>
<path d="M200.098 171.72H222.789C222.932 171.72 223.07 171.777 223.171 171.878C223.272 171.979 223.329 172.117 223.329 172.26V184.865C223.329 185.006 223.273 185.142 223.173 185.242C223.073 185.343 222.937 185.399 222.795 185.399H200.098C199.955 185.399 199.817 185.342 199.716 185.241C199.615 185.139 199.558 185.002 199.558 184.859V172.272C199.555 172.2 199.568 172.128 199.594 172.061C199.62 171.993 199.659 171.932 199.71 171.88C199.76 171.829 199.821 171.788 199.887 171.76C199.954 171.733 200.026 171.719 200.098 171.72Z" fill="#232B33"/>
<mask id="mask4_3_5458" style="mask-type:luminance" maskUnits="userSpaceOnUse" x="199" y="171" width="25" height="15">
<path d="M200.098 171.72H222.789C222.932 171.72 223.07 171.777 223.171 171.878C223.272 171.979 223.329 172.117 223.329 172.26V184.865C223.329 185.006 223.273 185.142 223.173 185.242C223.073 185.343 222.937 185.399 222.795 185.399H200.098C199.955 185.399 199.817 185.342 199.716 185.241C199.615 185.139 199.558 185.002 199.558 184.859V172.272C199.555 172.2 199.568 172.128 199.594 172.061C199.62 171.993 199.659 171.932 199.71 171.88C199.76 171.829 199.821 171.788 199.887 171.76C199.954 171.733 200.026 171.719 200.098 171.72Z" fill="white"/>
</mask>
<g mask="url(#mask4_3_5458)">
<path d="M215.282 176.708C215.282 177.471 215.056 178.216 214.632 178.849C214.209 179.483 213.607 179.977 212.903 180.269C212.199 180.56 211.424 180.637 210.676 180.488C209.929 180.339 209.242 179.972 208.703 179.433C208.164 178.894 207.797 178.208 207.649 177.46C207.5 176.713 207.576 175.938 207.868 175.234C208.159 174.529 208.653 173.928 209.287 173.504C209.921 173.081 210.666 172.855 211.428 172.855C212.45 172.856 213.429 173.263 214.151 173.985C214.874 174.708 215.28 175.687 215.282 176.708Z" fill="#FDD7C2"/>
<path d="M205.772 188.069L206.379 187.232L206.597 188.069H216.356L216.574 187.232L217.181 188.069H220.003C219.73 187.329 218.098 182.959 217.503 182.188C216.908 181.418 214.469 180.878 214.469 180.878L211.404 181.727L208.369 180.878C208.369 180.878 205.978 181.351 205.335 182.188C204.692 183.026 203.114 187.329 202.841 188.069H205.772Z" fill="#F7941E"/>
<path d="M211.762 181.509H211.058L210.682 186.085L211.41 186.764L212.138 186.085L211.762 181.509Z" fill="#232B33"/>
<path d="M212.059 181.442H210.761L210.682 181.776L211.41 182.468L212.138 181.77L212.059 181.442Z" fill="#232B33"/>
</g>
<path opacity="0.2" d="M200.098 171.72C199.955 171.72 199.817 171.777 199.716 171.878C199.615 171.979 199.558 172.117 199.558 172.26V184.865C199.558 185.008 199.615 185.146 199.716 185.247C199.817 185.348 199.955 185.405 200.098 185.405H206.986L220.665 171.72H200.098Z" fill="white"/>
<path d="M65.5597 106.584C65.5597 109.705 66.4851 112.755 68.2189 115.35C69.9527 117.945 72.417 119.967 75.3002 121.162C78.1834 122.356 81.3559 122.668 84.4167 122.06C87.4775 121.451 90.289 119.948 92.4957 117.741C94.7024 115.535 96.2052 112.723 96.814 109.662C97.4228 106.602 97.1104 103.429 95.9161 100.546C94.7218 97.6626 92.6994 95.1983 90.1046 93.4645C87.5098 91.7307 84.4592 90.8053 81.3384 90.8053C77.1537 90.8053 73.1403 92.4677 70.1812 95.4268C67.2221 98.3859 65.5597 102.399 65.5597 106.584Z" fill="white"/>
<path d="M90.575 99.0892H72.3142C71.4394 99.0892 70.7302 99.7984 70.7302 100.673V111.73C70.7302 112.605 71.4394 113.314 72.3142 113.314H90.575C91.4498 113.314 92.159 112.605 92.159 111.73V100.673C92.159 99.7984 91.4498 99.0892 90.575 99.0892Z" fill="white"/>
<path d="M90.5751 99.0892H72.3385C71.92 99.0892 71.5187 99.2554 71.2228 99.5513C70.9269 99.8472 70.7606 100.249 70.7606 100.667V101.814H92.1833V100.667C92.1833 100.457 92.1415 100.25 92.0604 100.056C91.9792 99.8627 91.8602 99.6874 91.7105 99.5404C91.5607 99.3935 91.3832 99.2779 91.1882 99.2004C90.9933 99.123 90.7848 99.0851 90.5751 99.0892Z" fill="#232B33"/>
<path d="M83.7417 102.997H72.2172V104.114H83.7417V102.997Z" fill="#27AAE1"/>
<path d="M83.7903 105.146H72.2172V105.892H83.7903V105.146Z" fill="white"/>
<path d="M83.7903 106.693H72.2172V107.44H83.7903V106.693Z" fill="white"/>
<path d="M83.7903 108.241H72.2172V108.987H83.7903V108.241Z" fill="white"/>
<path d="M83.7903 109.794H72.2172V110.541H83.7903V109.794Z" fill="white"/>
<path d="M84.9918 104.806V110.474H90.66L84.9918 104.806Z" fill="white"/>
<path d="M90.66 107.622V104.806H87.8441L90.66 107.622Z" fill="#8DC63F"/>
<path opacity="0.2" d="M72.3385 99.0892C71.92 99.0892 71.5187 99.2555 71.2228 99.5514C70.9269 99.8473 70.7606 100.249 70.7606 100.667V111.737C70.7598 111.944 70.8001 112.149 70.8791 112.341C70.9581 112.533 71.0743 112.707 71.221 112.854C71.3677 113.001 71.5419 113.117 71.7337 113.196C71.9255 113.275 72.1311 113.315 72.3385 113.314H75.2333L89.4584 99.0892H72.3385Z" fill="white"/>
<path d="M117.751 95.812C126.465 95.812 133.53 88.7476 133.53 80.0333C133.53 71.3189 126.465 64.2545 117.751 64.2545C109.036 64.2545 101.972 71.3189 101.972 80.0333C101.972 88.7476 109.036 95.812 117.751 95.812Z" fill="white"/>
<path d="M130.799 74.9113H115.056V77.7272H130.799V74.9113Z" fill="#232B33"/>
<path d="M130.799 77.1021H115.056V85.9321H130.799V77.1021Z" fill="white"/>
<path d="M117.909 84.7063L116.464 82.0178L116.731 81.8782L117.945 84.1297L121.155 79.5236L124.062 83.268L126.714 78.2673L129.373 81.0408L129.148 81.2532L126.787 78.7832L124.111 83.8202L121.168 80.0333L117.909 84.7063Z" fill="#3A4755"/>
<path d="M129.895 81.0589C129.895 81.1789 129.859 81.2963 129.792 81.3961C129.726 81.4959 129.631 81.5736 129.52 81.6196C129.409 81.6655 129.287 81.6775 129.169 81.6541C129.052 81.6307 128.943 81.5729 128.859 81.488C128.774 81.4032 128.716 81.295 128.692 81.1773C128.669 81.0596 128.681 80.9375 128.727 80.8267C128.773 80.7158 128.851 80.621 128.95 80.5543C129.05 80.4876 129.168 80.452 129.288 80.452C129.449 80.452 129.603 80.516 129.717 80.6298C129.831 80.7436 129.895 80.8979 129.895 81.0589Z" fill="#8DC63F"/>
<path d="M127.334 78.4251C127.328 78.5436 127.287 78.6578 127.217 78.7536C127.147 78.8493 127.05 78.9223 126.939 78.9636C126.827 79.005 126.706 79.0127 126.591 78.986C126.475 78.9593 126.37 78.8992 126.288 78.8132C126.206 78.7273 126.151 78.6192 126.13 78.5024C126.109 78.3856 126.123 78.2651 126.17 78.156C126.216 78.0469 126.294 77.9538 126.393 77.8884C126.492 77.823 126.608 77.788 126.727 77.7878C126.809 77.7877 126.891 77.8044 126.966 77.8368C127.042 77.8691 127.11 77.9166 127.167 77.9762C127.224 78.0358 127.268 78.1063 127.296 78.1835C127.325 78.2607 127.338 78.3429 127.334 78.4251Z" fill="#F7941E"/>
<path d="M124.669 83.5168C124.669 83.6368 124.634 83.7541 124.567 83.854C124.5 83.9538 124.406 84.0315 124.295 84.0775C124.184 84.1234 124.062 84.1354 123.944 84.112C123.826 84.0886 123.718 84.0308 123.633 83.9459C123.548 83.861 123.491 83.7529 123.467 83.6352C123.444 83.5175 123.456 83.3954 123.502 83.2845C123.548 83.1736 123.625 83.0789 123.725 83.0122C123.825 82.9455 123.942 82.9099 124.062 82.9099C124.223 82.9099 124.378 82.9739 124.492 83.0877C124.605 83.2015 124.669 83.3558 124.669 83.5168Z" fill="#F7941E"/>
<path d="M121.756 79.742C121.756 79.9102 121.69 80.0715 121.571 80.1904C121.452 80.3093 121.29 80.3762 121.122 80.3762C120.954 80.3762 120.793 80.3093 120.674 80.1904C120.555 80.0715 120.488 79.9102 120.488 79.742C120.488 79.5738 120.555 79.4125 120.674 79.2935C120.793 79.1746 120.954 79.1078 121.122 79.1078C121.29 79.1078 121.452 79.1746 121.571 79.2935C121.69 79.4125 121.756 79.5738 121.756 79.742Z" fill="#8DC63F"/>
<path d="M117.247 81.945C117.247 82.065 117.212 82.1824 117.145 82.2822C117.078 82.382 116.983 82.4598 116.873 82.5057C116.762 82.5516 116.64 82.5636 116.522 82.5402C116.404 82.5168 116.296 82.459 116.211 82.3741C116.126 82.2893 116.069 82.1811 116.045 82.0634C116.022 81.9457 116.034 81.8237 116.08 81.7128C116.126 81.6019 116.203 81.5071 116.303 81.4404C116.403 81.3737 116.52 81.3381 116.64 81.3381C116.801 81.3381 116.956 81.4021 117.069 81.5159C117.183 81.6297 117.247 81.7841 117.247 81.945Z" fill="#F7941E"/>
<path opacity="0.2" d="M115.056 74.9113V77.1021V77.7272V85.9321H116.483L127.503 74.9113H115.056Z" fill="white"/>
<path d="M118.279 71.9375H107.179C106.17 71.9375 105.353 72.7553 105.353 73.7642V85.0217C105.353 86.0306 106.17 86.8484 107.179 86.8484H118.279C119.288 86.8484 120.106 86.0306 120.106 85.0217V73.7642C120.106 72.7553 119.288 71.9375 118.279 71.9375Z" fill="white"/>
<path d="M118.285 71.9375H107.179C106.696 71.9375 106.233 72.1294 105.892 72.4708C105.55 72.8122 105.359 73.2753 105.359 73.7582V76.04H120.118V73.7582C120.118 73.5181 120.07 73.2803 119.978 73.0586C119.886 72.8369 119.751 72.6357 119.58 72.4665C119.41 72.2973 119.208 72.1634 118.985 72.0726C118.763 71.9818 118.525 71.9359 118.285 71.9375Z" fill="#232B33"/>
<path d="M108.502 77.442H107.355C107.077 77.442 106.851 77.6675 106.851 77.9457V79.0927C106.851 79.3709 107.077 79.5964 107.355 79.5964H108.502C108.78 79.5964 109.006 79.3709 109.006 79.0927V77.9457C109.006 77.6675 108.78 77.442 108.502 77.442Z" fill="#3A4755"/>
<path d="M111.136 77.442H109.989C109.711 77.442 109.485 77.6675 109.485 77.9457V79.0927C109.485 79.3709 109.711 79.5964 109.989 79.5964H111.136C111.414 79.5964 111.64 79.3709 111.64 79.0927V77.9457C111.64 77.6675 111.414 77.442 111.136 77.442Z" fill="#3A4755"/>
<path d="M113.776 77.442H112.629C112.351 77.442 112.125 77.6675 112.125 77.9457V79.0927C112.125 79.3709 112.351 79.5964 112.629 79.5964H113.776C114.054 79.5964 114.28 79.3709 114.28 79.0927V77.9457C114.28 77.6675 114.054 77.442 113.776 77.442Z" fill="#3A4755"/>
<path d="M108.502 80.191H107.355C107.077 80.191 106.851 80.4166 106.851 80.6947V81.8417C106.851 82.1199 107.077 82.3454 107.355 82.3454H108.502C108.78 82.3454 109.006 82.1199 109.006 81.8417V80.6947C109.006 80.4166 108.78 80.191 108.502 80.191Z" fill="#3A4755"/>
<path d="M111.136 80.191H109.989C109.711 80.191 109.485 80.4166 109.485 80.6947V81.8417C109.485 82.1199 109.711 82.3454 109.989 82.3454H111.136C111.414 82.3454 111.64 82.1199 111.64 81.8417V80.6947C111.64 80.4166 111.414 80.191 111.136 80.191Z" fill="#3A4755"/>
<path d="M113.776 80.191H112.629C112.351 80.191 112.125 80.4166 112.125 80.6947V81.8417C112.125 82.1199 112.351 82.3454 112.629 82.3454H113.776C114.054 82.3454 114.28 82.1199 114.28 81.8417V80.6947C114.28 80.4166 114.054 80.191 113.776 80.191Z" fill="#3A4755"/>
<path d="M108.502 82.9402H107.355C107.077 82.9402 106.851 83.1657 106.851 83.4439V84.5909C106.851 84.8691 107.077 85.0946 107.355 85.0946H108.502C108.78 85.0946 109.006 84.8691 109.006 84.5909V83.4439C109.006 83.1657 108.78 82.9402 108.502 82.9402Z" fill="#3A4755"/>
<path d="M111.136 82.9402H109.989C109.711 82.9402 109.485 83.1657 109.485 83.4439V84.5909C109.485 84.8691 109.711 85.0946 109.989 85.0946H111.136C111.414 85.0946 111.64 84.8691 111.64 84.5909V83.4439C111.64 83.1657 111.414 82.9402 111.136 82.9402Z" fill="#3A4755"/>
<path d="M113.776 82.9402H112.629C112.351 82.9402 112.125 83.1657 112.125 83.4439V84.5909C112.125 84.8691 112.351 85.0946 112.629 85.0946H113.776C114.054 85.0946 114.28 84.8691 114.28 84.5909V83.4439C114.28 83.1657 114.054 82.9402 113.776 82.9402Z" fill="#3A4755"/>
<path d="M118.182 77.442H116.428C116.15 77.442 115.924 77.6675 115.924 77.9457V84.5667C115.924 84.8449 116.15 85.0704 116.428 85.0704H118.182C118.46 85.0704 118.686 84.8449 118.686 84.5667V77.9457C118.686 77.6675 118.46 77.442 118.182 77.442Z" fill="#8DC63F"/>
<path d="M118.698 74.9235H116.58V75.1905H118.698V74.9235Z" fill="white"/>
<path d="M116.197 74.9235H114.079V75.1905H116.197V74.9235Z" fill="white"/>
<path d="M113.703 74.9235H111.585V75.1905H113.703V74.9235Z" fill="white"/>
<path opacity="0.2" d="M118.285 71.9375H107.179C106.696 71.9375 106.233 72.1294 105.892 72.4708C105.55 72.8122 105.359 73.2753 105.359 73.7582V85.0157C105.36 85.4103 105.49 85.7937 105.729 86.1081L119.474 72.3684C119.142 72.0872 118.72 71.9344 118.285 71.9375Z" fill="white"/>
<path d="M168.225 84.4332C176.939 84.4332 184.004 77.3688 184.004 68.6545C184.004 59.9401 176.939 52.8757 168.225 52.8757C159.51 52.8757 152.446 59.9401 152.446 68.6545C152.446 77.3688 159.51 84.4332 168.225 84.4332Z" fill="white"/>
<path d="M168.225 81.6476C165.653 81.6476 163.14 80.885 161.002 79.4564C158.864 78.0277 157.198 75.9972 156.214 73.6215C155.231 71.2459 154.973 68.6318 155.476 66.1101C155.978 63.5883 157.216 61.272 159.035 59.4543C160.853 57.6366 163.17 56.399 165.692 55.8981C168.214 55.3972 170.828 55.6555 173.203 56.6403C175.579 57.6251 177.608 59.2922 179.036 61.4307C180.464 63.5692 181.225 66.0831 181.224 68.6544C181.219 72.1 179.848 75.403 177.411 77.8388C174.974 80.2746 171.67 81.6444 168.225 81.6476ZM168.225 56.262C165.774 56.262 163.378 56.9888 161.34 58.3505C159.302 59.7122 157.713 61.6476 156.776 63.912C155.838 66.1764 155.592 68.6681 156.07 71.072C156.549 73.4759 157.729 75.684 159.462 77.4171C161.195 79.1502 163.403 80.3305 165.807 80.8087C168.211 81.2868 170.703 81.0414 172.967 80.1035C175.231 79.1655 177.167 77.5771 178.528 75.5392C179.89 73.5013 180.617 71.1054 180.617 68.6544C180.614 65.3687 179.307 62.2185 176.984 59.8952C174.66 57.5719 171.51 56.2652 168.225 56.262Z" fill="white"/>
<path d="M167.746 63.4292V61.9242H166.24C166.24 62.3057 166.089 62.6715 165.819 62.9412C165.549 63.211 165.184 63.3625 164.802 63.3625C164.421 63.3625 164.055 63.211 163.785 62.9412C163.515 62.6715 163.364 62.3057 163.364 61.9242H161.859V63.4292C161.477 63.4292 161.112 63.5808 160.842 63.8505C160.572 64.1202 160.421 64.4861 160.421 64.8675C160.421 65.249 160.572 65.6148 160.842 65.8846C161.112 66.1543 161.477 66.3058 161.859 66.3058V67.8109H163.37C163.37 68.1923 163.521 68.5582 163.791 68.8279C164.061 69.0976 164.427 69.2492 164.808 69.2492C165.19 69.2492 165.556 69.0976 165.825 68.8279C166.095 68.5582 166.247 68.1923 166.247 67.8109H167.752V66.3058C168.133 66.3058 168.499 66.1543 168.769 65.8846C169.038 65.6148 169.19 65.249 169.19 64.8675C169.19 64.4861 169.038 64.1202 168.769 63.8505C168.499 63.5808 168.133 63.4292 167.752 63.4292H167.746Z" fill="#3A4755"/>
<path d="M174.803 63.4292V61.9241H173.304C173.304 61.5427 173.153 61.1768 172.883 60.9071C172.613 60.6374 172.248 60.4858 171.866 60.4858C171.485 60.4858 171.119 60.6374 170.849 60.9071C170.579 61.1768 170.428 61.5427 170.428 61.9241H168.923V63.4292C169.304 63.4292 169.67 63.5807 169.94 63.8504C170.21 64.1202 170.361 64.486 170.361 64.8675C170.361 65.2489 170.21 65.6148 169.94 65.8845C169.67 66.1542 169.304 66.3058 168.923 66.3058V67.8108H170.428C170.428 68.1923 170.579 68.5581 170.849 68.8278C171.119 69.0976 171.485 69.2491 171.866 69.2491C172.248 69.2491 172.613 69.0976 172.883 68.8278C173.153 68.5581 173.304 68.1923 173.304 67.8108H174.803V66.3058C175.185 66.3058 175.551 66.1542 175.82 65.8845C176.09 65.6148 176.242 65.2489 176.242 64.8675C176.242 64.486 176.09 64.1202 175.82 63.8504C175.551 63.5807 175.185 63.4292 174.803 63.4292Z" fill="#8DC63F"/>
<path d="M174.803 70.5175V69.0125H173.304C173.304 69.3939 173.153 69.7597 172.883 70.0295C172.613 70.2992 172.248 70.4508 171.866 70.4508C171.485 70.4508 171.119 70.2992 170.849 70.0295C170.579 69.7597 170.428 69.3939 170.428 69.0125H168.923V70.5175C169.304 70.5175 169.67 70.669 169.94 70.9388C170.21 71.2085 170.361 71.5743 170.361 71.9558C170.361 72.3373 170.21 72.7031 169.94 72.9728C169.67 73.2426 169.304 73.3941 168.923 73.3941V74.8991H170.428C170.428 75.2806 170.579 75.6464 170.849 75.9162C171.119 76.1859 171.485 76.3374 171.866 76.3374C172.248 76.3374 172.613 76.1859 172.883 75.9162C173.153 75.6464 173.304 75.2806 173.304 74.8991H174.803V73.4062C175.185 73.4062 175.551 73.2547 175.82 72.985C176.09 72.7152 176.242 72.3494 176.242 71.9679C176.242 71.5865 176.09 71.2206 175.82 70.9509C175.551 70.6812 175.185 70.5296 174.803 70.5296V70.5175Z" fill="#F7941E"/>
<path d="M167.733 70.4569V68.9579H166.228C166.228 69.3393 166.077 69.7052 165.807 69.9749C165.537 70.2446 165.171 70.3962 164.79 70.3962C164.408 70.3962 164.043 70.2446 163.773 69.9749C163.503 69.7052 163.352 69.3393 163.352 68.9579H161.847V70.4569C161.465 70.4569 161.099 70.6084 160.829 70.8781C160.56 71.1479 160.408 71.5137 160.408 71.8952C160.408 72.2766 160.56 72.6425 160.829 72.9122C161.099 73.1819 161.465 73.3335 161.847 73.3335V74.8385H163.37C163.37 75.22 163.521 75.5858 163.791 75.8555C164.061 76.1253 164.427 76.2768 164.808 76.2768C165.19 76.2768 165.555 76.1253 165.825 75.8555C166.095 75.5858 166.246 75.22 166.246 74.8385H167.751V73.3395C168.117 73.3158 168.461 73.1536 168.712 72.8859C168.963 72.6182 169.102 72.2651 169.102 71.8982C169.102 71.5313 168.963 71.1782 168.712 70.9105C168.461 70.6428 168.117 70.4806 167.751 70.4569H167.733Z" fill="#27AAE1"/>
<g opacity="0.2">
<path d="M161.859 67.8108V66.3058C161.477 66.3058 161.111 66.1542 160.842 65.8845C160.572 65.6148 160.42 65.2489 160.42 64.8675C160.42 64.486 160.572 64.1202 160.842 63.8504C161.111 63.5807 161.477 63.4292 161.859 63.4292V61.9241H163.37C163.37 62.3056 163.521 62.6714 163.791 62.9412C164.061 63.2109 164.427 63.3624 164.808 63.3624C165.19 63.3624 165.555 63.2109 165.825 62.9412C166.095 62.6714 166.246 62.3056 166.246 61.9241H167.751V63.4292C168.133 63.4292 168.499 63.5807 168.768 63.8504C169.038 64.1202 169.19 64.486 169.19 64.8675C169.19 65.2489 169.038 65.6148 168.768 65.8845C168.499 66.1542 168.133 66.3058 167.751 66.3058V67.8108H166.246C166.246 68.1923 166.095 68.5581 165.825 68.8278C165.555 69.0976 165.19 69.2491 164.808 69.2491C164.427 69.2491 164.061 69.0976 163.791 68.8278C163.521 68.5581 163.37 68.1923 163.37 67.8108H161.859ZM167.733 70.4568V68.9578H166.228C166.228 69.3393 166.077 69.7051 165.807 69.9748C165.537 70.2446 165.171 70.3961 164.79 70.3961C164.408 70.3961 164.043 70.2446 163.773 69.9748C163.503 69.7051 163.352 69.3393 163.352 68.9578H161.847V70.4568C161.465 70.4568 161.099 70.6083 160.829 70.8781C160.56 71.1478 160.408 71.5136 160.408 71.8951C160.408 72.2765 160.56 72.6424 160.829 72.9121C161.099 73.1818 161.465 73.3334 161.847 73.3334V74.8384H163.37C163.366 74.8768 163.366 74.9154 163.37 74.9537L167.855 70.4689L167.733 70.4568ZM168.947 69.3948L169.329 69.0124H168.947V69.3948ZM174.828 61.9241H173.329C173.329 61.5427 173.177 61.1768 172.907 60.9071C172.638 60.6374 172.272 60.4858 171.89 60.4858C171.509 60.4858 171.143 60.6374 170.873 60.9071C170.604 61.1768 170.452 61.5427 170.452 61.9241H168.947V63.4292C169.328 63.4292 169.694 63.5807 169.964 63.8504C170.234 64.1202 170.385 64.486 170.385 64.8675C170.385 65.2489 170.234 65.6148 169.964 65.8845C169.694 66.1542 169.328 66.3058 168.947 66.3058V67.8108H170.452C170.452 67.8108 170.452 67.8594 170.452 67.8836L174.9 63.4353H174.821L174.828 61.9241Z" fill="white"/>
</g>
<path d="M215.258 95.812C223.972 95.812 231.036 88.7476 231.036 80.0333C231.036 71.3189 223.972 64.2545 215.258 64.2545C206.543 64.2545 199.479 71.3189 199.479 80.0333C199.479 88.7476 206.543 95.812 215.258 95.812Z" fill="white"/>
<path d="M223.906 71.4521H206.355V88.6146H223.906V71.4521Z" fill="#232B33"/>
<path d="M222.036 74.6625H208.23V86.6968H222.036V74.6625Z" fill="white"/>
<path d="M210.148 76.1614C210.148 76.2815 210.112 76.3988 210.045 76.4986C209.979 76.5984 209.884 76.6762 209.773 76.7221C209.662 76.7681 209.54 76.7801 209.422 76.7567C209.305 76.7332 209.196 76.6754 209.112 76.5906C209.027 76.5057 208.969 76.3976 208.945 76.2798C208.922 76.1621 208.934 76.0401 208.98 75.9292C209.026 75.8183 209.104 75.7235 209.204 75.6568C209.303 75.5902 209.421 75.5546 209.541 75.5546C209.702 75.5546 209.856 75.6185 209.97 75.7323C210.084 75.8461 210.148 76.0005 210.148 76.1614Z" fill="#F7941E"/>
<path d="M209.808 76.0643C209.808 76.1286 209.782 76.1904 209.737 76.2359C209.691 76.2814 209.63 76.307 209.565 76.307C209.501 76.307 209.439 76.2814 209.393 76.2359C209.348 76.1904 209.322 76.1286 209.322 76.0643V73.8674C209.322 73.8358 209.329 73.8045 209.341 73.7754C209.353 73.7463 209.371 73.7199 209.394 73.6978C209.416 73.6758 209.443 73.6585 209.473 73.6469C209.502 73.6354 209.534 73.6299 209.565 73.6307C209.597 73.6299 209.628 73.6354 209.658 73.6469C209.687 73.6585 209.714 73.6758 209.736 73.6978C209.759 73.7199 209.777 73.7463 209.789 73.7754C209.802 73.8045 209.808 73.8358 209.808 73.8674V76.0643Z" fill="#F7941E"/>
<path d="M212.375 76.1614C212.375 76.2815 212.339 76.3988 212.273 76.4986C212.206 76.5984 212.111 76.6762 212 76.7221C211.889 76.7681 211.767 76.7801 211.65 76.7567C211.532 76.7332 211.424 76.6754 211.339 76.5906C211.254 76.5057 211.196 76.3976 211.173 76.2798C211.149 76.1621 211.161 76.0401 211.207 75.9292C211.253 75.8183 211.331 75.7235 211.431 75.6568C211.531 75.5902 211.648 75.5546 211.768 75.5546C211.929 75.5546 212.083 75.6185 212.197 75.7323C212.311 75.8461 212.375 76.0005 212.375 76.1614Z" fill="#F7941E"/>
<path d="M212.035 76.0643C212.035 76.1286 212.009 76.1904 211.964 76.2359C211.918 76.2814 211.857 76.307 211.792 76.307C211.728 76.307 211.666 76.2814 211.621 76.2359C211.575 76.1904 211.55 76.1286 211.55 76.0643V73.8674C211.55 73.8358 211.556 73.8045 211.568 73.7754C211.58 73.7463 211.598 73.7199 211.621 73.6978C211.644 73.6758 211.67 73.6585 211.7 73.6469C211.729 73.6354 211.761 73.6299 211.792 73.6307C211.824 73.6299 211.855 73.6354 211.885 73.6469C211.914 73.6585 211.941 73.6758 211.964 73.6978C211.986 73.7199 212.004 73.7463 212.016 73.7754C212.029 73.8045 212.035 73.8358 212.035 73.8674V76.0643Z" fill="#F7941E"/>
<path d="M214.596 76.1614C214.558 76.2851 214.481 76.3932 214.376 76.47C214.272 76.5468 214.146 76.5883 214.017 76.5883C213.887 76.5883 213.761 76.5468 213.657 76.47C213.552 76.3932 213.475 76.2851 213.437 76.1614C213.409 76.0706 213.402 75.9744 213.418 75.8806C213.434 75.7868 213.472 75.6981 213.528 75.6215C213.584 75.5449 213.658 75.4827 213.743 75.4398C213.828 75.3969 213.921 75.3745 214.017 75.3745C214.112 75.3745 214.205 75.3969 214.29 75.4398C214.375 75.4827 214.449 75.5449 214.505 75.6215C214.562 75.6981 214.599 75.7868 214.615 75.8806C214.631 75.9744 214.624 76.0706 214.596 76.1614Z" fill="#F7941E"/>
<path d="M214.262 76.0643C214.262 76.1286 214.237 76.1904 214.191 76.2359C214.146 76.2814 214.084 76.307 214.02 76.307C213.955 76.307 213.893 76.2814 213.848 76.2359C213.802 76.1904 213.777 76.1286 213.777 76.0643V73.8674C213.777 73.8358 213.783 73.8045 213.795 73.7754C213.808 73.7463 213.826 73.7199 213.848 73.6978C213.871 73.6758 213.898 73.6585 213.927 73.6469C213.957 73.6354 213.988 73.6299 214.02 73.6307C214.051 73.6299 214.083 73.6354 214.112 73.6469C214.141 73.6585 214.168 73.6758 214.191 73.6978C214.214 73.7199 214.231 73.7463 214.244 73.7754C214.256 73.8045 214.262 73.8358 214.262 73.8674V76.0643Z" fill="#F7941E"/>
<path d="M216.823 76.1614C216.785 76.2851 216.708 76.3932 216.603 76.47C216.499 76.5468 216.373 76.5883 216.244 76.5883C216.114 76.5883 215.988 76.5468 215.884 76.47C215.779 76.3932 215.702 76.2851 215.664 76.1614C215.636 76.0706 215.629 75.9744 215.645 75.8806C215.661 75.7868 215.699 75.6981 215.755 75.6215C215.811 75.5449 215.885 75.4827 215.97 75.4398C216.055 75.3969 216.148 75.3745 216.244 75.3745C216.339 75.3745 216.432 75.3969 216.517 75.4398C216.602 75.4827 216.676 75.5449 216.732 75.6215C216.789 75.6981 216.826 75.7868 216.842 75.8806C216.858 75.9744 216.851 76.0706 216.823 76.1614Z" fill="#F7941E"/>
<path d="M216.483 76.0643C216.484 76.0959 216.479 76.1273 216.467 76.1567C216.456 76.1861 216.438 76.2129 216.416 76.2356C216.394 76.2582 216.368 76.2762 216.339 76.2884C216.31 76.3007 216.278 76.307 216.247 76.307C216.182 76.307 216.121 76.2814 216.075 76.2359C216.03 76.1904 216.004 76.1287 216.004 76.0643V73.8674C216.004 73.8358 216.01 73.8045 216.023 73.7754C216.035 73.7463 216.053 73.7199 216.075 73.6978C216.098 73.6758 216.125 73.6585 216.154 73.6469C216.184 73.6354 216.215 73.6299 216.247 73.6307C216.278 73.6299 216.309 73.6354 216.338 73.647C216.367 73.6586 216.394 73.676 216.416 73.6982C216.438 73.7203 216.456 73.7467 216.467 73.7758C216.479 73.8049 216.484 73.8361 216.483 73.8674V76.0643Z" fill="#F7941E"/>
<path d="M219.051 76.1614C219.051 76.2815 219.015 76.3988 218.948 76.4986C218.882 76.5984 218.787 76.6762 218.676 76.7221C218.565 76.7681 218.443 76.7801 218.325 76.7567C218.208 76.7332 218.099 76.6754 218.015 76.5906C217.93 76.5057 217.872 76.3976 217.848 76.2798C217.825 76.1621 217.837 76.0401 217.883 75.9292C217.929 75.8183 218.007 75.7235 218.107 75.6568C218.206 75.5902 218.324 75.5546 218.444 75.5546C218.605 75.5546 218.759 75.6185 218.873 75.7323C218.987 75.8461 219.051 76.0005 219.051 76.1614Z" fill="#F7941E"/>
<path d="M218.711 76.0643C218.711 76.1287 218.685 76.1904 218.639 76.2359C218.594 76.2814 218.532 76.307 218.468 76.307C218.436 76.307 218.405 76.3007 218.376 76.2884C218.347 76.2762 218.32 76.2582 218.298 76.2356C218.276 76.2129 218.259 76.1861 218.247 76.1567C218.236 76.1273 218.23 76.0959 218.231 76.0643V73.8674C218.23 73.8361 218.236 73.8049 218.247 73.7758C218.259 73.7467 218.276 73.7203 218.299 73.6982C218.321 73.676 218.347 73.6586 218.376 73.647C218.405 73.6354 218.437 73.6299 218.468 73.6307C218.499 73.6299 218.531 73.6354 218.56 73.6469C218.59 73.6585 218.617 73.6758 218.639 73.6978C218.662 73.7199 218.68 73.7463 218.692 73.7754C218.704 73.8045 218.711 73.8358 218.711 73.8674V76.0643Z" fill="#F7941E"/>
<path d="M221.278 76.1614C221.278 76.2815 221.242 76.3988 221.175 76.4986C221.109 76.5984 221.014 76.6762 220.903 76.7221C220.792 76.7681 220.67 76.7801 220.552 76.7567C220.435 76.7332 220.326 76.6754 220.242 76.5906C220.157 76.5057 220.099 76.3976 220.076 76.2798C220.052 76.1621 220.064 76.0401 220.11 75.9292C220.156 75.8183 220.234 75.7235 220.334 75.6568C220.433 75.5902 220.551 75.5546 220.671 75.5546C220.832 75.5546 220.986 75.6185 221.1 75.7323C221.214 75.8461 221.278 76.0005 221.278 76.1614Z" fill="#F7941E"/>
<path d="M220.938 76.0643C220.938 76.1286 220.912 76.1904 220.867 76.2359C220.821 76.2814 220.76 76.307 220.695 76.307C220.631 76.307 220.569 76.2814 220.523 76.2359C220.478 76.1904 220.452 76.1286 220.452 76.0643V73.8674C220.452 73.8358 220.459 73.8045 220.471 73.7754C220.483 73.7463 220.501 73.7199 220.524 73.6978C220.546 73.6758 220.573 73.6585 220.603 73.6469C220.632 73.6354 220.664 73.6299 220.695 73.6307C220.727 73.6299 220.758 73.6354 220.788 73.6469C220.817 73.6585 220.844 73.6758 220.866 73.6978C220.889 73.7199 220.907 73.7463 220.919 73.7754C220.932 73.8045 220.938 73.8358 220.938 73.8674V76.0643Z" fill="#F7941E"/>
<path d="M211.932 80.3912H210.263V85.5072H211.932V80.3912Z" fill="white"/>
<path d="M211.932 80.3912H210.263V81.1438H211.932V80.3912Z" fill="#3A4755"/>
<path d="M214.59 80.3912H212.921V85.4951H214.59V80.3912Z" fill="white"/>
<path d="M214.59 80.3912H212.921V81.1438H214.59V80.3912Z" fill="#F7941E"/>
<path d="M217.254 81.2896H215.585V85.5073H217.254V81.2896Z" fill="white"/>
<path d="M217.254 81.2896H215.585V82.0421H217.254V81.2896Z" fill="#8DC63F"/>
<path d="M219.912 82.1088H218.243V85.4951H219.912V82.1088Z" fill="white"/>
<path d="M219.912 82.1088H218.243V82.8613H219.912V82.1088Z" fill="#27AAE1"/>
<path d="M221.077 85.7925H209.189V77.9517H209.577V85.4041H221.077V85.7925Z" fill="white"/>
<path opacity="0.2" d="M223.906 71.4521H206.355V88.6146H207.508L223.906 72.2107V71.4521Z" fill="white"/>
<path d="M267.449 106.584C267.449 109.705 266.523 112.755 264.79 115.35C263.056 117.945 260.591 119.967 257.708 121.162C254.825 122.356 251.652 122.668 248.592 122.06C245.531 121.451 242.719 119.948 240.513 117.741C238.306 115.535 236.803 112.723 236.194 109.662C235.586 106.602 235.898 103.429 237.092 100.546C238.287 97.6626 240.309 95.1983 242.904 93.4645C245.499 91.7307 248.549 90.8053 251.67 90.8053C255.855 90.8053 259.868 92.4677 262.827 95.4268C265.786 98.3859 267.449 102.399 267.449 106.584Z" fill="white"/>
<path d="M261.841 98.6097H241.432V113.848H261.841V98.6097Z" fill="#3A4755"/>
<path d="M250.62 105.053L247.932 105.059L247.933 105.721L250.622 105.714L250.62 105.053Z" fill="#F7941E"/>
<path d="M251.973 105.34C251.973 105.544 251.892 105.74 251.748 105.885C251.603 106.03 251.407 106.111 251.203 106.111C250.998 106.111 250.802 106.03 250.658 105.885C250.513 105.74 250.432 105.544 250.432 105.34C250.434 105.136 250.515 104.94 250.659 104.795C250.803 104.649 250.998 104.566 251.203 104.563C251.304 104.563 251.405 104.583 251.499 104.622C251.593 104.662 251.678 104.719 251.75 104.791C251.822 104.863 251.878 104.949 251.917 105.043C251.955 105.137 251.974 105.238 251.973 105.34Z" fill="#F7941E"/>
<path d="M249.922 108.605V102.045C249.394 101.826 248.581 102.348 247.895 103.076H246.244C245.972 103.076 245.712 103.184 245.519 103.377C245.327 103.569 245.219 103.83 245.219 104.102V106.614C245.219 106.887 245.327 107.147 245.519 107.34C245.712 107.532 245.972 107.64 246.244 107.64H247.962C248.623 108.35 249.406 108.836 249.922 108.605Z" fill="white"/>
<path d="M253.121 103.707L252.301 104.314C252.519 104.595 252.642 104.939 252.652 105.295C252.662 105.65 252.558 106 252.356 106.293L253.181 106.9C253.515 106.428 253.689 105.862 253.678 105.284C253.667 104.707 253.472 104.148 253.121 103.689V103.707Z" fill="white"/>
<path d="M255.742 101.929L254.923 102.536C255.52 103.318 255.849 104.272 255.861 105.256C255.873 106.24 255.567 107.201 254.99 107.998L255.815 108.605C256.525 107.628 256.902 106.448 256.889 105.24C256.876 104.032 256.474 102.86 255.742 101.899V101.929Z" fill="white"/>
<path d="M254.474 102.852L253.649 103.459C254.054 103.984 254.279 104.626 254.291 105.289C254.303 105.953 254.101 106.603 253.715 107.142L254.541 107.749C255.057 107.029 255.329 106.163 255.317 105.277C255.305 104.392 255.009 103.533 254.474 102.828V102.852Z" fill="white"/>
<g opacity="0.2">
<path d="M250.857 101.832V108.55L255.287 105.194L250.857 101.832Z" fill="white"/>
<path d="M251.858 110.426C250.792 110.426 249.75 110.109 248.864 109.517C247.978 108.925 247.287 108.084 246.879 107.099C246.471 106.114 246.365 105.031 246.573 103.985C246.781 102.94 247.294 101.98 248.048 101.226C248.801 100.472 249.761 99.9589 250.807 99.751C251.852 99.5431 252.936 99.6498 253.92 100.058C254.905 100.466 255.747 101.156 256.339 102.043C256.931 102.929 257.247 103.971 257.247 105.037C257.247 106.466 256.679 107.837 255.669 108.847C254.658 109.858 253.287 110.426 251.858 110.426ZM251.858 100.321C250.926 100.322 250.015 100.6 249.24 101.119C248.465 101.638 247.862 102.374 247.506 103.236C247.15 104.098 247.058 105.046 247.24 105.96C247.423 106.874 247.872 107.714 248.532 108.373C249.192 109.032 250.032 109.48 250.947 109.662C251.861 109.843 252.809 109.749 253.67 109.392C254.531 109.035 255.268 108.431 255.785 107.656C256.303 106.88 256.58 105.969 256.58 105.037C256.583 104.414 256.463 103.798 256.227 103.222C255.991 102.647 255.644 102.123 255.205 101.682C254.767 101.241 254.245 100.891 253.671 100.652C253.096 100.414 252.48 100.291 251.858 100.291V100.321Z" fill="white"/>
</g>
<path opacity="0.2" d="M241.432 98.6097V113.848H243.411L258.649 98.6097H241.432Z" fill="white"/>
<path d="M261.841 111.512H241.432V113.848H261.841V111.512Z" fill="white"/>
<path d="M215.767 1.10925H120.688V20.8145H215.767V1.10925Z" fill="#3A4755"/>
<path d="M131.447 16L128.285 4.43627H129.708L132.125 13.8544H132.238L134.699 4.43627H136.28L138.742 13.8544H138.855L141.272 4.43627H142.695L139.533 16H138.087L135.535 6.78515H135.445L132.893 16H131.447ZM144.439 16V4.43627H151.418V5.67847H145.84V9.58575H151.057V10.8279H145.84V14.7578H151.509V16H144.439ZM153.942 16V4.43627H157.985C158.791 4.43627 159.455 4.57555 159.978 4.8541C160.501 5.12889 160.891 5.49967 161.147 5.96643C161.403 6.42944 161.531 6.94325 161.531 7.50789C161.531 8.00477 161.442 8.41507 161.266 8.73879C161.092 9.06252 160.863 9.31848 160.577 9.5067C160.294 9.69491 159.988 9.83418 159.656 9.92453V10.0375C160.01 10.06 160.366 10.1843 160.723 10.4101C161.081 10.636 161.38 10.9597 161.621 11.3813C161.862 11.8029 161.983 12.3186 161.983 12.9284C161.983 13.5081 161.851 14.0294 161.587 14.4924C161.324 14.9554 160.908 15.3224 160.34 15.5935C159.771 15.8645 159.031 16 158.121 16H153.942ZM155.343 14.7578H158.121C159.035 14.7578 159.685 14.5809 160.069 14.227C160.456 13.8694 160.65 13.4366 160.65 12.9284C160.65 12.5369 160.55 12.1755 160.351 11.8443C160.151 11.5093 159.867 11.242 159.498 11.0425C159.129 10.8392 158.693 10.7376 158.188 10.7376H155.343V14.7578ZM155.343 9.51799H157.94C158.361 9.51799 158.742 9.43518 159.08 9.26955C159.423 9.10392 159.694 8.87054 159.893 8.5694C160.097 8.26826 160.198 7.91443 160.198 7.50789C160.198 6.99972 160.021 6.56871 159.668 6.21487C159.314 5.85727 158.753 5.67847 157.985 5.67847H155.343V9.51799ZM165.684 4.43627V16H164.284V4.43627H165.684ZM177.661 4.43627V16H176.306L170.005 6.92067H169.892V16H168.491V4.43627H169.847L176.17 13.5382H176.283V4.43627H177.661ZM180.937 16H179.469L183.715 4.43627H185.161L189.407 16H187.939L184.483 6.26569H184.393L180.937 16ZM181.479 11.4829H187.397V12.7251H181.479V11.4829ZM191.208 16V4.43627H195.115C196.019 4.43627 196.76 4.59061 197.34 4.89927C197.92 5.20418 198.349 5.62389 198.627 6.15841C198.906 6.69293 199.045 7.30086 199.045 7.98218C199.045 8.66351 198.906 9.26767 198.627 9.79466C198.349 10.3217 197.922 10.7357 197.346 11.0369C196.77 11.3342 196.034 11.4829 195.138 11.4829H191.976V10.2181H195.093C195.71 10.2181 196.207 10.1278 196.583 9.94711C196.964 9.76643 197.238 9.51046 197.408 9.17921C197.581 8.84419 197.668 8.44518 197.668 7.98218C197.668 7.51918 197.581 7.11453 197.408 6.76822C197.235 6.42191 196.958 6.15465 196.578 5.96643C196.198 5.77446 195.695 5.67847 195.07 5.67847H192.608V16H191.208ZM196.651 10.8054L199.497 16H197.871L195.07 10.8054H196.651Z" fill="white"/>
<path opacity="0.2" d="M207.89 37.5278L131.339 35.2945L133.275 22.9628L205.529 19.2972L207.89 37.5278Z" fill="#3A4755"/>
<path d="M205.363 19.0512L130.923 19.9218L131.103 35.3475L205.543 34.4769L205.363 19.0512Z" fill="white"/>
<path d="M139.74 31.5716L138.591 31.5851L141.809 22.4944L142.94 22.4812L146.37 31.4941L145.221 31.5075L142.427 23.9194L142.356 23.9203L139.74 31.5716ZM140.123 28.0308L144.755 27.9767L144.767 28.949L140.135 29.0032L140.123 28.0308ZM149.638 31.615C149.208 31.62 148.816 31.5436 148.464 31.3856C148.111 31.2247 147.83 30.9908 147.62 30.6838C147.41 30.3739 147.303 29.9979 147.298 29.5559C147.293 29.167 147.366 28.8508 147.516 28.6074C147.667 28.3611 147.869 28.1671 148.124 28.0257C148.379 27.8842 148.66 27.7777 148.969 27.7064C149.281 27.632 149.594 27.5723 149.909 27.5274C150.32 27.4695 150.654 27.4258 150.91 27.3963C151.169 27.3638 151.357 27.313 151.474 27.2439C151.594 27.1747 151.653 27.0561 151.652 26.8882L151.651 26.8528C151.646 26.4167 151.523 26.0793 151.281 25.8404C151.043 25.6016 150.683 25.4849 150.203 25.4906C149.705 25.4964 149.316 25.61 149.036 25.8313C148.755 26.0527 148.559 26.2878 148.447 26.5366L147.453 26.1946C147.625 25.78 147.857 25.4561 148.149 25.2228C148.444 24.9866 148.766 24.8207 149.115 24.7253C149.468 24.6269 149.815 24.5757 150.157 24.5717C150.375 24.5691 150.626 24.5927 150.909 24.6424C151.196 24.6892 151.472 24.7906 151.739 24.9466C152.009 25.1025 152.235 25.3401 152.415 25.6592C152.596 25.9783 152.689 26.4075 152.695 26.9467L152.748 31.4195L151.705 31.4317L151.694 30.5124L151.641 30.513C151.572 30.6612 151.456 30.8202 151.293 30.9901C151.13 31.1599 150.912 31.3054 150.639 31.4265C150.367 31.5475 150.033 31.6104 149.638 31.615ZM149.786 30.6761C150.199 30.6713 150.545 30.5862 150.826 30.4209C151.11 30.2555 151.323 30.0437 151.464 29.7857C151.609 29.5276 151.679 29.2572 151.676 28.9743L151.665 28.0196C151.621 28.0732 151.525 28.1229 151.375 28.1689C151.228 28.2119 151.057 28.2507 150.863 28.2854C150.672 28.3171 150.485 28.3458 150.303 28.3715C150.123 28.3942 149.978 28.4136 149.866 28.4297C149.595 28.4682 149.343 28.5286 149.108 28.6109C148.876 28.6902 148.689 28.8088 148.546 28.9667C148.407 29.1216 148.338 29.3316 148.341 29.5968C148.346 29.9592 148.483 30.2317 148.753 30.4142C149.026 30.5937 149.371 30.681 149.786 30.6761ZM154.652 31.3972L154.572 24.6084L155.58 24.5966L155.592 25.622L155.663 25.6212C155.782 25.2839 156.003 25.0087 156.325 24.7957C156.647 24.5827 157.011 24.4738 157.417 24.4691C157.494 24.4682 157.59 24.4685 157.705 24.4701C157.82 24.4717 157.907 24.4751 157.966 24.4803L157.978 25.5411C157.942 25.5327 157.861 25.5204 157.734 25.5042C157.61 25.485 157.479 25.4762 157.341 25.4778C157.011 25.4817 156.717 25.5544 156.459 25.6959C156.204 25.8344 156.003 26.0254 155.856 26.2688C155.711 26.5091 155.641 26.7826 155.644 27.089L155.695 31.385L154.652 31.3972ZM162.581 24.5148L162.591 25.3987L159.073 25.4399L159.063 24.5559L162.581 24.5148ZM160.069 22.9174L161.112 22.9052L161.188 29.3758C161.191 29.6705 161.237 29.891 161.324 30.0373C161.414 30.1806 161.527 30.2766 161.663 30.3251C161.802 30.3706 161.948 30.3925 162.101 30.3907C162.216 30.3893 162.311 30.3823 162.384 30.3697C162.458 30.3541 162.516 30.3416 162.56 30.3323L162.784 31.2668C162.713 31.2941 162.615 31.3218 162.488 31.3498C162.362 31.3807 162.202 31.3974 162.007 31.3996C161.712 31.4031 161.423 31.3431 161.139 31.2197C160.857 31.0963 160.622 30.906 160.434 30.6489C160.248 30.3917 160.153 30.0657 160.148 29.6709L160.069 22.9174ZM167.102 24.4619L167.113 25.3459L163.594 25.387L163.584 24.503L167.102 24.4619ZM164.591 22.8646L165.634 22.8524L165.709 29.323C165.713 29.6176 165.758 29.8381 165.845 29.9844C165.935 30.1278 166.048 30.2237 166.184 30.2722C166.324 30.3177 166.47 30.3396 166.623 30.3378C166.738 30.3365 166.832 30.3295 166.906 30.3168C166.979 30.3012 167.038 30.2887 167.082 30.2794L167.305 31.2139C167.235 31.2413 167.136 31.2689 167.01 31.2969C166.883 31.3279 166.723 31.3445 166.529 31.3468C166.234 31.3502 165.944 31.2902 165.66 31.1668C165.379 31.0434 165.144 30.8531 164.955 30.596C164.769 30.3389 164.674 30.0129 164.669 29.618L164.591 22.8646ZM168.751 31.2324L168.671 24.4436L169.714 24.4314L169.794 31.2202L168.751 31.2324ZM169.188 23.3059C168.985 23.3083 168.809 23.2411 168.66 23.1043C168.514 22.9675 168.44 22.8019 168.438 22.6074C168.435 22.4129 168.506 22.2456 168.648 22.1054C168.794 21.9652 168.969 21.8939 169.172 21.8915C169.375 21.8892 169.55 21.9564 169.696 22.0932C169.845 22.2299 169.92 22.3956 169.923 22.59C169.925 22.7845 169.853 22.9518 169.708 23.0921C169.565 23.2322 169.392 23.3035 169.188 23.3059ZM171.51 31.2001L171.5 30.4045L175.297 25.4093L175.296 25.3386L171.566 25.3822L171.554 24.4098L176.628 24.3505L176.638 25.1814L172.947 30.1401L172.948 30.2108L176.82 30.1655L176.831 31.1379L171.51 31.2001ZM181.091 31.2295C180.437 31.2372 179.871 31.0994 179.393 30.8162C178.919 30.53 178.55 30.1276 178.288 29.6091C178.028 29.0875 177.894 28.4791 177.886 27.7837C177.878 27.0883 177.997 26.474 178.245 25.9406C178.495 25.4043 178.846 24.9847 179.3 24.6817C179.756 24.3758 180.29 24.2193 180.903 24.2121C181.257 24.208 181.607 24.2628 181.953 24.3766C182.299 24.4905 182.615 24.6783 182.901 24.9402C183.187 25.1991 183.416 25.5442 183.589 25.9754C183.762 26.4066 183.853 26.9389 183.86 27.5724L183.865 28.0144L178.632 28.0756L178.622 27.1739L182.794 27.1251C182.789 26.7421 182.709 26.4012 182.552 26.1024C182.398 25.8036 182.18 25.569 181.898 25.3984C181.619 25.2278 181.291 25.1447 180.914 25.1491C180.499 25.154 180.14 25.2613 179.839 25.4711C179.541 25.6779 179.313 25.9458 179.155 26.2748C178.996 26.6037 178.92 26.9553 178.924 27.3295L178.931 27.9306C178.937 28.4433 179.03 28.8769 179.211 29.2314C179.395 29.5828 179.647 29.8495 179.968 30.0315C180.288 30.2104 180.659 30.2974 181.08 30.2925C181.354 30.2893 181.601 30.2481 181.822 30.1689C182.045 30.0867 182.236 29.9666 182.396 29.8086C182.557 29.6475 182.68 29.4487 182.765 29.2119L183.776 29.483C183.674 29.826 183.499 30.1287 183.252 30.3909C183.004 30.6502 182.697 30.8541 182.331 31.0028C181.964 31.1486 181.551 31.2241 181.091 31.2295ZM186.483 26.9405L186.53 31.0244L185.487 31.0366L185.408 24.2478L186.416 24.236L186.428 25.2968L186.517 25.2958C186.672 24.9492 186.91 24.6694 187.232 24.4564C187.553 24.2404 187.97 24.1295 188.483 24.1235C188.943 24.1181 189.346 24.2077 189.693 24.3922C190.04 24.5738 190.311 24.8535 190.507 25.2314C190.703 25.6063 190.805 26.0825 190.811 26.6601L190.862 30.9738L189.819 30.986L189.769 26.743C189.763 26.2097 189.62 25.7958 189.339 25.5015C189.059 25.2042 188.677 25.0583 188.194 25.064C187.861 25.0679 187.564 25.1435 187.303 25.291C187.046 25.4384 186.843 25.6515 186.696 25.9302C186.549 26.2089 186.478 26.5457 186.483 26.9405ZM197.515 25.6269L196.581 25.903C196.52 25.7475 196.432 25.5968 196.315 25.4508C196.201 25.3019 196.047 25.1799 195.851 25.0849C195.655 24.99 195.406 24.9443 195.102 24.9478C194.687 24.9527 194.342 25.0525 194.067 25.2472C193.795 25.439 193.661 25.6808 193.664 25.9725C193.668 26.2318 193.764 26.4355 193.955 26.5835C194.145 26.7316 194.441 26.8534 194.843 26.9489L195.853 27.1846C196.462 27.3248 196.917 27.5449 197.218 27.845C197.519 28.142 197.673 28.5278 197.678 29.0021C197.683 29.3911 197.575 29.7401 197.355 30.0491C197.137 30.3582 196.831 30.6034 196.435 30.7848C196.039 30.9663 195.578 31.0601 195.05 31.0663C194.358 31.0744 193.783 30.9308 193.326 30.6356C192.868 30.3403 192.576 29.9046 192.448 29.3285L193.435 29.0694C193.534 29.4337 193.716 29.7057 193.98 29.8853C194.247 30.0649 194.594 30.1521 195.022 30.1472C195.508 30.1415 195.893 30.0338 196.176 29.8242C196.462 29.6116 196.604 29.3595 196.6 29.0678C196.598 28.8321 196.513 28.6356 196.346 28.4784C196.179 28.3183 195.924 28.2005 195.582 28.1249L194.447 27.8729C193.824 27.7329 193.364 27.5099 193.069 27.2039C192.776 26.8949 192.628 26.5062 192.622 26.0377C192.618 25.6547 192.721 25.3146 192.933 25.0174C193.147 24.7202 193.441 24.4854 193.813 24.3131C194.188 24.1407 194.615 24.0518 195.092 24.0462C195.764 24.0383 196.293 24.1795 196.679 24.4697C197.069 24.7598 197.347 25.1455 197.515 25.6269Z" fill="#3A4755"/>
</svg>
