<svg width="56" height="56" viewBox="0 0 56 56" fill="none" xmlns="http://www.w3.org/2000/svg">
<path d="M50.75 45.5C50.75 45.9641 50.5656 46.4092 50.2374 46.7374C49.9092 47.0656 49.4641 47.25 49 47.25H7C6.53587 47.25 6.09075 47.0656 5.76256 46.7374C5.43437 46.4092 5.25 45.9641 5.25 45.5V10.5C5.25 10.0359 5.43437 9.59075 5.76256 9.26256C6.09075 8.93437 6.53587 8.75 7 8.75C7.46413 8.75 7.90925 8.93437 8.23744 9.26256C8.56563 9.59075 8.75 10.0359 8.75 10.5V34.2759L19.7619 23.2619C19.9244 23.0992 20.1174 22.9701 20.3299 22.882C20.5423 22.794 20.77 22.7486 21 22.7486C21.23 22.7486 21.4577 22.794 21.6701 22.882C21.8826 22.9701 22.0756 23.0992 22.2381 23.2619L28 29.0259L39.5259 17.5H35C34.5359 17.5 34.0907 17.3156 33.7626 16.9874C33.4344 16.6592 33.25 16.2141 33.25 15.75C33.25 15.2859 33.4344 14.8408 33.7626 14.5126C34.0907 14.1844 34.5359 14 35 14H43.75C44.2141 14 44.6592 14.1844 44.9874 14.5126C45.3156 14.8408 45.5 15.2859 45.5 15.75V24.5C45.5 24.9641 45.3156 25.4092 44.9874 25.7374C44.6592 26.0656 44.2141 26.25 43.75 26.25C43.2859 26.25 42.8408 26.0656 42.5126 25.7374C42.1844 25.4092 42 24.9641 42 24.5V19.9741L29.2381 32.7381C29.0756 32.9008 28.8826 33.0299 28.6701 33.118C28.4577 33.206 28.23 33.2514 28 33.2514C27.77 33.2514 27.5423 33.206 27.3299 33.118C27.1174 33.0299 26.9244 32.9008 26.7619 32.7381L21 26.9741L8.75 39.2241V43.75H49C49.4641 43.75 49.9092 43.9344 50.2374 44.2626C50.5656 44.5908 50.75 45.0359 50.75 45.5Z" fill="#E1B603"/>
</svg>
