<svg width="72" height="50" viewBox="0 0 72 50" fill="none" xmlns="http://www.w3.org/2000/svg">
<g clip-path="url(#clip0_36_247)">
<path d="M6.50323 45.713C6.50323 45.8684 6.37034 45.995 6.2116 45.995H0.593171C0.733447 47.3544 1.77814 48.5945 3.24734 48.5945C4.25143 48.5945 4.99711 48.2185 5.55821 47.4339C5.63942 47.3255 5.76124 47.2568 5.91629 47.3219C6.00119 47.358 6.06025 47.4339 6.07502 47.5207C6.08978 47.6111 6.06394 47.6617 6.0381 47.7123C5.47331 48.6777 4.34741 49.1513 3.24365 49.1513C1.35362 49.1513 0.00622559 47.4954 0.00622559 45.7238C0.00622559 43.9522 1.35362 42.2964 3.24365 42.2964C5.13369 42.2927 6.49954 43.945 6.50323 45.713ZM5.90152 45.4454C5.7797 44.086 4.71655 42.8459 3.24734 42.8459C1.77814 42.8459 0.733447 44.086 0.593171 45.4454H5.90152ZM13.3214 42.4301C13.4838 42.4301 13.6019 42.5675 13.6019 42.7049C13.6019 42.864 13.4801 42.9797 13.3214 42.9797H11.8153V48.7681C11.8153 48.9054 11.6935 49.0428 11.5347 49.0428C11.3723 49.0428 11.2542 48.9054 11.2542 48.7681V42.9797H9.80711C9.64468 42.9797 9.52655 42.8604 9.52655 42.7049C9.52655 42.5675 9.64837 42.4301 9.80711 42.4301H11.2542V40.3115C11.2542 40.1777 11.3465 40.0548 11.4793 40.0331C11.6676 40.0042 11.8153 40.1307 11.8153 40.3042V42.4301H13.3214ZM22.5095 45.2285V48.7355C22.5095 48.8946 22.3692 49.0103 22.2289 49.0103C22.0665 49.0103 21.9484 48.891 21.9484 48.7355V45.2285C21.9484 44.0462 21.2655 42.864 19.9181 42.864C18.1905 42.864 17.4448 44.3427 17.5444 45.8576C17.5444 45.8974 17.5629 46.0745 17.5629 46.0926V48.7247C17.5629 48.8584 17.4706 48.9814 17.3377 49.0031C17.1495 49.032 17.0018 48.9054 17.0018 48.7319V37.213C17.0018 37.0756 17.1236 36.9382 17.2824 36.9382C17.4448 36.9382 17.5629 37.0756 17.5629 37.213V43.7317C18.0465 42.8857 18.9103 42.3144 19.9144 42.3144C21.5645 42.3144 22.5095 43.7317 22.5095 45.2285ZM32.5835 45.713C32.5835 45.8684 32.4506 45.995 32.2919 45.995H26.6698C26.8101 47.3544 27.8547 48.5945 29.324 48.5945C30.328 48.5945 31.0737 48.2185 31.6348 47.4339C31.716 47.3255 31.8379 47.2568 31.9929 47.3219C32.0778 47.358 32.1369 47.4339 32.1516 47.5207C32.1664 47.6111 32.1406 47.6617 32.1147 47.7123C31.5499 48.6777 30.424 49.1513 29.3203 49.1513C27.4302 49.1513 26.0828 47.4954 26.0828 45.7238C26.0828 43.9522 27.4302 42.2964 29.3203 42.2964C31.214 42.2927 32.5798 43.945 32.5835 45.713ZM31.9781 45.4454C31.8563 44.086 30.7932 42.8459 29.324 42.8459C27.8547 42.8459 26.8101 44.086 26.6698 45.4454H31.9781ZM39.4792 42.6868C39.4792 42.864 39.3795 42.9616 39.2171 42.9833C37.567 43.2183 36.825 44.538 36.825 46.0745V48.7066C36.825 48.8404 36.7328 48.9633 36.5999 48.985C36.4116 49.0139 36.2639 48.8874 36.2639 48.7138V42.7158C36.2639 42.582 36.3562 42.4591 36.4891 42.4374C36.6774 42.4084 36.825 42.535 36.825 42.7085V43.9306C37.2865 43.1641 38.213 42.4337 39.1765 42.4337C39.3168 42.4301 39.4792 42.5314 39.4792 42.6868ZM48.7079 45.713C48.7079 45.8684 48.575 45.995 48.4163 45.995H42.7979C42.9381 47.3544 43.9828 48.5945 45.452 48.5945C46.4561 48.5945 47.2018 48.2185 47.7629 47.4339C47.8441 47.3255 47.9659 47.2568 48.121 47.3219C48.2059 47.358 48.2649 47.4339 48.2797 47.5207C48.2945 47.6111 48.2686 47.6617 48.2428 47.7123C47.678 48.6777 46.5521 49.1513 45.4483 49.1513C43.5583 49.1513 42.2109 47.4954 42.2109 45.7238C42.2109 43.9522 43.5583 42.2964 45.4483 42.2964C47.3384 42.2927 48.7042 43.945 48.7079 45.713ZM48.1062 45.4454C47.9844 44.086 46.9212 42.8459 45.452 42.8459C43.9828 42.8459 42.9381 44.086 42.7979 45.4454H48.1062ZM57.7779 42.7555V48.7681C57.7779 48.9271 57.6376 49.0428 57.4973 49.0428C57.3349 49.0428 57.2168 48.9235 57.2168 48.7681V47.6256C56.7553 48.533 55.9285 49.1802 54.8838 49.1802C53.2152 49.1802 52.2887 47.7629 52.2887 46.2661V42.7411C52.2887 42.6037 52.4105 42.4663 52.5692 42.4663C52.7316 42.4663 52.8498 42.6037 52.8498 42.7411V46.2661C52.8498 47.4484 53.5327 48.6307 54.8801 48.6307C56.7701 48.6307 57.2131 46.8989 57.2131 44.9863V42.7411C57.2131 42.582 57.3755 42.4193 57.5749 42.4771C57.6967 42.5169 57.7779 42.6326 57.7779 42.7555ZM71.9901 45.2068V48.7319C71.9901 48.891 71.8498 49.0067 71.7095 49.0067C71.5471 49.0067 71.429 48.8874 71.429 48.7319V45.2068C71.429 44.0246 70.7461 42.864 69.3987 42.864C67.708 42.864 67.0657 44.6356 67.0657 46.0131V48.7319C67.0657 48.891 66.9254 49.0067 66.7851 49.0067C66.6227 49.0067 66.5045 48.8874 66.5045 48.7319V45.2068C66.5045 44.0246 65.8216 42.864 64.4742 42.864C62.7651 42.864 62.06 44.1836 62.1228 45.9371C62.1228 45.9769 62.1412 46.0565 62.1228 46.0745V48.7247C62.1228 48.8584 62.0305 48.9814 61.8939 49.0031C61.7056 49.032 61.558 48.9054 61.558 48.7319V42.7158C61.558 42.582 61.6502 42.4591 61.7831 42.4374C61.9714 42.4084 62.1191 42.535 62.1191 42.7085V43.7136C62.6026 42.8676 63.4665 42.3144 64.4705 42.3144C65.6149 42.3144 66.5009 43.0231 66.8626 44.0679C67.3241 43.0448 68.2285 42.3144 69.395 42.3144C71.0451 42.3144 71.9901 43.71 71.9901 45.2068Z" fill="#3C3C3B"/>
<g opacity="0.6">
<mask id="mask0_36_247" style="mask-type:luminance" maskUnits="userSpaceOnUse" x="26" y="11" width="20" height="11">
<path d="M26.6107 11.8903H45.3893V21.5074H26.6107V11.8903Z" fill="white"/>
</mask>
<g mask="url(#mask0_36_247)">
<path d="M36.0018 11.8903L26.6107 16.0734L36.0018 21.5074L45.3893 16.0734L36.0018 11.8903Z" fill="#010101"/>
</g>
</g>
<g opacity="0.45">
<mask id="mask1_36_247" style="mask-type:luminance" maskUnits="userSpaceOnUse" x="26" y="0" width="11" height="22">
<path d="M26.6107 0.812378H36.0018V21.5073H26.6107V0.812378Z" fill="white"/>
</mask>
<g mask="url(#mask1_36_247)">
<path d="M26.6107 16.0733L36.0018 21.5073V0.812378L26.6107 16.0733Z" fill="#010101"/>
</g>
</g>
<g opacity="0.8">
<mask id="mask2_36_247" style="mask-type:luminance" maskUnits="userSpaceOnUse" x="36" y="0" width="10" height="22">
<path d="M36.0019 0.812378H45.393V21.5073H36.0019V0.812378Z" fill="white"/>
</mask>
<g mask="url(#mask2_36_247)">
<path d="M36.0019 0.812378V21.5073L45.3893 16.0733L36.0019 0.812378Z" fill="#010101"/>
</g>
</g>
<g opacity="0.45">
<mask id="mask3_36_247" style="mask-type:luminance" maskUnits="userSpaceOnUse" x="26" y="17" width="11" height="14">
<path d="M26.6107 17.8159H36.0018V30.7738H26.6107V17.8159Z" fill="white"/>
</mask>
<g mask="url(#mask3_36_247)">
<path d="M26.6107 17.8159L36.0018 30.7738V23.25L26.6107 17.8159Z" fill="#010101"/>
</g>
</g>
<g opacity="0.8">
<mask id="mask4_36_247" style="mask-type:luminance" maskUnits="userSpaceOnUse" x="36" y="17" width="10" height="14">
<path d="M36.0019 17.8159H45.3967V30.7738H36.0019V17.8159Z" fill="white"/>
</mask>
<g mask="url(#mask4_36_247)">
<path d="M36.0019 23.25V30.7738L45.3967 17.8159L36.0019 23.25Z" fill="#010101"/>
</g>
</g>
</g>
<defs>
<clipPath id="clip0_36_247">
<rect width="72" height="48.375" fill="white" transform="translate(0 0.8125)"/>
</clipPath>
</defs>
</svg>
