<svg width="517" height="351" viewBox="0 0 517 351" fill="none" xmlns="http://www.w3.org/2000/svg">
<g clip-path="url(#clip0_7_14811)">
<path d="M172.312 22.0876C169.694 24.0476 164.018 28.3148 158.879 26.2204C152.29 23.5352 150.059 11.8172 154.229 7.62136C156.279 5.55776 159.44 5.75376 164.561 6.07156C169.449 6.37536 178.232 6.91996 179.541 11.2376C180.885 15.6504 173.56 21.1496 172.312 22.0876Z" fill="#F3F6FF"/>
<path d="M337.119 26.2203C337.799 35.1355 329.812 45.0139 322.652 44.8193C315.259 44.6191 310.95 33.7383 307.153 24.1539C305.333 19.5549 299.156 3.96174 304.053 0.388936C309.233 -3.39106 323.41 8.72034 325.753 10.7209C332.129 16.1683 336.645 20.0239 337.119 26.2203Z" fill="#F3F6FF"/>
<path d="M458.009 136.78C457.606 144.9 467.118 154.665 473.509 153.312C480.456 151.842 482.993 137.393 481.776 127.481C480.397 116.264 473.624 106.075 470.409 106.816C468.01 107.376 469.698 113.536 465.243 123.348C461.584 131.412 458.242 132.111 458.009 136.78Z" fill="#F3F6FF"/>
<path d="M82.8363 85.0161H67.8815C67.2838 85.0161 66.7993 85.5006 66.7993 86.0983V260.242C66.7993 260.839 67.2838 261.324 67.8815 261.324H82.8363C83.434 261.324 83.9185 260.839 83.9185 260.242V86.0983C83.9185 85.5006 83.434 85.0161 82.8363 85.0161Z" fill="#5941AF"/>
<path d="M162.261 339.896L159.098 340.736C159.038 340.752 158.973 340.743 158.919 340.712C158.865 340.68 158.825 340.629 158.809 340.568L135.654 253.922C135.646 253.892 135.644 253.861 135.648 253.83C135.652 253.799 135.662 253.769 135.678 253.742C135.694 253.715 135.714 253.692 135.739 253.673C135.764 253.654 135.792 253.64 135.822 253.632L138.985 252.792C139.015 252.784 139.046 252.782 139.077 252.786C139.108 252.79 139.137 252.8 139.164 252.816C139.191 252.832 139.215 252.852 139.234 252.877C139.253 252.902 139.266 252.93 139.274 252.96L162.429 339.612C162.443 339.672 162.434 339.735 162.402 339.788C162.371 339.841 162.32 339.88 162.261 339.896Z" fill="#8F8BD6"/>
<path d="M105.407 341.128L109.28 340.742C109.34 340.757 109.405 340.749 109.459 340.717C109.513 340.686 109.553 340.634 109.57 340.574L132.724 253.922C132.732 253.892 132.734 253.861 132.73 253.83C132.726 253.799 132.716 253.769 132.7 253.742C132.685 253.715 132.664 253.692 132.639 253.673C132.614 253.654 132.586 253.64 132.556 253.632L129.394 252.792C129.363 252.784 129.332 252.782 129.301 252.786C129.27 252.79 129.241 252.8 129.214 252.816C129.187 252.832 129.163 252.852 129.144 252.877C129.126 252.902 129.112 252.93 129.104 252.96L105.239 340.844C105.225 340.904 105.235 340.967 105.266 341.02C105.297 341.073 105.348 341.112 105.407 341.128Z" fill="#8F8BD6"/>
<path d="M68.832 339.337L71.6684 340.974C71.7229 341.005 71.7874 341.013 71.8479 340.997C71.9085 340.981 71.9602 340.941 71.9918 340.887L122.357 253.652C122.372 253.625 122.382 253.595 122.386 253.564C122.391 253.534 122.388 253.502 122.38 253.472C122.372 253.442 122.358 253.414 122.34 253.389C122.321 253.365 122.297 253.344 122.27 253.329L119.435 251.692C119.408 251.676 119.378 251.666 119.347 251.662C119.317 251.658 119.285 251.66 119.255 251.668C119.225 251.676 119.197 251.69 119.172 251.709C119.148 251.728 119.127 251.752 119.112 251.779L68.7452 339.013C68.7141 339.067 68.7057 339.132 68.722 339.193C68.7382 339.254 68.7777 339.306 68.832 339.337Z" fill="#5941AF"/>
<path d="M201.078 85.0161H70.5011C69.8679 85.0161 69.3545 85.5295 69.3545 86.1627V260.177C69.3545 260.81 69.8679 261.324 70.5011 261.324H201.078C201.711 261.324 202.224 260.81 202.224 260.177V86.1627C202.224 85.5295 201.711 85.0161 201.078 85.0161Z" fill="#8F8BD6"/>
<path d="M194.653 91.6592H78.0401C77.5282 91.6592 77.1133 92.0741 77.1133 92.586V253.081C77.1133 253.592 77.5282 254.007 78.0401 254.007H194.653C195.165 254.007 195.58 253.592 195.58 253.081V92.586C195.58 92.0741 195.165 91.6592 194.653 91.6592Z" fill="white"/>
<path d="M147.561 82.6306H122.454C122.087 82.6306 121.79 82.9277 121.79 83.2942V92.8688C121.79 93.2353 122.087 93.5324 122.454 93.5324H147.561C147.928 93.5324 148.225 93.2353 148.225 92.8688V83.2942C148.225 82.9277 147.928 82.6306 147.561 82.6306Z" fill="#4753A8"/>
<path d="M106.694 197.387L111.118 182.456C114.335 183.415 117.157 185.386 119.165 188.075C121.174 190.765 122.262 194.031 122.267 197.387C122.267 205.927 115.238 212.961 106.694 212.961C98.1496 212.961 91.1216 205.93 91.1216 197.387C91.1214 193.865 92.3157 190.446 94.5096 187.689L106.694 197.387Z" fill="#E7457F"/>
<path d="M95.0248 145.265L93.8726 143.623L107.282 134.218L115.778 138.628L122.577 129.213L128.159 136.063L137.004 125.195L138.559 126.462L128.16 139.241L122.673 132.507L116.39 141.205L107.437 136.559L95.0248 145.265Z" fill="#8F8BD6"/>
<path d="M185.288 103.531H150.064C148.498 103.531 147.228 104.801 147.228 106.368V107.612C147.228 109.179 148.498 110.449 150.064 110.449H185.288C186.855 110.449 188.125 109.179 188.125 107.612V106.368C188.125 104.801 186.855 103.531 185.288 103.531Z" fill="#8F8BD6"/>
<path d="M119.551 109.315H87.2798C86.9073 109.315 86.5384 109.241 86.1943 109.099C85.8502 108.956 85.5375 108.747 85.2741 108.484C85.0107 108.22 84.8018 107.908 84.6593 107.564C84.5167 107.22 84.4434 106.851 84.4434 106.478C84.4434 105.726 84.7422 105.004 85.274 104.472C85.8059 103.94 86.5274 103.641 87.2798 103.64H119.55C120.302 103.641 121.024 103.94 121.556 104.472C122.088 105.004 122.387 105.726 122.388 106.478C122.387 107.23 122.088 107.952 121.556 108.483C121.025 109.015 120.303 109.314 119.551 109.315Z" fill="#8F8BD6"/>
<path d="M110.686 120.092H87.2798C86.5275 120.092 85.8061 119.793 85.2741 119.261C84.7422 118.729 84.4434 118.008 84.4434 117.255C84.4432 116.883 84.5164 116.514 84.6589 116.169C84.8013 115.825 85.0102 115.512 85.2736 115.249C85.537 114.985 85.8498 114.776 86.194 114.634C86.5382 114.491 86.9072 114.417 87.2798 114.417H110.685C111.058 114.417 111.426 114.491 111.771 114.634C112.115 114.776 112.428 114.985 112.691 115.249C112.954 115.512 113.163 115.825 113.306 116.169C113.448 116.514 113.522 116.883 113.521 117.255C113.521 118.007 113.223 118.729 112.691 119.26C112.159 119.792 111.438 120.091 110.686 120.092Z" fill="#8F8BD6"/>
<path d="M175.227 208.955H143.364C142.708 208.955 142.079 208.695 141.615 208.231C141.151 207.767 140.89 207.138 140.89 206.482C140.89 206.157 140.954 205.835 141.078 205.535C141.203 205.235 141.385 204.962 141.615 204.732C141.844 204.503 142.117 204.32 142.417 204.196C142.717 204.072 143.039 204.008 143.364 204.008H175.227C175.551 204.008 175.873 204.072 176.173 204.196C176.473 204.32 176.746 204.503 176.976 204.732C177.205 204.962 177.388 205.235 177.512 205.535C177.636 205.835 177.7 206.157 177.7 206.482C177.7 207.138 177.44 207.767 176.976 208.231C176.512 208.695 175.883 208.955 175.227 208.955Z" fill="#162321"/>
<path d="M162.768 202.22H143.364C142.708 202.22 142.079 201.959 141.615 201.495C141.151 201.032 140.89 200.402 140.89 199.746C140.89 199.09 141.151 198.461 141.615 197.997C142.079 197.533 142.708 197.272 143.364 197.272H162.768C163.424 197.272 164.053 197.533 164.517 197.997C164.981 198.461 165.242 199.09 165.242 199.746C165.242 200.402 164.981 201.032 164.517 201.495C164.053 201.959 163.424 202.22 162.768 202.22Z" fill="#D5DBFE"/>
<path d="M167.143 190.141H143.364C141.998 190.141 140.89 191.248 140.89 192.615C140.89 193.981 141.998 195.088 143.364 195.088H167.143C168.509 195.088 169.617 193.981 169.617 192.615C169.617 191.248 168.509 190.141 167.143 190.141Z" fill="#E7457F"/>
<path d="M171.461 187.727H143.364C142.708 187.727 142.079 187.467 141.615 187.003C141.151 186.539 140.89 185.909 140.89 185.253C140.89 184.597 141.151 183.968 141.615 183.504C142.079 183.04 142.708 182.78 143.364 182.78H171.461C172.117 182.78 172.746 183.04 173.21 183.504C173.674 183.968 173.934 184.597 173.934 185.253C173.934 185.909 173.674 186.539 173.21 187.003C172.746 187.467 172.117 187.727 171.461 187.727Z" fill="#8F8BD6"/>
<path d="M124.078 236.467H91.854C91.1016 236.466 90.3801 236.167 89.8482 235.635C89.3164 235.103 89.0176 234.381 89.0176 233.629C89.0176 232.877 89.3164 232.155 89.8483 231.623C90.3803 231.091 91.1017 230.792 91.854 230.792H124.078C124.83 230.792 125.551 231.091 126.083 231.623C126.615 232.155 126.914 232.877 126.914 233.629C126.914 234.381 126.615 235.103 126.083 235.635C125.552 236.167 124.83 236.466 124.078 236.467Z" fill="#8F8BD6"/>
<path d="M144.852 244.412H112.628C111.876 244.412 111.155 244.113 110.623 243.581C110.091 243.049 109.792 242.328 109.792 241.575C109.792 240.823 110.091 240.101 110.623 239.569C111.155 239.037 111.876 238.738 112.628 238.738H144.852C145.605 238.738 146.326 239.037 146.858 239.569C147.39 240.101 147.689 240.823 147.689 241.575C147.689 242.328 147.39 243.049 146.858 243.581C146.326 244.113 145.604 244.412 144.852 244.412Z" fill="#8F8BD6"/>
<path d="M146.109 236.467H132.834C132.082 236.466 131.361 236.167 130.829 235.635C130.297 235.103 129.998 234.381 129.998 233.629C129.998 232.877 130.297 232.155 130.829 231.623C131.361 231.091 132.082 230.792 132.834 230.792H146.109C146.482 230.792 146.851 230.866 147.195 231.008C147.539 231.15 147.852 231.359 148.116 231.623C148.379 231.886 148.588 232.199 148.731 232.543C148.874 232.887 148.947 233.256 148.947 233.629C148.947 234.382 148.648 235.103 148.116 235.636C147.584 236.168 146.862 236.467 146.109 236.467Z" fill="#8F8BD6"/>
<path d="M105.129 244.412H91.854C91.1017 244.412 90.3803 244.113 89.8483 243.581C89.3164 243.049 89.0176 242.328 89.0176 241.575C89.0176 240.823 89.3164 240.101 89.8482 239.569C90.3801 239.037 91.1016 238.738 91.854 238.738H105.129C105.881 238.738 106.603 239.037 107.135 239.569C107.666 240.101 107.965 240.823 107.965 241.575C107.965 242.328 107.666 243.049 107.134 243.581C106.602 244.113 105.881 244.412 105.129 244.412Z" fill="#8F8BD6"/>
<path d="M187.556 232.494H177.196C176.445 232.493 175.724 232.194 175.192 231.663C174.661 231.132 174.361 230.412 174.36 229.66C174.36 228.908 174.659 228.186 175.192 227.654C175.724 227.123 176.445 226.824 177.198 226.824H187.558C188.31 226.824 189.032 227.123 189.564 227.654C190.096 228.186 190.395 228.908 190.395 229.66C190.394 230.412 190.094 231.133 189.562 231.664C189.03 232.195 188.308 232.494 187.556 232.494Z" fill="#6C8993"/>
<path d="M136.748 187.727C136.092 187.727 135.462 187.467 134.998 187.003C134.535 186.539 134.274 185.909 134.274 185.253C134.274 184.597 134.535 183.968 134.998 183.504C135.462 183.04 136.092 182.78 136.748 182.78C137.404 182.78 138.033 183.04 138.497 183.504C138.961 183.968 139.222 184.597 139.222 185.253C139.222 185.909 138.961 186.539 138.497 187.003C138.033 187.467 137.404 187.727 136.748 187.727Z" fill="#8F8BD6"/>
<path d="M136.748 195.087C136.092 195.087 135.462 194.826 134.998 194.362C134.535 193.899 134.274 193.269 134.274 192.613C134.274 191.957 134.535 191.328 134.998 190.864C135.462 190.4 136.092 190.139 136.748 190.139C137.404 190.139 138.033 190.4 138.497 190.864C138.961 191.328 139.222 191.957 139.222 192.613C139.222 193.269 138.961 193.899 138.497 194.362C138.033 194.826 137.404 195.087 136.748 195.087Z" fill="#E7457F"/>
<path d="M136.748 202.22C136.092 202.22 135.462 201.959 134.998 201.495C134.535 201.032 134.274 200.402 134.274 199.746C134.274 199.09 134.535 198.461 134.998 197.997C135.462 197.533 136.092 197.272 136.748 197.272C137.404 197.272 138.033 197.533 138.497 197.997C138.961 198.461 139.222 199.09 139.222 199.746C139.222 200.402 138.961 201.032 138.497 201.495C138.033 201.959 137.404 202.22 136.748 202.22Z" fill="#D5DBFE"/>
<path d="M136.748 208.955C136.092 208.955 135.462 208.695 134.998 208.231C134.535 207.767 134.274 207.138 134.274 206.482C134.274 206.157 134.338 205.835 134.462 205.535C134.587 205.235 134.769 204.962 134.998 204.732C135.228 204.503 135.501 204.32 135.801 204.196C136.101 204.072 136.423 204.008 136.748 204.008C137.073 204.008 137.394 204.072 137.694 204.196C137.995 204.32 138.267 204.503 138.497 204.732C138.727 204.962 138.909 205.235 139.033 205.535C139.158 205.835 139.222 206.157 139.222 206.482C139.222 207.138 138.961 207.767 138.497 208.231C138.033 208.695 137.404 208.955 136.748 208.955Z" fill="#162321"/>
<path d="M106.694 197.387H122.267C122.267 205.927 115.238 212.961 106.694 212.961C98.1496 212.961 91.1216 205.93 91.1216 197.387C91.1216 188.844 98.151 181.815 106.694 181.815C108.735 181.814 110.757 182.215 112.644 182.995L106.694 197.387Z" fill="#C93954"/>
<path d="M110.076 135.545C110.076 136.016 109.937 136.476 109.675 136.867C109.414 137.259 109.042 137.564 108.607 137.744C108.172 137.924 107.694 137.971 107.232 137.879C106.77 137.787 106.346 137.561 106.014 137.228C105.681 136.895 105.454 136.471 105.362 136.009C105.27 135.548 105.317 135.069 105.498 134.634C105.678 134.199 105.983 133.828 106.374 133.566C106.766 133.305 107.226 133.165 107.696 133.165C108.328 133.165 108.933 133.416 109.379 133.862C109.826 134.308 110.076 134.914 110.076 135.545Z" fill="#D5DBFE"/>
<path d="M118.429 139.51C118.732 138.228 117.937 136.943 116.655 136.64C115.373 136.338 114.088 137.132 113.785 138.414C113.483 139.696 114.277 140.981 115.559 141.284C116.841 141.586 118.126 140.792 118.429 139.51Z" fill="#D5DBFE"/>
<path d="M124.547 131.451C124.547 131.922 124.407 132.382 124.146 132.774C123.884 133.165 123.512 133.47 123.077 133.65C122.643 133.83 122.164 133.877 121.702 133.786C121.241 133.694 120.817 133.467 120.484 133.134C120.151 132.801 119.924 132.377 119.832 131.916C119.741 131.454 119.788 130.975 119.968 130.541C120.148 130.106 120.453 129.734 120.844 129.472C121.236 129.211 121.696 129.071 122.167 129.071C122.798 129.071 123.403 129.322 123.85 129.768C124.296 130.215 124.547 130.82 124.547 131.451Z" fill="#D5DBFE"/>
<path d="M127.873 140.029C129.19 140.029 130.258 138.961 130.258 137.644C130.258 136.326 129.19 135.258 127.873 135.258C126.555 135.258 125.487 136.326 125.487 137.644C125.487 138.961 126.555 140.029 127.873 140.029Z" fill="#D5DBFE"/>
<path d="M181.686 141.256H172.474V164.449H181.686V141.256Z" fill="#1A303B"/>
<path d="M172.474 146.262H163.262V164.449H172.474V146.262Z" fill="#8F8BD6"/>
<path d="M163.264 142.583H154.052V164.448H163.264V142.583Z" fill="#FF4D8B"/>
<path d="M154.089 152.852H144.877V164.449H154.089V152.852Z" fill="#D5DBFE"/>
<path d="M183.988 163.983H141.828V164.914H183.988V163.983Z" fill="#162321"/>
<path d="M283.208 91.4913V287.48C283.208 291.607 285.923 294.953 289.271 294.953H396.09C399.439 294.953 402.154 291.607 402.154 287.48V91.4913C402.154 87.3627 399.439 84.0181 396.09 84.0181H289.271C285.923 84.0181 283.208 87.3627 283.208 91.4913Z" fill="#D5DBFE"/>
<path d="M395.948 92.5889H345.64V286.375H395.948V92.5889Z" fill="#F8F9FF"/>
<path d="M340.768 92.5889H290.46V286.375H340.768V92.5889Z" fill="#F8F9FF"/>
<mask id="mask0_7_14811" style="mask-type:luminance" maskUnits="userSpaceOnUse" x="345" y="92" width="51" height="195">
<path d="M395.944 92.5889H345.637V286.375H395.944V92.5889Z" fill="white"/>
</mask>
<g mask="url(#mask0_7_14811)">
<path opacity="0.38" d="M340.264 251.742L317.523 235.558L402.555 54.0105L425.297 70.1945L340.264 251.742Z" fill="#D5DBFE"/>
<path opacity="0.38" d="M348.557 305.192L337.187 297.1L422.22 115.552L433.589 123.644L348.557 305.192Z" fill="#D5DBFE"/>
</g>
<mask id="mask1_7_14811" style="mask-type:luminance" maskUnits="userSpaceOnUse" x="290" y="92" width="52" height="195">
<path d="M341.01 92.5889H290.703V286.375H341.01V92.5889Z" fill="white"/>
</mask>
<g mask="url(#mask1_7_14811)">
<path opacity="0.38" d="M285.327 251.742L262.586 235.558L347.618 54.0105L370.36 70.1945L285.327 251.742Z" fill="#D5DBFE"/>
<path opacity="0.38" d="M293.619 305.192L282.249 297.1L367.282 115.552L378.653 123.644L293.619 305.192Z" fill="#D5DBFE"/>
</g>
<path d="M210.929 215.509C209.045 214.109 208.549 212.049 208.292 210.952C207.83 209.014 207.847 206.505 208.531 206.316C209.436 206.067 211.145 209.956 211.408 209.833C211.621 209.73 210.385 207.267 209.57 203.998C208.813 200.957 208.122 198.185 209.57 196.158C210.558 194.78 212.462 193.863 213.248 194.401C214.613 195.335 212.128 200.354 213.412 201.121C214.302 201.652 216.018 199.526 216.844 200.081C217.585 200.578 217.124 202.91 216.284 204.636C215.296 206.659 214.884 209.657 215.164 210.112C215.565 210.773 217.34 207.509 217.841 208.073C218.921 209.287 218.33 212.789 217.802 214.355C217.369 215.633 215.908 216.41 215.724 217.822C215.615 218.662 216.55 216.002 215.803 216.466C213.893 217.654 211.18 215.698 210.929 215.509Z" fill="#25BF46"/>
<path d="M216.182 212.005C215.985 212.219 215.848 212.472 215.631 212.672C215.354 212.899 215.049 213.087 214.722 213.232C214.305 213.436 213.956 213.756 213.718 214.154C213.719 214.149 213.719 214.144 213.718 214.14C213.725 214.034 213.711 213.928 213.676 213.827C213.482 212.21 213.249 210.596 212.989 208.989C212.881 208.321 212.773 207.651 212.656 206.983C212.672 206.371 212.846 205.774 213.16 205.248C213.315 204.977 213.487 204.718 213.648 204.45C213.809 204.183 214.012 203.89 214.068 203.589C214.073 203.567 214.07 203.544 214.06 203.524C214.05 203.504 214.033 203.488 214.012 203.479C213.991 203.47 213.968 203.469 213.946 203.476C213.924 203.482 213.906 203.496 213.893 203.515C213.685 203.795 213.539 204.142 213.353 204.44C213.167 204.739 212.974 205.044 212.815 205.363C212.682 205.621 212.578 205.894 212.506 206.175C212.461 205.938 212.415 205.7 212.366 205.465C212.136 204.359 211.684 203.322 211.417 202.227C211.259 201.579 211.15 200.92 211.091 200.256C211.033 199.61 211.075 198.965 211.03 198.321C211.03 198.227 210.872 198.191 210.853 198.297C210.776 198.85 210.768 199.411 210.826 199.966C210.862 200.508 210.93 201.048 211.03 201.582C211.245 202.717 211.686 203.771 211.984 204.883C212.282 205.994 212.449 207.193 212.642 208.346C212.841 209.539 213.028 210.735 213.202 211.933C213.27 212.406 213.333 212.881 213.396 213.356C213.333 213.28 213.266 213.216 213.2 213.141C212.896 212.847 212.559 212.587 212.198 212.366C211.81 212.129 211.436 211.87 211.078 211.589C210.748 211.294 210.465 210.95 210.238 210.57C210.23 210.556 210.218 210.546 210.203 210.541C210.188 210.536 210.171 210.536 210.157 210.542C210.142 210.549 210.13 210.56 210.124 210.574C210.117 210.589 210.116 210.605 210.12 210.62C210.286 211.341 211.065 211.862 211.644 212.238C212.009 212.475 212.386 212.699 212.727 212.972C212.968 213.165 213.287 213.435 213.444 213.745C213.544 214.518 213.64 215.29 213.734 216.063C213.748 216.179 213.928 216.184 213.917 216.063C213.867 215.527 213.808 214.991 213.746 214.455C213.89 214.195 214.079 213.964 214.306 213.773C214.587 213.566 214.89 213.392 215.211 213.255C215.659 213.024 216.219 212.619 216.301 212.083C216.311 212.01 216.236 211.947 216.182 212.005Z" fill="#54A03F"/>
<path d="M219.538 213.066C215.988 213.134 211.047 213.206 207.498 213.273C207.373 213.275 207.25 213.303 207.136 213.354C207.022 213.405 206.919 213.478 206.834 213.569C206.748 213.661 206.682 213.768 206.639 213.886C206.597 214.003 206.578 214.128 206.584 214.253C206.731 216.825 208.918 223.37 209.971 226.892H217.3C218.329 223.917 220.457 216.58 220.492 214.012C220.494 213.887 220.47 213.763 220.423 213.646C220.375 213.53 220.305 213.425 220.216 213.337C220.127 213.248 220.021 213.179 219.905 213.132C219.788 213.086 219.664 213.063 219.538 213.066Z" fill="#668DC4"/>
<path d="M20.9843 316.228C20.4495 324.768 19.9147 332.591 19.3799 341.127C31.5333 340.697 40.3505 341.967 49.9545 340.987C49.5877 339.287 45.9365 328.79 32.0219 328.55C32.3019 325.05 32.9025 318.363 33.1783 314.863L20.9843 316.228Z" fill="#1A303B"/>
<path d="M56.3682 311.332C57.029 319.858 57.638 332.043 58.2988 340.571C74.9686 340.816 73.773 341.058 86.3198 340.96C85.7192 339.329 81.9714 326.448 68.1604 328.151C67.9448 324.651 67.1958 312.105 66.9802 308.602L56.3682 311.332Z" fill="#1A303B"/>
<path d="M58.5662 117.255C62.958 113.359 78.0108 143.615 77.6972 146.587C77.4172 149.18 76.5562 149.822 73.0324 153.227C68.2402 157.855 66.7996 155.807 65.905 155.779C61.0274 155.624 55.4512 120.018 58.5662 117.255Z" fill="#E88534"/>
<path d="M68.7146 183.392C51.1138 183.338 45.4158 188.632 43.3746 191.295C30.9846 207.423 40.625 214.371 46.5372 225.327C47.275 226.698 48.934 243.18 49.9588 249.558C51.0382 256.278 51.44 261.336 51.1096 263.106C49.837 269.925 49.5234 297.111 55.3866 316.306C56.0544 316.81 59.0518 317.924 61.5858 317.846C65.5254 317.733 67.5288 314.112 67.8466 313.66C68.4612 302.378 68.1434 291.637 68.562 280.34C69.78 247.356 69.1626 216.457 68.7146 183.392Z" fill="#353D9E"/>
<mask id="mask2_7_14811" style="mask-type:luminance" maskUnits="userSpaceOnUse" x="37" y="183" width="33" height="135">
<path d="M68.7146 183.392C51.1138 183.338 45.4158 188.632 43.3746 191.295C30.9846 207.423 40.625 214.371 46.5372 225.327C47.275 226.698 48.934 243.18 49.9588 249.558C51.0382 256.278 51.44 261.336 51.1096 263.106C49.837 269.925 49.5234 297.111 55.3866 316.306C56.0544 316.81 59.0518 317.924 61.5858 317.846C65.5254 317.733 67.5288 314.112 67.8466 313.66C68.4612 302.378 68.1434 291.637 68.562 280.34C69.78 247.356 69.1626 216.457 68.7146 183.392Z" fill="white"/>
</mask>
<g mask="url(#mask2_7_14811)">
<path d="M49.9551 181.261C53.6427 180.832 66.7999 169.709 59.7677 225.935C58.3677 237.159 52.6823 239.572 56.3685 249.558C58.3859 255.018 60.8107 261.89 59.1685 266.455C57.7685 270.347 59.0285 272.717 56.5911 276.189C52.5479 281.949 57.9785 284.376 58.2179 292.569C58.5791 304.913 53.1653 328.409 49.9579 328.114C40.4659 327.24 39.9745 182.421 49.9551 181.261Z" fill="url(#paint0_linear_7_14811)"/>
</g>
<path d="M23.2173 184.86C21.0935 188.57 20.9927 196.06 22.3031 221.54C23.2957 240.819 23.4231 246.627 23.4665 250.076C23.5057 252.974 21.7249 261.869 21.1957 274.197C20.7323 285.006 21.6423 299.152 19.5913 314.704C19.9511 315.372 21.6101 318.28 25.0163 319.324C29.5817 320.724 33.2217 317.517 33.5409 317.224C36.4375 302.632 38.6887 290.853 40.1293 283.232C51.0955 225.219 47.3603 237.493 50.2093 226.159C50.2093 226.159 52.7013 216.219 54.4709 196.362C55.3823 186.142 55.0659 183.284 53.3089 181.255C47.7033 174.793 29.7259 173.492 23.2173 184.86Z" fill="#412ED6"/>
<mask id="mask3_7_14811" style="mask-type:luminance" maskUnits="userSpaceOnUse" x="19" y="176" width="36" height="144">
<path d="M23.2183 184.86C21.0945 188.57 20.9937 196.06 22.3041 221.54C23.2967 240.819 23.4241 246.627 23.4675 250.076C23.5067 252.974 21.7259 261.869 21.1967 274.197C20.7333 285.006 21.6433 299.152 19.5923 314.704C19.9521 315.372 21.6111 318.28 25.0173 319.324C29.5827 320.724 33.2227 317.517 33.5419 317.224C36.4385 302.632 38.6897 290.853 40.1303 283.232C51.0965 225.219 47.3613 237.493 50.2103 226.159C50.2103 226.159 52.7023 216.219 54.4719 196.362C55.3833 186.142 55.0669 183.284 53.3099 181.255C47.7043 174.793 29.7269 173.492 23.2183 184.86Z" fill="white"/>
</mask>
<g mask="url(#mask3_7_14811)">
<path d="M15.2549 183.277C18.7661 182.764 23.7109 189.066 25.8949 189.066C34.6617 189.066 25.5253 199.706 25.9243 214.651C26.5193 236.954 29.2731 242.742 30.2307 251.99C30.9615 259.048 26.7069 255.423 26.3107 259.047C25.8235 263.515 29.2773 266.018 26.0965 270.589C21.0803 277.798 25.8165 283.653 22.9969 296.421C21.7159 302.226 19.5417 321.438 17.0105 321.28C8.06032 320.722 2.50093 185.14 15.2549 183.277Z" fill="url(#paint1_linear_7_14811)"/>
</g>
<path d="M61.8725 118.116C59.5597 115.902 52.4659 113.04 51.1485 112.21C46.5565 109.315 35.1885 104.65 30.2983 107.906C30.2564 107.909 30.2158 107.921 30.1796 107.942C30.1434 107.964 30.1126 107.993 30.0897 108.028L30.0813 108.042L30.0617 108.055C30.0298 108.076 30.0028 108.104 29.9825 108.136C29.9622 108.169 29.9491 108.206 29.9441 108.244C24.1397 116.893 18.3829 118.583 11.4095 126.332C9.30947 128.667 8.32946 151.075 8.48346 156.752C8.67526 163.948 8.02427 165.947 15.5997 163.713C17.7557 163.076 19.8333 162.195 21.9809 161.529C25.6377 160.394 26.6261 161.085 26.4945 164.889C26.2803 171.094 24.8761 172.791 23.1247 178.71C21.5077 184.17 21.4223 184.103 21.5077 184.17C20.4605 189.746 20.5977 188.412 26.4903 191.198C30.1779 192.939 35.6701 193.68 39.6503 193.88C44.0967 194.103 49.9291 193.578 54.2103 192.22C58.2143 190.949 60.8715 190.24 64.4387 188.059C66.6661 186.698 68.8291 186.151 68.7101 183.383C68.5491 179.562 65.2185 121.321 61.8725 118.116Z" fill="#EAB300"/>
<mask id="mask4_7_14811" style="mask-type:luminance" maskUnits="userSpaceOnUse" x="8" y="105" width="71" height="89">
<path d="M78.3005 143.7C77.9393 141.94 75.4473 139.64 74.4379 138.148C73.05 136.105 71.721 134.025 70.4507 131.905C68.0788 127.927 65.9084 123.833 63.9477 119.637C62.6541 116.89 52.6329 112.679 51.1475 112.217C48.6163 111.422 49.6579 110.338 47.5691 108.895C42.8665 105.647 35.1819 104.661 30.2973 107.915C30.2555 107.917 30.2148 107.93 30.1786 107.951C30.1424 107.972 30.1116 108.001 30.0887 108.036L30.0803 108.05L30.0607 108.063C30.0288 108.084 30.0018 108.112 29.9815 108.145C29.9612 108.177 29.9481 108.214 29.9431 108.252C24.1387 116.901 18.3819 118.591 11.4085 126.34C9.30849 128.675 8.32849 151.084 8.48249 156.761C8.67429 163.957 8.02329 165.956 15.5987 163.721C17.7547 163.084 19.8323 162.204 21.9799 161.537C25.6367 160.402 26.6251 161.094 26.4935 164.897C26.2793 171.102 24.8751 172.799 23.1237 178.718C21.5067 184.178 21.4213 184.111 21.5067 184.178C20.4595 189.754 20.5967 188.42 26.4893 191.206C30.1769 192.948 35.6691 193.688 39.6493 193.889C44.0957 194.111 49.9281 193.586 54.2093 192.228C58.2133 190.957 60.8705 190.249 64.4377 188.067C66.6651 186.707 68.8281 186.159 68.7091 183.391C68.5439 179.562 69.9873 153.359 69.8529 150.875C73.3151 150.028 79.1279 147.725 78.3005 143.7Z" fill="white"/>
</mask>
<g mask="url(#mask4_7_14811)">
<path d="M27.7677 135.704C30.6335 139.725 27.5591 154.859 31.4217 161.429C35.0743 167.643 43.6535 165.044 45.0115 169.759C46.2869 174.192 42.9704 177.496 40.7206 178.935C19.834 192.304 61.8731 181.157 65.0553 191.833C65.6237 193.74 10.0353 207.6 22.2293 178.935C29.6423 161.501 26.6771 134.18 27.7677 135.704Z" fill="url(#paint2_linear_7_14811)"/>
<path d="M22.0546 105.365C25.5098 106.037 28.4288 112.605 27.0946 116.985C25.6344 121.777 19.8832 121.366 18.1822 127.065C17.0762 130.771 18.0268 135.913 18.1822 136.753C18.7128 139.62 19.333 140.246 18.9578 141.793C18.1738 145.013 12.732 144.551 12.3694 148.38C10.646 166.552 9.31318 178.882 8.47038 166.552C8.33038 164.526 4.43838 172.723 2.34118 169.711C-7.26702 155.908 13.1366 103.631 22.0546 105.365Z" fill="url(#paint3_linear_7_14811)"/>
</g>
<path d="M308.036 332.462L269.026 321.56C267.262 320.285 265.89 319.942 265.62 320.538C265.56 320.67 265.51 320.818 265.454 320.951C265.399 320.811 265.347 320.671 265.288 320.538C265.018 319.942 263.645 320.285 261.881 321.56L222.873 332.462C220.658 336.323 219.976 336.75 217.761 340.611C221.282 341.066 225.654 340.158 229.175 340.611C230.482 337.999 229.402 340.184 230.708 337.573L260.178 335.018L265.454 334.598L270.73 335.018L300.2 337.573C301.505 340.184 300.427 337.993 301.733 340.611C305.253 340.158 309.625 341.066 313.146 340.611C310.931 336.75 310.249 336.323 308.036 332.462Z" fill="#1A303B"/>
<path d="M267.822 278.02H263.088C262.899 278.02 262.745 278.174 262.745 278.363V328.987C262.745 329.177 262.899 329.33 263.088 329.33H267.822C268.011 329.33 268.165 329.177 268.165 328.987V278.363C268.165 278.174 268.011 278.02 267.822 278.02Z" fill="#4753A8"/>
<path d="M269.899 282.945H263.26C261.227 282.945 259.278 282.138 257.84 280.7C256.403 279.263 255.595 277.313 255.595 275.28C255.595 271.047 259.027 261.482 263.26 261.482H269.903C274.137 261.482 277.57 271.047 277.57 275.28C277.569 276.287 277.371 277.284 276.985 278.215C276.6 279.145 276.035 279.99 275.322 280.702C274.61 281.414 273.764 281.978 272.834 282.363C271.903 282.748 270.906 282.946 269.899 282.945Z" fill="#1A303B"/>
<path d="M304.479 259.047H229.803C229.321 259.047 228.931 259.438 228.931 259.92V271.974C228.931 272.455 229.321 272.846 229.803 272.846H304.479C304.961 272.846 305.351 272.455 305.351 271.974V259.92C305.351 259.438 304.961 259.047 304.479 259.047Z" fill="#668DC4"/>
<path d="M270.771 320.951H260.721V340.743H270.771V320.951Z" fill="#1A303B"/>
<path d="M285.128 308.9C284.312 319.442 283.495 330.59 282.678 341.133C289.587 341.282 294.358 340.62 300.057 341.133C300.267 340.111 300.455 338.194 299.357 335.02C298.194 331.653 295.792 330.008 295.111 329.449C292.348 327.184 290.049 320.105 292.783 298.215L285.128 308.9Z" fill="#8F8BD6"/>
<path d="M242.704 311.351C243.382 321.225 244.061 331.1 244.739 340.977L263.482 340.266C263.658 338.003 263.137 335.741 261.989 333.784C260.229 330.807 257.426 329.491 256.565 329.151C251.587 327.191 249.697 321.122 249.412 300.489L242.704 311.351Z" fill="#8F8BD6"/>
<path d="M243.836 228.12C244.688 231.781 241.963 236.653 242.814 240.315C246.722 241.681 250.74 242.706 254.824 243.381C260.662 244.343 267.144 243.95 279.864 243.125C286.864 242.671 290.704 243.045 291.107 240.315C292.01 234.193 290.714 230.354 290.34 228.12C272.71 227.858 261.467 228.369 243.836 228.12Z" fill="#1A303B"/>
<path d="M244.604 209.818C235.427 201.418 230.532 194.906 227.739 190.398C227.272 189.644 226.391 188.185 225.102 186.236C223.683 184.093 222.829 182.96 220.414 179.666C215.682 173.213 215.115 172.329 214.452 172.512C213.332 172.821 212.643 175.976 213.601 178.304C214.354 180.139 215.727 180.517 215.8 181.758C213.84 182.087 212.083 182.354 210.62 182.563C204.95 183.372 202.114 183.776 200.996 183.499C200.239 183.312 198.986 182.914 198.44 183.499C197.915 184.059 198.02 185.445 198.696 186.225C198.915 186.474 201.045 186.893 201.33 187.065C202.643 188.745 207.54 192.385 213.596 192.783C214.848 192.865 216.104 192.808 217.343 192.613C219.404 197.102 221.256 201.006 222.794 204.197C226.699 212.289 229.041 216.72 233.356 221.06C237.29 225.018 239.445 224.606 240.425 224.553C244.007 224.358 246.942 220.945 247.324 217.143C247.737 213.085 245.017 210.236 244.604 209.818Z" fill="url(#paint4_linear_7_14811)"/>
<path d="M293.679 222.219H243.607C242.863 222.219 242.26 222.822 242.26 223.566V223.703C242.26 224.447 242.863 225.05 243.607 225.05H293.679C294.423 225.05 295.026 224.447 295.026 223.703V223.566C295.026 222.822 294.423 222.219 293.679 222.219Z" fill="#424E60"/>
<path d="M360.216 224.92H326.315C326.129 224.92 325.945 224.883 325.773 224.812C325.601 224.741 325.445 224.637 325.314 224.505C325.183 224.374 325.078 224.218 325.007 224.046C324.936 223.874 324.899 223.69 324.899 223.504C324.899 223.129 325.049 222.769 325.314 222.503C325.579 222.238 325.939 222.089 326.315 222.089H360.216C360.591 222.089 360.951 222.238 361.217 222.503C361.482 222.769 361.631 223.129 361.631 223.504C361.631 223.69 361.595 223.874 361.523 224.046C361.452 224.218 361.348 224.374 361.217 224.505C361.085 224.637 360.929 224.741 360.757 224.812C360.586 224.883 360.402 224.92 360.216 224.92Z" fill="#424E60"/>
<path d="M253.216 163.798C252.481 169.227 252.524 174.733 253.344 180.15C253.624 181.959 254.025 185.602 256.155 187.177C257.443 188.132 258.882 188.2 260.495 188.2C265.395 188.2 267.869 188.2 270.46 186.411C271.37 185.783 272.477 183.677 273.697 181.258C274.478 181.021 275.781 181.091 276.848 180.407C281.278 177.565 281.114 172.917 280.809 169.163C280.434 164.533 280.249 162.219 279.276 160.476C276.306 155.135 269.045 154.34 267.394 154.215C265.378 154.063 261.209 153.748 257.556 156.643C254.402 159.146 253.482 162.583 253.216 163.798Z" fill="#F8B7AF"/>
<path d="M282.345 156.77C281.573 155.211 280.07 152.173 276.851 151.149C276.151 150.927 274.366 150.367 272.904 150.995C271.924 149.801 270.198 149.289 268.675 148.851C267.464 148.501 262.631 147.108 257.688 149.873C257.437 150.013 252.753 152.727 251.172 158.303C250.738 159.834 249.883 162.852 251.3 164.183C252.288 165.112 253.905 166.087 259.732 164.476C263.645 163.394 265.951 162.456 267.467 161.603C268.564 162.487 269.838 162.457 270.719 163.545C272.234 165.415 272.435 167.433 272.636 169.425C272.891 172.099 272.587 174.797 271.741 177.346C272.073 177.789 272.571 178.336 273.019 178.239C273.849 178.062 273.365 175.907 274.68 174.024C275.868 172.32 276.871 172.009 277.947 171.675C280.06 171.02 281.365 173.842 282.79 169.411C284.067 165.438 283.614 159.335 282.345 156.77Z" fill="#060060"/>
<mask id="mask5_7_14811" style="mask-type:luminance" maskUnits="userSpaceOnUse" x="250" y="148" width="34" height="31">
<path d="M282.346 156.77C281.575 155.211 280.071 152.173 276.852 151.149C276.152 150.927 274.367 150.367 272.906 150.995C271.926 149.801 270.2 149.289 268.676 148.851C267.465 148.501 262.633 147.108 257.689 149.873C257.439 150.013 252.754 152.727 251.174 158.303C250.74 159.834 249.884 162.852 251.301 164.183C252.289 165.112 253.906 166.087 259.733 164.476C263.646 163.394 265.952 162.456 267.468 161.603C268.566 162.487 269.84 162.457 270.72 163.545C272.235 165.415 272.437 167.433 272.637 169.425C272.893 172.099 272.588 174.797 271.742 177.346C272.074 177.789 272.573 178.336 273.021 178.239C273.851 178.062 273.366 175.907 274.681 174.024C275.87 172.32 276.872 172.009 277.949 171.675C280.061 171.02 281.366 173.842 282.791 169.411C284.068 165.438 283.616 159.335 282.346 156.77Z" fill="white"/>
</mask>
<g mask="url(#mask5_7_14811)">
<path d="M289.459 160.545C288.228 163.353 282.41 162.785 280.677 162.613C276.597 162.212 273.7 160.503 271.635 159.253C267.911 157.001 265.118 155.313 263.885 152.02C261.733 146.28 265.746 139.42 266.986 139.62C267.406 139.686 267.79 142.292 268.536 147.5C269.255 152.531 269.211 153.056 269.827 154.08C271.507 156.891 275.445 159.006 278.997 158.47C283.089 157.853 284.304 154.074 286.747 154.725C288.798 155.281 290.32 158.581 289.459 160.545Z" fill="url(#paint5_linear_7_14811)"/>
</g>
<path d="M268.645 185.822C268.685 184.776 269.507 183.975 270.605 183.181C272.598 181.739 274.61 180.282 277.844 179.946C278.839 179.841 284.036 179.299 287.384 182.841C288.863 184.408 289.421 186.179 289.682 187.015C290.216 188.711 290.786 190.524 289.939 191.699C288.819 193.252 285.545 193.249 283.21 192.21C279.649 190.628 279.174 187.04 276.396 187.015C275.706 187.015 275.895 187.23 273.756 187.611C270.18 188.247 269.464 187.66 269.241 187.44C268.618 186.83 268.639 185.939 268.645 185.822Z" fill="url(#paint6_linear_7_14811)"/>
<path d="M252.523 238.777C243.441 234.139 242.594 232.104 240.003 232.389C235.081 232.928 229.299 240.971 230.294 247.209C231.882 257.162 236.898 290.795 239.237 303.423C240.325 309.303 242.046 316.428 242.648 319.943C242.717 320.35 242.94 320.715 243.271 320.961C243.602 321.208 244.016 321.317 244.426 321.266L249.897 320.603C250.291 320.556 250.653 320.365 250.915 320.067C251.176 319.768 251.318 319.384 251.312 318.987C251.284 316.956 251.186 308.285 251.246 305.208C251.402 297.252 251.844 295.362 252.268 287.322C252.901 275.335 253.341 267.177 253.145 262.337C253.132 262.029 253.121 261.762 253.111 261.527C253.054 260.173 254.616 259.336 255.679 260.177C261.27 264.605 273.263 264.478 280.072 260.795C281.244 260.16 282.632 261.075 282.452 262.396C282.206 264.159 282.749 291.673 282.683 298.205C282.626 303.968 282.683 308.019 283.967 313.524C284.188 314.472 284.69 315.309 285.661 315.253L291.495 314.92C291.856 314.901 292.2 314.76 292.471 314.521C292.742 314.281 292.923 313.957 292.986 313.601C293.669 309.706 295.339 298.07 296.734 291.41C298.089 284.938 299.784 277.473 301.845 267.391C304.593 253.933 305.373 248.631 302.611 243.117C301.749 241.396 300.143 238.193 296.99 237.237C293.62 236.219 291.537 238.694 283.703 241.069C278.523 242.638 274.559 243.036 273.737 243.113C270.649 243.405 265.696 243.827 259.939 242.091C257.723 241.431 255.99 240.546 252.523 238.777Z" fill="#353D9E"/>
<mask id="mask6_7_14811" style="mask-type:luminance" maskUnits="userSpaceOnUse" x="230" y="232" width="75" height="90">
<path d="M252.522 238.777C243.441 234.138 242.594 232.104 240.002 232.388C235.08 232.927 229.299 240.969 230.293 247.209C231.933 257.497 236.928 290.992 239.236 303.423C240.327 309.303 242.045 316.428 242.647 319.943C242.716 320.35 242.939 320.715 243.27 320.961C243.602 321.208 244.015 321.317 244.425 321.266L249.896 320.602C250.29 320.556 250.653 320.365 250.914 320.066C251.175 319.768 251.317 319.383 251.311 318.987C251.283 316.955 251.185 308.285 251.246 305.208C251.401 297.252 251.843 295.362 252.268 287.322C252.9 275.335 253.34 267.177 253.144 262.337C253.131 262.029 253.12 261.762 253.11 261.527C253.053 260.173 254.615 259.336 255.678 260.177C261.27 264.605 273.262 264.478 280.072 260.794C281.243 260.16 282.631 261.074 282.452 262.396C282.205 264.159 282.748 291.673 282.683 298.205C282.625 303.968 282.683 308.019 283.966 313.524C284.188 314.472 284.689 315.309 285.66 315.253L291.494 314.92C291.855 314.901 292.199 314.76 292.47 314.521C292.741 314.281 292.922 313.957 292.985 313.601C293.668 309.706 295.339 298.069 296.733 291.41C298.088 284.937 299.784 277.473 301.844 267.391C304.593 253.933 305.372 248.631 302.61 243.117C301.748 241.396 300.142 238.193 296.989 237.237C293.619 236.219 291.536 238.694 283.702 241.068C278.522 242.638 274.558 243.035 273.737 243.112C270.648 243.405 265.695 243.826 259.938 242.09C257.722 241.431 255.989 240.546 252.522 238.777Z" fill="white"/>
</mask>
<g mask="url(#mask6_7_14811)">
<path d="M229.2 223.668C231.899 223.784 239.759 227.279 236.21 235.228C233.511 241.273 232.97 246.326 234.237 251.858C235.653 258.039 239.228 258.741 239.277 263.872C239.319 268.324 236.637 268.938 235.79 273.952C234.897 279.245 237.47 281.033 239.665 289.453C242.105 298.826 241.443 306.334 241.215 308.441C240.812 312.179 239.598 323.421 236.175 323.942C230.604 324.791 217.856 297.412 217.575 268.527C217.356 246.13 224.635 223.471 229.2 223.668Z" fill="url(#paint7_linear_7_14811)"/>
<path d="M252.695 256.897C255.103 250.037 242.818 237.717 243.865 233.908C244.212 232.648 253.83 238.227 257.039 236.748C261.024 234.914 263.723 239.025 270.73 239.59C278.82 240.244 291.73 233.85 293.96 235.989C296.047 237.993 282.76 247.948 283.551 256.639C283.811 259.521 283.172 258.732 284.72 263.872C286.917 271.164 289.739 270.07 289.845 272.913C290.054 278.502 282.655 281.233 287.003 285.054C291.42 288.935 286.788 294.127 286.754 299.334C286.735 302.452 293.354 304.221 289.854 313.864C287.537 320.251 282.728 316.431 281.837 316.572C279.226 316.992 277.384 307.532 270.217 294.098C263.131 280.824 259.157 279.258 256.527 269.038C255.303 264.314 250.519 263.098 252.695 256.897Z" fill="url(#paint8_linear_7_14811)"/>
</g>
<path d="M258.907 172.662C258.889 172.603 258.855 172.551 258.808 172.511C258.761 172.472 258.704 172.446 258.643 172.438C258.582 172.43 258.52 172.44 258.464 172.466C258.409 172.492 258.362 172.534 258.329 172.586C257.986 173.215 257.649 173.847 257.319 174.482C257.247 174.613 257.178 174.746 257.107 174.878C256.933 175.187 256.715 175.53 256.557 175.879C256.378 176.191 256.211 176.524 256.21 176.859C256.206 177.012 256.25 177.163 256.334 177.29C256.419 177.418 256.54 177.517 256.683 177.573C257.25 177.84 257.851 178.028 258.469 178.133C259.495 178.309 259.425 177.349 259.441 176.579C259.463 175.254 259.283 173.933 258.907 172.662Z" fill="#DB3A3A"/>
<path d="M294.609 186.91H242.677C242.447 186.91 242.26 187.096 242.26 187.327V221.931C242.26 222.161 242.447 222.348 242.677 222.348H294.609C294.839 222.348 295.026 222.161 295.026 221.931V187.327C295.026 187.096 294.839 186.91 294.609 186.91Z" fill="#668DC4"/>
<mask id="mask7_7_14811" style="mask-type:luminance" maskUnits="userSpaceOnUse" x="242" y="186" width="54" height="37">
<path d="M294.61 186.91H242.678C242.448 186.91 242.261 187.096 242.261 187.327V221.931C242.261 222.161 242.448 222.348 242.678 222.348H294.61C294.84 222.348 295.027 222.161 295.027 221.931V187.327C295.027 187.096 294.84 186.91 294.61 186.91Z" fill="white"/>
</mask>
<g mask="url(#mask7_7_14811)">
<path d="M303.659 193.68C301.468 192.186 296.253 194.971 293.197 198.524C289.093 203.295 291.105 206.874 287.773 210.535C285.691 212.822 283.499 212.972 269.95 214.41C257.336 215.747 253.672 216.207 249.221 217.122C244.638 218.064 234.772 220.091 234.885 221.771C235.025 223.912 251.125 221.658 276.924 225.258C291.288 227.263 300.024 229.878 303.271 225.452C305.386 222.566 302.768 219.954 303.078 209.373C303.363 199.574 305.805 195.149 303.659 193.68Z" fill="url(#paint9_linear_7_14811)"/>
</g>
<path opacity="0.64" d="M268.643 204.047L272.574 204.803C272.4 205.705 271.921 206.52 271.217 207.111C270.514 207.702 269.628 208.033 268.709 208.048C267.79 208.063 266.894 207.761 266.172 207.193C265.449 206.626 264.943 205.827 264.74 204.931C264.537 204.035 264.648 203.096 265.055 202.272C265.463 201.448 266.141 200.79 266.976 200.407C267.812 200.024 268.753 199.94 269.643 200.17C270.533 200.399 271.317 200.928 271.863 201.667L268.643 204.047Z" fill="white"/>
<path d="M416.122 184.425C413.819 188.485 421.127 195.305 418.03 200.331C417.382 201.383 416.531 201.947 416.763 202.416C417.306 203.516 423.143 202.738 427.382 199.517C428.021 199.031 435.222 200.704 430.322 188.811C429.075 185.778 429.178 183.594 428.396 183.173C424.13 180.869 417.809 181.45 416.122 184.425Z" fill="#F8B7AF"/>
<path d="M416.122 184.425C413.819 188.485 421.127 195.305 418.03 200.331C417.382 201.383 416.531 201.947 416.763 202.416C417.306 203.516 423.143 202.738 427.382 199.517C428.021 199.031 435.222 200.704 430.322 188.811C429.075 185.778 429.178 183.594 428.396 183.173C424.13 180.869 417.809 181.45 416.122 184.425Z" fill="url(#paint10_linear_7_14811)"/>
<path d="M294.518 323.144C289.63 323.443 285.224 323.435 283.094 321.584C276.592 315.935 271.457 318.242 269.718 319.764C269.532 319.926 269.354 320.097 269.186 320.278C268.329 321.205 268.517 322.687 269.522 323.45L290.648 339.496C291.692 340.652 294.348 340.952 295.769 340.41C297.073 339.913 296.469 338.566 297.123 336.662C299.815 328.878 301.348 328.349 300.616 326.602C299.143 323.096 294.982 323.134 294.518 323.144Z" fill="#C93954"/>
<path d="M404.558 164.942C404.183 166.92 405.587 167.911 404.813 169.541C403.833 171.614 400.811 171.575 400.724 172.863C400.695 173.303 401.005 173.983 402.769 174.907C402.599 177.287 402.124 183.664 403.705 185.458C406.341 188.448 413.047 186.823 415.516 184.676C418.08 182.446 415.516 184.676 416.183 184.352C420.484 182.252 420.06 176.962 420.655 175.418C421.683 172.758 423.781 167.307 420.655 163.153C418.705 160.563 415.255 159.181 411.968 159.576C408.759 159.961 405.094 162.111 404.558 164.942Z" fill="#F8B7AF"/>
<mask id="mask8_7_14811" style="mask-type:luminance" maskUnits="userSpaceOnUse" x="400" y="159" width="23" height="29">
<path d="M404.603 164.987C404.227 166.965 405.632 167.956 404.857 169.586C403.877 171.659 400.856 171.62 400.769 172.908C400.74 173.348 401.049 174.028 402.813 174.952C402.644 177.332 402.169 183.711 403.75 185.503C406.386 188.493 413.092 186.868 415.56 184.721C418.125 182.493 415.56 184.721 416.228 184.397C420.529 182.297 420.105 177.007 420.7 175.463C421.727 172.803 423.827 167.352 420.7 163.198C418.75 160.608 415.3 159.226 412.013 159.621C408.804 160.006 405.139 162.156 404.603 164.987Z" fill="white"/>
</mask>
<g mask="url(#mask8_7_14811)">
<path d="M403.377 167.996C404.651 168.54 405.025 168.599 405.076 168.862C405.559 171.395 402.229 176.422 401.053 176.348C399.621 176.253 398.407 174.056 398.556 172.215C398.771 169.543 401.878 167.36 403.377 167.996Z" fill="#DB3A3A"/>
</g>
<path d="M327.437 274.245C321.367 283.721 307.458 304.956 300.673 314.658C298.25 318.122 296.431 320.692 294.002 324.058C293.627 326.969 295.811 328.784 298.824 330.498C306.541 325.559 320.982 308.658 323.618 304.802C327.689 298.855 328.038 296.933 332.838 292.225C337.772 287.388 342.273 289.601 343.848 285.405C345.395 281.291 329.91 271.66 327.437 274.245Z" fill="#F47F60"/>
<path d="M386.926 249.508C383.655 247.895 381.276 247.968 372.618 249.508C354.094 252.806 344.831 257.012 340.934 258.962C336.382 261.24 325.464 265.973 317.341 276.944C316.754 277.755 316.341 278.678 316.127 279.656C315.914 280.634 315.905 281.646 316.1 282.628C319.435 300.185 334.69 309.268 339.527 311.748C339.983 311.985 340.498 312.085 341.01 312.035C341.522 311.985 342.008 311.788 342.411 311.468C346.611 308.101 359.325 296.986 368.529 286.828C371.732 283.293 377.383 280.202 383.089 278.148C389.682 275.768 390.729 277.389 393.054 274.826C397.417 270.001 395.683 253.823 386.926 249.508Z" fill="#EAB300"/>
<mask id="mask9_7_14811" style="mask-type:luminance" maskUnits="userSpaceOnUse" x="315" y="248" width="81" height="65">
<path d="M386.925 249.508C383.654 247.895 381.275 247.968 372.617 249.508C354.093 252.806 344.83 257.012 340.933 258.962C336.381 261.24 325.463 265.973 317.34 276.944C316.753 277.755 316.34 278.678 316.126 279.656C315.913 280.634 315.904 281.646 316.099 282.628C319.434 300.185 334.689 309.268 339.526 311.748C339.982 311.985 340.497 312.085 341.009 312.035C341.521 311.985 342.007 311.788 342.41 311.468C346.61 308.101 359.324 296.986 368.528 286.828C371.731 283.293 377.382 280.202 383.088 278.148C389.681 275.768 390.728 277.389 393.053 274.826C397.416 270.001 395.682 253.823 386.925 249.508Z" fill="white"/>
</mask>
<g mask="url(#mask9_7_14811)">
<path d="M384.131 241.14C385.415 243.89 388.145 246.999 384.371 249.508C379.881 252.494 373.707 249.737 366.458 252.764C360.718 255.16 355.08 255.924 353.718 255.069C351.576 253.723 353.623 250.029 358.299 244.756C365.852 236.253 382.048 236.68 384.131 241.14Z" fill="url(#paint11_linear_7_14811)"/>
<path d="M333.723 249.327C337.445 251.251 370.411 248.441 363.053 254.009C338.152 272.846 374.002 266.416 380.893 263.263C387.168 260.393 386.389 271.006 387.453 273.61C389.244 277.991 368.522 283.099 355.938 304.091C350.821 312.631 350.532 317.979 344.056 321.657C337.038 325.64 327.572 324.923 320.808 321.14C306.598 313.192 306.808 293.114 306.858 288.075C307.039 270.638 316.78 256.506 326.49 250.877C331.012 248.256 332.992 248.949 333.723 249.327Z" fill="url(#paint12_linear_7_14811)"/>
</g>
<path d="M439.491 205.385C438.39 200.695 437.176 195.529 432.848 193.32C427.908 190.8 422.16 193.784 421.088 194.369C418.029 196.049 418.36 197.253 411.206 206.609C406.586 212.661 405.287 213.666 404.906 216.576C404.668 218.396 405.063 218.815 405.759 225.668C406.285 230.864 406.19 231.91 406.271 232.475C405.495 233.699 404.642 234.871 403.715 235.985C401.315 238.925 398.844 241.963 395.197 244.203C393.213 245.422 389.07 247.518 382.763 247.527C380.626 252.48 379.975 257.947 380.888 263.263C381.883 268.915 384.625 274.113 388.728 278.126C394.014 278.051 399.252 277.105 404.23 275.326C407.855 274.031 416.108 270.964 423.308 262.738C428.748 256.522 430.878 250.429 432.507 245.775C432.945 244.525 436.296 236.223 437.617 231.438C439.479 224.694 441.887 215.588 439.491 205.385Z" fill="#FF4D8B"/>
<mask id="mask10_7_14811" style="mask-type:luminance" maskUnits="userSpaceOnUse" x="380" y="192" width="61" height="87">
<path d="M439.492 205.385C438.392 200.695 437.178 195.529 432.849 193.32C427.91 190.8 422.161 193.784 421.089 194.369C418.03 196.049 418.362 197.253 411.208 206.609C406.588 212.661 405.289 213.666 404.908 216.576C404.67 218.396 405.065 218.815 405.76 225.668C406.287 230.864 406.192 231.91 406.273 232.475C405.497 233.699 404.643 234.871 403.716 235.985C401.317 238.925 398.846 241.963 395.199 244.203C393.215 245.422 389.071 247.518 382.764 247.527C380.628 252.48 379.976 257.947 380.889 263.263C381.885 268.915 384.627 274.113 388.729 278.126C394.015 278.051 399.253 277.105 404.232 275.326C407.856 274.031 416.109 270.964 423.309 262.738C428.75 256.522 430.879 250.429 432.509 245.775C432.947 244.525 436.297 236.223 437.619 231.438C439.481 224.694 441.889 215.588 439.492 205.385Z" fill="white"/>
</mask>
<g mask="url(#mask10_7_14811)">
<path d="M406.374 186.911C411.918 186.476 417.854 191.901 416.893 198.754C416.175 203.897 411.513 210.143 410.346 214.256C408.656 220.209 408.257 221.116 411.023 232.229C412.016 236.219 398.528 243.25 395.203 244.203C391.712 245.206 395.847 237.23 393.683 233.632C392.217 231.194 390.279 226.429 393.683 212.706C396.746 200.357 399.956 187.415 406.374 186.911Z" fill="url(#paint13_linear_7_14811)"/>
<path d="M439.58 214.331C437.418 233.349 434.232 222.234 430.9 237.36C428.677 247.451 422.844 262.447 415.401 262.935C410.006 263.289 406.69 258.063 404.119 259.663C401.836 261.084 403.726 265.059 401.062 267.586C398.193 270.306 388.091 267.271 385.551 269.546C383.761 271.149 382.59 276.063 382.862 276.714C382.862 276.714 390.538 277.121 395.249 279.602C402.873 283.616 417.737 277.681 427.029 267.589C432.142 262.034 435.416 249.084 441.756 223.412C445.295 209.077 446.71 201.626 444.467 200.548C442.426 199.567 439.66 213.655 439.58 214.331Z" fill="url(#paint14_linear_7_14811)"/>
</g>
<path d="M412.453 226.068C411.684 227.601 410.697 229.509 409.956 230.997C409.836 231.236 409.642 231.43 409.404 231.55C409.165 231.671 408.894 231.712 408.631 231.668C401.748 230.534 397.726 229.664 393.826 228.114C388.032 225.811 381.58 223.452 374.237 219.187C369.404 216.387 365.401 213.867 362.452 211.946C362.256 211.818 362.028 211.749 361.795 211.745C361.561 211.741 361.331 211.803 361.131 211.923L350.223 218.468C349.998 218.604 349.821 218.806 349.717 219.047L349.57 219.39C349.161 220.346 350.063 221.417 351.044 221.07L351.07 221.06C352.589 220.508 353.002 218.898 353.794 219.016C354.354 219.101 354.375 219.951 354.987 220.72C355.797 221.737 357.16 221.994 360.268 222.083C362.043 222.134 364.314 222.129 366.975 221.943C367.261 221.922 367.546 221.999 367.781 222.163C369.384 223.28 370.863 224.566 372.191 225.999C385.155 240.139 397.912 242.841 402.514 243.885C410.033 245.592 412.524 244.177 413.245 243.715C413.966 243.253 415.948 242.607 418.526 239.286C421.756 235.124 420.986 234.904 421.074 234.106C421.365 231.477 420.794 227.706 417.675 227.025C416.188 226.702 415.015 226.045 414.205 225.559C414.059 225.471 413.895 225.413 413.725 225.391C413.555 225.368 413.382 225.381 413.218 225.429C413.053 225.477 412.9 225.558 412.768 225.668C412.636 225.778 412.529 225.914 412.453 226.068Z" fill="url(#paint15_linear_7_14811)"/>
<path d="M413.938 167.905C415.069 173.302 414.191 179.497 414.533 185.076C415.259 196.887 417.109 183.298 417.842 186.081C419.662 192.972 428.894 190.258 433.538 188.21C434.991 187.57 438.391 185.511 438.401 183.923C438.433 178.711 437.593 172.254 437.088 169.062C436.928 168.05 436.725 159.082 431.208 154.697C425.468 150.133 415.479 147.544 408.655 152.597C404.464 155.701 402.841 159.219 402.206 161.463C402.072 161.942 402.116 162.453 402.33 162.901C402.543 163.35 402.912 163.706 403.368 163.905C405.339 164.776 406.823 167.413 410.495 160.804C410.921 160.028 407.328 168.12 413.938 167.905Z" fill="#060060"/>
<mask id="mask11_7_14811" style="mask-type:luminance" maskUnits="userSpaceOnUse" x="402" y="149" width="37" height="42">
<path d="M415.302 168.325C415.048 173.908 414.794 179.492 414.54 185.076C414.477 186.467 415.125 187.83 416.308 188.566C422.359 192.331 431.848 189.113 436.495 187.065C437.197 186.758 437.766 186.208 438.096 185.516C438.427 184.824 438.497 184.036 438.294 183.296C437.107 178.969 437.594 172.255 437.095 169.063C436.936 168.05 436.733 159.082 431.215 154.697C425.475 150.133 415.486 147.545 408.663 152.597C404.471 155.701 402.849 159.219 402.213 161.463C402.079 161.942 402.123 162.453 402.337 162.902C402.551 163.35 402.919 163.707 403.375 163.905C405.346 164.776 407.449 165.634 409.685 166.45C411.612 167.16 413.491 167.78 415.302 168.325Z" fill="white"/>
</mask>
<g mask="url(#mask11_7_14811)">
<path d="M418.759 143.28C415.119 146.419 418.553 154.979 419.634 157.675C420.725 160.395 422.559 164.97 427.273 168.508C432.072 172.109 440.784 175.333 447.697 171.406C454.61 167.479 456.783 158.039 455.355 157.024C454.095 156.135 450.758 162.196 443.01 163.815C441.999 164.027 434.205 165.656 430.69 161.686C426.427 156.863 432.717 148.568 428.411 144.122C425.961 141.586 421.041 141.32 418.759 143.28Z" fill="url(#paint16_linear_7_14811)"/>
</g>
<path d="M418.614 204.132C418.848 203.531 419.232 203 419.73 202.59C420.228 202.18 420.824 201.905 421.459 201.792C424.388 201.269 429.229 200.952 431.899 204.281C438.547 212.586 423 234.931 420.396 236.629C420.486 236.059 422.313 232.547 419.633 229.577C417.533 227.252 410.753 228.564 411.03 227.617C411.761 225.137 415.316 212.595 418.614 204.132Z" fill="#C93954"/>
<path d="M349.56 219.822C349.558 219.822 349.556 219.823 349.555 219.824C349.553 219.826 349.553 219.827 349.553 219.829C349.553 219.831 349.553 219.833 349.555 219.834C349.556 219.836 349.558 219.836 349.56 219.836C349.562 219.836 349.563 219.836 349.565 219.834C349.566 219.833 349.567 219.831 349.567 219.829C349.567 219.827 349.566 219.826 349.565 219.824C349.563 219.823 349.562 219.822 349.56 219.822Z" fill="#CE5151"/>
<path d="M325.689 301.294C324.208 299.334 322.633 297.434 321.209 295.429C319.851 293.51 319.035 291.219 318.08 289.083C318.032 288.694 317.559 289.149 317.59 289.553C317.782 292.106 318.379 294.532 319.893 296.635C320.661 297.701 321.471 298.707 322.12 299.855C322.809 301.077 323.397 302.355 323.965 303.635C324.061 303.847 324.385 303.812 324.485 303.635C324.88 302.965 325.28 302.296 325.685 301.63C325.715 301.579 325.732 301.522 325.733 301.462C325.733 301.403 325.718 301.345 325.689 301.294Z" fill="#CE5151"/>
<path d="M256.159 74.678C266.27 64.5672 266.27 48.1745 256.159 38.0637C246.048 27.953 229.656 27.953 219.545 38.0637C209.434 48.1745 209.434 64.5672 219.545 74.678C229.656 84.7887 246.048 84.7887 256.159 74.678Z" fill="#D5DBFE"/>
<path d="M245.195 40.9862L236.905 55.9736L238.817 57.0315L247.108 42.0441L245.195 40.9862Z" fill="#F8F9FF"/>
<path d="M237.42 55.4633L226.758 60.0308L227.618 62.0396L238.28 57.4721L237.42 55.4633Z" fill="#F8F9FF"/>
<path d="M237.853 37.923C237.498 37.923 237.159 37.7822 236.908 37.5318C236.658 37.2813 236.517 36.9416 236.517 36.5873V33.5521C236.517 33.1979 236.658 32.8582 236.908 32.6077C237.159 32.3573 237.498 32.2166 237.853 32.2166C238.207 32.2166 238.547 32.3573 238.797 32.6077C239.048 32.8582 239.188 33.1979 239.188 33.5521V36.5873C239.188 36.9416 239.048 37.2813 238.797 37.5318C238.547 37.7822 238.207 37.923 237.853 37.923Z" fill="#F8F9FF"/>
<path d="M237.853 80.6567C237.498 80.6567 237.159 80.5159 236.908 80.2655C236.658 80.015 236.517 79.6753 236.517 79.3211V76.2859C236.517 75.9319 236.658 75.5925 236.909 75.3424C237.159 75.0922 237.499 74.9517 237.853 74.9517C238.207 74.9517 238.546 75.0922 238.797 75.3424C239.047 75.5925 239.188 75.9319 239.188 76.2859V79.3211C239.188 79.6753 239.048 80.015 238.797 80.2655C238.547 80.5159 238.207 80.6567 237.853 80.6567Z" fill="#F8F9FF"/>
<path d="M256.366 56.3708C256.366 56.0165 256.507 55.6768 256.757 55.4263C257.008 55.1759 257.348 55.0352 257.702 55.0352H260.74C261.094 55.0352 261.434 55.1759 261.684 55.4263C261.935 55.6768 262.075 56.0165 262.075 56.3708C262.075 56.725 261.935 57.0647 261.684 57.3152C261.434 57.5656 261.094 57.7064 260.74 57.7064H257.702C257.348 57.7064 257.008 57.5656 256.757 57.3152C256.507 57.0647 256.366 56.725 256.366 56.3708Z" fill="#F8F9FF"/>
<path d="M213.633 56.3708C213.633 56.0165 213.774 55.6768 214.024 55.4263C214.274 55.1759 214.614 55.0352 214.968 55.0352H218.004C218.358 55.0355 218.697 55.1764 218.947 55.4268C219.197 55.6773 219.338 56.0168 219.338 56.3708C219.338 56.7247 219.197 57.0642 218.947 57.3147C218.697 57.5651 218.358 57.706 218.004 57.7064H214.968C214.614 57.7064 214.274 57.5656 214.024 57.3152C213.774 57.0647 213.633 56.725 213.633 56.3708Z" fill="#F8F9FF"/>
<path d="M239.673 56.4926C239.673 56.8526 239.566 57.2044 239.366 57.5037C239.166 57.803 238.882 58.0363 238.549 58.1741C238.217 58.3118 237.851 58.3479 237.498 58.2776C237.145 58.2074 236.82 58.0341 236.566 57.7795C236.311 57.525 236.138 57.2007 236.068 56.8477C235.997 56.4946 236.034 56.1287 236.171 55.7961C236.309 55.4636 236.542 55.1793 236.842 54.9793C237.141 54.7793 237.493 54.6726 237.853 54.6726C238.335 54.6726 238.798 54.8643 239.14 55.2057C239.481 55.547 239.673 56.0099 239.673 56.4926Z" fill="#F8F9FF"/>
<path d="M439.308 332.98L400.299 322.078C398.535 320.803 397.163 320.46 396.891 321.056C396.833 321.186 396.782 321.336 396.726 321.476C396.672 321.336 396.62 321.196 396.561 321.056C396.291 320.46 394.917 320.803 393.153 322.078L354.144 332.98C351.93 336.841 351.248 337.268 349.034 341.129C352.555 341.583 356.927 340.674 360.448 341.129C361.753 338.517 360.675 340.702 361.988 338.09L391.458 335.535L396.733 335.115L402.01 335.535L431.478 338.09C432.785 340.702 431.707 338.517 433.018 341.129C436.538 340.674 440.91 341.583 444.431 341.129C442.204 337.265 441.522 336.838 439.308 332.98Z" fill="#1A303B"/>
<path d="M399.141 289.88H394.896C394.727 289.88 394.59 290.017 394.59 290.186V328.347C394.59 328.517 394.727 328.654 394.896 328.654H399.141C399.311 328.654 399.448 328.517 399.448 328.347V290.186C399.448 290.017 399.311 289.88 399.141 289.88Z" fill="#4753A8"/>
<path d="M388.97 280.682C386.779 283.289 384.888 288.292 387.182 291.413C389.785 294.955 395.483 295.147 397.913 295.246C406.054 295.581 416.547 290.808 416.311 286.814C415.964 280.937 394.44 274.168 388.97 280.682Z" fill="#1A303B"/>
<path d="M449.273 186.14C447.446 185.65 444.513 188.328 443.14 190.48C441.38 193.235 440.655 208.82 439.308 216.031C437.068 228.031 433.953 236.832 432.664 240.306C428.062 252.713 425.76 258.916 420.144 264.324C418.272 266.127 411.395 272.749 400.98 274.544C390.2 276.405 377.329 271.317 369.577 276.419C367.28 277.929 364.692 280.433 365.237 281.785C365.924 283.507 371.055 281.785 378.523 282.551C383.682 283.079 393.691 285.117 401.496 288.343C412.136 292.739 412.263 294.966 417.082 295.242C457.195 297.546 455.638 187.846 449.273 186.14Z" fill="#668DC4"/>
<mask id="mask12_7_14811" style="mask-type:luminance" maskUnits="userSpaceOnUse" x="365" y="186" width="88" height="110">
<path d="M449.272 186.14C447.445 185.65 444.512 188.328 443.139 190.48C441.379 193.235 440.654 208.82 439.307 216.031C437.067 228.031 433.952 236.832 432.662 240.306C428.061 252.713 425.759 258.916 420.142 264.324C418.27 266.127 411.394 272.749 400.979 274.544C390.199 276.405 377.327 271.317 369.576 276.419C367.278 277.929 364.691 280.433 365.236 281.785C365.923 283.507 371.054 281.785 378.522 282.551C383.681 283.079 393.689 285.117 401.494 288.343C412.134 292.739 412.262 294.966 417.08 295.242C457.193 297.546 455.636 187.846 449.272 186.14Z" fill="white"/>
</mask>
<g mask="url(#mask12_7_14811)">
<path d="M457.801 213.223C454.993 212.913 456.526 237.031 439.589 248.486C430.091 254.909 424.2 250.986 401.612 255.462C394.56 256.862 360.839 265.542 360.032 276.4C359.79 279.646 366.447 282.56 376.426 293.051C379.915 296.72 382.961 299.923 384.951 301.575C397.435 311.935 426.615 309.613 444.241 295.762C476.271 270.592 462.07 213.692 457.801 213.223Z" fill="url(#paint17_linear_7_14811)"/>
</g>
<path d="M402.044 321.466H391.993V341.258H402.044V321.466Z" fill="#1A303B"/>
<path d="M326.434 223.273L323.975 223.781C323.959 223.785 323.942 223.785 323.925 223.782C323.908 223.779 323.892 223.773 323.878 223.764C323.864 223.754 323.852 223.742 323.842 223.728C323.833 223.714 323.826 223.699 323.823 223.682L315.937 185.588C315.93 185.555 315.937 185.52 315.955 185.491C315.974 185.463 316.003 185.443 316.036 185.435L318.494 184.927C318.528 184.92 318.563 184.927 318.591 184.945C318.62 184.964 318.64 184.993 318.647 185.026L326.535 223.12C326.538 223.137 326.538 223.154 326.535 223.171C326.532 223.188 326.525 223.204 326.516 223.218C326.507 223.232 326.495 223.244 326.48 223.254C326.466 223.263 326.45 223.27 326.434 223.273Z" fill="#6C8993"/>
<path d="M174.685 341.149L172.787 340.586L181.909 309.796L186.362 310.359L174.685 341.149Z" fill="#162321"/>
<path d="M347.004 341.149L348.903 340.586L339.781 309.796L335.328 310.359L347.004 341.149Z" fill="#162321"/>
<path d="M361.98 224.504H161.837C161.369 224.504 160.905 224.596 160.472 224.775C160.039 224.954 159.645 225.217 159.314 225.548C158.982 225.879 158.72 226.273 158.54 226.706C158.361 227.139 158.269 227.603 158.269 228.071V231.27C158.269 232.217 158.645 233.124 159.314 233.794C159.983 234.463 160.891 234.839 161.837 234.839H202.88L173.88 332.718L180.473 334.678L216.36 240.052C216.942 238.518 217.977 237.198 219.327 236.267C220.678 235.335 222.28 234.837 223.92 234.839H298.567C300.206 234.839 301.807 235.337 303.156 236.268C304.505 237.2 305.539 238.519 306.12 240.052L342.003 334.673L347.374 333.812L318.363 235.932L361.98 234.839C362.926 234.839 363.834 234.463 364.503 233.794C365.172 233.124 365.548 232.217 365.548 231.27V228.071C365.548 227.603 365.456 227.139 365.277 226.706C365.097 226.273 364.834 225.879 364.503 225.548C364.172 225.217 363.778 224.954 363.345 224.775C362.912 224.596 362.448 224.504 361.98 224.504Z" fill="#668DC4"/>
<mask id="mask13_7_14811" style="mask-type:luminance" maskUnits="userSpaceOnUse" x="158" y="224" width="208" height="111">
<path d="M361.979 224.504H161.836C161.368 224.504 160.904 224.596 160.471 224.775C160.038 224.954 159.644 225.217 159.313 225.548C158.981 225.879 158.719 226.273 158.539 226.706C158.36 227.139 158.268 227.603 158.268 228.071V231.27C158.268 232.217 158.644 233.124 159.313 233.794C159.982 234.463 160.89 234.839 161.836 234.839H202.879L173.879 332.718L180.472 334.678L216.359 240.052C216.941 238.518 217.976 237.198 219.326 236.267C220.677 235.335 222.279 234.837 223.919 234.839H298.566C300.205 234.839 301.806 235.337 303.155 236.268C304.504 237.2 305.538 238.519 306.119 240.052L342.002 334.673L347.373 333.812L318.362 235.932L361.979 234.839C362.925 234.839 363.833 234.463 364.502 233.794C365.171 233.124 365.547 232.217 365.547 231.27V228.071C365.547 227.603 365.455 227.139 365.276 226.706C365.096 226.273 364.833 225.879 364.502 225.548C364.171 225.217 363.777 224.954 363.344 224.775C362.911 224.596 362.447 224.504 361.979 224.504Z" fill="white"/>
</mask>
<g mask="url(#mask13_7_14811)">
<path d="M202.878 234.84H223.907L299.292 234.875L318.361 235.933C318.361 235.933 327.926 250.793 341.366 287.111C348.086 305.262 356.529 320.813 349.504 330.9C346.917 334.612 343.183 336.22 340.978 337.1C264.331 367.613 185.973 336.712 185.973 336.712C175.422 332.552 169.362 334.11 165.821 329.332C149.578 307.403 202.878 234.84 202.878 234.84Z" fill="url(#paint18_linear_7_14811)"/>
</g>
<path d="M216.85 150.271H238.236C242.215 150.271 245.441 153.192 245.441 156.794C245.441 160.074 242.765 162.787 239.281 163.247C241.287 169.205 241.22 169.04 241.22 169.04L234.126 163.315H216.85C212.871 163.315 209.646 160.395 209.646 156.794C209.64 153.192 212.871 150.271 216.85 150.271Z" fill="#FCB638"/>
<path d="M231.658 156.945C231.658 158.053 232.649 158.952 233.874 158.952C235.099 158.952 236.09 158.053 236.09 156.945C236.09 155.838 235.098 154.939 233.874 154.939C232.65 154.939 231.658 155.837 231.658 156.945Z" fill="#060060"/>
<path d="M225.396 156.945C225.396 158.053 226.388 158.952 227.612 158.952C228.835 158.952 229.828 158.053 229.828 156.945C229.828 155.838 228.837 154.939 227.612 154.939C226.387 154.939 225.396 155.837 225.396 156.945Z" fill="#060060"/>
<path d="M219.331 156.945C219.331 158.053 220.324 158.952 221.547 158.952C222.771 158.952 223.763 158.053 223.763 156.945C223.763 155.838 222.772 154.939 221.547 154.939C220.322 154.939 219.331 155.837 219.331 156.945Z" fill="#060060"/>
<path d="M390.981 185.321H385.835C385.269 183.057 383.874 181.088 381.926 179.803C379.977 178.519 377.617 178.014 375.314 178.387C373.01 178.76 370.931 179.984 369.487 181.818C368.044 183.651 367.341 185.96 367.519 188.286C367.697 190.613 368.742 192.788 370.448 194.381C372.153 195.974 374.395 196.868 376.728 196.887C379.062 196.905 381.317 196.047 383.048 194.481C384.778 192.916 385.858 190.758 386.073 188.434L390.981 185.321Z" fill="#FCB638"/>
<path d="M381.801 187.583C381.801 188.577 381.507 189.548 380.955 190.374C380.403 191.2 379.619 191.845 378.701 192.225C377.783 192.605 376.773 192.705 375.798 192.511C374.824 192.318 373.929 191.839 373.226 191.137C372.524 190.434 372.045 189.539 371.851 188.565C371.657 187.591 371.756 186.58 372.137 185.663C372.517 184.745 373.161 183.96 373.987 183.408C374.813 182.856 375.784 182.561 376.778 182.561C377.437 182.561 378.09 182.691 378.7 182.943C379.309 183.195 379.863 183.565 380.329 184.032C380.796 184.498 381.166 185.052 381.418 185.661C381.671 186.27 381.801 186.923 381.801 187.583Z" fill="#060060"/>
<path d="M384.104 184.646C383.301 184.346 382.18 184.607 381.375 184.817C380.464 185.055 379.598 185.517 378.814 186.032C378.019 186.546 377.307 187.181 376.706 187.913C376.629 188.009 376.388 188.417 376.301 188.443C376.42 188.408 375.971 188.069 375.851 187.943C375.415 187.489 375.011 187.009 374.554 186.576C374.389 186.42 374.087 186.625 374.225 186.828C374.544 187.293 374.899 187.724 375.251 188.163C375.545 188.529 375.769 189.173 376.224 189.36C376.598 189.514 376.94 189.306 377.204 189.071C377.624 188.702 378.022 188.307 378.473 187.964C379.332 187.309 380.265 186.756 381.252 186.316C381.764 186.086 382.271 185.843 382.802 185.655C383.268 185.491 383.744 185.409 384.161 185.133C384.205 185.106 384.239 185.067 384.262 185.02C384.284 184.974 384.292 184.922 384.286 184.871C384.28 184.82 384.26 184.772 384.228 184.732C384.195 184.692 384.152 184.662 384.104 184.646Z" fill="#FCB638"/>
<path d="M30.2904 107.44C30.4108 110.226 30.037 112.985 31.2242 115.574C33.0064 119.455 36.7682 121.742 40.6406 123.19C40.9486 123.306 45.367 119.97 45.4286 116.583C45.507 112.221 45.6974 107.048 45.4776 102.428C51.247 103.492 52.1304 99.1394 52.605 95.7262C53.6816 87.9632 52.3026 82.5354 49.9604 75.9456C49.9604 75.9316 49.945 75.9232 49.9394 75.9106C49.9172 75.8326 49.869 75.7645 49.8028 75.7177C49.7366 75.6708 49.6564 75.648 49.5754 75.653C45.4258 75.6824 39.557 77.7012 36.1354 80.2156C33.1394 82.4192 32.7866 86.2538 32.7264 89.9722C32.6336 89.7058 32.5232 89.4457 32.396 89.1938C32.3849 89.1769 32.3722 89.1609 32.3582 89.1462C32.3569 89.0897 32.343 89.0343 32.3176 88.9838C31.3628 87.0756 27.5156 84.4632 26.1674 87.4312C24.661 90.7478 28.9996 93.8614 30.0678 96.5844C30.4094 100.399 30.1252 103.603 30.2904 107.44Z" fill="url(#paint19_linear_7_14811)"/>
<path d="M127.232 154.267C126.576 153.543 125.176 154.032 124.226 154.267C124.226 154.001 124.786 153.443 124.737 153.181C124.703 152.967 124.054 152.677 123.876 152.701C123.046 152.813 122.68 153.091 122.033 153.592C121.387 154.094 120.825 154.521 120.23 154.92C118.981 154.929 116.321 155.109 116.414 153.231C116.438 152.731 117.569 151.344 117.793 150.862C118.157 150.078 118.603 148.984 118.475 148.072C118.309 146.903 117.569 146.17 116.431 146.851C115.292 147.533 114.87 149.511 113.771 150.4C112.541 151.387 110.903 151.669 109.711 152.671C107.7 154.364 107.819 157.371 105.94 159.149C105.923 159.148 105.905 159.148 105.887 159.149C101.074 159.814 96.3407 160.161 91.5205 159.299C88.2711 158.719 85.1631 157.598 81.8969 157.097C80.9191 155.516 80.0243 153.886 79.2159 152.212C78.5831 150.9 78.1309 149.325 77.1159 148.272C77.118 148.247 77.118 148.222 77.1159 148.197C76.6301 145.216 69.0435 149.597 68.4359 150.563C66.0559 154.386 69.3249 162.569 70.9559 166.223C74.0275 173.083 77.0095 173.106 83.9969 172.616C92.2569 172.037 108.955 169.956 109.11 169.933C112.935 169.27 116.695 166.405 119.098 163.439C119.826 162.541 120.71 161.49 121.548 160.359C121.707 160.247 123.324 158.623 124.024 158.172C125.069 157.494 127.803 154.9 127.232 154.267Z" fill="#FC7575"/>
<path d="M64.3199 153.598C63.0599 153.81 61.9749 154.757 60.8731 155.354C59.6733 156.005 58.3895 156.524 57.1869 157.174C57.8995 155.625 60.2234 149.85 57.4374 151.102C57.1994 151.208 56.7375 151.985 56.5863 152.16C56.0738 152.807 55.4745 153.38 54.8055 153.863C54.0117 154.423 53.0652 154.813 52.3988 155.543C52.01 155.973 51.7344 156.494 51.5966 157.058C51.1627 158.607 50.6502 161.871 50.6446 161.875C44.1598 166.94 34.7463 165.046 27.2198 166.551C26.7046 165.291 27.3234 162.197 26.3252 161.266C24.4226 159.491 19.9539 159.823 18.4391 160.286C16.8991 160.756 10.788 161.953 11.4572 164.574C11.4572 164.588 14.6772 174.437 16.2536 178.583C16.9718 180.475 17.697 181.709 19.8166 182.06C23.7128 182.707 28.6086 180.589 32.2934 179.631C37.6067 178.277 42.8251 176.574 47.9146 174.534C53.2864 173.645 58.486 171.562 62.6903 168.035C64.1364 166.821 64.3367 166.247 63.9502 164.43C63.5849 162.707 63.7416 160.51 62.2842 159.415C63.1718 158.341 64.4053 156.67 64.5481 156.415C65.0885 155.452 65.3208 154.58 64.5914 153.671C64.5557 153.637 64.5122 153.613 64.4648 153.6C64.4174 153.588 64.3676 153.587 64.3199 153.598Z" fill="url(#paint20_linear_7_14811)"/>
<path d="M49.1998 91.109C49.1158 90.9405 49.0223 90.7769 48.9198 90.619C48.4998 89.8434 48.0994 89.065 47.6794 88.2936C47.4078 87.7924 47.0662 87.259 46.4194 87.4242C46.35 87.4441 46.2889 87.486 46.2453 87.5435C46.2016 87.6011 46.1778 87.6712 46.1772 87.7434C46.2416 88.7528 46.3354 89.758 46.4572 90.7604C46.4572 91.2756 46.467 91.7908 46.4824 92.3004C46.4835 92.3429 46.493 92.3848 46.5106 92.4235C46.5281 92.4622 46.5533 92.497 46.5846 92.5258C46.6017 92.6152 46.6529 92.6944 46.7274 92.7467C46.8019 92.7989 46.8938 92.8201 46.9836 92.8058L47.251 92.7624C47.5546 92.7459 47.8557 92.699 48.1498 92.6224L48.4522 92.572C48.7406 92.5244 49.1088 92.5342 49.33 92.3102C49.6744 91.9728 49.435 91.4996 49.1998 91.109Z" fill="#DB3A3A"/>
<path d="M62.9328 160.972C62.8046 161.237 62.6323 161.478 62.4232 161.686C62.2482 161.858 61.9626 161.984 61.8786 162.223C61.8696 162.257 61.874 162.292 61.8911 162.322C61.9081 162.353 61.9363 162.375 61.9696 162.384C62.2608 162.432 62.5184 162.162 62.706 161.964C62.9338 161.728 63.1199 161.454 63.2562 161.155C63.3542 160.941 63.0406 160.749 62.9328 160.967V160.972Z" fill="#F8B7AF"/>
<path d="M62.9397 163.621C62.7175 163.916 62.4529 164.177 62.1543 164.395C61.9541 164.552 62.2145 164.888 62.4259 164.748C62.7767 164.504 63.0771 164.194 63.3107 163.836C63.4661 163.607 63.0979 163.398 62.9397 163.621Z" fill="#F8B7AF"/>
<path d="M62.8444 158.344C62.5266 158.541 62.3531 158.939 62.1543 159.246C61.9093 159.625 61.5817 159.968 61.3675 160.366C61.3446 160.407 61.3373 160.455 61.3469 160.501C61.3565 160.548 61.3824 160.589 61.4198 160.618C61.4573 160.646 61.5038 160.661 61.5509 160.658C61.5981 160.656 61.6428 160.636 61.6769 160.604C62.0213 160.333 62.2593 159.895 62.4861 159.527C62.6877 159.199 62.9704 158.827 62.9816 158.425C62.982 158.409 62.9778 158.393 62.9696 158.378C62.9614 158.364 62.9495 158.352 62.9351 158.344C62.9208 158.336 62.9045 158.332 62.888 158.333C62.8715 158.333 62.8555 158.338 62.8416 158.347L62.8444 158.344Z" fill="#F8B7AF"/>
<path d="M48.8095 120.293C48.3111 116.828 47.5495 113.4 46.7221 110.002C46.4267 108.795 46.1621 107.581 45.8317 106.382C45.7491 106.078 45.6315 105.563 45.5727 105.904C45.0729 108.799 45.3081 112.221 44.7999 115.113C44.4765 116.952 44.0901 118.633 42.9631 120.32C42.3401 121.254 41.2593 121.482 40.4011 120.758C35.4353 116.567 30.2567 106.431 30.2567 106.431C30.2427 105.792 29.3173 107.079 29.1717 107.481C28.8021 108.496 28.8119 109.604 28.9393 110.663C29.2193 112.969 29.9039 115.221 30.7369 117.383C32.4589 121.845 34.8613 125.993 36.9417 130.288C36.9697 130.335 37.0093 130.373 37.0566 130.4C37.104 130.427 37.1575 130.441 37.2119 130.441C37.2663 130.441 37.3198 130.427 37.3672 130.4C37.4145 130.373 37.4541 130.335 37.4821 130.288C38.1821 129.052 38.6945 127.726 39.3203 126.453C39.9167 125.242 41.9215 123.256 41.9467 123.204C42.5739 123.319 43.1465 123.702 43.6575 124.061C44.3964 124.59 45.098 125.17 45.7575 125.795C46.3175 126.315 46.8537 126.855 47.3927 127.394C47.6223 127.622 47.8561 127.916 48.1305 128.11C48.1609 128.152 48.2013 128.187 48.2483 128.21C48.2952 128.233 48.3472 128.245 48.3996 128.243C48.452 128.241 48.5032 128.227 48.5485 128.201C48.5939 128.174 48.6321 128.137 48.6597 128.093C49.1931 127.209 49.2197 126.042 49.2197 125.042C49.2253 123.452 49.0349 121.86 48.8095 120.293Z" fill="#EAD57D"/>
<path d="M51.2258 63.2897C27.5658 72.1363 25.393 68.0035 23.5212 76.1613C23.2776 77.2211 22.1674 78.3803 21.7124 79.4345C20.7324 81.6913 18.9572 92.2641 29.873 97.8501C29.8898 98.0937 30.2314 98.7349 30.2132 99.0065C30.1978 99.2151 31.035 98.3415 30.9468 98.0979C30.9608 96.8379 30.2636 95.2307 29.2584 94.3291C23.9776 89.5957 27.8108 82.6979 31.3458 89.1281C32.9642 92.2361 33.7258 93.3435 33.1 89.9415C32.2824 85.5343 33.086 82.7203 37.3406 80.3375C39.0007 79.3894 40.7826 78.6725 42.6368 78.2067C43.5594 77.9687 46.904 77.3793 47.8462 77.2379C50.1618 76.8935 50.0456 76.8949 50.7862 78.8339C50.8996 79.1293 51.678 81.9391 51.5786 80.9479C51.328 78.4671 58.2006 60.6801 51.2258 63.2897Z" fill="#060060"/>
<mask id="mask14_7_14811" style="mask-type:luminance" maskUnits="userSpaceOnUse" x="20" y="63" width="35" height="37">
<path d="M51.2258 63.2897C27.5658 72.1363 25.393 68.0035 23.5212 76.1613C23.2776 77.2211 22.1674 78.3803 21.7124 79.4345C20.7324 81.6913 18.9572 92.2641 29.873 97.8501C29.8898 98.0937 30.2314 98.7349 30.2132 99.0065C30.1978 99.2151 31.035 98.3415 30.9468 98.0979C30.9608 96.8379 30.2636 95.2307 29.2584 94.3291C23.9776 89.5957 27.8108 82.6979 31.3458 89.1281C32.9642 92.2361 33.7258 93.3435 33.1 89.9415C32.2824 85.5343 33.086 82.7203 37.3406 80.3375C39.0007 79.3894 40.7826 78.6725 42.6368 78.2067C43.5594 77.9687 46.904 77.3793 47.8462 77.2379C50.1618 76.8935 50.0456 76.8949 50.7862 78.8339C50.8996 79.1293 51.678 81.9391 51.5786 80.9479C51.328 78.4671 58.2006 60.6801 51.2258 63.2897Z" fill="white"/>
</mask>
<g mask="url(#mask14_7_14811)">
<path d="M35.6831 56.2C37.6277 57.1702 40.3843 60.2111 38.3543 68.9863C37.1153 74.3441 33.1743 77.1385 31.7239 78.8661C29.2935 81.7655 24.0491 84.3877 22.3159 85.0135C16.7285 87.0295 8.54132 88.5386 5.46132 83.7086C3.79252 81.0906 4.22512 77.2547 5.46132 76.7353C6.90472 76.1277 8.47131 80.4425 13.4049 82.1589C13.9649 82.3521 17.8163 83.6317 21.9295 81.9657C26.1953 80.2381 30.4485 71.9445 30.8405 71.1171C33.9653 64.5231 27.0605 64.0051 30.6473 59.1065C32.0333 57.2151 34.4511 55.5882 35.6831 56.2Z" fill="url(#paint21_linear_7_14811)"/>
</g>
<path d="M503.927 342.325H-14.5938C-14.8678 342.325 -15.1306 342.216 -15.3243 342.022C-15.5181 341.829 -15.627 341.566 -15.627 341.292C-15.627 341.018 -15.5181 340.755 -15.3243 340.561C-15.1306 340.367 -14.8678 340.259 -14.5938 340.259H503.927C504.201 340.259 504.464 340.367 504.658 340.561C504.851 340.755 504.96 341.018 504.96 341.292C504.96 341.566 504.851 341.829 504.658 342.022C504.464 342.216 504.201 342.325 503.927 342.325Z" fill="#D5DBFE"/>
<path d="M421.664 109.809L414.954 122.392L421.543 134.975L428.132 122.392L421.664 109.809Z" fill="#EAB300"/>
<path d="M421.766 109.809L417.888 122.392L421.696 134.975L425.502 122.392L421.766 109.809Z" fill="url(#paint22_linear_7_14811)"/>
<path d="M268.284 109.578L261.574 122.161L268.164 134.746L274.752 122.161L268.284 109.578Z" fill="#EAB300"/>
<path d="M268.385 109.578L264.507 122.161L268.315 134.746L272.122 122.161L268.385 109.578Z" fill="url(#paint23_linear_7_14811)"/>
<path d="M37.7873 31.5769L31.0771 44.1601L37.6655 56.7447L44.2553 44.1601L37.7873 31.5769Z" fill="#EAB300"/>
<path d="M37.8882 31.5769L34.0103 44.1601L37.8182 56.7447L41.6249 44.1601L37.8882 31.5769Z" fill="url(#paint24_linear_7_14811)"/>
</g>
<defs>
<linearGradient id="paint0_linear_7_14811" x1="42.6527" y1="254.104" x2="61.8033" y2="254.104" gradientUnits="userSpaceOnUse">
<stop offset="0.31" stop-color="#2E2370"/>
<stop offset="1" stop-color="#2E2370"/>
</linearGradient>
<linearGradient id="paint1_linear_7_14811" x1="3.12253" y1="252.264" x2="34.3817" y2="252.264" gradientUnits="userSpaceOnUse">
<stop stop-color="#5C9CCC"/>
<stop offset="0.92" stop-color="#5C9CCC"/>
<stop offset="1" stop-color="#5C9CCC"/>
</linearGradient>
<linearGradient id="paint2_linear_7_14811" x1="20.4821" y1="166.247" x2="65.0595" y2="166.247" gradientUnits="userSpaceOnUse">
<stop offset="0.08" stop-color="#C48014"/>
<stop offset="1" stop-color="#C48014"/>
</linearGradient>
<linearGradient id="paint3_linear_7_14811" x1="-0.174623" y1="138.422" x2="27.4236" y2="138.422" gradientUnits="userSpaceOnUse">
<stop stop-color="#F4F438"/>
<stop offset="1" stop-color="#F4F438"/>
</linearGradient>
<linearGradient id="paint4_linear_7_14811" x1="198.105" y1="198.541" x2="247.37" y2="198.541" gradientUnits="userSpaceOnUse">
<stop stop-color="#F8B7AF"/>
<stop offset="0.25" stop-color="#F8B4AC"/>
<stop offset="0.44" stop-color="#F9ABA2"/>
<stop offset="0.61" stop-color="#FB9C92"/>
<stop offset="0.77" stop-color="#FD877B"/>
<stop offset="0.85" stop-color="#FF7A6C"/>
</linearGradient>
<linearGradient id="paint5_linear_7_14811" x1="263.262" y1="151.197" x2="289.705" y2="151.197" gradientUnits="userSpaceOnUse">
<stop stop-color="#61F0F7"/>
<stop offset="0.12" stop-color="#61F0F7"/>
<stop offset="1" stop-color="#61F0F7"/>
</linearGradient>
<linearGradient id="paint6_linear_7_14811" x1="278.344" y1="200.12" x2="281.056" y2="172.03" gradientUnits="userSpaceOnUse">
<stop stop-color="#F8B7AF"/>
<stop offset="0.25" stop-color="#F8B4AC"/>
<stop offset="0.44" stop-color="#F9ABA2"/>
<stop offset="0.61" stop-color="#FB9C92"/>
<stop offset="0.77" stop-color="#FD877B"/>
<stop offset="0.85" stop-color="#FF7A6C"/>
</linearGradient>
<linearGradient id="paint7_linear_7_14811" x1="217.569" y1="273.81" x2="241.468" y2="273.81" gradientUnits="userSpaceOnUse">
<stop stop-color="#5C9CCC"/>
<stop offset="0.92" stop-color="#5C9CCC"/>
<stop offset="1" stop-color="#5C9CCC"/>
</linearGradient>
<linearGradient id="paint8_linear_7_14811" x1="243.801" y1="275.647" x2="294.183" y2="275.647" gradientUnits="userSpaceOnUse">
<stop offset="0.31" stop-color="#2E2370"/>
<stop offset="1" stop-color="#2E2370"/>
</linearGradient>
<linearGradient id="paint9_linear_7_14811" x1="306.705" y1="218.366" x2="209.061" y2="190.985" gradientUnits="userSpaceOnUse">
<stop offset="0.2" stop-color="#425593"/>
<stop offset="1" stop-color="#425593"/>
</linearGradient>
<linearGradient id="paint10_linear_7_14811" x1="424.48" y1="196.705" x2="415.181" y2="176.685" gradientUnits="userSpaceOnUse">
<stop stop-color="#F8B7AF"/>
<stop offset="0.06" stop-color="#FAA89F"/>
<stop offset="0.16" stop-color="#FC998E"/>
<stop offset="0.27" stop-color="#FD8E82"/>
<stop offset="0.44" stop-color="#FE887B"/>
<stop offset="0.86" stop-color="#FE8679"/>
</linearGradient>
<linearGradient id="paint11_linear_7_14811" x1="361.652" y1="246.709" x2="395.075" y2="246.709" gradientUnits="userSpaceOnUse">
<stop offset="0.24" stop-color="#F4F438"/>
<stop offset="0.76" stop-color="#F4F438"/>
</linearGradient>
<linearGradient id="paint12_linear_7_14811" x1="317.183" y1="286.641" x2="397.894" y2="286.641" gradientUnits="userSpaceOnUse">
<stop offset="0.08" stop-color="#C48014"/>
<stop offset="0.71" stop-color="#C48014"/>
</linearGradient>
<linearGradient id="paint13_linear_7_14811" x1="391.789" y1="215.589" x2="416.996" y2="215.589" gradientUnits="userSpaceOnUse">
<stop stop-color="#FF69C6"/>
<stop offset="0.86" stop-color="#FF69C6"/>
<stop offset="1" stop-color="#FF69C6"/>
</linearGradient>
<linearGradient id="paint14_linear_7_14811" x1="382.821" y1="240.681" x2="445.543" y2="240.681" gradientUnits="userSpaceOnUse">
<stop stop-color="#C93954"/>
<stop offset="1" stop-color="#C93954"/>
</linearGradient>
<linearGradient id="paint15_linear_7_14811" x1="349.469" y1="228.225" x2="421.142" y2="228.225" gradientUnits="userSpaceOnUse">
<stop stop-color="#F8B7AF"/>
<stop offset="0.25" stop-color="#F8B4AC"/>
<stop offset="0.44" stop-color="#F9ABA2"/>
<stop offset="0.61" stop-color="#FB9C92"/>
<stop offset="0.77" stop-color="#FD877B"/>
<stop offset="0.85" stop-color="#FF7A6C"/>
</linearGradient>
<linearGradient id="paint16_linear_7_14811" x1="417.13" y1="157.595" x2="455.774" y2="157.595" gradientUnits="userSpaceOnUse">
<stop stop-color="#61F0F7"/>
<stop offset="0.07" stop-color="#61F0F7"/>
<stop offset="1" stop-color="#61F0F7"/>
</linearGradient>
<linearGradient id="paint17_linear_7_14811" x1="384.494" y1="323.443" x2="453.472" y2="192.463" gradientUnits="userSpaceOnUse">
<stop offset="0.33" stop-color="#4753A8"/>
<stop offset="0.43" stop-color="#4753A8"/>
<stop offset="1" stop-color="#4753A8"/>
</linearGradient>
<linearGradient id="paint18_linear_7_14811" x1="252.326" y1="201.88" x2="261.623" y2="416.498" gradientUnits="userSpaceOnUse">
<stop offset="0.21" stop-color="#4753A8"/>
<stop offset="0.32" stop-color="#4753A8"/>
<stop offset="1" stop-color="#4753A8"/>
</linearGradient>
<linearGradient id="paint19_linear_7_14811" x1="35.231" y1="56.6354" x2="44.9736" y2="131.461" gradientUnits="userSpaceOnUse">
<stop stop-color="#F8B7AF"/>
<stop offset="0.4" stop-color="#F8B5AD"/>
<stop offset="0.54" stop-color="#F9AFA6"/>
<stop offset="0.64" stop-color="#FAA49B"/>
<stop offset="0.72" stop-color="#FC958A"/>
<stop offset="0.79" stop-color="#FE8174"/>
<stop offset="0.81" stop-color="#FF7A6C"/>
</linearGradient>
<linearGradient id="paint20_linear_7_14811" x1="59.0432" y1="191.404" x2="20.1988" y2="139.36" gradientUnits="userSpaceOnUse">
<stop stop-color="#F8B7AF"/>
<stop offset="0.25" stop-color="#F8B4AC"/>
<stop offset="0.44" stop-color="#F9ABA2"/>
<stop offset="0.61" stop-color="#FB9C92"/>
<stop offset="0.77" stop-color="#FD877B"/>
<stop offset="0.85" stop-color="#FF7A6C"/>
</linearGradient>
<linearGradient id="paint21_linear_7_14811" x1="4.36652" y1="71.5007" x2="39.0669" y2="71.5007" gradientUnits="userSpaceOnUse">
<stop stop-color="#61F0F7"/>
<stop offset="0.94" stop-color="#61F0F7"/>
<stop offset="1" stop-color="#61F0F7"/>
</linearGradient>
<linearGradient id="paint22_linear_7_14811" x1="421.696" y1="134.977" x2="421.696" y2="109.809" gradientUnits="userSpaceOnUse">
<stop stop-color="#F4F438"/>
<stop offset="0.99" stop-color="#F4F438"/>
<stop offset="1" stop-color="#F4F438"/>
</linearGradient>
<linearGradient id="paint23_linear_7_14811" x1="268.315" y1="134.746" x2="268.315" y2="109.578" gradientUnits="userSpaceOnUse">
<stop stop-color="#F4F438"/>
<stop offset="0.99" stop-color="#F4F438"/>
<stop offset="1" stop-color="#F4F438"/>
</linearGradient>
<linearGradient id="paint24_linear_7_14811" x1="37.8183" y1="56.7447" x2="37.8183" y2="31.5769" gradientUnits="userSpaceOnUse">
<stop stop-color="#F4F438"/>
<stop offset="0.99" stop-color="#F4F438"/>
<stop offset="1" stop-color="#F4F438"/>
</linearGradient>
<clipPath id="clip0_7_14811">
<rect width="517" height="351" fill="white"/>
</clipPath>
</defs>
</svg>
