<svg width="50" height="50" viewBox="0 0 56 56" fill="none" xmlns="http://www.w3.org/2000/svg">
<g clip-path="url(#clip0_322_490)">
<path d="M40.5883 0H16.3217C14.2684 0 12.5884 1.68 12.5884 3.7333V52.2666C12.5884 54.3199 14.2684 55.9999 16.3217 55.9999H40.5884C42.6417 55.9999 44.3217 54.3199 44.3217 52.2666V3.7333C44.3217 1.68 42.6417 0 40.5883 0ZM42.455 52.2667C42.455 53.2934 41.615 54.1334 40.5883 54.1334H16.3217C15.295 54.1334 14.455 53.2934 14.455 52.2667V3.7333C14.455 2.70659 15.295 1.86659 16.3217 1.86659H40.5884C41.6151 1.86659 42.4551 2.70659 42.4551 3.7333V52.2667H42.455Z" fill="#E1B603"/>
<path d="M12.5883 5.59998V48.5333H44.3216V5.59998H12.5883ZM42.455 46.6667H14.455V7.46668H42.455V46.6667Z" fill="#E1B603"/>
<path d="M32.1883 2.80005H27.5216C26.9616 2.80005 26.5883 3.17335 26.5883 3.73335C26.5883 4.29335 26.9616 4.66664 27.5216 4.66664H32.1883C32.7483 4.66664 33.1216 4.29335 33.1216 3.73335C33.1217 3.17335 32.7483 2.80005 32.1883 2.80005Z" fill="#E1B603"/>
<path d="M24.7217 2.80005H23.7884C23.2284 2.80005 22.8551 3.17335 22.8551 3.73335C22.8551 4.29335 23.2284 4.66664 23.7884 4.66664H24.7217C25.2817 4.66664 25.655 4.29335 25.655 3.73335C25.655 3.17335 25.2817 2.80005 24.7217 2.80005Z" fill="#E1B603"/>
<path d="M12.5883 8.40002C12.0283 8.40002 11.655 8.77332 11.655 9.33332V10.2666C11.655 10.8266 12.0283 11.1999 12.5883 11.1999C13.1483 11.1999 13.5216 10.8266 13.5216 10.2666V9.33332C13.5217 8.77332 13.1483 8.40002 12.5883 8.40002Z" fill="#E1B603"/>
<path d="M12.5883 12.1333C12.0283 12.1333 11.655 12.5066 11.655 13.0666V14C11.655 14.56 12.0283 14.9333 12.5883 14.9333C13.1483 14.9333 13.5216 14.56 13.5216 14V13.0667C13.5217 12.5067 13.1483 12.1333 12.5883 12.1333Z" fill="#E1B603"/>
<path d="M12.5883 15.8667C12.0283 15.8667 11.655 16.24 11.655 16.8V17.7333C11.655 18.2933 12.0283 18.6666 12.5883 18.6666C13.1483 18.6666 13.5216 18.2933 13.5216 17.7333V16.8C13.5217 16.24 13.1483 15.8667 12.5883 15.8667Z" fill="#E1B603"/>
<path d="M28.455 47.6C26.4017 47.6 24.7217 49.28 24.7217 51.3333C24.7217 53.3866 26.4017 55.0666 28.455 55.0666C30.5083 55.0666 32.1883 53.3866 32.1883 51.3333C32.1883 49.28 30.5083 47.6 28.455 47.6ZM28.455 53.2C27.4283 53.2 26.5883 52.36 26.5883 51.3333C26.5883 50.3066 27.4283 49.4666 28.455 49.4666C29.4817 49.4666 30.3217 50.3066 30.3217 51.3333C30.3217 52.36 29.4817 53.2 28.455 53.2Z" fill="#E1B603"/>
<path d="M18.1883 28V33.6H20.055V29.8667H23.7883V28H18.1883Z" fill="#E1B603"/>
<path d="M29.3883 16.8C26.3083 16.8 24.0683 17.8268 22.2016 19.9733C21.8283 20.3466 21.9216 20.9066 22.2949 21.28C22.6682 21.56 23.2282 21.56 23.5082 21.1868C25.0015 19.4135 26.7749 18.6668 29.3882 18.6668C33.9615 18.6668 37.7882 22.4935 37.7882 27.16C37.7882 31.8266 34.0549 35.4668 29.3882 35.4668C25.1882 35.4668 21.6415 32.6668 20.9882 28.7468C20.8949 28.28 20.4282 27.9068 19.8682 28C19.4015 28.0933 19.0282 28.56 19.1215 29.12C19.9615 33.9733 24.2548 37.4268 29.3882 37.4268C35.0815 37.4268 39.6549 32.8535 39.6549 27.2535C39.655 21.4668 35.0817 16.8 29.3883 16.8Z" fill="#E1B603"/>
<path d="M8.85501 3.73329C7.2683 3.73329 6.05501 2.51999 6.05501 0.933288C6.05501 -0.280009 4.18831 -0.280009 4.18831 0.933288C4.18831 2.51999 2.97501 3.73329 1.38831 3.73329C0.175008 3.73329 0.175008 5.59999 1.38831 5.59999C2.97501 5.59999 4.18831 6.81329 4.18831 8.39999C4.18831 9.61329 6.05501 9.61329 6.05501 8.39999C6.05501 6.81329 7.2683 5.59999 8.85501 5.59999C10.0683 5.59999 10.0683 3.73329 8.85501 3.73329ZM5.12171 5.59999C4.84171 5.22669 4.56171 4.94669 4.18841 4.66669C4.56171 4.38669 4.84171 4.10669 5.12171 3.7334C5.40171 4.10669 5.68171 4.38669 6.05501 4.66669C5.68171 4.94669 5.40171 5.22669 5.12171 5.59999Z" fill="#E1B603"/>
<path d="M50.855 13.0667C50.295 13.0667 49.9217 13.4399 49.9217 13.9999V17.7332C49.9217 18.2932 50.295 18.6665 50.855 18.6665C51.415 18.6665 51.7883 18.2932 51.7883 17.7332V13.9999C51.7883 13.4399 51.415 13.0667 50.855 13.0667Z" fill="#E1B603"/>
<path d="M52.7217 14.9333H48.9884C48.4284 14.9333 48.0551 15.3066 48.0551 15.8666C48.0551 16.4266 48.4284 16.7999 48.9884 16.7999H52.7217C53.2817 16.7999 53.655 16.4266 53.655 15.8666C53.655 15.3068 53.2817 14.9333 52.7217 14.9333Z" fill="#E1B603"/>
<path d="M6.98829 40.1333C6.42829 40.1333 6.05499 40.5066 6.05499 41.0666C6.05499 41.6266 6.42829 42 6.98829 42C7.54829 42 7.92159 41.6267 7.92159 41.0667C7.92159 40.5067 7.54829 40.1333 6.98829 40.1333Z" fill="#E1B603"/>
<path d="M2.32169 23.3333C1.76169 23.3333 1.3884 23.7065 1.3884 24.2665C1.3884 24.8265 1.76169 25.1998 2.32169 25.1998C2.88169 25.1998 3.25499 24.8265 3.25499 24.2665C3.25499 23.7065 2.88169 23.3333 2.32169 23.3333Z" fill="#E1B603"/>
<path d="M48.055 32.6667C47.495 32.6667 47.1217 33.04 47.1217 33.6C47.1217 34.16 47.495 34.5333 48.055 34.5333C48.615 34.5333 48.9883 34.16 48.9883 33.6C48.9883 33.04 48.615 32.6667 48.055 32.6667Z" fill="#E1B603"/>
<path d="M54.5883 52.2667C54.0283 52.2667 53.655 52.64 53.655 53.2C53.655 53.76 54.0283 54.1333 54.5883 54.1333C55.1483 54.1333 55.5216 53.76 55.5216 53.2C55.5216 52.64 55.1483 52.2667 54.5883 52.2667Z" fill="#E1B603"/>
</g>
<defs>
<clipPath id="clip0_322_490">
<rect width="56" height="56" fill="white"/>
</clipPath>
</defs>
</svg>
