<svg width="12" height="10" viewBox="0 0 12 10" fill="none" xmlns="http://www.w3.org/2000/svg">
<path d="M0.14625 5.35378L4.64625 9.85378C4.74007 9.94761 4.86732 10.0003 5 10.0003C5.13268 10.0003 5.25993 9.94761 5.35375 9.85378C5.44757 9.75996 5.50028 9.63272 5.50028 9.50003C5.50028 9.36735 5.44757 9.2401 5.35375 9.14628L1.70687 5.50003H11.5C11.6326 5.50003 11.7598 5.44736 11.8536 5.35359C11.9473 5.25982 12 5.13264 12 5.00003C12 4.86743 11.9473 4.74025 11.8536 4.64648C11.7598 4.55271 11.6326 4.50003 11.5 4.50003H1.70687L5.35375 0.853784C5.44757 0.759964 5.50028 0.632716 5.50028 0.500034C5.50028 0.367352 5.44757 0.240104 5.35375 0.146284C5.25993 0.0524635 5.13268 -0.000244141 5 -0.000244141C4.86732 -0.000244141 4.74007 0.0524635 4.64625 0.146284L0.14625 4.64628C0.099762 4.69272 0.0628815 4.74786 0.0377197 4.80856C0.012558 4.86926 -0.000392914 4.93433 -0.000392914 5.00003C-0.000392914 5.06574 0.012558 5.13081 0.0377197 5.1915C0.0628815 5.2522 0.099762 5.30735 0.14625 5.35378Z" fill="#E1B603"/>
</svg>
