<svg width="18" height="16" viewBox="0 0 18 16" fill="none" xmlns="http://www.w3.org/2000/svg">
<path d="M0.219376 8.53063L6.96937 15.2806C7.11011 15.4214 7.30098 15.5004 7.5 15.5004C7.69902 15.5004 7.88989 15.4214 8.03063 15.2806C8.17136 15.1399 8.25042 14.949 8.25042 14.75C8.25042 14.551 8.17136 14.3601 8.03063 14.2194L2.56031 8.75H17.25C17.4489 8.75 17.6397 8.67099 17.7803 8.53034C17.921 8.38968 18 8.19892 18 8C18 7.80109 17.921 7.61033 17.7803 7.46968C17.6397 7.32902 17.4489 7.25 17.25 7.25H2.56031L8.03063 1.78063C8.17136 1.6399 8.25042 1.44903 8.25042 1.25001C8.25042 1.05098 8.17136 0.860111 8.03063 0.71938C7.88989 0.57865 7.69902 0.499588 7.5 0.499588C7.30098 0.499588 7.11011 0.57865 6.96937 0.71938L0.219376 7.46938C0.149643 7.53903 0.0943222 7.62175 0.0565796 7.7128C0.018837 7.80385 -0.000589371 7.90144 -0.000589371 8C-0.000589371 8.09857 0.018837 8.19616 0.0565796 8.28721C0.0943222 8.37826 0.149643 8.46098 0.219376 8.53063Z" fill="#5A7EFF"/>
</svg>
