<svg width="104" height="76" viewBox="0 0 104 76" fill="none" xmlns="http://www.w3.org/2000/svg">
<path d="M35.7234 30.4549H39.1159C39.9779 30.4549 40.6082 30.6867 41.016 31.0852C41.4146 31.4282 41.5907 31.8917 41.5907 32.3458C41.5907 32.522 41.5907 32.7444 41.5351 32.9205C41.4239 33.2079 41.2478 33.4952 41.016 33.727C40.9048 33.8382 40.7843 33.9031 40.6731 33.9587C41.0717 34.0699 41.4239 34.3016 41.7112 34.589C41.943 34.8763 42.0542 35.2193 42.0542 35.7384C42.0542 36.0257 41.9986 36.3687 41.8781 36.6004C41.7668 36.8321 41.5351 37.0639 41.3034 37.2307C41.016 37.4068 40.7287 37.518 40.4414 37.6293C40.0984 37.7405 39.6906 37.7405 39.292 37.7405H35.779V30.4364H35.7234V30.4549ZM38.8285 33.4396C39.1159 33.4396 39.4032 33.384 39.6906 33.2635C39.9223 33.1523 40.0335 32.9205 40.0335 32.6888C40.0335 32.4571 39.9223 32.2253 39.7462 32.1141C39.5144 31.938 39.2271 31.8824 38.9398 31.938H37.3269V33.486H38.8192V33.4396H38.8285ZM39.2271 36.3779C39.5144 36.3779 39.8018 36.3223 40.0891 36.2018C40.3209 36.0906 40.4321 35.8589 40.3765 35.5715C40.3765 35.3398 40.2652 35.1081 40.0891 34.9968C39.913 34.8856 39.5701 34.7651 39.1715 34.7651H37.2713V36.3779H39.2271Z" fill="#F3BA2F"/>
<path d="M44.0563 30.455H45.6692V37.8147H44.0563V30.455Z" fill="#F3BA2F"/>
<path d="M48.144 30.455H49.6364L53.0845 34.9968V30.455H54.6881V37.8147H53.3162L49.692 33.1523V37.8147H48.144V30.455Z" fill="#F3BA2F"/>
<path d="M59.5821 30.3994H61.0745L64.2353 37.8147H62.5668L61.8809 36.1462H58.7757L58.0898 37.8147H56.4214L59.5821 30.3994ZM61.3062 34.7651L60.333 32.3551L59.3597 34.7651H61.3062Z" fill="#F3BA2F"/>
<path d="M65.9593 30.455H67.4517L70.8998 34.9968V30.455H72.5126V37.8147H71.1315L67.5629 33.1523V37.8147H65.9593V30.455Z" fill="#F3BA2F"/>
<path d="M78.3707 37.9259C77.8517 37.9259 77.3326 37.8147 76.8784 37.6386C75.9607 37.24 75.2656 36.5448 74.867 35.6272C74.6909 35.1637 74.5796 34.6539 74.5796 34.1348C74.5796 33.1616 74.9782 32.179 75.6734 31.4375C76.0164 31.0946 76.4242 30.8072 76.8784 30.6311C77.3975 30.3994 77.9165 30.3438 78.4263 30.3438C78.7137 30.3438 79.0566 30.3438 79.344 30.3994C79.6313 30.455 79.8631 30.5106 80.0948 30.6311C80.3265 30.7423 80.5583 30.8628 80.7251 30.9741C80.9012 31.0853 81.1237 31.2614 81.2998 31.4375L80.3265 32.6425C80.0392 32.4108 79.7518 32.179 79.4645 32.0122C79.1771 31.8454 78.8342 31.7805 78.4912 31.7805C78.2039 31.7805 77.9165 31.8361 77.6292 31.9566C77.3419 32.0678 77.1101 32.2439 76.9433 32.4757C76.7764 32.7074 76.6003 32.9391 76.4798 33.2265C76.3686 33.5138 76.3037 33.8011 76.3037 34.0885C76.3037 34.3758 76.3593 34.7188 76.4798 35.0061C76.6003 35.2935 76.7115 35.5252 76.9433 35.7569C77.3418 36.2204 77.9165 36.4429 78.4912 36.4429C78.8342 36.4429 79.242 36.3872 79.585 36.2111C79.8723 36.035 80.2153 35.8126 80.447 35.5808L81.4759 36.6097C81.2998 36.7858 81.0773 37.0083 80.9012 37.1844C80.6695 37.3605 80.4378 37.4717 80.2153 37.583C79.9836 37.6942 79.6962 37.8147 79.4089 37.8703C79.001 37.9259 78.6581 37.9259 78.3707 37.9259Z" fill="#F3BA2F"/>
<path d="M83.3205 30.455H88.8356V31.8917H84.8684V33.384H88.3722V34.8207H84.8684V36.3779H88.8913V37.8147H83.3205V30.455Z" fill="#F3BA2F"/>
<path d="M37.7904 45.0539C37.3918 45.0539 36.984 44.9983 36.641 44.8222C36.298 44.711 35.9551 44.4792 35.6029 44.1919L36.1775 43.5616C36.4093 43.7933 36.641 43.9045 36.9283 44.0807C37.2157 44.1919 37.503 44.2568 37.7904 44.2568C38.0221 44.2568 38.2538 44.2012 38.4763 44.0807C38.6524 43.9694 38.708 43.7933 38.708 43.6172C38.708 43.5616 38.708 43.4411 38.6524 43.3855C38.5968 43.3299 38.5412 43.2094 38.4763 43.1537C38.3651 43.0981 38.2446 43.0425 38.1333 42.9776C37.9572 42.922 37.7348 42.8664 37.5586 42.8015C37.3269 42.7459 37.0396 42.6903 36.8078 42.5698C36.6317 42.5142 36.4093 42.3937 36.2888 42.2824C36.1775 42.1712 36.057 42.0507 35.9458 41.8839C35.8346 41.6521 35.8346 41.4204 35.8346 41.2536C35.8346 41.0218 35.8902 40.855 35.9458 40.6233C36.0014 40.4471 36.1775 40.2803 36.2888 40.1598C36.4649 40.0486 36.6317 39.9281 36.8635 39.8725C37.0952 39.8168 37.3269 39.7612 37.5494 39.7612C37.8923 39.7612 38.2353 39.8168 38.5875 39.9373C38.8749 40.0486 39.1622 40.2247 39.4496 40.4008L38.9861 41.0867C38.7544 40.9106 38.5226 40.7994 38.3002 40.6881C38.0684 40.5769 37.8367 40.5769 37.6143 40.5769C37.3825 40.5769 37.1508 40.6325 36.984 40.753C36.8727 40.8643 36.7522 41.0404 36.7522 41.2165C36.7522 41.3277 36.7522 41.3926 36.8078 41.5038C36.8635 41.5594 36.9191 41.6799 36.984 41.7356C37.0952 41.7912 37.2157 41.8468 37.3825 41.9117C37.5586 41.9673 37.7255 42.0229 38.0128 42.0878C38.2446 42.1434 38.4763 42.199 38.7636 42.3195C38.9398 42.3751 39.1066 42.4956 39.2827 42.6069C39.3939 42.7181 39.5144 42.8942 39.5701 43.0054C39.6257 43.1816 39.6813 43.3484 39.6813 43.5801C39.6813 43.8119 39.6257 44.0436 39.5701 44.2104C39.4588 44.3865 39.3383 44.5534 39.1715 44.7295C38.9954 44.8407 38.8285 44.9612 38.5968 45.0168C38.3094 44.9983 38.0221 45.0539 37.7904 45.0539Z" fill="#F3BA2F"/>
<path d="M40.6638 39.8261H41.6463L43.1943 42.2361L44.8071 39.8261H45.7804V44.9983H44.8627V41.2628L43.2499 43.6728H43.1943L41.5907 41.2628V44.9983H40.6638V39.8261Z" fill="#F3BA2F"/>
<path d="M48.8856 39.7704H49.7476L51.9907 44.9426H51.0175L50.4984 43.682H48.0884L47.5693 44.9426H46.6517L48.8856 39.7704ZM50.2111 42.9312L49.2934 40.8642L48.4314 42.9312H50.2111Z" fill="#F3BA2F"/>
<path d="M52.9083 39.8261H55.2071C55.4944 39.8261 55.7818 39.8817 56.0691 39.9373C56.3009 39.993 56.5326 40.1691 56.6994 40.3359C56.8107 40.4471 56.9312 40.6233 57.0424 40.855C57.098 41.0311 57.1536 41.2536 57.1536 41.4853C57.1536 41.6614 57.098 41.8839 57.0424 42.06C56.9868 42.2361 56.8663 42.3473 56.8107 42.5234C56.6994 42.6347 56.5789 42.7552 56.4121 42.8664C56.236 42.9776 56.0691 43.0425 55.893 43.0981L57.2741 45.0539H56.1804L54.9198 43.2742H53.7704V45.0539H52.8527L52.9083 39.8261ZM55.1515 42.3566C55.4388 42.3566 55.7262 42.301 55.9023 42.1249C56.0784 41.9487 56.1896 41.7263 56.1896 41.4946C56.1896 41.2628 56.0784 41.0311 55.9023 40.8643C55.6706 40.6881 55.3832 40.6325 55.0959 40.6325H53.7704V42.3566H55.1515Z" fill="#F3BA2F"/>
<path d="M59.5173 40.6325H57.8488V39.8261H62.0478V40.6325H60.3793V44.9983H59.4617L59.5173 40.6325Z" fill="#F3BA2F"/>
<path d="M67.6278 45.0539C67.2849 45.0539 66.9419 44.9982 66.5897 44.8221C65.9594 44.5348 65.4403 44.0713 65.2086 43.441C65.0973 43.0981 64.9768 42.7551 65.0324 42.4029C65.0324 42.0599 65.0881 41.717 65.2086 41.3647C65.4403 40.7344 65.9594 40.2154 66.5897 39.928C66.9326 39.8168 67.2756 39.6963 67.6834 39.6963C67.9152 39.6963 68.1469 39.6963 68.3137 39.7519C68.4898 39.8075 68.6567 39.8631 68.8328 39.928C69.0089 39.9836 69.1201 40.1041 69.2963 40.1597C69.4075 40.271 69.5836 40.3915 69.6948 40.5027L69.1201 41.1886C68.944 41.0125 68.7216 40.8457 68.4898 40.7252C68.2581 40.6139 67.9708 40.5491 67.6834 40.5491C67.4517 40.5491 67.22 40.6047 66.9975 40.6603C66.7658 40.7715 66.5989 40.892 66.4228 41.0589C66.2467 41.235 66.1355 41.4018 66.0799 41.6335C66.0242 41.8653 65.9686 42.097 65.9686 42.3195C65.9686 42.5512 66.0242 42.7829 66.0799 43.0054C66.1355 43.2278 66.256 43.404 66.4228 43.5801C66.5989 43.7562 66.7658 43.8674 66.9975 43.9786C67.2292 44.0899 67.461 44.1548 67.6834 44.0899C67.9708 44.0899 68.2581 44.0343 68.4898 43.9138C68.7216 43.8025 68.9533 43.6264 69.1758 43.3947L69.7504 43.9694C69.6392 44.0806 69.4631 44.2567 69.3519 44.3679C69.1758 44.4792 69.0645 44.5997 68.8884 44.6553C68.7123 44.7109 68.5455 44.8314 68.3137 44.8314C68.082 45.0539 67.8503 45.0539 67.6278 45.0539Z" fill="#F3BA2F"/>
<path d="M70.6681 39.8261H71.5301V41.9487H74.005V39.8261H74.9226V44.9983H74.005V42.8108H71.5301V44.9983H70.6681V39.8261Z" fill="#F3BA2F"/>
<path d="M78.0834 39.7704H78.9454L81.1886 44.9426H80.2153L79.6962 43.682H77.2863L76.7672 44.9426H75.8495L78.0834 39.7704ZM79.3533 42.9312L78.4912 40.8642L77.6292 42.9312H79.3533Z" fill="#F3BA2F"/>
<path d="M82.1062 39.8261H83.0331V44.9983H82.1062V39.8261Z" fill="#F3BA2F"/>
<path d="M84.405 39.8261H85.2114L87.9736 43.3855V39.8261H88.8912V44.9983H88.1404L85.3319 41.3184V44.9983H84.405V39.8261Z" fill="#F3BA2F"/>
<path d="M25.6107 44.6553V46.8985L23.6549 48.0478L21.7547 46.8985V44.6553L23.6549 45.8047L25.6107 44.6553ZM15.1458 36.897L17.046 38.0464V41.8931L20.318 43.8489V46.092L15.1458 43.0425V36.897ZM32.164 36.897V43.0518L26.9362 46.1013V43.8582L30.2082 41.9024V38.0557L32.164 36.897ZM26.9269 33.8475L28.8827 34.9969V37.24L25.6107 39.1958V43.0981L23.7105 44.2475L21.8196 43.0981V39.1865L18.4271 37.2307V34.9876L20.3829 33.8382L23.6549 35.794L26.9269 33.8475ZM18.4271 38.8436L20.3273 39.9929V42.2361L18.4271 41.0867V38.8436ZM28.8827 38.8436V41.0867L26.9825 42.2361V39.9929L28.8827 38.8436ZM17.046 31.8917L19.0018 33.0411L17.046 34.1904V36.4336L15.1458 35.2842V33.0411L17.046 31.8917ZM30.2638 31.8917L32.2196 33.0411V35.2842L30.2638 36.4336V34.1904L28.3636 33.0411L30.2638 31.8917ZM23.6549 31.8917L25.6107 33.0411L23.6549 34.1904L21.7547 33.0411L23.6549 31.8917ZM23.6549 28.045L28.8827 31.0945L26.9825 32.2439L23.7105 30.2881L20.3736 32.2439L18.4734 31.0945L23.6549 28.045Z" fill="#F3BA2F"/>
</svg>
