<svg width="56" height="56" viewBox="0 0 56 56" fill="none" xmlns="http://www.w3.org/2000/svg">
<path d="M51.9551 17.7323C51.0101 17.7323 50.2438 16.9662 50.2438 16.0212C50.2438 15.0761 51.0101 14.3101 51.9551 14.3101C52.9001 14.3101 53.6661 15.0761 53.6661 16.0212C53.6661 16.9662 52.9001 17.7323 51.9551 17.7323Z" stroke="#E1B603" stroke-width="3.51259" stroke-linejoin="round"/>
<path d="M4.04411 11.4683C3.09909 11.4683 2.33301 10.7022 2.33301 9.75715C2.33301 8.81212 3.09909 8.04602 4.04411 8.04602C4.98913 8.04602 5.75524 8.81212 5.75524 9.75715C5.75524 10.7022 4.98913 11.4683 4.04411 11.4683Z" stroke="#E1B603" stroke-width="3.51259" stroke-linejoin="round"/>
<path d="M47.393 49.1036C46.448 49.1036 45.682 48.3373 45.682 47.3923C45.682 46.4473 46.448 45.6813 47.393 45.6813C48.3382 45.6813 49.1043 46.4473 49.1043 47.3923C49.1043 48.3373 48.3382 49.1036 47.393 49.1036Z" stroke="#E1B603" stroke-width="3.51259" stroke-linejoin="round"/>
<path d="M8.60599 49.1036C7.66097 49.1036 6.89487 48.3373 6.89487 47.3923C6.89487 46.4473 7.66097 45.6813 8.60599 45.6813C9.55102 45.6813 10.3171 46.4473 10.3171 47.3923C10.3171 48.3373 9.55102 49.1036 8.60599 49.1036Z" stroke="#E1B603" stroke-width="3.51259" stroke-linejoin="round"/>
<path d="M40.0924 35.9845H45.1117C46.3717 35.9845 47.3932 37.0058 47.3932 38.266V40.5473" stroke="#E1B603" stroke-width="3.51259" stroke-linecap="round" stroke-linejoin="round"/>
<path d="M51.954 23.4348V25.7163C51.954 26.9763 50.9325 27.9976 49.6725 27.9976H40.0902" stroke="#E1B603" stroke-width="3.51259" stroke-linecap="round" stroke-linejoin="round"/>
<path d="M15.9069 33.7036H10.8876C9.62755 33.7036 8.60611 34.7251 8.60611 35.9851V40.548" stroke="#E1B603" stroke-width="3.51259" stroke-linecap="round" stroke-linejoin="round"/>
<path d="M4.04428 17.7336V22.2966C4.04428 23.5567 5.06572 24.578 6.32577 24.578H15.908" stroke="#E1B603" stroke-width="3.51259" stroke-linecap="round" stroke-linejoin="round"/>
<path d="M27.9985 31.7086C27.526 31.7086 27.1429 31.3254 27.1429 30.8529C27.1429 30.3804 27.526 29.9973 27.9985 29.9973" stroke="#E1B603" stroke-width="3.51259"/>
<path d="M27.9997 31.7086C28.4722 31.7086 28.8553 31.3254 28.8553 30.8529C28.8553 30.3804 28.4722 29.9973 27.9997 29.9973" stroke="#E1B603" stroke-width="3.51259"/>
<path d="M36.5567 20.5854V15.452C36.5506 13.1848 35.6474 11.0122 34.0441 9.40899C32.4411 7.80583 30.2683 6.9025 28.0013 6.89648C25.7342 6.90311 23.5619 7.80662 21.9588 9.40967C20.3558 11.0127 19.4523 13.185 19.4456 15.452V20.5854" stroke="#E1B603" stroke-width="3.51259" stroke-linecap="round" stroke-linejoin="round"/>
<path d="M36.5564 20.5854H19.4453C17.5553 20.5854 16.0231 22.1176 16.0231 24.0077V37.6965C16.0231 39.5867 17.5553 41.1188 19.4453 41.1188H36.5564C38.4464 41.1188 39.9787 39.5867 39.9787 37.6965V24.0077C39.9787 22.1176 38.4464 20.5854 36.5564 20.5854Z" stroke="#E1B603" stroke-width="3.51259" stroke-linecap="round" stroke-linejoin="round"/>
</svg>
