<svg width="49" height="48" viewBox="0 0 49 48" fill="none" xmlns="http://www.w3.org/2000/svg">
<g clip-path="url(#clip0_27_26)">
<path d="M4.02209 1.5H5.52209C5.91831 1.50518 6.29684 1.66488 6.57703 1.94507C6.85722 2.22526 7.01692 2.60379 7.02209 3V13.5" stroke="#353E49" stroke-width="3.01079" stroke-linecap="round" stroke-linejoin="round"/>
<path d="M4.02206 13.5H10.0221" stroke="#353E49" stroke-width="3.01079" stroke-linecap="round" stroke-linejoin="round"/>
<path d="M22.0221 10.5C22.0221 11.2957 21.706 12.0587 21.1434 12.6213C20.5808 13.1839 19.8177 13.5 19.0221 13.5C18.2264 13.5 17.4634 13.1839 16.9008 12.6213C16.3382 12.0587 16.0221 11.2957 16.0221 10.5V4.5C16.0221 3.70435 16.3382 2.94129 16.9008 2.37868C17.4634 1.81607 18.2264 1.5 19.0221 1.5C19.8177 1.5 20.5808 1.81607 21.1434 2.37868C21.706 2.94129 22.0221 3.70435 22.0221 4.5V10.5Z" stroke="#353E49" stroke-width="3.01079" stroke-linecap="round" stroke-linejoin="round"/>
<path d="M28.0024 1.5H29.5024C29.9002 1.5 30.2818 1.65804 30.5631 1.93934C30.8444 2.22065 31.0024 2.60218 31.0024 3V13.5" stroke="#353E49" stroke-width="3.01079" stroke-linecap="round" stroke-linejoin="round"/>
<path d="M28.0024 13.5H34.0024" stroke="#353E49" stroke-width="3.01079" stroke-linecap="round" stroke-linejoin="round"/>
<path d="M46.0026 10.5C46.0026 11.2957 45.6865 12.0587 45.1239 12.6213C44.5613 13.1839 43.7982 13.5 43.0026 13.5C42.2069 13.5 41.4438 13.1839 40.8812 12.6213C40.3186 12.0587 40.0026 11.2957 40.0026 10.5V4.5C40.0026 3.70435 40.3186 2.94129 40.8812 2.37868C41.4438 1.81607 42.2069 1.5 43.0026 1.5C43.7982 1.5 44.5613 1.81607 45.1239 2.37868C45.6865 2.94129 46.0026 3.70435 46.0026 4.5V10.5Z" stroke="#353E49" stroke-width="3.01079" stroke-linecap="round" stroke-linejoin="round"/>
<path d="M31.0026 18C31.7982 18 32.5613 18.3161 33.1239 18.8787C33.6865 19.4413 34.0026 20.2044 34.0026 21V24" stroke="#353E49" stroke-width="3.01079" stroke-linecap="round" stroke-linejoin="round"/>
<path d="M40.0026 18H41.5026C41.9004 18 42.2819 18.1581 42.5632 18.4394C42.8445 18.7207 43.0026 19.1022 43.0026 19.5V30" stroke="#353E49" stroke-width="3.01079" stroke-linecap="round" stroke-linejoin="round"/>
<path d="M40.0026 30.0001H46.0026" stroke="#353E49" stroke-width="3.01079" stroke-linecap="round" stroke-linejoin="round"/>
<path d="M46.0026 43.5001C46.0026 44.2957 45.6865 45.0588 45.1239 45.6214C44.5613 46.184 43.7982 46.5001 43.0026 46.5001C42.2069 46.5001 41.4438 46.184 40.8812 45.6214C40.3186 45.0588 40.0026 44.2957 40.0026 43.5001V37.5001C40.0026 36.7044 40.3186 35.9414 40.8812 35.3787C41.4438 34.8161 42.2069 34.5001 43.0026 34.5001C43.7982 34.5001 44.5613 34.8161 45.1239 35.3787C45.6865 35.9414 46.0026 36.7044 46.0026 37.5001V43.5001Z" stroke="#353E49" stroke-width="3.01079" stroke-linecap="round" stroke-linejoin="round"/>
<path d="M13.0224 33H18.0224" stroke="#353E49" stroke-width="3.01079" stroke-linecap="round" stroke-linejoin="round"/>
<path d="M16.0224 27V25.5" stroke="#353E49" stroke-width="3.01079" stroke-linecap="round" stroke-linejoin="round"/>
<path d="M16.0224 39V40.5" stroke="#353E49" stroke-width="3.01079" stroke-linecap="round" stroke-linejoin="round"/>
<path d="M18.0224 27C18.7498 27.0711 19.42 27.4257 19.8879 27.9872C20.3558 28.5486 20.5837 29.2717 20.5224 30C20.5837 30.7283 20.3558 31.4514 19.8879 32.0129C19.42 32.5744 18.7498 32.929 18.0224 33C18.7498 33.0711 19.42 33.4257 19.8879 33.9872C20.3558 34.5486 20.5837 35.2718 20.5224 36C20.5837 36.7283 20.3558 37.4515 19.8879 38.0129C19.42 38.5744 18.7498 38.929 18.0224 39H13.0224V27H18.0224Z" stroke="#353E49" stroke-width="3.01079" stroke-linecap="round" stroke-linejoin="round"/>
<path d="M16.0221 46.5001C23.4779 46.5001 29.5221 40.4559 29.5221 33C29.5221 25.5442 23.4779 19.5 16.0221 19.5C8.56625 19.5 2.52209 25.5442 2.52209 33C2.52209 40.4559 8.56625 46.5001 16.0221 46.5001Z" stroke="#353E49" stroke-width="3.01079" stroke-linecap="round" stroke-linejoin="round"/>
<path d="M31.0024 43.5001V46.5001" stroke="#353E49" stroke-width="3.01079" stroke-linecap="round" stroke-linejoin="round"/>
<path d="M28.0024 46.5001H34.0024" stroke="#353E49" stroke-width="3.01079" stroke-linecap="round" stroke-linejoin="round"/>
</g>
<defs>
<clipPath id="clip0_27_26">
<rect width="48" height="48.0001" fill="white" transform="translate(0.262207)"/>
</clipPath>
</defs>
</svg>
