<svg width="33" height="32" viewBox="0 0 33 32" fill="none" xmlns="http://www.w3.org/2000/svg">
<path id="Vector" d="M16.5 0C7.6625 0 0.5 7.1625 0.5 16C0.5 24.8375 7.6625 32 16.5 32C25.3375 32 32.5 24.8375 32.5 16C32.5 7.1625 25.3375 0 16.5 0ZM20.0312 13.2875L19.85 15.6812H17.3937V23.9938H14.2937V15.6812H12.6375V13.2875H14.2937V11.6812C14.2937 10.975 14.3125 9.88125 14.825 9.2C15.3687 8.48125 16.1125 7.99375 17.3937 7.99375C19.4812 7.99375 20.3563 8.29375 20.3563 8.29375L19.9438 10.7437C19.9438 10.7437 19.2562 10.5438 18.6125 10.5438C17.9688 10.5438 17.3937 10.775 17.3937 11.4188V13.2875H20.0312Z" fill="url(#paint0_linear_138_950)"/>
<defs>
<linearGradient id="paint0_linear_138_950" x1="0.5" y1="0" x2="35.6242" y2="28.0939" gradientUnits="userSpaceOnUse">
<stop stop-color="#FFE57A"/>
<stop offset="0.484431" stop-color="#FFE57A"/>
<stop offset="1" stop-color="#B59100"/>
</linearGradient>
</defs>
</svg>
