<svg width="44" height="44" viewBox="0 0 44 44" fill="none" xmlns="http://www.w3.org/2000/svg">
<g id="Group 5">
<g id="Vector" filter="url(#filter0_dd_459_389)">
<path d="M22 38C30.8366 38 38 30.8366 38 22C38 13.1634 30.8366 6 22 6C13.1634 6 6 13.1634 6 22C6 30.8366 13.1634 38 22 38Z" fill="url(#paint0_linear_459_389)"/>
</g>
<path id="Vector_2" d="M23.2371 19.8192C23.5002 19.5229 23.7112 19.2219 23.9861 18.9683C24.3762 18.588 24.838 18.2891 25.3446 18.0889C25.8512 17.8887 26.3926 17.7912 26.9372 17.802C27.5649 17.7912 28.191 17.867 28.798 18.0272C30.187 18.4302 30.9929 19.3854 31.3793 20.7413C31.6354 21.7574 31.751 22.8037 31.723 23.8512C31.723 26.0628 31.723 28.272 31.723 30.4883C31.723 30.6945 31.6661 30.749 31.4623 30.7466C30.3213 30.7371 29.1828 30.7371 28.0466 30.7466C27.8451 30.7466 27.8095 30.6874 27.8095 30.5096C27.8095 28.4063 27.8095 26.303 27.8095 24.1997C27.8214 23.6713 27.7591 23.1439 27.6246 22.6329C27.3521 21.6847 26.6765 21.2106 25.688 21.2604C24.3393 21.3315 23.6353 22.0023 23.4646 23.3748C23.4228 23.7018 23.4022 24.0312 23.403 24.3609C23.403 26.4065 23.403 28.4521 23.403 30.4977C23.403 30.7016 23.3509 30.7609 23.1423 30.7585C21.9974 30.7585 20.8501 30.7585 19.7029 30.7585C19.518 30.7585 19.4658 30.7111 19.4658 30.5214C19.4658 26.4729 19.4658 22.4235 19.4658 18.3733C19.4658 18.1718 19.5298 18.1363 19.7195 18.1363C20.8098 18.1457 21.8994 18.1457 22.9882 18.1363C23.1873 18.1363 23.2395 18.2003 23.2252 18.3899C23.23 18.8497 23.2371 19.3333 23.2371 19.8192Z" fill="#FEFEFE"/>
<path id="Vector_3" d="M16.9987 24.4463C16.9987 26.4492 16.9987 28.4522 16.9987 30.4551C16.9987 30.678 16.9442 30.7467 16.7143 30.7443C15.5741 30.7301 14.4363 30.7443 13.2986 30.7443C13.116 30.7443 13.0615 30.6993 13.0615 30.5073C13.0615 26.4492 13.0615 22.3927 13.0615 18.3378C13.0615 18.1695 13.1042 18.1008 13.282 18.1126C14.4363 18.1126 15.5907 18.1126 16.7451 18.1126C16.9679 18.1126 16.9963 18.1956 16.9963 18.3876C16.9948 20.4071 16.9955 22.4267 16.9987 24.4463Z" fill="#FEFEFE"/>
<path id="Vector_4" d="M17.311 14.0948C17.3133 14.5451 17.1819 14.986 16.9333 15.3615C16.6848 15.7369 16.3303 16.0301 15.9149 16.2039C15.4994 16.3776 15.0418 16.424 14.5999 16.3373C14.158 16.2505 13.7519 16.0345 13.433 15.7166C13.1141 15.3987 12.8968 14.9932 12.8086 14.5516C12.7205 14.11 12.7655 13.6522 12.9379 13.2362C13.1103 12.8203 13.4024 12.4649 13.7771 12.2151C14.1518 11.9654 14.5922 11.8326 15.0425 11.8335C15.642 11.8366 16.2161 12.0756 16.6407 12.4988C17.0652 12.922 17.306 13.4954 17.311 14.0948Z" fill="#FEFEFE"/>
</g>
<defs>
<filter id="filter0_dd_459_389" x="0" y="0" width="44" height="44" filterUnits="userSpaceOnUse" color-interpolation-filters="sRGB">
<feFlood flood-opacity="0" result="BackgroundImageFix"/>
<feColorMatrix in="SourceAlpha" type="matrix" values="0 0 0 0 0 0 0 0 0 0 0 0 0 0 0 0 0 0 127 0" result="hardAlpha"/>
<feOffset dy="2"/>
<feGaussianBlur stdDeviation="2"/>
<feColorMatrix type="matrix" values="0 0 0 0 0 0 0 0 0 0 0 0 0 0 0 0 0 0 0.08 0"/>
<feBlend mode="normal" in2="BackgroundImageFix" result="effect1_dropShadow_459_389"/>
<feColorMatrix in="SourceAlpha" type="matrix" values="0 0 0 0 0 0 0 0 0 0 0 0 0 0 0 0 0 0 127 0" result="hardAlpha"/>
<feOffset/>
<feGaussianBlur stdDeviation="3"/>
<feColorMatrix type="matrix" values="0 0 0 0 0 0 0 0 0 0 0 0 0 0 0 0 0 0 0.02 0"/>
<feBlend mode="normal" in2="effect1_dropShadow_459_389" result="effect2_dropShadow_459_389"/>
<feBlend mode="normal" in="SourceGraphic" in2="effect2_dropShadow_459_389" result="shape"/>
</filter>
<linearGradient id="paint0_linear_459_389" x1="6" y1="6" x2="41.1242" y2="34.0939" gradientUnits="userSpaceOnUse">
<stop stop-color="#B59100"/>
<stop offset="0.484431" stop-color="#FFDD53"/>
<stop offset="1" stop-color="#B59100"/>
</linearGradient>
</defs>
</svg>
