<svg width="44" height="44" viewBox="0 0 44 44" fill="none" xmlns="http://www.w3.org/2000/svg">
<g id="Group 4">
<g id="Vector" filter="url(#filter0_dd_459_394)">
<path d="M38 21.9951C37.9999 18.9378 37.1234 15.9446 35.4743 13.3699C33.8252 10.7952 31.4726 8.74698 28.6951 7.46769C25.9175 6.1884 22.8314 5.73168 19.8023 6.15162C16.7731 6.57156 13.9278 7.85057 11.6033 9.83718C9.27875 11.8238 7.57241 14.4348 6.68633 17.3609C5.80025 20.287 5.77156 23.4057 6.60365 26.3476C7.43573 29.2896 9.09374 31.9315 11.3813 33.9605C13.6689 35.9895 16.4902 37.3206 19.5111 37.7962V26.6278H15.4412V21.9951H19.504V18.469C19.504 14.4618 21.8933 12.2461 25.5484 12.2461C26.7484 12.2629 27.9454 12.3675 29.1301 12.5589V16.495H27.1129C25.1241 16.495 24.5055 17.7296 24.5055 18.9927V21.9951H28.9428L28.2317 26.6183H24.5007V37.7962C28.2639 37.1999 31.6909 35.281 34.1654 32.3846C36.6399 29.4881 37.9996 25.8042 38 21.9951Z" fill="url(#paint0_linear_459_394)"/>
</g>
<path id="Vector_2" d="M28.2272 26.6278L28.9383 22.0045H24.501V18.9926C24.501 17.7296 25.1196 16.495 27.1084 16.495H29.1256V12.5589C27.9409 12.3674 26.7438 12.2629 25.5439 12.2461C21.8888 12.2461 19.4995 14.4618 19.4995 18.4689V21.995H15.4414V26.6278H19.5042V37.8057C21.1613 38.0647 22.8486 38.0647 24.5057 37.8057V26.6278H28.2272Z" fill="white"/>
</g>
<defs>
<filter id="filter0_dd_459_394" x="0" y="0" width="44" height="43.7963" filterUnits="userSpaceOnUse" color-interpolation-filters="sRGB">
<feFlood flood-opacity="0" result="BackgroundImageFix"/>
<feColorMatrix in="SourceAlpha" type="matrix" values="0 0 0 0 0 0 0 0 0 0 0 0 0 0 0 0 0 0 127 0" result="hardAlpha"/>
<feOffset dy="2"/>
<feGaussianBlur stdDeviation="2"/>
<feColorMatrix type="matrix" values="0 0 0 0 0 0 0 0 0 0 0 0 0 0 0 0 0 0 0.08 0"/>
<feBlend mode="normal" in2="BackgroundImageFix" result="effect1_dropShadow_459_394"/>
<feColorMatrix in="SourceAlpha" type="matrix" values="0 0 0 0 0 0 0 0 0 0 0 0 0 0 0 0 0 0 127 0" result="hardAlpha"/>
<feOffset/>
<feGaussianBlur stdDeviation="3"/>
<feColorMatrix type="matrix" values="0 0 0 0 0 0 0 0 0 0 0 0 0 0 0 0 0 0 0.02 0"/>
<feBlend mode="normal" in2="effect1_dropShadow_459_394" result="effect2_dropShadow_459_394"/>
<feBlend mode="normal" in="SourceGraphic" in2="effect2_dropShadow_459_394" result="shape"/>
</filter>
<linearGradient id="paint0_linear_459_394" x1="6" y1="6" x2="40.9489" y2="34.1328" gradientUnits="userSpaceOnUse">
<stop stop-color="#B59100"/>
<stop offset="0.484431" stop-color="#FFDD53"/>
<stop offset="1" stop-color="#B59100"/>
</linearGradient>
</defs>
</svg>
