<svg width="33" height="32" viewBox="0 0 33 32" fill="none" xmlns="http://www.w3.org/2000/svg">
<g id="Group">
<path id="Vector" d="M17.5831 0.0327759C25.7022 0.0327759 32.345 6.67567 32.345 14.7948V17.1012C32.345 25.2203 25.7021 31.8632 17.5831 31.8632H15.2766C7.15754 31.8632 0.514648 25.2203 0.514648 17.1012V14.7948C0.514648 6.67567 7.15754 0.0327759 15.2766 0.0327759H17.5831ZM16.72 8.03304L16.5146 8.03278C14.8044 8.03278 13.0942 8.0893 13.0942 8.0893C10.5962 8.0893 8.57118 10.1143 8.57118 12.6123C8.57118 12.6123 8.51926 14.0808 8.51493 15.6571L8.51465 15.8632C8.51465 17.628 8.57118 19.4533 8.57118 19.4533C8.57118 21.9512 10.5962 23.9762 13.0942 23.9762C13.0942 23.9762 14.6932 24.0328 16.3451 24.0328C18.1099 24.0328 19.9917 23.9762 19.9917 23.9762C22.4897 23.9762 24.4581 22.0078 24.4581 19.5098C24.4581 19.5098 24.5146 17.7051 24.5146 15.9763L24.5136 15.5705C24.506 14.0194 24.4581 12.5557 24.4581 12.5557C24.4581 10.0578 22.4896 8.0893 19.9917 8.0893C19.9917 8.0893 18.3634 8.03721 16.72 8.03304ZM16.5146 9.47274C17.9171 9.47274 19.7152 9.51912 19.7152 9.51912C21.7636 9.51912 23.0283 10.7838 23.0283 12.8322C23.0283 12.8322 23.0746 14.5996 23.0746 15.9863C23.0746 17.404 23.0283 19.2333 23.0283 19.2333C23.0283 21.2816 21.7636 22.5463 19.7152 22.5463C19.7152 22.5463 18.125 22.5853 16.7453 22.5918L16.3756 22.5927C15.021 22.5927 13.3706 22.5463 13.3706 22.5463C11.3223 22.5463 10.001 21.225 10.001 19.1768C10.001 19.1768 9.95465 17.3408 9.95465 15.8937C9.95465 14.5391 10.001 12.8322 10.001 12.8322C10.001 10.7838 11.3223 9.51912 13.3706 9.51912C13.3706 9.51912 15.1122 9.47274 16.5146 9.47274ZM16.5146 11.9347C14.2513 11.9347 12.4166 13.7694 12.4166 16.0327C12.4166 18.296 14.2513 20.1308 16.5146 20.1308C18.7779 20.1308 20.6127 18.296 20.6127 16.0327C20.6127 13.7694 18.7779 11.9347 16.5146 11.9347ZM16.5146 13.3661C17.9874 13.3661 19.1813 14.5599 19.1813 16.0327C19.1813 17.5055 17.9874 18.6994 16.5146 18.6994C15.0419 18.6994 13.8479 17.5055 13.8479 16.0327C13.8479 14.5599 15.0418 13.3661 16.5146 13.3661ZM20.8087 10.7975C20.2619 10.7975 19.8185 11.243 19.8185 11.7926C19.8185 12.3421 20.2619 12.7876 20.8087 12.7876C21.3556 12.7876 21.7989 12.3421 21.7989 11.7926C21.7989 11.243 21.3556 10.7975 20.8087 10.7975Z" fill="url(#paint0_linear_138_946)"/>
</g>
<defs>
<linearGradient id="paint0_linear_138_946" x1="0.514648" y1="0.0327759" x2="35.4527" y2="27.9778" gradientUnits="userSpaceOnUse">
<stop stop-color="#FFE57A"/>
<stop offset="0.484431" stop-color="#FFE57A"/>
<stop offset="1" stop-color="#B59100"/>
</linearGradient>
</defs>
</svg>
