<svg width="33" height="32" viewBox="0 0 33 32" fill="none" xmlns="http://www.w3.org/2000/svg">
<path id="Vector" d="M16.5 0C7.6625 0 0.5 7.1625 0.5 16C0.5 24.8375 7.6625 32 16.5 32C25.3375 32 32.5 24.8375 32.5 16C32.5 7.1625 25.3375 0 16.5 0ZM12.025 22.6938H8.90625V12.7125H12.025V22.6938ZM10.3813 11.4625H10.3562C9.225 11.4625 8.49375 10.7 8.49375 9.73125C8.49375 8.74375 9.25 8 10.4 8C11.55 8 12.2563 8.74375 12.2812 9.73125C12.2875 10.6938 11.5563 11.4625 10.3813 11.4625ZM24.5 22.6938H20.9625V17.5312C20.9625 16.1812 20.4125 15.2563 19.1938 15.2563C18.2625 15.2563 17.7437 15.8813 17.5063 16.4813C17.4188 16.6938 17.4312 16.9937 17.4312 17.3V22.6938H13.925C13.925 22.6938 13.9688 13.5437 13.925 12.7125H17.4312V14.2812C17.6375 13.5938 18.7563 12.6187 20.5438 12.6187C22.7625 12.6187 24.5 14.0562 24.5 17.1437V22.6938Z" fill="url(#paint0_linear_138_944)"/>
<defs>
<linearGradient id="paint0_linear_138_944" x1="0.5" y1="0" x2="35.6242" y2="28.0939" gradientUnits="userSpaceOnUse">
<stop stop-color="#FFE57A"/>
<stop offset="0.484431" stop-color="#FFE57A"/>
<stop offset="1" stop-color="#B59100"/>
</linearGradient>
</defs>
</svg>
