<svg width="104" height="74" viewBox="0 0 104 74" fill="none" xmlns="http://www.w3.org/2000/svg">
<path d="M13.3541 43.6051C13.3246 43.5375 13.2655 43.47 13.2697 43.4067C13.3415 42.6214 13.4217 41.8403 13.5019 41.0592C13.5272 40.8102 13.5526 40.5568 13.5821 40.2951H14.2576C14.2872 40.5653 14.3167 40.8397 14.3463 41.1184C14.4265 41.8741 14.5067 42.6256 14.5785 43.3813C14.5869 43.4531 14.5278 43.5333 14.4983 43.6051H13.3541ZM14.4941 30.3903C14.5236 30.441 14.5869 30.4959 14.5827 30.5465C14.4856 31.5936 14.3801 32.6406 14.2745 33.7046H13.5948C13.5652 33.4259 13.5357 33.143 13.5061 32.8602C13.4259 32.1129 13.3457 31.3656 13.2781 30.6183C13.2697 30.5465 13.3288 30.4663 13.3583 30.3903H14.4941ZM7.31669 36.47C7.3758 36.4404 7.43491 36.3771 7.48979 36.3813C8.53262 36.4784 9.57123 36.584 10.6225 36.6895V37.3692C10.2974 37.403 9.96809 37.441 9.63456 37.479C8.98437 37.5466 8.33419 37.6183 7.684 37.6774C7.56157 37.6901 7.40535 37.7872 7.31247 37.6099C7.31669 37.2299 7.31669 36.8499 7.31669 36.47ZM87.3443 35.4525V42.6509H84.3045V31.4205C84.3763 31.4163 84.4522 31.412 84.524 31.412C85.5288 31.412 86.5379 31.4163 87.5427 31.4078C87.7032 31.4078 87.8003 31.4585 87.8932 31.5767C89.7382 33.8988 91.5916 36.2209 93.4408 38.5387C93.4831 38.5936 93.5295 38.6443 93.6097 38.7414V31.4163H96.6791V42.6636H96.4764C95.4421 42.6636 94.4077 42.6594 93.3733 42.6678C93.2382 42.6678 93.158 42.6256 93.0735 42.5243C91.2243 40.2402 89.3708 37.9561 87.5216 35.672C87.4794 35.6129 87.433 35.558 87.3443 35.4525ZM76.2743 31.0574C77.6844 31.0532 78.9383 31.2474 80.1247 31.792C82.5692 32.9151 83.5952 35.1485 83.363 37.4875C83.1308 39.8011 81.8853 41.4223 79.7659 42.2878C77.3129 43.2927 74.8261 43.2462 72.4407 42.0303C70.3086 40.9453 69.1687 38.7329 69.4051 36.3644C69.65 33.9283 71.1024 32.1973 73.5384 31.45C74.4673 31.1629 75.4214 31.0489 76.2743 31.0574ZM76.2321 40.6244C76.6796 40.5822 76.9793 40.5653 77.2791 40.5188C78.4697 40.3246 79.331 39.704 79.7532 38.5514C80.0487 37.7408 80.1543 36.8964 80.0107 36.0393C79.7954 34.7643 79.0777 33.8946 77.8237 33.5104C76.9625 33.2486 76.0927 33.2402 75.223 33.4555C74.1928 33.7088 73.5004 34.3463 73.1669 35.3511C72.846 36.318 72.7996 37.3101 73.0318 38.3023C73.2724 39.3282 73.8846 40.0544 74.9063 40.3668C75.375 40.5188 75.8774 40.5611 76.2321 40.6244ZM59.9521 38.2939V42.6467H57.1487V31.3994H57.3894C59.817 31.3994 62.2446 31.3951 64.6723 31.4036C65.2338 31.4036 65.7995 31.3994 66.3568 31.4585C66.7368 31.5007 67.1168 31.6105 67.4672 31.7625C68.7254 32.2987 69.1729 33.4428 69.0589 34.6038C68.9365 35.8662 68.1554 36.6304 67.0366 37.1075C66.9901 37.1286 66.9437 37.1413 66.8973 37.1581C66.8593 37.175 66.8213 37.1919 66.779 37.251C66.8677 37.2595 66.9564 37.2679 67.045 37.2721C67.6614 37.2848 68.1132 37.5635 68.2821 38.163C68.4721 38.83 68.5987 39.514 68.7423 40.1937C68.8647 40.7637 68.9449 41.3421 69.0885 41.9036C69.156 42.1696 69.3249 42.4103 69.4516 42.6678H68.9238C68.4087 42.6678 67.8979 42.6594 67.3828 42.672C67.0239 42.6805 66.7453 42.5285 66.6228 42.2118C66.4539 41.777 66.3231 41.3252 66.2133 40.8693C66.0909 40.3415 66.0318 39.8011 65.9051 39.2776C65.7362 38.5936 65.3562 38.2981 64.6681 38.2939C63.1355 38.2854 61.5987 38.2896 60.0661 38.2896C60.0408 38.2854 60.0154 38.2896 59.9521 38.2939ZM59.9226 36.3306C59.969 36.3391 59.9859 36.3433 60.007 36.3433C61.4129 36.3433 62.8188 36.3517 64.2247 36.3306C64.5709 36.3264 64.9214 36.2504 65.2591 36.1618C65.5758 36.0815 65.8207 35.8747 65.9473 35.558C66.2513 34.7854 65.9093 34.0592 65.1071 33.865C64.7145 33.7679 64.3007 33.7299 63.8997 33.7257C62.6415 33.7088 61.3834 33.7172 60.1252 33.7172C60.0577 33.7172 59.9901 33.7215 59.9226 33.7257V36.3306ZM31.6775 31.4078H34.7047V31.6611C34.7047 33.8481 34.7004 36.0393 34.7089 38.2263C34.7089 38.4923 34.7258 38.7625 34.7807 39.02C34.958 39.8687 35.5406 40.3246 36.347 40.5146C37.3518 40.751 38.3736 40.7553 39.3784 40.5273C40.5394 40.2655 41.0841 39.5731 41.0883 38.3783C41.0967 36.4151 41.0883 34.4519 41.0883 32.4886V31.412H44.1112C44.1155 31.4669 44.1239 31.5218 44.1239 31.5767C44.1239 33.7932 44.1323 36.0098 44.1239 38.2263C44.1155 40.3922 43.0515 41.8361 40.987 42.5116C39.6528 42.9465 38.2807 43.0014 36.8959 42.9127C36.043 42.8578 35.2071 42.7016 34.4133 42.3807C32.923 41.7812 31.9773 40.7257 31.7324 39.1087C31.6944 38.868 31.6733 38.6189 31.6733 38.3741C31.6691 36.1153 31.6691 33.8566 31.6691 31.5978L31.6775 31.4078ZM44.8163 33.7932V31.4247H56.4647V33.7932H52.1668V42.6509H49.1396V33.7932H44.8163ZM25.1292 40.274H31.61V42.6594H22.1021V31.4163H25.1292V40.274ZM12.1002 43.4278L10.8378 42.9211L12.3873 39.9784C12.5984 40.0629 12.7968 40.1431 13.0206 40.2317L12.1002 43.4278ZM20.2444 35.0049L17.0695 35.9887C16.9808 35.7776 16.8964 35.5833 16.7993 35.3638C17.7534 34.8361 18.7076 34.3083 19.7082 33.7552C19.8855 34.169 20.0586 34.5743 20.2444 35.0049ZM20.3035 38.8216L19.7926 40.084L16.8499 38.5345C16.9386 38.3192 17.0188 38.1208 17.1075 37.9012C18.1587 38.201 19.21 38.505 20.3035 38.8216ZM16.4573 34.8909C16.3053 34.7178 16.1702 34.5574 16.0097 34.3674L18.0616 31.7414L18.9694 32.7588C18.1503 33.4555 17.3186 34.1648 16.4573 34.8909ZM15.7564 30.6183C16.1871 30.7914 16.5882 30.9561 17.0146 31.1292L15.4693 34.0719L14.836 33.8186C15.14 32.7588 15.4398 31.7118 15.7564 30.6183ZM9.79077 42.3005C9.47834 41.9501 9.18703 41.625 8.88305 41.283C9.70633 40.5864 10.5465 39.8771 11.3993 39.1551L11.8511 39.6702C11.2009 40.4977 10.5296 41.359 9.79077 42.3005ZM11.8047 34.473C11.6273 34.6292 11.4627 34.7685 11.2854 34.9247C10.4621 34.2788 9.60078 33.6032 8.70572 32.9024C9.02237 32.5689 9.32635 32.2564 9.64722 31.9229C10.3776 32.78 11.0827 33.6159 11.8047 34.473ZM16.0351 39.5267C16.2082 39.3747 16.3686 39.2311 16.5459 39.0707L19.1298 41.0972C18.8131 41.4266 18.5092 41.7432 18.1883 42.081L16.0351 39.5267ZM11.9229 30.6859L12.9066 33.8608C12.6955 33.9537 12.5013 34.0381 12.2817 34.131C11.754 33.1726 11.2262 32.2184 10.6732 31.2178C11.0869 31.0447 11.4965 30.8716 11.9229 30.6859ZM10.7872 38.0532C10.88 38.2685 10.9645 38.467 11.0531 38.6823C10.0905 39.2142 9.13636 39.742 8.1442 40.2908C7.96688 39.8686 7.79378 39.4633 7.61223 39.0369C8.69728 38.7034 9.74011 38.3783 10.7872 38.0532ZM14.9374 40.1346L15.5622 39.8644C16.09 40.8186 16.6219 41.7812 17.175 42.7776C16.757 42.9549 16.3475 43.128 15.9211 43.3096L14.9374 40.1346ZM10.7365 36.0984L7.54468 35.178C7.71356 34.7558 7.87399 34.3505 8.05132 33.9157L10.994 35.4651L10.7365 36.0984ZM17.2383 36.6684L20.5104 36.3264V37.6817L17.2383 37.3524V36.6684Z" fill="black"/>
</svg>
