<svg width="31" height="31" viewBox="0 0 31 31" fill="none" xmlns="http://www.w3.org/2000/svg">
<path id="Vector" d="M21.6223 9.03999C21.6283 9.03999 21.6363 9.03999 21.6443 9.03999C21.8533 9.03999 22.0473 9.10499 22.2063 9.21699L22.2033 9.21499C22.3193 9.31599 22.3973 9.45799 22.4163 9.61799V9.62099C22.4363 9.74299 22.4473 9.88299 22.4473 10.026C22.4473 10.091 22.4453 10.155 22.4403 10.219V10.21C22.2153 12.579 21.2393 18.324 20.7433 20.976C20.5333 22.099 20.1203 22.475 19.7203 22.511C18.8513 22.592 18.1913 21.937 17.3493 21.385C16.0313 20.52 15.2863 19.982 14.0073 19.139C12.5283 18.166 13.4873 17.629 14.3293 16.755C14.5503 16.525 18.3813 13.04 18.4563 12.724C18.4603 12.705 18.4623 12.684 18.4623 12.662C18.4623 12.584 18.4333 12.513 18.3863 12.459C18.3343 12.425 18.2693 12.406 18.2013 12.406C18.1563 12.406 18.1133 12.415 18.0733 12.43L18.0753 12.429C17.9433 12.459 15.8379 13.8503 11.7593 16.603C11.3143 16.954 10.7523 17.176 10.1403 17.202H10.1343C9.26727 17.097 8.48027 16.904 7.73327 16.629L7.80727 16.653C6.86927 16.347 6.12427 16.186 6.18827 15.668C6.22227 15.3987 6.59361 15.123 7.30227 14.841C11.6676 12.939 14.5786 11.6853 16.0353 11.08C17.6423 10.227 19.5053 9.52499 21.4643 9.06999L21.6213 9.03899L21.6223 9.03999ZM15.4303 0.0249939C7.12827 0.0449939 0.405273 6.77999 0.405273 15.085C0.405273 23.402 7.14727 30.145 15.4653 30.145C23.7833 30.145 30.5253 23.403 30.5253 15.085C30.5253 6.77999 23.8023 0.0449939 15.5023 0.0249939H15.5003C15.4769 0.0249939 15.4536 0.0249939 15.4303 0.0249939Z" fill="url(#paint0_linear_138_938)"/>
<defs>
<linearGradient id="paint0_linear_138_938" x1="0.405273" y1="0.0249939" x2="33.466" y2="26.4684" gradientUnits="userSpaceOnUse">
<stop stop-color="#FFE57A"/>
<stop offset="0.484431" stop-color="#FFE57A"/>
<stop offset="1" stop-color="#B59100"/>
</linearGradient>
</defs>
</svg>
