<svg width="33" height="32" viewBox="0 0 33 32" fill="none" xmlns="http://www.w3.org/2000/svg">
<path id="Vector" d="M16.5 0C7.6625 0 0.5 7.1625 0.5 16C0.5 24.8375 7.6625 32 16.5 32C25.3375 32 32.5 24.8375 32.5 16C32.5 7.1625 25.3375 0 16.5 0ZM22.8875 13.5125C22.8938 13.65 22.8937 13.7937 22.8937 13.9375C22.8937 18.2812 19.5875 23.2938 13.5375 23.2938C11.6813 23.2938 9.95 22.75 8.5 21.8188C8.75625 21.85 9.01875 21.8625 9.2875 21.8625C10.825 21.8625 12.2437 21.3375 13.3687 20.4562C11.9312 20.4312 10.7125 19.4812 10.3 18.175C10.5 18.2125 10.7063 18.2313 10.9187 18.2313C11.2188 18.2313 11.5125 18.1937 11.7875 18.1125C10.2812 17.8125 9.15 16.4813 9.15 14.8875V14.85C9.59375 15.0938 10.1 15.2438 10.6375 15.2625C9.75625 14.675 9.175 13.6625 9.175 12.525C9.175 11.925 9.3375 11.3562 9.61875 10.8687C11.2437 12.8625 13.6625 14.1687 16.3938 14.3062C16.3375 14.0687 16.3062 13.8187 16.3062 13.5562C16.3062 11.7437 17.7812 10.2687 19.5938 10.2687C20.5375 10.2687 21.3937 10.6687 21.9937 11.3062C22.7437 11.1562 23.4437 10.8875 24.0812 10.5063C23.8375 11.275 23.3125 11.9188 22.6375 12.325C23.3 12.2438 23.9375 12.0687 24.525 11.8062C24.0875 12.4688 23.5312 13.0438 22.8875 13.5125Z" fill="url(#paint0_linear_138_952)"/>
<defs>
<linearGradient id="paint0_linear_138_952" x1="0.5" y1="0" x2="35.6242" y2="28.0939" gradientUnits="userSpaceOnUse">
<stop stop-color="#FFE57A"/>
<stop offset="0.484431" stop-color="#FFE57A"/>
<stop offset="1" stop-color="#B59100"/>
</linearGradient>
</defs>
</svg>
