<svg width="104" height="78" viewBox="0 0 104 78" fill="none" xmlns="http://www.w3.org/2000/svg">
<path d="M90.3587 38.6534L86.372 42.64L82.3853 38.6534L86.372 34.6667L90.3587 38.6534Z" fill="#325AA6"/>
<path d="M31.3387 33.5862H29.1547L28.912 33.8288L26.6067 41.8022L24.0933 33.7075L23.8507 33.5862H21.424L21.1813 33.7075L18.6507 41.6808L16.3453 33.7075L16.1027 33.5862H13.8147L13.6933 33.7075L17.316 44.9568L17.5587 45.1995H19.7427L19.9853 44.9568L22.516 36.8622L25.0467 44.9568L25.4107 45.1995H27.716L27.9587 44.9568L31.5813 33.7075L31.3387 33.5862ZM56.6107 33.5862H54.3053L54.0627 33.8288L50.9253 42.1662L47.788 33.8288L47.5453 33.5862H45.24L45.1187 33.7075L49.5907 44.9568L49.8333 45.1995H51.896L52.1387 44.9568L56.6107 33.7075V33.5862ZM68.3453 39.7568L68.1027 39.9995H59.644C59.7653 40.9702 60.1293 41.6982 60.736 42.3048C61.3427 42.9115 62.192 43.2755 63.0413 43.2755C64.376 43.2755 65.2253 42.7902 65.7107 41.6982L65.9533 41.4555H68.016L68.1373 41.6982C67.7733 43.0328 66.924 44.0035 66.0747 44.5928C65.2253 45.1995 64.1333 45.4422 62.9373 45.4422C61.2387 45.4422 59.8 44.8355 58.8293 43.7435C57.7373 42.6515 57.252 41.0742 57.252 39.3928C57.252 37.7115 57.7373 36.3768 58.8293 35.1635C59.9213 33.9502 61.256 33.3435 62.816 33.3435C64.5147 33.3435 65.832 33.9502 66.8027 35.0422C67.7733 36.1342 68.38 37.6942 68.38 39.5142V39.7568H68.3453ZM62.7813 35.5275C61.3253 35.5275 60.1293 36.4982 59.7653 37.9542H65.8147C65.572 36.9662 64.7227 35.5275 62.7813 35.5275ZM41.2533 33.7075L41.496 33.5862H43.4373L43.68 33.8288V45.1995L43.4373 45.4422H41.496L41.2533 45.1995V43.9862C41.0107 44.3502 40.5253 44.7142 40.1613 44.9568C40.04 44.9568 39.9187 45.0782 39.9187 45.0782H39.7973C39.1907 45.4422 38.4627 45.5635 37.7347 45.5635C36.2787 45.5635 35.0827 44.9568 33.9907 43.7435C32.8987 42.5302 32.4133 41.0915 32.4133 39.3928C32.4133 37.6942 32.8987 36.2555 33.9907 35.0422C35.0827 33.8288 36.296 33.2222 37.7347 33.2222C38.4627 33.2222 39.1907 33.3435 39.7973 33.7075C39.9187 33.7075 40.04 33.8288 40.1613 33.8288C40.6467 34.0715 41.0107 34.4355 41.3747 34.7995V33.7075H41.2533ZM37.9947 43.2582C38.9653 43.2582 39.6933 42.8942 40.3 42.1662C40.664 41.6808 41.028 41.1955 41.1493 40.4675V38.1622C41.028 37.4342 40.664 36.9488 40.3 36.4635C39.6933 35.8568 38.844 35.4928 37.9947 35.4928C37.024 35.4928 36.4173 35.8568 35.8107 36.5848C35.204 37.3128 34.84 38.2835 34.84 39.3582C34.84 40.5715 35.204 41.4208 35.8107 42.1315C36.4173 42.8942 37.024 43.2582 37.9947 43.2582ZM76.1973 38.4222C76.1973 38.4222 74.984 38.1795 73.892 37.9368C72.9213 37.6942 72.436 37.4515 72.436 36.7235C72.436 35.9955 73.164 35.3888 74.62 35.3888C76.076 35.3888 76.9253 35.9955 76.9253 36.6022L77.168 36.8448H79.2307L79.352 36.7235C79.352 35.1462 78.0173 33.3435 74.6373 33.3435C71.136 33.3435 70.044 35.5275 70.044 36.8448C70.044 37.9368 70.408 39.3755 73.1813 39.9822C73.1813 39.9822 74.516 40.2248 75.4867 40.4675C76.7 40.7102 77.1853 41.1955 77.1853 41.8022C77.1853 42.4088 76.5787 43.2582 74.88 43.2582C73.3027 43.2582 72.4533 42.5302 72.4533 41.6808L72.2107 41.4382H70.0267L69.9053 41.6808C70.148 43.6222 71.4827 45.4248 74.984 45.4248C78.8493 45.4248 79.5773 42.9982 79.5773 41.8022C79.5947 40.1208 78.624 39.0288 76.1973 38.4222Z" fill="#010202"/>
</svg>
