<svg width="33" height="32" viewBox="0 0 33 32" fill="none" xmlns="http://www.w3.org/2000/svg">
<g id="Group">
<path id="Vector" d="M14.3691 19.0812L19.6066 16.0062L14.3691 12.9312V19.0812Z" fill="url(#paint0_linear_138_940)"/>
<path id="Vector_2" d="M16.5 0C7.6625 0 0.5 7.1625 0.5 16C0.5 24.8375 7.6625 32 16.5 32C25.3375 32 32.5 24.8375 32.5 16C32.5 7.1625 25.3375 0 16.5 0ZM24.5 18.8625C24.5 21.6187 21.7437 21.6187 21.7437 21.6187H11.2563C8.5 21.6187 8.5 18.8625 8.5 18.8625V13.1437C8.5 10.3875 11.2563 10.3875 11.2563 10.3875H21.7437C24.5 10.3875 24.5 13.1437 24.5 13.1437V18.8625Z" fill="url(#paint1_linear_138_940)"/>
</g>
<defs>
<linearGradient id="paint0_linear_138_940" x1="14.3691" y1="12.9312" x2="20.8082" y2="17.3173" gradientUnits="userSpaceOnUse">
<stop stop-color="#FFE57A"/>
<stop offset="0.484431" stop-color="#FFE57A"/>
<stop offset="1" stop-color="#B59100"/>
</linearGradient>
<linearGradient id="paint1_linear_138_940" x1="0.5" y1="0" x2="35.6242" y2="28.0939" gradientUnits="userSpaceOnUse">
<stop stop-color="#FFE57A"/>
<stop offset="0.484431" stop-color="#FFE57A"/>
<stop offset="1" stop-color="#B59100"/>
</linearGradient>
</defs>
</svg>
