<svg width="104" height="66" viewBox="0 0 104 66" fill="none" xmlns="http://www.w3.org/2000/svg">
<path d="M45.0024 34.9275H34.3594C34.527 37.6092 36.4545 39.4528 39.0524 39.4528C40.8961 39.4528 42.4883 38.6986 43.1587 37.4415L44.6672 38.3634C43.6616 40.0394 41.5665 41.1289 38.9686 41.1289C35.365 41.1289 32.5157 38.3634 32.5157 34.676C32.5157 33.838 32.6833 33 33.0185 32.2457C33.3538 31.4915 33.8566 30.8211 34.4432 30.2345C35.0298 29.6479 35.784 29.2288 36.5383 28.8936C37.2925 28.5584 38.1305 28.3908 39.0524 28.4746C42.4883 28.4746 45.0862 30.9887 45.0862 34.257C45.0024 34.4246 45.0024 34.676 45.0024 34.9275ZM43.0749 33.5028C42.9073 31.4077 41.1475 29.8993 38.8848 29.8993C36.6221 29.8993 34.946 31.3239 34.4432 33.5028H43.0749Z" fill="#0F4FE3"/>
<path d="M60.506 34.7599C60.506 38.3634 57.5729 41.1289 53.8856 41.1289C50.1982 41.1289 47.3489 38.3634 47.3489 34.7599C47.3489 31.1563 50.1982 28.3908 53.8856 28.3908C57.5729 28.3908 60.506 31.1563 60.506 34.7599ZM49.1926 34.7599C49.1926 37.3578 51.2039 39.369 53.8856 39.369C54.4722 39.369 55.1426 39.2852 55.7292 39.0338C56.3159 38.7824 56.8187 38.4472 57.2377 38.0282C57.6567 37.6092 57.9919 37.1063 58.2433 36.5197C58.4948 35.9331 58.5786 35.3465 58.5786 34.7599C58.5786 32.162 56.4835 30.1507 53.8856 30.1507C51.2877 30.1507 49.1926 32.162 49.1926 34.7599Z" fill="#0F4FE3"/>
<path d="M62.9363 39.369L63.7744 38.0282C64.78 38.95 66.5399 39.6204 68.0483 39.6204C69.8082 39.6204 70.8976 38.7824 70.8976 37.6092C70.8976 34.4246 63.2715 36.5197 63.2715 31.9943C63.2715 29.8993 65.1152 28.3908 67.9645 28.3908C69.7244 28.3908 71.4843 28.9774 72.4061 29.9831L71.4843 31.3239C70.6462 30.4021 68.9702 29.8993 67.7131 29.8993C66.1209 29.8993 65.1152 30.6535 65.1152 31.8267C65.1152 34.676 72.7413 32.8324 72.7413 37.5254C72.7413 39.6204 70.8138 41.1289 67.9645 41.1289C66.2047 41.1289 64.1934 40.3747 62.9363 39.369Z" fill="#0F4FE3"/>
<path d="M78.9428 24.6197C78.9428 24.9549 78.7752 25.2901 78.5238 25.5415C78.2724 25.7929 77.9371 25.9606 77.5181 25.9606C77.3505 25.9606 77.1829 25.9606 77.0153 25.8768C76.8477 25.793 76.6801 25.7091 76.5963 25.6253C76.4287 25.5415 76.3449 25.3739 76.2611 25.2063C76.1773 25.0387 76.1773 24.8711 76.1773 24.7035C76.1773 24.5359 76.1773 24.3683 76.2611 24.2007C76.3449 24.0331 76.4287 23.8655 76.5963 23.7817C76.7639 23.6979 76.8477 23.5303 77.0153 23.5303C77.1829 23.4465 77.3505 23.4465 77.5181 23.4465C78.3562 23.2789 79.0266 23.8655 78.9428 24.6197ZM78.5238 28.6423V40.8775H76.5963V30.4859H75.2554V28.6423H78.5238Z" fill="#0F4FE3"/>
<path d="M94.7816 34.7599C94.7816 38.3634 91.8485 41.1289 88.1612 41.1289C84.4738 41.1289 81.6245 38.3634 81.6245 34.7599C81.6245 31.1563 84.4738 28.3908 88.1612 28.3908C91.8485 28.3908 94.7816 31.1563 94.7816 34.7599ZM83.4682 34.7599C83.4682 37.3578 85.4795 39.369 88.1612 39.369C88.7478 39.369 89.4182 39.2852 90.0048 39.0338C90.5915 38.7824 91.0943 38.4472 91.5133 38.0282C91.9323 37.6092 92.2675 37.1063 92.5189 36.5197C92.7704 35.9331 92.8542 35.3465 92.8542 34.7599C92.8542 32.162 90.7591 30.1507 88.1612 30.1507C85.5633 30.1507 83.4682 32.162 83.4682 34.7599Z" fill="#0F4FE3"/>
<path d="M23.465 30.7373L25.4762 40.1233L18.772 43.9782L23.465 30.7373ZM12.9895 28.6422L17.9339 22.1894L22.8783 28.6422L17.9339 42.805L12.9895 28.6422ZM10.3078 40.1233L12.4029 30.7373L17.0121 43.9782L10.3078 40.1233ZM24.303 28.3908L17.9339 20.0105L11.5649 28.3908L8.88316 40.7937L17.9339 45.9895L26.9847 40.7937L24.303 28.3908Z" fill="#0F4FE3"/>
</svg>
