<svg width="72" height="50" viewBox="0 0 72 50" fill="none" xmlns="http://www.w3.org/2000/svg">
<g clip-path="url(#clip0_1_2394)">
<path d="M6.50323 45.7129C6.50323 45.8684 6.37034 45.9949 6.2116 45.9949H0.593171C0.733447 47.3543 1.77814 48.5944 3.24734 48.5944C4.25143 48.5944 4.99711 48.2184 5.55821 47.4339C5.63942 47.3254 5.76124 47.2567 5.91629 47.3218C6.00119 47.358 6.06025 47.4339 6.07502 47.5207C6.08978 47.611 6.06394 47.6617 6.0381 47.7123C5.47331 48.6776 4.34741 49.1512 3.24365 49.1512C1.35362 49.1512 0.00622559 47.4953 0.00622559 45.7238C0.00622559 43.9522 1.35362 42.2963 3.24365 42.2963C5.13369 42.2927 6.49954 43.945 6.50323 45.7129ZM5.90152 45.4454C5.7797 44.086 4.71655 42.8458 3.24734 42.8458C1.77814 42.8458 0.733447 44.086 0.593171 45.4454H5.90152ZM13.3214 42.4301C13.4838 42.4301 13.6019 42.5675 13.6019 42.7048C13.6019 42.8639 13.4801 42.9796 13.3214 42.9796H11.8153V48.768C11.8153 48.9054 11.6935 49.0428 11.5347 49.0428C11.3723 49.0428 11.2542 48.9054 11.2542 48.768V42.9796H9.80711C9.64468 42.9796 9.52655 42.8603 9.52655 42.7048C9.52655 42.5675 9.64837 42.4301 9.80711 42.4301H11.2542V40.3114C11.2542 40.1776 11.3465 40.0547 11.4793 40.033C11.6676 40.0041 11.8153 40.1306 11.8153 40.3042V42.4301H13.3214ZM22.5095 45.2284V48.7355C22.5095 48.8945 22.3692 49.0102 22.2289 49.0102C22.0665 49.0102 21.9484 48.8909 21.9484 48.7355V45.2284C21.9484 44.0462 21.2655 42.8639 19.9181 42.8639C18.1905 42.8639 17.4448 44.3427 17.5444 45.8575C17.5444 45.8973 17.5629 46.0745 17.5629 46.0925V48.7246C17.5629 48.8584 17.4706 48.9813 17.3377 49.003C17.1495 49.0319 17.0018 48.9054 17.0018 48.7318V37.2129C17.0018 37.0756 17.1236 36.9382 17.2824 36.9382C17.4448 36.9382 17.5629 37.0756 17.5629 37.2129V43.7316C18.0465 42.8856 18.9103 42.3144 19.9144 42.3144C21.5645 42.3144 22.5095 43.7316 22.5095 45.2284ZM32.5835 45.7129C32.5835 45.8684 32.4506 45.9949 32.2919 45.9949H26.6698C26.8101 47.3543 27.8547 48.5944 29.324 48.5944C30.328 48.5944 31.0737 48.2184 31.6348 47.4339C31.716 47.3254 31.8379 47.2567 31.9929 47.3218C32.0778 47.358 32.1369 47.4339 32.1516 47.5207C32.1664 47.611 32.1406 47.6617 32.1147 47.7123C31.5499 48.6776 30.424 49.1512 29.3203 49.1512C27.4302 49.1512 26.0828 47.4953 26.0828 45.7238C26.0828 43.9522 27.4302 42.2963 29.3203 42.2963C31.214 42.2927 32.5798 43.945 32.5835 45.7129ZM31.9781 45.4454C31.8563 44.086 30.7932 42.8458 29.324 42.8458C27.8547 42.8458 26.8101 44.086 26.6698 45.4454H31.9781ZM39.4792 42.6868C39.4792 42.8639 39.3795 42.9615 39.2171 42.9832C37.567 43.2182 36.825 44.5379 36.825 46.0745V48.7065C36.825 48.8403 36.7328 48.9632 36.5999 48.9849C36.4116 49.0138 36.2639 48.8873 36.2639 48.7138V42.7157C36.2639 42.5819 36.3562 42.459 36.4891 42.4373C36.6774 42.4084 36.825 42.5349 36.825 42.7085V43.9305C37.2865 43.164 38.213 42.4337 39.1765 42.4337C39.3168 42.4301 39.4792 42.5313 39.4792 42.6868ZM48.7079 45.7129C48.7079 45.8684 48.575 45.9949 48.4163 45.9949H42.7979C42.9381 47.3543 43.9828 48.5944 45.452 48.5944C46.4561 48.5944 47.2018 48.2184 47.7629 47.4339C47.8441 47.3254 47.9659 47.2567 48.121 47.3218C48.2059 47.358 48.2649 47.4339 48.2797 47.5207C48.2945 47.611 48.2686 47.6617 48.2428 47.7123C47.678 48.6776 46.5521 49.1512 45.4483 49.1512C43.5583 49.1512 42.2109 47.4953 42.2109 45.7238C42.2109 43.9522 43.5583 42.2963 45.4483 42.2963C47.3384 42.2927 48.7042 43.945 48.7079 45.7129ZM48.1062 45.4454C47.9844 44.086 46.9212 42.8458 45.452 42.8458C43.9828 42.8458 42.9381 44.086 42.7979 45.4454H48.1062ZM57.7779 42.7555V48.768C57.7779 48.9271 57.6376 49.0428 57.4973 49.0428C57.3349 49.0428 57.2168 48.9235 57.2168 48.768V47.6255C56.7553 48.533 55.9285 49.1802 54.8838 49.1802C53.2152 49.1802 52.2887 47.7629 52.2887 46.2661V42.741C52.2887 42.6036 52.4105 42.4662 52.5692 42.4662C52.7316 42.4662 52.8498 42.6036 52.8498 42.741V46.2661C52.8498 47.4483 53.5327 48.6306 54.8801 48.6306C56.7701 48.6306 57.2131 46.8988 57.2131 44.9862V42.741C57.2131 42.5819 57.3755 42.4192 57.5749 42.4771C57.6967 42.5168 57.7779 42.6325 57.7779 42.7555ZM71.9901 45.2068V48.7318C71.9901 48.8909 71.8498 49.0066 71.7095 49.0066C71.5471 49.0066 71.429 48.8873 71.429 48.7318V45.2068C71.429 44.0245 70.7461 42.8639 69.3987 42.8639C67.708 42.8639 67.0657 44.6355 67.0657 46.013V48.7318C67.0657 48.8909 66.9254 49.0066 66.7851 49.0066C66.6227 49.0066 66.5045 48.8873 66.5045 48.7318V45.2068C66.5045 44.0245 65.8216 42.8639 64.4742 42.8639C62.7651 42.8639 62.06 44.1836 62.1228 45.9371C62.1228 45.9768 62.1412 46.0564 62.1228 46.0745V48.7246C62.1228 48.8584 62.0305 48.9813 61.8939 49.003C61.7056 49.0319 61.558 48.9054 61.558 48.7318V42.7157C61.558 42.5819 61.6502 42.459 61.7831 42.4373C61.9714 42.4084 62.1191 42.5349 62.1191 42.7085V43.7136C62.6026 42.8675 63.4665 42.3144 64.4705 42.3144C65.6149 42.3144 66.5009 43.023 66.8626 44.0679C67.3241 43.0447 68.2285 42.3144 69.395 42.3144C71.0451 42.3144 71.9901 43.7099 71.9901 45.2068Z" fill="#3C3C3B"/>
<g opacity="0.6">
<mask id="mask0_1_2394" style="mask-type:luminance" maskUnits="userSpaceOnUse" x="26" y="11" width="20" height="11">
<path d="M26.6107 11.8902H45.3893V21.5074H26.6107V11.8902Z" fill="white"/>
</mask>
<g mask="url(#mask0_1_2394)">
<path d="M36.0018 11.8902L26.6107 16.0733L36.0018 21.5074L45.3893 16.0733L36.0018 11.8902Z" fill="#010101"/>
</g>
</g>
<g opacity="0.45">
<mask id="mask1_1_2394" style="mask-type:luminance" maskUnits="userSpaceOnUse" x="26" y="0" width="11" height="22">
<path d="M26.6107 0.812439H36.0018V21.5074H26.6107V0.812439Z" fill="white"/>
</mask>
<g mask="url(#mask1_1_2394)">
<path d="M26.6107 16.0733L36.0018 21.5074V0.812439L26.6107 16.0733Z" fill="#010101"/>
</g>
</g>
<g opacity="0.8">
<mask id="mask2_1_2394" style="mask-type:luminance" maskUnits="userSpaceOnUse" x="36" y="0" width="10" height="22">
<path d="M36.0018 0.812439H45.393V21.5074H36.0018V0.812439Z" fill="white"/>
</mask>
<g mask="url(#mask2_1_2394)">
<path d="M36.0018 0.812439V21.5074L45.3893 16.0733L36.0018 0.812439Z" fill="#010101"/>
</g>
</g>
<g opacity="0.45">
<mask id="mask3_1_2394" style="mask-type:luminance" maskUnits="userSpaceOnUse" x="26" y="17" width="11" height="14">
<path d="M26.6107 17.816H36.0018V30.7738H26.6107V17.816Z" fill="white"/>
</mask>
<g mask="url(#mask3_1_2394)">
<path d="M26.6107 17.816L36.0018 30.7738V23.25L26.6107 17.816Z" fill="#010101"/>
</g>
</g>
<g opacity="0.8">
<mask id="mask4_1_2394" style="mask-type:luminance" maskUnits="userSpaceOnUse" x="36" y="17" width="10" height="14">
<path d="M36.0018 17.816H45.3967V30.7738H36.0018V17.816Z" fill="white"/>
</mask>
<g mask="url(#mask4_1_2394)">
<path d="M36.0018 23.25V30.7738L45.3967 17.816L36.0018 23.25Z" fill="#010101"/>
</g>
</g>
</g>
<defs>
<clipPath id="clip0_1_2394">
<rect width="72" height="48.375" fill="white" transform="translate(0 0.8125)"/>
</clipPath>
</defs>
</svg>
