<svg width="56" height="53" viewBox="0 0 56 53" fill="none" xmlns="http://www.w3.org/2000/svg">
<path d="M4.71913 33.5323H12.6388C13.5857 35.7851 14.9744 37.8055 16.7151 39.4632C18.4558 41.1208 20.51 42.3788 22.745 43.1561V49.8351L8.6121 49.847C8.48374 49.2889 8.17932 48.7922 7.74782 48.4368C7.31632 48.0813 6.78286 47.8879 6.23331 47.8876C6.11158 47.8876 5.99484 47.9381 5.90877 48.028C5.82269 48.1179 5.77433 48.2398 5.77433 48.3669C5.77433 48.4941 5.82269 48.616 5.90877 48.7059C5.99484 48.7958 6.11158 48.8463 6.23331 48.8463C6.53628 48.8461 6.8325 48.9398 7.08449 49.1154C7.33649 49.2911 7.53294 49.5409 7.649 49.8332C7.76506 50.1255 7.79552 50.4471 7.73652 50.7575C7.67752 51.0679 7.53171 51.353 7.31754 51.5768C7.10337 51.8006 6.83045 51.9531 6.53331 52.0149C6.23618 52.0767 5.92817 52.045 5.64824 51.924C5.36832 51.8029 5.12905 51.5979 4.96071 51.3348C4.79237 51.0717 4.70252 50.7624 4.70252 50.446C4.70252 50.3188 4.65416 50.1969 4.56809 50.107C4.48201 50.0171 4.36527 49.9666 4.24354 49.9666C4.12182 49.9666 4.00508 50.0171 3.919 50.107C3.83293 50.1969 3.78457 50.3188 3.78457 50.446C3.78631 51.0916 4.02183 51.7125 4.44385 52.1843C4.86588 52.656 5.44315 52.9435 6.05974 52.989C6.67633 53.0345 7.28658 52.8348 7.76797 52.4298C8.24936 52.0248 8.56623 51.4446 8.65495 50.8057L23.2049 50.7929C23.3264 50.7927 23.4429 50.7421 23.5288 50.6522C23.6147 50.5623 23.663 50.4406 23.663 50.3136V43.4446C26.4457 44.224 29.3736 44.2419 32.1649 43.4966V50.3136C32.1649 50.4406 32.2131 50.5623 32.299 50.6522C32.3849 50.7421 32.5014 50.7927 32.623 50.7929L47.1729 50.8057C47.2593 51.4356 47.5674 52.0093 48.0371 52.4145C48.5069 52.8197 49.1044 53.0275 49.713 52.9971C50.3215 52.9667 50.8974 52.7004 51.328 52.2502C51.7585 51.7999 52.0129 51.1982 52.0413 50.5626C52.0697 49.927 51.8701 49.3031 51.4815 48.813C51.093 48.3229 50.5434 48.0017 49.9402 47.9122C49.337 47.8228 48.7235 47.9715 48.2197 48.3293C47.7158 48.6871 47.3579 49.2282 47.2158 49.847L33.0828 49.8351V43.2191C35.3565 42.4576 37.4492 41.2003 39.2224 39.5303C40.9956 37.8603 42.4088 35.8158 43.3682 33.5323H51.2801C51.3941 34.139 51.7203 34.6795 52.1951 35.0487C52.6698 35.4179 53.2592 35.5892 53.8483 35.5294C54.4374 35.4696 54.9841 35.1828 55.3819 34.725C55.7797 34.2672 56 33.6712 56 33.053C56 32.4348 55.7797 31.8387 55.3819 31.3809C54.9841 30.9231 54.4374 30.6364 53.8483 30.5766C53.2592 30.5167 52.6698 30.6881 52.1951 31.0573C51.7203 31.4265 51.3941 31.967 51.2801 32.5736H43.7415C44.8718 29.3646 45.076 25.8799 44.329 22.5509H49.0499C49.1629 23.0773 49.4578 23.5416 49.8781 23.855C50.2985 24.1685 50.8148 24.309 51.3281 24.2496C51.8415 24.1902 52.3158 23.9352 52.6604 23.5333C53.0049 23.1314 53.1954 22.611 53.1954 22.0715C53.1954 21.5321 53.0049 21.0116 52.6604 20.6098C52.3158 20.2079 51.8415 19.9529 51.3281 19.8935C50.8148 19.8341 50.2985 19.9746 49.8781 20.288C49.4578 20.6015 49.1629 21.0658 49.0499 21.5922H44.0877C43.3087 18.8455 41.8988 16.3392 39.9809 14.2913C38.0629 12.2435 35.6949 10.716 33.0828 9.84194V3.16834L41.7544 3.15647C41.8948 3.76481 42.244 4.29824 42.7358 4.65569C43.2276 5.01314 43.8279 5.16979 44.4228 5.09597C45.0178 5.02215 45.5662 4.72298 45.9641 4.25514C46.3621 3.7873 46.5819 3.18328 46.5819 2.5575C46.5819 2.43037 46.5336 2.30844 46.4475 2.21854C46.3614 2.12864 46.2447 2.07814 46.123 2.07814C46.0012 2.07814 45.8845 2.12864 45.7984 2.21854C45.7123 2.30844 45.664 2.43037 45.664 2.5575C45.6642 2.87397 45.5745 3.18338 45.4062 3.44658C45.238 3.70979 44.9988 3.91497 44.7189 4.03616C44.439 4.15735 44.1309 4.18911 43.8337 4.12741C43.5365 4.06572 43.2635 3.91334 43.0493 3.68956C42.835 3.46579 42.6891 3.18067 42.63 2.87027C42.571 2.55988 42.6014 2.23816 42.7174 1.94581C42.8335 1.65347 43.0299 1.40364 43.2819 1.22794C43.5339 1.05223 43.8302 0.95854 44.1332 0.958721C44.2549 0.958721 44.3717 0.908217 44.4577 0.818319C44.5438 0.728422 44.5922 0.606495 44.5922 0.479361C44.5922 0.352227 44.5438 0.2303 44.4577 0.140403C44.3717 0.0505054 44.2549 1.61333e-06 44.1332 1.61333e-06C43.5435 -0.000689965 42.9734 0.220981 42.5276 0.624257C42.0819 1.02753 41.7906 1.5853 41.7072 2.19501L32.6151 2.2078C32.5549 2.2078 32.4953 2.2202 32.4396 2.2443C32.384 2.2684 32.3335 2.30373 32.2909 2.34825C32.2484 2.39278 32.2146 2.44563 32.1917 2.50378C32.1687 2.56193 32.1569 2.62425 32.157 2.68716V9.56163C29.3658 8.81637 26.4378 8.83429 23.6551 9.61367V2.6899C23.6552 2.62699 23.6434 2.56467 23.6205 2.50652C23.5975 2.44837 23.5638 2.39551 23.5212 2.35099C23.4787 2.30646 23.4281 2.27114 23.3725 2.24704C23.3169 2.22294 23.2572 2.21054 23.197 2.21054L14.1049 2.19775C14.0192 1.56777 13.7115 0.99383 13.2422 0.588122C12.7728 0.182414 12.1754 -0.0259014 11.5669 0.00388872C10.9583 0.0336788 10.3822 0.299434 9.9512 0.749213C9.52023 1.19899 9.26534 1.80046 9.23636 2.43606C9.20738 3.07166 9.40639 3.69571 9.7945 4.18622C10.1826 4.67674 10.7319 4.99847 11.335 5.08852C11.9381 5.17857 12.5518 5.03048 13.0559 4.67319C13.5601 4.3159 13.9185 3.77509 14.0612 3.15647L22.7328 3.16834V9.90494C20.1607 10.7988 17.8334 12.3282 15.9486 14.363C14.0638 16.3977 12.6774 18.8778 11.9071 21.5922H6.9397C6.82671 21.0658 6.53181 20.6015 6.11144 20.288C5.69108 19.9746 5.17481 19.8341 4.66145 19.8935C4.1481 19.9529 3.67375 20.2079 3.32921 20.6098C2.98468 21.0116 2.79417 21.5321 2.79417 22.0715C2.79417 22.611 2.98468 23.1314 3.32921 23.5333C3.67375 23.9352 4.1481 24.1902 4.66145 24.2496C5.17481 24.309 5.69108 24.1685 6.11144 23.855C6.53181 23.5416 6.82671 23.0773 6.9397 22.5509H11.6772C10.929 25.8798 11.1332 29.3649 12.2647 32.5736H4.72175C4.60771 31.9668 4.28145 31.426 3.80651 31.0566C3.33158 30.6873 2.74199 30.5158 2.15263 30.5756C1.56327 30.6355 1.01635 30.9223 0.61841 31.3803C0.220474 31.8383 3.05176e-05 32.4345 3.05176e-05 33.053C3.05176e-05 33.6714 0.220474 34.2677 0.61841 34.7257C1.01635 35.1836 1.56327 35.4705 2.15263 35.5303C2.74199 35.5902 3.33158 35.4187 3.80651 35.0493C4.28145 34.68 4.60771 34.1392 4.72175 33.5323H4.71913ZM51.1218 50.446C51.1217 50.7621 51.0317 51.0712 50.8634 51.334C50.6951 51.5967 50.456 51.8015 50.1763 51.9224C49.8965 52.0433 49.5888 52.0748 49.2919 52.013C48.995 51.9512 48.7223 51.7989 48.5083 51.5752C48.2943 51.3516 48.1486 51.0667 48.0896 50.7566C48.0306 50.4465 48.061 50.1251 48.1769 49.833C48.2928 49.5409 48.489 49.2913 48.7407 49.1157C48.9924 48.94 49.2883 48.8463 49.5911 48.8463C49.9971 48.8468 50.3863 49.0155 50.6733 49.3154C50.9603 49.6153 51.1216 50.0219 51.1218 50.446ZM10.1604 2.56024C10.1604 2.24381 10.2502 1.93449 10.4186 1.6714C10.5869 1.40832 10.8262 1.20328 11.1061 1.08223C11.386 0.96118 11.694 0.929554 11.9912 0.991353C12.2883 1.05315 12.5612 1.2056 12.7754 1.42941C12.9896 1.65322 13.1354 1.93835 13.1944 2.24872C13.2534 2.55909 13.2229 2.88076 13.1069 3.17305C12.9908 3.46534 12.7943 3.71511 12.5424 3.89078C12.2904 4.06644 11.9941 4.16011 11.6912 4.15993C11.2852 4.1592 10.8961 3.99041 10.6092 3.69054C10.3222 3.39067 10.1608 2.9842 10.1604 2.56024ZM2.37968 31.5263C2.66958 31.5258 2.95312 31.6151 3.19442 31.7829C3.43572 31.9507 3.62393 32.1895 3.73523 32.4691C3.84654 32.7487 3.87592 33.0565 3.81968 33.3535C3.76344 33.6505 3.6241 33.9235 3.41929 34.1377C3.21448 34.352 2.95341 34.4981 2.66912 34.5573C2.38482 34.6166 2.09008 34.5864 1.82219 34.4707C1.55431 34.355 1.32532 34.1588 1.1642 33.9071C1.00308 33.6554 0.917082 33.3594 0.917082 33.0566C0.91685 32.6506 1.07093 32.2611 1.3455 31.9736C1.62007 31.6862 1.99267 31.5243 2.38143 31.5236L2.37968 31.5263ZM27.9948 9.97798C36.7372 9.97798 43.8438 17.4039 43.8438 26.5319C43.8438 35.6598 36.7345 43.0848 27.9948 43.0848C19.2551 43.0848 12.1449 35.6589 12.1449 26.5319C12.1449 17.4049 19.2603 9.97707 28 9.97707L27.9948 9.97798ZM53.6099 31.5263C53.8999 31.5254 54.1836 31.6144 54.4251 31.782C54.6667 31.9496 54.8551 32.1883 54.9667 32.4678C55.0783 32.7474 55.1079 33.0552 55.0519 33.3524C54.9958 33.6495 54.8566 33.9226 54.6519 34.1371C54.4472 34.3516 54.1861 34.4978 53.9017 34.5572C53.6174 34.6166 53.3226 34.5866 53.0546 34.4709C52.7866 34.3552 52.5575 34.159 52.3963 33.9073C52.2351 33.6555 52.1491 33.3595 52.1491 33.0566C52.1488 32.8555 52.1866 32.6562 52.2601 32.4703C52.3336 32.2844 52.4415 32.1154 52.5775 31.973C52.7136 31.8307 52.8752 31.7177 53.0531 31.6406C53.231 31.5635 53.4217 31.5237 53.6143 31.5236L53.6099 31.5263ZM51.0842 20.8435C51.317 20.8435 51.5446 20.9156 51.7381 21.0506C51.9316 21.1857 52.0824 21.3777 52.1715 21.6024C52.2605 21.827 52.2838 22.0741 52.2383 22.3126C52.1928 22.551 52.0807 22.77 51.916 22.9418C51.7514 23.1136 51.5416 23.2306 51.3133 23.2779C51.085 23.3253 50.8483 23.3008 50.6333 23.2076C50.4183 23.1145 50.2346 22.9568 50.1054 22.7546C49.9762 22.5524 49.9074 22.3146 49.9075 22.0715C49.9076 21.9098 49.9383 21.7498 49.9978 21.6005C50.0572 21.4511 50.1443 21.3156 50.254 21.2015C50.3638 21.0874 50.4939 20.9971 50.6372 20.9356C50.7804 20.8742 50.9338 20.8429 51.0886 20.8435H51.0842ZM4.90272 23.3005C4.6701 23.3 4.44285 23.2274 4.24968 23.0921C4.05651 22.9567 3.9061 22.7646 3.81744 22.54C3.72878 22.3153 3.70585 22.0683 3.75155 21.8301C3.79725 21.5919 3.90953 21.3732 4.0742 21.2016C4.23887 21.0299 4.44855 20.9132 4.67673 20.866C4.90492 20.8188 5.1414 20.8433 5.35626 20.9364C5.57113 21.0295 5.75475 21.187 5.88393 21.389C6.01312 21.5911 6.08206 21.8286 6.08207 22.0715C6.0816 22.397 5.95772 22.7091 5.73751 22.9394C5.51731 23.1697 5.21874 23.2996 4.9071 23.3005H4.90272Z" fill="#333333"/>
<path d="M24.441 7.01968C24.4703 7.01981 24.4996 7.01706 24.5284 7.01146C26.7603 6.58471 29.0469 6.57265 31.2828 6.97585C31.3423 6.98629 31.4031 6.98438 31.4619 6.97025C31.5206 6.95612 31.5762 6.93004 31.6253 6.8935C31.6744 6.85695 31.7161 6.81066 31.7481 6.75727C31.7801 6.70388 31.8017 6.64443 31.8117 6.58232C31.8217 6.52021 31.8199 6.45665 31.8063 6.39528C31.7928 6.3339 31.7678 6.27591 31.7328 6.22462C31.6978 6.17332 31.6535 6.12973 31.6024 6.09632C31.5513 6.06291 31.4944 6.04035 31.4349 6.02992C29.0907 5.60765 26.6935 5.62063 24.3536 6.06827C24.2409 6.09033 24.1402 6.15561 24.0714 6.25129C24.0025 6.34696 23.9703 6.46609 23.9813 6.58526C23.9923 6.70442 24.0455 6.81499 24.1306 6.89521C24.2157 6.97544 24.3264 7.01951 24.441 7.01877V7.01968Z" fill="#333333"/>
<path d="M9.45049 20.3331C9.49882 20.3507 9.54966 20.3597 9.60085 20.3596C9.69683 20.3603 9.79063 20.3296 9.86904 20.2718C9.94745 20.214 10.0065 20.132 10.038 20.0372C10.149 19.7022 10.2696 19.3725 10.3973 19.0457C12.3287 14.1506 16.0346 10.2516 20.7072 8.19844C21.0193 8.0624 21.3349 7.93365 21.6539 7.81495C21.7687 7.77258 21.8627 7.68432 21.9151 7.56959C21.9676 7.45486 21.9743 7.32307 21.9337 7.2032C21.8931 7.08333 21.8086 6.98521 21.6988 6.93041C21.5889 6.87562 21.4627 6.86864 21.348 6.91102C15.6864 9.01107 11.1343 13.7964 9.17073 19.7232C9.13068 19.8428 9.13764 19.9741 9.19006 20.0884C9.24249 20.2027 9.33613 20.2907 9.45049 20.3331Z" fill="#333333"/>
<path d="M8.74405 23.5014C8.62333 23.4862 8.50174 23.5214 8.40578 23.5994C8.30981 23.6774 8.24725 23.7918 8.23175 23.9178C7.93273 26.4145 8.06539 28.9471 8.62341 31.3949C8.64804 31.4991 8.70545 31.5918 8.78643 31.658C8.86741 31.7242 8.96731 31.7602 9.07015 31.7601C9.10604 31.7598 9.1418 31.7556 9.17681 31.7473C9.29521 31.7176 9.3975 31.6401 9.46125 31.5318C9.52501 31.4234 9.54502 31.2931 9.51688 31.1693C8.98384 28.8337 8.8571 26.4171 9.14271 24.0346C9.15706 23.9088 9.1232 23.7822 9.04853 23.6823C8.97386 23.5824 8.86442 23.5174 8.74405 23.5014Z" fill="#333333"/>
<path d="M20.8872 45.9738C20.9394 45.9945 20.9948 46.0053 21.0507 46.0057C21.1582 46.0062 21.2625 45.9672 21.3454 45.8955C21.4282 45.8239 21.4843 45.7241 21.5039 45.6136C21.5234 45.5031 21.5052 45.389 21.4524 45.2911C21.3997 45.1932 21.3156 45.1178 21.215 45.0781C20.826 44.9228 20.4448 44.7485 20.0672 44.5668C16.3598 42.7681 13.2976 39.7826 11.3248 36.0433C11.1246 35.6616 10.9323 35.2763 10.7565 34.881C10.7053 34.7656 10.6123 34.6762 10.4979 34.6324C10.3836 34.5887 10.2572 34.5941 10.1468 34.6477C10.0363 34.7012 9.95068 34.7983 9.90879 34.9178C9.8669 35.0372 9.87215 35.1691 9.92339 35.2845C12.1221 40.1904 16.05 44.0199 20.8872 45.9738Z" fill="#333333"/>
<path d="M34.5708 6.91099C34.456 6.86849 34.3298 6.87535 34.2198 6.93006C34.1099 6.98477 34.0253 7.08284 33.9846 7.20271C33.9439 7.32258 33.9505 7.45442 34.0028 7.56924C34.0552 7.68405 34.1491 7.77242 34.2639 7.81492C34.5839 7.93362 34.8995 8.06237 35.2116 8.19841C39.8843 10.2512 43.5903 14.1504 45.5214 19.0456C45.6491 19.3725 45.7697 19.7021 45.8807 20.0372C45.9121 20.132 45.9711 20.2141 46.0496 20.272C46.128 20.3298 46.2219 20.3604 46.3179 20.3595C46.3691 20.3596 46.4199 20.3507 46.4682 20.3331C46.5832 20.2914 46.6777 20.2037 46.7308 20.0894C46.7839 19.975 46.7914 19.8432 46.7515 19.7231C44.7845 13.7964 40.2323 9.00647 34.5708 6.91099Z" fill="#333333"/>
<path d="M46.7384 31.75C46.7734 31.7583 46.8092 31.7626 46.8451 31.7628C46.9479 31.7629 47.0478 31.7269 47.1288 31.6607C47.2098 31.5945 47.2672 31.5019 47.2918 31.3976C47.8498 28.9498 47.9825 26.4173 47.6835 23.9205C47.6759 23.858 47.6567 23.7977 47.6269 23.743C47.597 23.6883 47.5572 23.6403 47.5096 23.6016C47.462 23.563 47.4075 23.5346 47.3494 23.5179C47.2913 23.5013 47.2305 23.4967 47.1707 23.5046C47.1109 23.5125 47.0532 23.5325 47.0008 23.5637C46.9484 23.5949 46.9024 23.6365 46.8654 23.6862C46.8284 23.7359 46.8012 23.7928 46.7853 23.8535C46.7693 23.9142 46.765 23.9776 46.7725 24.0401C47.0581 26.4225 46.9314 28.8392 46.3983 31.1748C46.371 31.2981 46.3914 31.4278 46.455 31.5355C46.5187 31.6432 46.6206 31.7203 46.7384 31.75Z" fill="#333333"/>
<path d="M45.1604 34.8828C44.9855 35.2782 44.7923 35.6635 44.5921 36.0451C42.6193 39.7844 39.5571 42.77 35.8498 44.5686C35.4721 44.7512 35.0909 44.9247 34.7019 45.0799C34.6013 45.1197 34.5173 45.1951 34.4645 45.293C34.4117 45.3909 34.3935 45.505 34.4131 45.6155C34.4326 45.7259 34.4887 45.8257 34.5716 45.8974C34.6544 45.969 34.7587 46.0081 34.8662 46.0076C34.9221 46.0072 34.9775 45.9963 35.0297 45.9756C39.8678 44.0215 43.7963 40.1913 45.9953 35.2846C46.0463 35.1689 46.0512 35.0369 46.009 34.9174C45.9668 34.798 45.8809 34.701 45.7702 34.6477C45.6594 34.5944 45.533 34.5893 45.4186 34.6333C45.3043 34.6774 45.2114 34.7672 45.1604 34.8828Z" fill="#333333"/>
<path d="M30.8474 46.1591C28.8979 46.4622 26.9155 46.4521 24.969 46.129C24.9095 46.119 24.8486 46.1214 24.79 46.136C24.7314 46.1506 24.676 46.1771 24.6272 46.214C24.5784 46.251 24.537 46.2976 24.5054 46.3512C24.4738 46.4048 24.4527 46.4644 24.4431 46.5266C24.4336 46.5888 24.4359 46.6523 24.4499 46.7135C24.4639 46.7748 24.4893 46.8326 24.5246 46.8835C24.56 46.9345 24.6046 46.9778 24.6559 47.0108C24.7073 47.0437 24.7644 47.0658 24.8239 47.0758C26.8635 47.4157 28.9411 47.4261 30.9837 47.1068C31.0445 47.099 31.1032 47.0784 31.1563 47.0465C31.2094 47.0146 31.2558 46.9718 31.2928 46.9209C31.3298 46.8699 31.3567 46.8117 31.3719 46.7497C31.387 46.6877 31.3901 46.6232 31.381 46.5599C31.3719 46.4966 31.3508 46.4359 31.3189 46.3813C31.2869 46.3267 31.2449 46.2793 31.1951 46.242C31.1454 46.2046 31.089 46.178 31.0293 46.1638C30.9695 46.1496 30.9077 46.148 30.8474 46.1591Z" fill="#333333"/>
<path d="M5.16144 21.6725C5.13578 21.656 5.10923 21.6411 5.08189 21.6278C5.05323 21.6176 5.02404 21.6091 4.99447 21.6022C4.93678 21.5899 4.87731 21.5899 4.81962 21.6022C4.79008 21.6092 4.7609 21.6177 4.7322 21.6278C4.70581 21.6413 4.68012 21.6562 4.65526 21.6725C4.63029 21.6904 4.60688 21.7106 4.58532 21.7328C4.56406 21.7557 4.54475 21.7804 4.52762 21.8068C4.51074 21.8329 4.49639 21.8607 4.48478 21.8899C4.47459 21.9197 4.46641 21.9502 4.4603 21.9812C4.45401 22.0112 4.45079 22.0418 4.45068 22.0725C4.45073 22.1032 4.45395 22.1338 4.4603 22.1638C4.46628 22.1948 4.47447 22.2253 4.48478 22.2551C4.49695 22.2839 4.51127 22.3117 4.52762 22.3382C4.5454 22.364 4.56467 22.3887 4.58532 22.4121C4.62787 22.4567 4.67842 22.4921 4.73407 22.5162C4.78973 22.5403 4.8494 22.5527 4.90966 22.5527C4.93905 22.5524 4.96833 22.5491 4.99708 22.5427C5.02715 22.5367 5.05647 22.5272 5.0845 22.5144C5.11228 22.5032 5.13893 22.4891 5.16406 22.4724C5.21467 22.4366 5.25828 22.391 5.29257 22.3382C5.3088 22.3122 5.32201 22.2843 5.33192 22.2551C5.34462 22.2259 5.35401 22.1953 5.35989 22.1638C5.36593 22.1338 5.36886 22.1031 5.36863 22.0725C5.36837 21.9451 5.32 21.8231 5.23401 21.7328C5.21123 21.7109 5.18698 21.6908 5.16144 21.6725Z" fill="#333333"/>
<path d="M53.6134 33.5323C53.7048 33.5329 53.7943 33.505 53.8705 33.4522C53.9467 33.3993 54.006 33.3239 54.0408 33.2356C54.0757 33.1473 54.0845 33.0502 54.0661 32.9566C54.0477 32.8631 54.003 32.7774 53.9377 32.7105C53.8498 32.6244 53.7339 32.5764 53.6134 32.5764C53.4928 32.5764 53.3769 32.6244 53.289 32.7105C53.2463 32.755 53.2125 32.8078 53.1894 32.8659C53.1663 32.924 53.1544 32.9863 53.1544 33.0493C53.1544 33.1122 53.1663 33.1745 53.1894 33.2326C53.2125 33.2908 53.2463 33.3436 53.289 33.388C53.3747 33.4789 53.4913 33.5307 53.6134 33.5323Z" fill="#333333"/>
<path d="M49.3349 50.845C49.3607 50.8617 49.3876 50.8766 49.4153 50.8897C49.4424 50.8988 49.473 50.9089 49.5027 50.9153C49.5315 50.9211 49.5608 50.9242 49.5901 50.9244C49.6195 50.9242 49.6488 50.9212 49.6776 50.9153C49.7055 50.9089 49.7361 50.8988 49.765 50.8897C49.7923 50.8764 49.8189 50.8615 49.8445 50.845C49.8695 50.8264 49.8932 50.8059 49.9153 50.7838C49.958 50.7393 49.9919 50.6865 50.015 50.6284C50.0381 50.5703 50.0499 50.508 50.0499 50.445C50.0499 50.3821 50.0381 50.3198 50.015 50.2617C49.9919 50.2035 49.958 50.1507 49.9153 50.1063C49.8929 50.0847 49.8693 50.0646 49.8445 50.046C49.8196 50.029 49.7929 50.0149 49.765 50.004C49.7369 49.9915 49.7076 49.982 49.6776 49.9757C49.5894 49.9567 49.4978 49.9666 49.4153 50.004C49.387 50.0147 49.36 50.0288 49.3349 50.046C49.3106 50.0648 49.2872 50.085 49.2649 50.1063C49.1808 50.1972 49.1339 50.3186 49.1339 50.445C49.1339 50.5714 49.1808 50.6929 49.2649 50.7838C49.287 50.8057 49.3103 50.8261 49.3349 50.845Z" fill="#333333"/>
<path d="M21.5647 19.1177H24.024V33.3305H21.5647C21.443 33.3305 21.3263 33.381 21.2402 33.4709C21.1541 33.5608 21.1058 33.6827 21.1058 33.8099C21.1058 33.937 21.1541 34.0589 21.2402 34.1488C21.3263 34.2387 21.443 34.2892 21.5647 34.2892H24.024V36.9463C24.024 37.0734 24.0723 37.1953 24.1584 37.2852C24.2445 37.3751 24.3612 37.4256 24.4829 37.4256C24.6047 37.4256 24.7214 37.3751 24.8075 37.2852C24.8936 37.1953 24.9419 37.0734 24.9419 36.9463V34.2892H28.236V36.9463C28.236 37.0734 28.2844 37.1953 28.3705 37.2852C28.4565 37.3751 28.5733 37.4256 28.695 37.4256C28.8168 37.4256 28.9335 37.3751 29.0196 37.2852C29.1056 37.1953 29.154 37.0734 29.154 36.9463V34.2892H31.3475C32.406 34.288 33.4209 33.8483 34.1694 33.0665C34.9179 32.2848 35.3389 31.2248 35.3401 30.1193V29.7814C35.3387 28.8153 35.0165 27.8796 34.4284 27.1338C33.8402 26.388 33.0227 25.8784 32.115 25.6918C32.596 25.3035 32.9855 24.8054 33.2539 24.2357C33.5222 23.666 33.6623 23.0397 33.6633 22.4048V22.3299C33.6621 21.2243 33.2411 20.1644 32.4926 19.3826C31.7441 18.6009 30.7292 18.1611 29.6707 18.1599H29.1505V15.0007C29.1505 14.8736 29.1021 14.7517 29.0161 14.6618C28.93 14.5719 28.8132 14.5214 28.6915 14.5214C28.5698 14.5214 28.4531 14.5719 28.367 14.6618C28.2809 14.7517 28.2325 14.8736 28.2325 15.0007V18.159H24.9384V15.0007C24.9384 14.8736 24.8901 14.7517 24.804 14.6618C24.7179 14.5719 24.6012 14.5214 24.4794 14.5214C24.3577 14.5214 24.241 14.5719 24.1549 14.6618C24.0688 14.7517 24.0205 14.8736 24.0205 15.0007V18.159H21.5647C21.443 18.159 21.3263 18.2095 21.2402 18.2994C21.1541 18.3893 21.1058 18.5112 21.1058 18.6384C21.1058 18.7655 21.1541 18.8874 21.2402 18.9773C21.3263 19.0672 21.443 19.1177 21.5647 19.1177ZM31.3475 26.5738C32.1625 26.5748 32.9439 26.9133 33.5203 27.5151C34.0966 28.1169 34.421 28.9329 34.4221 29.7842V30.122C34.4205 30.9729 34.096 31.7884 33.5196 32.3899C32.9433 32.9913 32.1622 33.3296 31.3475 33.3305H24.9384V26.5738H31.3475ZM29.6707 19.1186C30.4858 19.1194 31.2675 19.4578 31.844 20.0596C32.4206 20.6615 32.7451 21.4776 32.7462 22.329V22.4039C32.7453 23.2552 32.421 24.0713 31.8446 24.6732C31.2682 25.275 30.4866 25.6135 29.6715 25.6142H24.9393V19.1177L29.6707 19.1186Z" fill="#333333"/>
</svg>
