<svg width="49" height="48" viewBox="0 0 49 48" fill="none" xmlns="http://www.w3.org/2000/svg">
<path d="M13.2222 17.6531L5.60596 24L13.2222 30.3469C13.3779 30.4715 13.5072 30.626 13.6025 30.8012C13.6978 30.9764 13.7572 31.1689 13.7772 31.3673C13.7972 31.5658 13.7775 31.7662 13.7191 31.957C13.6607 32.1477 13.5649 32.3248 13.4372 32.4781C13.3095 32.6313 13.1526 32.7576 12.9755 32.8494C12.7985 32.9412 12.6049 32.9969 12.4061 33.013C12.2073 33.0291 12.0072 33.0054 11.8177 32.9433C11.6282 32.8812 11.4529 32.7819 11.3022 32.6513L2.30221 25.1513C2.13334 25.0105 1.99747 24.8343 1.90423 24.6352C1.81099 24.4361 1.76266 24.2189 1.76266 23.9991C1.76266 23.7792 1.81099 23.562 1.90423 23.3629C1.99747 23.1638 2.13334 22.9877 2.30221 22.8469L11.3022 15.3469C11.608 15.0923 12.0025 14.9696 12.3988 15.0058C12.7951 15.042 13.1607 15.2342 13.4153 15.54C13.6699 15.8458 13.7926 16.2403 13.7564 16.6366C13.7202 17.0328 13.528 17.3985 13.2222 17.6531ZM46.2222 22.8469L37.2222 15.3469C37.0708 15.2208 36.896 15.1258 36.7079 15.0673C36.5197 15.0088 36.3219 14.9879 36.1257 15.0058C35.9294 15.0237 35.7387 15.0801 35.5642 15.1718C35.3898 15.2635 35.2352 15.3886 35.1091 15.54C34.8545 15.8458 34.7318 16.2403 34.768 16.6366C34.8042 17.0328 34.9964 17.3985 35.3022 17.6531L42.9185 24L35.3022 30.3469C35.1465 30.4715 35.0172 30.626 34.9219 30.8012C34.8266 30.9764 34.7672 31.1689 34.7472 31.3673C34.7272 31.5658 34.7469 31.7662 34.8053 31.957C34.8637 32.1477 34.9595 32.3248 35.0872 32.4781C35.2149 32.6313 35.3719 32.7576 35.5489 32.8494C35.726 32.9412 35.9195 32.9969 36.1184 33.013C36.3172 33.0291 36.5172 33.0054 36.7067 32.9433C36.8963 32.8812 37.0715 32.7819 37.2222 32.6513L46.2222 25.1513C46.3911 25.0105 46.527 24.8343 46.6202 24.6352C46.7134 24.4361 46.7618 24.2189 46.7618 23.9991C46.7618 23.7792 46.7134 23.562 46.6202 23.3629C46.527 23.1638 46.3911 22.9877 46.2222 22.8469ZM30.7741 6.08999C30.5889 6.02276 30.3923 5.99267 30.1955 6.00142C29.9987 6.01017 29.8056 6.0576 29.6271 6.141C29.4487 6.2244 29.2884 6.34214 29.1554 6.48749C29.0225 6.63283 28.9194 6.80295 28.8522 6.98811L16.8522 39.9882C16.7847 40.1734 16.7544 40.3702 16.763 40.5672C16.7716 40.7642 16.819 40.9576 16.9024 41.1363C16.9858 41.3149 17.1036 41.4754 17.2491 41.6085C17.3946 41.7416 17.565 41.8447 17.7503 41.9119C17.9147 41.9703 18.0878 42.0001 18.2622 42C18.5703 42 18.8708 41.9052 19.1231 41.7284C19.3754 41.5516 19.5671 41.3015 19.6722 41.0119L31.6722 8.01187C31.7394 7.8267 31.7695 7.63011 31.7608 7.43332C31.752 7.23652 31.7046 7.04338 31.6212 6.86491C31.5378 6.68645 31.4201 6.52616 31.2747 6.3932C31.1294 6.26024 30.9593 6.1572 30.7741 6.08999Z" fill="#353E49"/>
</svg>
