<svg width="49" height="48" viewBox="0 0 49 48" fill="none" xmlns="http://www.w3.org/2000/svg">
<path d="M11.2009 19.0612L5.20095 13.0612C5.06148 12.9219 4.95084 12.7565 4.87536 12.5744C4.79987 12.3923 4.76102 12.1971 4.76102 12C4.76102 11.8029 4.79987 11.6077 4.87536 11.4256C4.95084 11.2435 5.06148 11.078 5.20095 10.9387L11.2009 4.93873C11.4824 4.65727 11.8642 4.49915 12.2622 4.49915C12.6602 4.49915 13.042 4.65727 13.3234 4.93873C13.6049 5.22019 13.763 5.60193 13.763 5.99998C13.763 6.39803 13.6049 6.77977 13.3234 7.06123L8.38282 12L13.3234 16.9387C13.6049 17.2202 13.763 17.6019 13.763 18C13.763 18.398 13.6049 18.7798 13.3234 19.0612C13.042 19.3427 12.6602 19.5008 12.2622 19.5008C11.8642 19.5008 11.4824 19.3427 11.2009 19.0612ZM18.7009 19.0612C18.8403 19.2007 19.0057 19.3113 19.1878 19.3868C19.3699 19.4623 19.5651 19.5012 19.7622 19.5012C19.9593 19.5012 20.1545 19.4623 20.3366 19.3868C20.5187 19.3113 20.6841 19.2007 20.8234 19.0612L26.8234 13.0612C26.9629 12.9219 27.0735 12.7565 27.149 12.5744C27.2245 12.3923 27.2634 12.1971 27.2634 12C27.2634 11.8029 27.2245 11.6077 27.149 11.4256C27.0735 11.2435 26.9629 11.078 26.8234 10.9387L20.8234 4.93873C20.542 4.65727 20.1602 4.49915 19.7622 4.49915C19.3642 4.49915 18.9824 4.65727 18.7009 4.93873C18.4195 5.22019 18.2614 5.60193 18.2614 5.99998C18.2614 6.39803 18.4195 6.77977 18.7009 7.06123L23.6416 12L18.7009 16.9387C18.5615 17.0781 18.4508 17.2435 18.3754 17.4256C18.2999 17.6077 18.261 17.8029 18.261 18C18.261 18.1971 18.2999 18.3923 18.3754 18.5744C18.4508 18.7565 18.5615 18.9219 18.7009 19.0612ZM37.7622 7.49998H33.2622C32.8644 7.49998 32.4828 7.65802 32.2015 7.93932C31.9202 8.22063 31.7622 8.60216 31.7622 8.99998C31.7622 9.39781 31.9202 9.77934 32.2015 10.0606C32.4828 10.342 32.8644 10.5 33.2622 10.5H37.7622V37.5H10.7622V25.5C10.7622 25.1022 10.6042 24.7206 10.3229 24.4393C10.0416 24.158 9.66002 24 9.2622 24C8.86437 24 8.48284 24.158 8.20154 24.4393C7.92023 24.7206 7.7622 25.1022 7.7622 25.5V37.5C7.7622 38.2957 8.07827 39.0587 8.64088 39.6213C9.20349 40.1839 9.96655 40.5 10.7622 40.5H37.7622C38.5578 40.5 39.3209 40.1839 39.8835 39.6213C40.4461 39.0587 40.7622 38.2957 40.7622 37.5V10.5C40.7622 9.70434 40.4461 8.94127 39.8835 8.37866C39.3209 7.81605 38.5578 7.49998 37.7622 7.49998Z" fill="#353E49"/>
</svg>
