<svg width="49" height="48" viewBox="0 0 49 48" fill="none" xmlns="http://www.w3.org/2000/svg">
<path d="M31.7622 21H40.7622C41.5579 21 42.3209 20.6839 42.8835 20.1213C43.4461 19.5587 43.7622 18.7957 43.7622 18V9C43.7622 8.20435 43.4461 7.44129 42.8835 6.87868C42.3209 6.31607 41.5579 6 40.7622 6H31.7622C30.9666 6 30.2035 6.31607 29.6409 6.87868C29.0783 7.44129 28.7622 8.20435 28.7622 9V12H27.2622C25.6709 12 24.1448 12.6321 23.0196 13.7574C21.8943 14.8826 21.2622 16.4087 21.2622 18V22.5H15.2622V21C15.2622 20.2044 14.9461 19.4413 14.3835 18.8787C13.8209 18.3161 13.0579 18 12.2622 18H6.26221C5.46656 18 4.7035 18.3161 4.14089 18.8787C3.57828 19.4413 3.26221 20.2044 3.26221 21V27C3.26221 27.7957 3.57828 28.5587 4.14089 29.1213C4.7035 29.684 5.46656 30 6.26221 30H12.2622C13.0579 30 13.8209 29.684 14.3835 29.1213C14.9461 28.5587 15.2622 27.7957 15.2622 27V25.5H21.2622V30C21.2622 31.5913 21.8943 33.1174 23.0196 34.2427C24.1448 35.3679 25.6709 36 27.2622 36H28.7622V39C28.7622 39.7957 29.0783 40.5587 29.6409 41.1214C30.2035 41.684 30.9666 42 31.7622 42H40.7622C41.5579 42 42.3209 41.684 42.8835 41.1214C43.4461 40.5587 43.7622 39.7957 43.7622 39V30C43.7622 29.2044 43.4461 28.4413 42.8835 27.8787C42.3209 27.3161 41.5579 27 40.7622 27H31.7622C30.9666 27 30.2035 27.3161 29.6409 27.8787C29.0783 28.4413 28.7622 29.2044 28.7622 30V33H27.2622C26.4666 33 25.7035 32.684 25.1409 32.1213C24.5783 31.5587 24.2622 30.7957 24.2622 30V18C24.2622 17.2044 24.5783 16.4413 25.1409 15.8787C25.7035 15.3161 26.4666 15 27.2622 15H28.7622V18C28.7622 18.7957 29.0783 19.5587 29.6409 20.1213C30.2035 20.6839 30.9666 21 31.7622 21ZM12.2622 27H6.26221V21H12.2622V27ZM31.7622 30H40.7622V39H31.7622V30ZM31.7622 9H40.7622V18H31.7622V9Z" fill="#353E49"/>
</svg>
