<svg width="56" height="53" viewBox="0 0 56 53" fill="none" xmlns="http://www.w3.org/2000/svg">
<path d="M23.471 51.4848C24.3129 51.5638 25.1429 51.6038 25.9363 51.6038C26.8608 51.604 27.7846 51.5558 28.7039 51.4593C30.8501 51.2319 32.9591 50.7372 34.9814 49.9868C35.0727 50.0658 35.164 50.1458 35.2626 50.2221C37.515 52.0217 40.3177 53.0018 43.2065 53C43.6897 53 44.1726 52.9733 44.6529 52.9201C51.6489 52.1397 56.7056 45.8427 55.9195 38.8816C55.5626 35.6349 53.953 32.6527 51.4298 30.5633C51.7252 28.9937 51.8737 27.4002 51.8736 25.8033C51.8736 12.6832 42.004 1.66513 28.9167 0.17444C27.0367 -0.0449469 25.1382 -0.0574376 23.2555 0.137195C9.99745 1.48981 3.05176e-05 12.5242 3.05176e-05 25.8005C0.00211433 32.2178 2.40704 38.4042 6.7457 43.1529C11.0843 47.9016 17.0455 50.872 23.4664 51.4848H23.471ZM5.81276 40.5131C5.90407 40.4758 6.00359 40.4377 6.09947 40.4013L6.54415 40.2315C6.74868 40.1545 6.95351 40.0788 7.15865 40.0044L7.58415 39.849C7.80147 39.7718 8.01879 39.6964 8.2361 39.621L8.62234 39.4875C8.87496 39.4021 9.12788 39.3185 9.38111 39.2368L9.65504 39.1459C10.002 39.0351 10.3484 38.9279 10.6941 38.8243C10.7471 38.808 10.8001 38.7935 10.8539 38.778C11.1443 38.6917 11.4356 38.6072 11.725 38.5255C11.841 38.4928 11.9551 38.4628 12.0711 38.4346C12.2975 38.3729 12.5276 38.3111 12.7495 38.253L13.1522 38.1503L13.5585 38.0495C13.6005 38.1403 13.6498 38.2402 13.6891 38.3356C13.7429 38.4528 13.7959 38.57 13.8507 38.6881C13.9304 38.857 14.0117 39.026 14.0945 39.195C14.1484 39.3058 14.2004 39.4157 14.2561 39.5256C14.3474 39.7073 14.4451 39.8953 14.541 40.0798C14.5903 40.1706 14.6378 40.2669 14.688 40.3605C14.8231 40.613 14.9619 40.8649 15.1044 41.1162L15.1464 41.1916C15.3046 41.4696 15.4678 41.7476 15.6358 42.0256C15.6823 42.1028 15.7271 42.1791 15.7782 42.2563C15.9006 42.4552 16.0229 42.6542 16.1498 42.8522C16.2138 42.9521 16.2795 43.0521 16.3443 43.1511C16.4585 43.3273 16.5735 43.5026 16.6913 43.677C16.7634 43.7851 16.8383 43.8923 16.9114 43.9995C17.0264 44.1667 17.1427 44.3335 17.2602 44.5001L17.4976 44.8298C17.6193 44.9939 17.7411 45.158 17.8628 45.3222L18.1103 45.6519C18.2353 45.8163 18.3623 45.9798 18.4901 46.1443C18.5741 46.2515 18.6581 46.3596 18.743 46.4667C18.8782 46.6357 19.0148 46.8044 19.153 46.9727C19.2352 47.0736 19.3164 47.1744 19.3995 47.2752C19.5538 47.4569 19.7109 47.644 19.8689 47.8284L20.0825 48.0783C20.3044 48.3344 20.5309 48.5888 20.761 48.844L20.7902 48.8777C21.0337 49.1429 21.279 49.4076 21.5261 49.6716C21.6037 49.7543 21.6832 49.836 21.7617 49.9178C21.9069 50.0704 22.0511 50.2221 22.2 50.372C18.9501 49.8846 15.8291 48.7626 13.0168 47.0706C10.2044 45.3786 7.75608 43.15 5.81276 40.5131ZM13.6525 35.6985L13.5877 35.5168C13.4508 35.1308 13.3211 34.7438 13.2015 34.355C13.186 34.3059 13.1723 34.2569 13.1576 34.2078C13.0359 33.8063 12.9224 33.4033 12.8171 32.9987C12.8107 32.9742 12.8052 32.9497 12.7988 32.9252C12.6947 32.514 12.5998 32.1015 12.5139 31.6879C12.5139 31.6697 12.5057 31.6516 12.5021 31.6334C12.418 31.2237 12.3459 30.8158 12.2811 30.4025C12.2738 30.3562 12.2656 30.3117 12.2583 30.2635C12.198 29.8684 12.1469 29.4714 12.1039 29.0753C12.0976 29.0145 12.0903 28.9536 12.0839 28.8937C12.0443 28.503 12.0139 28.1127 11.9925 27.7227L11.9816 27.5274C11.9615 27.1368 11.9496 26.7459 11.946 26.3547V26.2775H25.4597V35.5623C25.267 35.5623 25.0744 35.5713 24.8817 35.5759C24.6699 35.5804 24.458 35.5841 24.2426 35.5904C23.9595 35.6004 23.6755 35.6149 23.3925 35.6295C23.187 35.6395 22.9816 35.6486 22.7752 35.6613C22.4739 35.6804 22.1726 35.7049 21.8713 35.7294C21.6813 35.7449 21.4932 35.7567 21.3033 35.7748C20.9381 35.8075 20.5729 35.8475 20.2076 35.8893C20.0807 35.9029 19.9538 35.9147 19.8269 35.9293C19.3368 35.9898 18.8465 36.0558 18.3559 36.1273C18.2098 36.1491 18.0637 36.1754 17.9176 36.1981C17.5706 36.2526 17.2236 36.3072 16.8758 36.3689C16.6858 36.4025 16.4959 36.4407 16.306 36.4761C16.0019 36.5333 15.6988 36.5897 15.3929 36.6523C15.1884 36.6941 14.9838 36.7432 14.7793 36.785C14.5748 36.8268 14.3428 36.8758 14.1237 36.9267C14.1109 36.8958 14.0981 36.8649 14.0863 36.8358C13.9329 36.4573 13.7883 36.0782 13.6525 35.6985ZM12.009 24.3162C12.0254 24.0628 12.0492 23.8093 12.0729 23.5559C12.0884 23.386 12.1021 23.2161 12.1213 23.0463C12.1514 22.7737 12.1898 22.5012 12.2281 22.2287C12.2491 22.077 12.2665 21.9262 12.2902 21.7745C12.3423 21.4411 12.4034 21.1077 12.4674 20.7752C12.4856 20.6844 12.4993 20.5936 12.5176 20.5027C12.6034 20.0788 12.6987 19.6549 12.8034 19.231C12.8299 19.1219 12.8627 19.0129 12.8947 18.9048C12.9759 18.5887 13.059 18.269 13.1513 17.9583C13.1978 17.7993 13.2499 17.6403 13.2992 17.4814C13.3804 17.2161 13.4626 16.9509 13.5521 16.6865C13.6105 16.5103 13.6754 16.335 13.7347 16.1587C13.7941 15.9825 13.8635 15.8008 13.9301 15.6228C14.1529 15.6746 14.3757 15.72 14.5985 15.7699C14.804 15.8144 15.0085 15.8608 15.213 15.9044C15.5262 15.9698 15.8403 16.0297 16.1535 16.0861C16.3434 16.1224 16.5324 16.1605 16.7224 16.1951C17.0812 16.2596 17.441 16.3177 17.7998 16.3767C17.9432 16.3995 18.0865 16.4258 18.229 16.4467C18.7305 16.523 19.2318 16.5917 19.7328 16.6529C19.8369 16.6656 19.9401 16.6747 20.0442 16.6865C20.4414 16.7328 20.8377 16.7774 21.2312 16.8137C21.4138 16.8309 21.5964 16.8428 21.779 16.8582C22.0941 16.8845 22.41 16.9109 22.7241 16.9309C22.9295 16.9436 23.135 16.9527 23.3404 16.9627C23.6326 16.9781 23.9248 16.9936 24.217 17.0035C24.4307 17.0108 24.6443 17.0144 24.8562 17.019C25.0543 17.019 25.2543 17.0317 25.4524 17.0335V25.3273H11.9606C11.9661 25.1692 11.9706 25.0111 11.9779 24.8531C11.9862 24.6723 11.9935 24.4943 12.0053 24.3162H12.009ZM28.6382 1.10101L28.7076 1.17187L28.7587 1.22546C28.8044 1.27179 28.85 1.32266 28.9048 1.37808L28.9377 1.4135C28.9806 1.45801 29.029 1.50435 29.071 1.55522L29.1413 1.63061L29.2563 1.75506L29.3394 1.8459C29.3796 1.8886 29.4189 1.9322 29.46 1.97853L29.5513 2.07846L29.6818 2.22471L29.7814 2.33826L29.9156 2.49087L30.027 2.61986L30.1658 2.78065L30.2836 2.91964L30.4297 3.09314L30.552 3.2394L30.7081 3.42835L30.8323 3.58096L30.9949 3.78081L31.1263 3.94523L31.2934 4.15598C31.3373 4.21321 31.3847 4.26953 31.4277 4.32767L31.603 4.55386L31.7372 4.73009L31.9198 4.97172L32.0559 5.15341C32.1189 5.2388 32.1837 5.326 32.2476 5.41412C32.2914 5.47407 32.3389 5.53403 32.38 5.5958C32.4476 5.68664 32.5152 5.78384 32.5836 5.87922L32.7106 6.05636C32.7845 6.16174 32.8594 6.26984 32.9352 6.37703C32.9717 6.43062 33.0082 6.48149 33.0447 6.53509C33.1361 6.66681 33.2274 6.80125 33.3187 6.93751L33.3844 7.0329C33.4989 7.20368 33.6133 7.37718 33.7277 7.55341C33.7396 7.57158 33.7506 7.58975 33.7624 7.60701C33.8647 7.76447 33.967 7.92404 34.0692 8.08574L34.1752 8.25561C34.2537 8.38188 34.3322 8.50724 34.4107 8.63623L34.5367 8.84607C34.608 8.96416 34.6792 9.08226 34.7504 9.20217C34.797 9.28029 34.8417 9.36023 34.8892 9.44017C34.9558 9.55372 35.0225 9.66818 35.0891 9.78446L35.2325 10.0397C35.2964 10.1542 35.3613 10.2686 35.4252 10.3849C35.4736 10.4757 35.5165 10.562 35.5694 10.6511C35.6324 10.7664 35.6945 10.8827 35.7566 11.0008C35.8059 11.0916 35.8543 11.1825 35.9027 11.2788C35.963 11.396 36.0232 11.5122 36.0853 11.6303C36.1346 11.7266 36.183 11.8238 36.2314 11.9219C36.2908 12.0391 36.3483 12.1581 36.4067 12.2771C36.4551 12.3761 36.5026 12.4761 36.5501 12.5769C36.6076 12.6968 36.6642 12.8176 36.7199 12.9402C36.7674 13.0429 36.8112 13.1456 36.8615 13.2482C36.9172 13.3708 36.971 13.4935 37.0258 13.617C37.0715 13.7215 37.1171 13.8269 37.1637 13.9322C37.2167 14.0567 37.2696 14.1829 37.3226 14.3092C37.3673 14.4155 37.4139 14.5218 37.455 14.6299L37.4988 14.7389L36.9509 14.8615C36.7409 14.9069 36.5309 14.9524 36.3218 14.9969C36.0324 15.0568 35.7438 15.1113 35.4553 15.1658C35.2581 15.204 35.0608 15.2431 34.8636 15.2776C34.5477 15.3339 34.2318 15.3839 33.9158 15.4347C33.746 15.462 33.5752 15.492 33.4054 15.5165C32.9872 15.5771 32.5687 15.634 32.1499 15.6873C32.0833 15.6954 32.0166 15.7063 31.949 15.7145C31.4621 15.7751 30.9778 15.8263 30.4963 15.868C30.3475 15.8826 30.1986 15.8917 30.0498 15.9035C29.7156 15.9316 29.3814 15.9589 29.0454 15.9807C28.8573 15.9925 28.6701 15.9998 28.482 16.0098C28.1889 16.0252 27.8949 16.0397 27.6027 16.0497C27.3991 16.057 27.1973 16.0597 26.9946 16.0643C26.7919 16.0688 26.6084 16.0715 26.4157 16.0733V0.956575C27.138 0.971109 27.8831 1.02017 28.6382 1.10101ZM38.6274 17.981C38.7187 18.3008 38.81 18.6169 38.8913 18.9394C38.9187 19.0447 38.9506 19.1501 38.9771 19.2564C39.0836 19.6803 39.1816 20.1042 39.2711 20.5282C39.293 20.6326 39.3104 20.7371 39.3314 20.8416C39.3944 21.1604 39.4565 21.4774 39.514 21.7972C39.5405 21.9544 39.5615 22.1106 39.5852 22.2678C39.6254 22.533 39.6656 22.7992 39.6984 23.0644C39.7194 23.237 39.7359 23.4087 39.7541 23.5813C39.7806 23.8302 39.8071 24.0791 39.8272 24.328C39.8418 24.5097 39.8518 24.6841 39.8628 24.8622C39.8728 25.0166 39.8801 25.1701 39.8865 25.3236H26.4157V17.0308C26.6129 17.0308 26.812 17.0208 27.0101 17.0163C27.2083 17.0117 27.4274 17.0081 27.6365 17.0008C27.9287 16.9917 28.2209 16.9763 28.514 16.9608C28.7149 16.9509 28.9167 16.9427 29.1185 16.9291C29.4317 16.9091 29.7458 16.8836 30.0608 16.8573C30.2434 16.8428 30.4214 16.8309 30.6022 16.8146C30.9958 16.7783 31.3902 16.7347 31.7838 16.6892C31.886 16.6774 31.9883 16.6683 32.0906 16.6556C32.5873 16.5951 33.0843 16.5278 33.5816 16.454C33.7223 16.4322 33.8629 16.4067 34.0035 16.3849C34.3605 16.3286 34.7184 16.2714 35.0755 16.2032C35.2626 16.1696 35.4498 16.1315 35.637 16.0961C35.9484 16.037 36.2597 15.978 36.5711 15.9144C36.7747 15.8726 36.9774 15.8235 37.1801 15.7817C37.4002 15.7336 37.6212 15.6909 37.8412 15.6373C37.91 15.8226 37.9773 16.0073 38.043 16.1914C38.1033 16.3622 38.1654 16.5321 38.2256 16.702C38.3169 16.9745 38.4009 17.247 38.4849 17.5141C38.5306 17.6712 38.5817 17.8266 38.6274 17.981ZM50.5733 29.9047C48.0276 28.1116 44.9064 27.3159 41.8077 27.67C41.4853 27.7055 41.1685 27.7609 40.8507 27.8163C40.8507 27.8027 40.8507 27.789 40.8507 27.7763C40.8507 27.7082 40.8553 27.641 40.8581 27.5728C40.8708 27.1689 40.8757 26.7638 40.8727 26.3574C40.8727 26.331 40.8727 26.3047 40.8727 26.2775H50.9093C50.8859 27.493 50.7736 28.7053 50.5733 29.9047ZM52.4589 47.6241C51.2471 49.1342 49.6797 50.3237 47.8955 51.0872C46.1113 51.8506 44.1653 52.1645 42.23 52.0011C40.2947 51.8376 38.4298 51.2018 36.8005 50.1499C35.1712 49.0981 33.8279 47.6627 32.8894 45.9709C31.9509 44.2792 31.4463 42.3833 31.4204 40.4511C31.3944 38.519 31.8477 36.6103 32.7404 34.8942C33.633 33.178 34.9373 31.7074 36.5377 30.6126C38.1381 29.5177 39.9852 28.8325 41.9154 28.6175C42.3596 28.5679 42.8061 28.543 43.2531 28.543C45.4739 28.5483 47.6483 29.1764 49.5266 30.3552C51.4049 31.5341 52.9111 33.2159 53.8723 35.2077C54.8334 37.1995 55.2107 39.4205 54.9607 41.6159C54.7107 43.8113 53.8436 45.8921 52.4589 47.6195V47.6241ZM30.1037 35.7439C29.7805 35.7176 29.4572 35.6903 29.1349 35.6694C28.9349 35.6567 28.7368 35.6486 28.5368 35.6386C28.2401 35.6231 27.9424 35.6077 27.6456 35.5968C27.4347 35.5895 27.2256 35.5868 27.0156 35.5822C26.8056 35.5777 26.6148 35.5695 26.4157 35.5677V26.2775H39.9148C39.9148 26.3056 39.9148 26.3338 39.9148 26.3619C39.9185 26.7562 39.9136 27.1498 39.9002 27.5429C39.9002 27.611 39.9002 27.6791 39.8929 27.7472C39.8929 27.8435 39.8801 27.9398 39.8756 28.0361C37.921 28.5671 36.1211 29.5521 34.624 30.9103C33.1269 32.2685 31.9754 33.961 31.2642 35.8484C31.0524 35.8266 30.8396 35.8012 30.6251 35.7821C30.4543 35.7657 30.279 35.7539 30.1037 35.7439ZM23.7321 50.5509L23.3386 50.1594C23.2263 50.0468 23.1122 49.935 23.0017 49.8224C22.8419 49.6598 22.6857 49.4963 22.5287 49.3328C22.4328 49.2328 22.3342 49.132 22.2392 49.0321C22.0402 48.8213 21.8466 48.6106 21.653 48.3962C21.6037 48.3417 21.5517 48.2872 21.5024 48.2327C21.2625 47.968 21.0273 47.7028 20.7966 47.4369C20.7153 47.3461 20.6368 47.2489 20.5564 47.1544C20.4076 46.9809 20.2588 46.8065 20.1136 46.6321C20.0223 46.5213 19.931 46.4104 19.8396 46.2996C19.71 46.1415 19.5794 45.9826 19.4534 45.8236C19.3621 45.7055 19.2708 45.5874 19.1795 45.4693C19.0608 45.3167 18.9412 45.1641 18.8252 45.0106C18.7339 44.8889 18.6426 44.7671 18.5513 44.6472C18.4399 44.4964 18.3285 44.3465 18.2198 44.193C18.1285 44.0686 18.0436 43.945 17.9569 43.8206C17.8518 43.6716 17.7459 43.5217 17.6437 43.3718C17.5578 43.2465 17.4747 43.1211 17.3907 42.9948C17.2912 42.8458 17.1926 42.6978 17.0958 42.5479C17.0136 42.4216 16.9333 42.2944 16.8529 42.1673C16.7616 42.0183 16.6703 41.8693 16.579 41.7203C16.5017 41.5932 16.425 41.466 16.3489 41.3388C16.2576 41.1889 16.1718 41.0381 16.085 40.8846C16.012 40.7574 15.9398 40.6312 15.8686 40.504C15.784 40.3532 15.7006 40.2018 15.6184 40.0498C15.5499 39.9226 15.4815 39.7954 15.4148 39.6682C15.3357 39.5168 15.2575 39.3654 15.1801 39.214C15.1162 39.0869 15.0526 38.9597 14.9893 38.8325C14.9144 38.679 14.8414 38.5264 14.7693 38.3729C14.709 38.2466 14.6496 38.1194 14.5921 37.9931C14.5656 37.9341 14.5401 37.8751 14.5136 37.8169C14.6916 37.776 14.8706 37.7361 15.0487 37.6979C15.2495 37.6543 15.4513 37.6071 15.6531 37.5689C15.9407 37.5099 16.2293 37.4554 16.5169 37.4018C16.7114 37.3654 16.9059 37.3273 17.0995 37.2937C17.4072 37.2392 17.7149 37.191 18.0226 37.142C18.1961 37.1147 18.3696 37.0847 18.5431 37.0593C18.9302 37.0021 19.3174 36.9512 19.7045 36.9031C19.7958 36.8913 19.8871 36.8776 19.9839 36.8667C20.4624 36.8092 20.9408 36.7589 21.4193 36.7159C21.5617 36.7023 21.7042 36.6941 21.8475 36.6823C22.1826 36.6542 22.5187 36.6269 22.8519 36.606C23.0345 36.5951 23.2172 36.5878 23.3998 36.5788C23.6947 36.5633 23.9887 36.5479 24.2827 36.5379C24.4791 36.5315 24.6745 36.5288 24.8708 36.5243C25.0671 36.5197 25.2597 36.517 25.4542 36.5152V50.6418C24.8954 50.6336 24.3174 50.6018 23.7321 50.5509ZM26.4157 36.5215C26.6148 36.5215 26.8138 36.527 27.0138 36.5315C27.2138 36.5361 27.4092 36.5388 27.6073 36.5452C27.9068 36.5561 28.2072 36.5715 28.5076 36.5869C28.6902 36.5969 28.8728 36.6042 29.0609 36.616C29.4024 36.6378 29.7448 36.666 30.0863 36.695C30.2315 36.7068 30.3758 36.7159 30.5201 36.7296C30.6643 36.7432 30.8095 36.7613 30.9547 36.7759C30.4871 38.4038 30.3497 40.1079 30.5505 41.7891C30.7513 43.4703 31.2863 45.095 32.1244 46.5685L32.0458 46.6639C31.8961 46.8456 31.7418 47.0227 31.5893 47.2016C31.5153 47.287 31.4441 47.3733 31.3692 47.4587C31.1385 47.7234 30.9032 47.9865 30.6634 48.2481C30.6406 48.2736 30.6159 48.2981 30.5931 48.3235C30.3746 48.5603 30.153 48.7968 29.9284 49.033C29.8453 49.1238 29.7585 49.2065 29.6736 49.2937C29.5065 49.4663 29.3385 49.6389 29.1678 49.8106C29.0646 49.9132 28.9596 50.015 28.8555 50.1176C28.7176 50.253 28.5816 50.3902 28.4391 50.5246C27.7616 50.5918 27.0841 50.6318 26.4175 50.6454L26.4157 36.5215ZM30.3895 49.9278C30.4808 49.8369 30.5721 49.7461 30.6588 49.6553C30.8549 49.4493 31.0484 49.2422 31.2396 49.0339C31.2889 48.9803 31.34 48.9276 31.3893 48.874C31.6285 48.6124 31.8629 48.3502 32.0924 48.0873C32.1545 48.0165 32.2138 47.9456 32.275 47.8748C32.4028 47.7258 32.5316 47.5777 32.6576 47.4278C33.1063 48.0837 33.6163 48.6959 34.1806 49.2565C32.8244 49.7318 31.4291 50.0886 30.0105 50.3229C30.1393 50.1876 30.2635 50.0577 30.3895 49.9278ZM50.9093 25.3236H40.8489C40.8416 25.1565 40.8261 24.9884 40.8161 24.8213C40.8051 24.6396 40.7951 24.4579 40.7804 24.2762C40.7594 24.0155 40.7321 23.7539 40.7037 23.4923C40.6855 23.3206 40.6709 23.1498 40.649 22.979C40.6133 22.6865 40.5686 22.3931 40.5248 22.0988C40.5029 21.9589 40.4855 21.819 40.4618 21.6782C40.3906 21.2452 40.3099 20.8116 40.2198 20.3774C40.207 20.3201 40.1924 20.262 40.1796 20.2048C40.0993 19.8269 40.0119 19.449 39.9176 19.0711C39.8801 18.9185 39.8354 18.7659 39.7952 18.6169C39.7194 18.3335 39.6436 18.05 39.5606 17.7657C39.5094 17.5913 39.4528 17.416 39.3989 17.2416C39.3177 16.9799 39.2355 16.7183 39.1478 16.4567C39.0857 16.275 39.02 16.0933 38.9552 15.9053C38.8977 15.7427 38.8447 15.5801 38.7853 15.4175C41.635 14.6989 44.4309 13.7841 47.1529 12.6795C49.53 16.4793 50.8281 20.8487 50.9093 25.3236ZM46.6178 11.8602C43.9555 12.9317 41.2219 13.8189 38.4365 14.5154C38.421 14.4773 38.4046 14.44 38.3881 14.4019C38.2494 14.0549 38.1066 13.713 37.9599 13.3763C37.9407 13.3318 37.9206 13.2854 37.9015 13.2446C37.7645 12.9345 37.6251 12.629 37.4833 12.328C37.4541 12.2653 37.4248 12.2008 37.392 12.1381C37.2395 11.8175 37.0833 11.5022 36.9263 11.1916L36.8222 10.9908C36.6706 10.6959 36.5184 10.4055 36.3657 10.1197L36.3246 10.0433C36.1602 9.74055 35.9943 9.44562 35.8269 9.15856L35.7101 8.95599C35.5457 8.67438 35.3807 8.39823 35.2152 8.12752L35.133 7.99399C34.9826 7.75175 34.8326 7.51375 34.6828 7.27998C34.649 7.22639 34.6153 7.17279 34.5806 7.1201C34.4171 6.86666 34.2528 6.61957 34.0902 6.37884L33.9724 6.20534C33.8178 5.97824 33.6641 5.75628 33.5113 5.53948L33.4693 5.47952C33.3059 5.2497 33.1461 5.02532 32.9872 4.81275L32.8685 4.65197C32.7142 4.44394 32.5626 4.24137 32.412 4.04606L32.328 3.93796C32.1937 3.76355 32.0623 3.59549 31.9326 3.43198L31.8413 3.32025C31.6988 3.13856 31.561 2.97142 31.4258 2.807L31.3263 2.68709C31.1976 2.53084 31.0706 2.38005 30.9492 2.23289L30.9255 2.20382C30.7967 2.05302 30.6744 1.91222 30.5602 1.77686L30.479 1.68602C30.3648 1.55703 30.2562 1.4344 30.1539 1.32266L30.1402 1.30722C33.4621 1.86556 36.6355 3.0887 39.4684 4.90261C42.3013 6.71651 44.7347 9.08346 46.6215 11.8602H46.6178ZM25.457 16.0706C25.2579 16.0706 25.0589 16.0676 24.8598 16.0615C24.6598 16.057 24.459 16.0543 24.2581 16.047C23.9595 16.037 23.6591 16.0216 23.3596 16.0052C23.177 15.9952 22.988 15.988 22.8017 15.9761C22.4584 15.9543 22.1141 15.9262 21.7708 15.8971C21.6266 15.8853 21.4841 15.8762 21.3399 15.8626C20.8513 15.8172 20.361 15.7654 19.8716 15.7054C19.8086 15.6982 19.7465 15.6882 19.6835 15.6809C19.2574 15.627 18.8313 15.5683 18.4052 15.5047C18.2381 15.4802 18.0701 15.4502 17.903 15.4229C17.5797 15.3711 17.2565 15.3194 16.9333 15.2612C16.7388 15.2267 16.5443 15.1876 16.3498 15.1504C16.054 15.0941 15.7572 15.0378 15.4605 14.976C15.255 14.9333 15.0487 14.8851 14.8432 14.8415C14.6545 14.7998 14.4661 14.7571 14.278 14.7135C14.2926 14.6771 14.3063 14.6408 14.3218 14.6054C14.3693 14.4891 14.4177 14.3746 14.4661 14.2602C14.5145 14.1457 14.5684 14.0185 14.6204 13.8968C14.6725 13.7751 14.7199 13.6697 14.7702 13.5571C14.8204 13.4444 14.8761 13.3218 14.93 13.2055C14.9838 13.0892 15.0331 12.9839 15.0852 12.873C15.1372 12.7622 15.1938 12.6441 15.2495 12.5306C15.3052 12.417 15.3555 12.3125 15.4093 12.2044L15.5764 11.8711C15.6312 11.7639 15.686 11.6576 15.7408 11.5522C15.7974 11.4432 15.8549 11.3351 15.9124 11.227C15.97 11.1189 16.0229 11.019 16.0795 10.9163C16.1361 10.8137 16.1955 10.7056 16.253 10.6002L16.4238 10.2959C16.4822 10.1932 16.5406 10.0915 16.6 9.98975C16.6593 9.88801 16.7141 9.79172 16.7726 9.69361C16.831 9.59551 16.8922 9.49286 16.9552 9.39293L17.1259 9.10951L17.3086 8.81337C17.3652 8.72253 17.4218 8.63169 17.4793 8.54085C17.5368 8.45001 17.6017 8.35008 17.6619 8.25561C17.7222 8.16113 17.777 8.07393 17.8345 7.98945C17.892 7.90496 17.9587 7.80232 18.0217 7.70875C18.0847 7.61518 18.134 7.53979 18.1897 7.45803C18.2609 7.35175 18.333 7.2491 18.4043 7.14645C18.509 6.99505 18.6137 6.84546 18.7184 6.69769C18.775 6.61866 18.8316 6.53782 18.8882 6.45969C18.9448 6.38157 19.0106 6.29164 19.0708 6.20716L19.2352 5.98278L19.4178 5.73751L19.5785 5.52403L19.7611 5.2933L19.9236 5.08346L20.099 4.86181L20.2542 4.6665L20.4286 4.45121L20.5792 4.26953L20.7482 4.06605L20.8933 3.89254L21.0614 3.69451L21.1983 3.53463C21.2531 3.47013 21.3079 3.40745 21.3618 3.34659L21.4914 3.19761L21.6494 3.01593L21.7727 2.87785C21.8247 2.82153 21.8749 2.7643 21.9251 2.7098L22.0393 2.58444L22.1872 2.42456L22.2913 2.31192L22.4328 2.16203L22.5241 2.06301C22.5698 2.01487 22.6154 1.96581 22.6611 1.92039C22.6867 1.89314 22.7122 1.86771 22.7378 1.84136L22.8738 1.70056C22.8921 1.6833 22.9076 1.66695 22.925 1.64878L23.0692 1.50344C23.2455 1.3263 23.3952 1.18095 23.513 1.06922C24.1567 1.00745 24.8078 0.970202 25.4551 0.957484L25.457 16.0706ZM21.9644 1.26362L21.9544 1.27452C21.8457 1.38716 21.7297 1.50979 21.6092 1.63788C21.5818 1.66604 21.5553 1.69511 21.5279 1.72872C21.4019 1.86407 21.2714 2.00124 21.1353 2.15658L21.1034 2.19201C20.9728 2.33644 20.8377 2.48905 20.6989 2.64621L20.6203 2.73705C20.473 2.90541 20.3208 3.08133 20.1638 3.26483C20.1373 3.29572 20.1108 3.32751 20.0853 3.35567C19.9337 3.53735 19.7794 3.72449 19.6223 3.91707C19.6095 3.9316 19.5986 3.94614 19.5858 3.96158C19.4214 4.16506 19.2534 4.37763 19.0836 4.59746L18.9868 4.72282C18.8142 4.94629 18.6398 5.17702 18.4636 5.41321L18.4335 5.45409C18.2646 5.6821 18.0938 5.91828 17.9231 6.15901C17.8929 6.20171 17.8628 6.24258 17.8318 6.28619C17.6552 6.53509 17.4787 6.79096 17.3022 7.05379L17.2109 7.18823C17.041 7.44259 16.8712 7.70209 16.7014 7.96674L16.6557 8.0385C16.4773 8.31829 16.3005 8.60474 16.1252 8.89785L16.0193 9.07317C15.843 9.37022 15.6668 9.6709 15.4933 9.98158L15.455 10.0506C15.2915 10.3422 15.1299 10.6411 14.9711 10.9436L14.8797 11.1253C14.7154 11.4414 14.5535 11.7633 14.394 12.0909C14.3638 12.1518 14.3346 12.2144 14.3027 12.2726C14.1541 12.5832 14.0083 12.8979 13.8653 13.2164C13.8479 13.2555 13.8297 13.2936 13.8133 13.3318C13.6617 13.6733 13.5156 14.0213 13.3731 14.3728C13.3567 14.4128 13.3394 14.4509 13.3229 14.49C10.5665 13.7968 7.86113 12.9166 5.22564 11.8556C7.13509 9.04121 9.60677 6.64826 12.4866 4.82593C15.3665 3.00361 18.5928 1.79097 21.9644 1.26362ZM4.6997 12.6705C7.39477 13.7643 10.1622 14.6727 12.9823 15.3893C12.9221 15.551 12.8691 15.7127 12.8125 15.8744C12.7468 16.0561 12.681 16.2378 12.6198 16.4249C12.5285 16.6865 12.4509 16.9472 12.3706 17.2088C12.3167 17.3842 12.2601 17.5586 12.2099 17.7339C12.1277 18.0173 12.0528 18.3017 11.9789 18.586C11.9396 18.7377 11.8958 18.8903 11.8583 19.0402C11.767 19.4226 11.6803 19.8051 11.6017 20.1884C11.5899 20.242 11.5762 20.2956 11.5661 20.3492C11.4785 20.7846 11.4012 21.2201 11.3342 21.6555C11.3123 21.7954 11.2968 21.9362 11.2767 22.0761C11.2356 22.3713 11.1945 22.6674 11.1616 22.9627C11.1425 23.1344 11.1297 23.3061 11.1132 23.4777C11.0886 23.7412 11.0648 24.0046 11.0475 24.2681C11.0356 24.4497 11.0283 24.6314 11.0201 24.8131C11.0119 24.9812 10.9991 25.1492 10.9945 25.3173H0.963339C1.04062 20.8437 2.33158 16.4741 4.6997 12.6705ZM10.9836 26.2784C10.9836 26.3047 10.9836 26.331 10.9836 26.3574C10.9872 26.7589 10.9991 27.1601 11.0192 27.561L11.0302 27.7545C11.0539 28.1578 11.0849 28.5594 11.1215 28.9618C11.1269 29.0181 11.1342 29.0753 11.1397 29.1317C11.1845 29.5441 11.2356 29.9565 11.2986 30.368C11.3032 30.4016 11.3096 30.4352 11.3141 30.4679C11.3841 30.8967 11.4614 31.323 11.5461 31.747L11.5515 31.7715C11.6364 32.193 11.7341 32.6136 11.8373 33.0333C11.8492 33.0787 11.8602 33.1241 11.872 33.1722C11.9734 33.5729 12.0857 33.9725 12.2044 34.3713C12.2226 34.4331 12.2409 34.4949 12.2601 34.553C12.3818 34.9448 12.5103 35.3358 12.6454 35.7258L12.7139 35.9184C12.8533 36.3102 13.0018 36.7005 13.1595 37.0893C13.1677 37.1102 13.175 37.132 13.1832 37.1529C13.08 37.1783 12.9759 37.2065 12.8728 37.2328L12.4427 37.3436C12.2336 37.3981 12.0245 37.4554 11.8154 37.5126L11.3908 37.6289C11.1726 37.6907 10.9544 37.7551 10.7361 37.8187L10.3389 37.9359C10.0933 38.0095 9.84862 38.0867 9.603 38.1639C9.49708 38.1975 9.39116 38.2293 9.28433 38.2639C8.93187 38.3765 8.57881 38.4931 8.22514 38.6136L8.15118 38.639C7.82369 38.7511 7.49558 38.8661 7.16687 38.9842C7.04999 39.026 6.93312 39.0751 6.81533 39.1132C6.57976 39.1995 6.34418 39.2858 6.1086 39.3748L5.69132 39.5356C5.54157 39.5938 5.39091 39.6501 5.24116 39.7091C2.53383 35.7405 1.04732 31.0731 0.963339 26.2775L10.9836 26.2784Z" fill="#1E2329"/>
<path d="M42.1373 30.5887C40.2077 30.8035 38.3855 31.5829 36.9011 32.8281C35.4168 34.0733 34.3369 35.7285 33.7982 37.5844C33.2594 39.4402 33.2859 41.4133 33.8744 43.2541C34.4628 45.0949 35.5867 46.7208 37.104 47.9261C38.6213 49.1314 40.4638 49.862 42.3984 50.0255C44.3331 50.189 46.2731 49.7781 47.973 48.8446C49.6728 47.9112 51.0563 46.4972 51.9484 44.7815C52.8405 43.0658 53.2012 41.1254 52.9848 39.2058C52.6921 36.6332 51.3856 34.2812 49.352 32.6657C47.3184 31.0503 44.7238 30.3033 42.1373 30.5887ZM50.1515 45.7917C48.8728 47.3847 47.0785 48.4873 45.0743 48.9117C43.0701 49.336 40.98 49.0559 39.1601 48.1191C37.3403 47.1822 35.9032 45.6465 35.0938 43.7737C34.2844 41.9009 34.1528 39.8069 34.7213 37.8483C35.2898 35.8898 36.5234 34.188 38.2118 33.0328C39.9001 31.8777 41.9389 31.3407 43.9806 31.5133C46.0223 31.6859 47.9407 32.5575 49.4089 33.9796C50.8771 35.4017 51.8043 37.2862 52.0324 39.3121C52.1649 40.4622 52.0668 41.627 51.744 42.7392C51.4211 43.8514 50.8798 44.8889 50.1515 45.7917Z" fill="#1E2329"/>
<path d="M46.5676 40.0362C47.0464 39.5463 47.3143 38.89 47.3145 38.2067V38.1631C47.3145 37.4644 47.0355 36.7943 46.5389 36.3003C46.0423 35.8062 45.3688 35.5287 44.6665 35.5287H44.5451V33.8808C44.5451 33.7544 44.4946 33.6331 44.4047 33.5436C44.3148 33.4542 44.1929 33.4039 44.0657 33.4039C43.9386 33.4039 43.8167 33.4542 43.7268 33.5436C43.6369 33.6331 43.5864 33.7544 43.5864 33.8808V35.5305H41.9611V33.8808C41.9611 33.7544 41.9106 33.6331 41.8207 33.5436C41.7308 33.4542 41.6088 33.4039 41.4817 33.4039C41.3545 33.4039 41.2326 33.4542 41.1427 33.5436C41.0528 33.6331 41.0023 33.7544 41.0023 33.8808V35.5305H39.6966C39.5695 35.5305 39.4475 35.5808 39.3576 35.6702C39.2677 35.7596 39.2172 35.8809 39.2172 36.0074C39.2172 36.1339 39.2677 36.2552 39.3576 36.3446C39.4475 36.4341 39.5695 36.4843 39.6966 36.4843H41.0069V44.3956H39.6966C39.5695 44.3956 39.4475 44.4459 39.3576 44.5353C39.2677 44.6248 39.2172 44.7461 39.2172 44.8725C39.2172 44.999 39.2677 45.1203 39.3576 45.2098C39.4475 45.2992 39.5695 45.3495 39.6966 45.3495H41.0069V46.7057C41.0069 46.8322 41.0574 46.9535 41.1473 47.0429C41.2372 47.1324 41.3591 47.1826 41.4862 47.1826C41.6134 47.1826 41.7353 47.1324 41.8252 47.0429C41.9151 46.9535 41.9656 46.8322 41.9656 46.7057V45.3495H43.5909V46.7057C43.5909 46.8322 43.6414 46.9535 43.7313 47.0429C43.8212 47.1324 43.9432 47.1826 44.0703 47.1826C44.1974 47.1826 44.3194 47.1324 44.4093 47.0429C44.4992 46.9535 44.5497 46.8322 44.5497 46.7057V45.3495H45.6956C46.3979 45.3495 47.0714 45.0719 47.568 44.5779C48.0646 44.0838 48.3436 43.4138 48.3436 42.7151V42.517C48.3422 41.9715 48.1706 41.4398 47.8525 40.9954C47.5343 40.551 47.0854 40.2159 46.5676 40.0362ZM44.6675 36.4843C45.115 36.4846 45.5441 36.6615 45.8607 36.9762C46.1772 37.291 46.3553 37.7178 46.3558 38.1631V38.2067C46.3553 38.652 46.1772 39.0789 45.8607 39.3938C45.5442 39.7087 45.1151 39.8858 44.6675 39.8863H41.962V36.4843H44.6675ZM47.3839 42.7169C47.3834 43.1621 47.2054 43.589 46.8888 43.9037C46.5723 44.2185 46.1431 44.3954 45.6956 44.3956H41.962V40.8401H45.6956C46.1431 40.8404 46.5723 41.0173 46.8888 41.332C47.2054 41.6468 47.3834 42.0736 47.3839 42.5189V42.7169Z" fill="#1E2329"/>
</svg>
